<?xml version="1.0" encoding="UTF-8"?>
<svg width="235px" height="152px" viewBox="0 0 235 152" version="1.1" xmlns="http://www.w3.org/2000/svg" xmlns:xlink="http://www.w3.org/1999/xlink">
    <title>chickpea-soup</title>
    <g id="chickpea-soup" stroke="none" stroke-width="1" fill="none" fill-rule="evenodd">
        <g id="1357800" transform="translate(14.000000, 14.000000)" fill="#424141" fill-rule="nonzero">
            <path d="M15.9713085,71.6493055 C15.9713085,72.7512793 15.0776681,73.6449195 13.9747808,73.6449195 C12.872807,73.6449195 11.9782529,72.7512793 11.9782529,71.6493055 C11.9782529,70.5464182 12.872807,69.6527778 13.9747808,69.6527778 C15.0776681,69.6527778 15.9713085,70.5464182 15.9713085,71.6493055 L15.9713085,71.6493055 Z" id="Path"></path>
            <path d="M59.8848683,29.7304458 C50.1854898,29.6929825 40.5025586,30.5308844 30.9539474,32.2341008 C27.4168494,25.337171 21.4025951,12.2733918 19.0990498,6.41812865 C18.9473684,6.0142545 18.7691885,5.61951766 18.5654241,5.23848678 C15.9722222,0.415752982 9.96801895,-1.40350877 5.13432023,1.16867696 C0.358187135,3.82858199 -1.38888889,9.83552632 1.21527766,14.6427265 C1.40990503,15.0100512 1.63377193,15.3618421 1.88413754,15.6944444 C4.81451018,19.8282164 10.9804458,29.6792763 14.9945174,36.5752924 C5.17635228,40.3545322 0.00182748538,45.2083333 0.00182748538,50.6898758 C-0.00365497076,50.8689694 0.00274123977,51.0489766 0.0219298246,51.2271565 C0.233918129,74.630848 15.2704678,93.0729167 37.9276316,100.286915 L37.9276316,105.582968 C37.9276316,111.139437 54.7350147,111.570724 59.8848683,111.570724 C65.0347223,111.570724 81.8421053,111.139437 81.8421053,105.582968 L81.8421053,100.288743 C104.498355,93.082968 119.534905,74.6747076 119.735928,51.4245249 C119.760599,51.1805556 119.771564,50.9347588 119.768596,50.6898758 C119.768596,37.0769371 88.9144737,29.7304458 59.8848683,29.7304458 Z M4.73501474,12.7640716 C3.15149848,9.89126456 4.18311392,6.27923977 7.04404234,4.67562129 C9.93512421,3.15423977 13.5124269,4.25347228 15.0484283,7.13724421 C15.1717836,7.36567977 15.2786915,7.60233918 15.3700657,7.84539462 C17.8792033,14.215095 24.6600877,28.8907163 28.1094664,35.4139254 L28.2127193,35.6131214 C28.3104898,35.798611 28.412829,35.9850147 28.4685673,36.0782164 L30.582054,39.9744152 C27.7978802,39.9671053 25.0767544,40.8022662 22.7759504,42.3702484 L20.8077485,38.7134503 C20.4742325,38.0884503 20.081323,37.3821273 19.6436402,36.6529605 C16.1101974,30.4057018 8.72532889,18.4429825 5.10233918,13.3287647 C4.96436398,13.1514985 4.84100865,12.9623537 4.73501474,12.7640716 Z M44.6564327,42.4040571 C45.419408,42.3263888 46.1997441,42.2660819 46.9901315,42.2048611 C47.9879387,42.1226243 48.9446271,42.0604898 49.8848683,42.0047513 C48.5690788,44.0588449 47.1737939,45.2330044 41.0179092,42.8353436 C42.2258772,42.6800073 43.4173977,42.5155336 44.6564327,42.3958335 L44.6564327,42.4040571 Z M103.248355,52.4122807 C102.748538,50.8177998 101.983735,49.3192618 100.985015,47.9788012 C102.888341,48.6924342 104.717654,49.5897296 106.446455,50.6578947 C105.425804,51.3194444 104.356725,51.9033261 103.248355,52.4049708 L103.248355,52.4122807 Z M83.3452119,43.455775 L82.287098,43.9053361 C80.2887427,44.9378655 78.0985015,45.5482456 75.8543495,45.699927 C73.5206505,45.699927 72.8435673,44.7012061 71.5387427,42.4616229 C71.4702119,42.3437499 71.3943715,42.2185673 71.3230994,42.0988669 C71.793677,42.1189694 72.2605993,42.1482091 72.7622442,42.2002924 C76.6164108,42.5054826 80.1315789,42.9367691 83.3452119,43.448465 L83.3452119,43.455775 Z M65.6478435,41.2600512 L65.6761696,41.2865497 L65.6898758,41.2984283 C65.7255116,41.3358919 65.7638889,41.3724416 65.8031799,41.4062501 C66.7361111,42.290753 67.5091373,43.3296784 68.0875366,44.4782529 C69.4407895,46.7955043 71.1248173,49.6920688 75.8543495,49.6920688 C78.6421782,49.548611 81.3697004,48.8249268 83.8623904,47.5657895 C86.754386,46.3240131 89.2516447,45.252193 92.2962353,46.1906068 C95.8159722,47.4625366 98.5197368,50.3362573 99.5732821,53.927266 C93.8843202,56.0096856 80.9000365,59.6719663 59.8848683,59.6719663 C38.2410454,59.6719663 25.1407163,55.8662281 19.286367,53.6165937 C20.372807,50.6048978 22.2377558,47.9349415 24.6920688,45.8790204 L24.7560306,45.8296784 C26.9471857,44.2525586 29.6783626,43.6165937 32.3410087,44.0652412 L32.415022,44.0652412 C34.0387427,44.3375366 35.6186037,44.8273027 37.1116594,45.5199195 C48.2437867,50.4641813 51.0846126,47.6653874 53.6513158,43.4859284 C54.1054458,42.669956 54.6555191,41.9115497 55.2905703,41.2262428 C56.5350877,40.088633 58.207237,39.5367324 59.8848683,39.7112573 C61.9270833,39.5321637 63.9674709,40.0767544 65.6478435,41.25 L65.6478435,41.2600512 Z M15.6295687,52.0074926 C14.8318713,51.6100145 14.0597588,51.165022 13.3159722,50.674342 C14.5732821,49.8784723 15.8945542,49.1876828 17.2642545,48.6083698 C16.6438232,49.7030337 16.0974049,50.8388159 15.6295687,52.0074926 Z M16.9965277,40.084978 C17.0888159,40.2503654 17.2066887,40.4477338 17.290753,40.6039839 L18.952851,43.6659357 C13.962902,45.4623537 10.2403144,47.5018274 8.69700304,49.3868786 C8.09576023,50.1215277 8.09576023,51.178728 8.69700304,51.9133773 C10.7684575,53.9537647 13.2410454,55.5409357 15.958516,56.5743787 C20.8854166,58.7061404 35.035636,63.6641081 59.8848683,63.6641081 C82.7686405,63.6641081 96.4254386,59.534905 102.527412,57.0778508 C105.687135,55.9777048 108.583699,54.2351974 111.037098,51.9618056 C111.673977,51.2271565 111.68951,50.1407163 111.072734,49.3887062 C108.305007,46.0133406 95.5391083,40.0063963 73.1313963,38.2282529 C72.5328947,38.164291 71.8996711,38.1222587 71.334978,38.1021565 L70.7355628,38.0601242 C70.2649853,38.0290571 69.7898391,37.9943347 69.4508407,37.9888524 C69.051535,37.9486477 68.6357822,37.9267179 68.2364767,37.9066154 L67.9532164,37.9066154 C67.8737207,37.9066154 67.8033626,37.9066154 67.7275219,37.8947368 C65.4102704,36.3569078 62.66356,35.5948465 59.8848683,35.7191156 C57.4762428,35.6176901 55.1087354,36.3660454 53.1962718,37.8326023 C51.1083698,37.9111841 48.9747808,38.032712 46.6831139,38.2200292 C45.8644005,38.2803364 45.0484283,38.3424706 44.2616959,38.4201389 L44.2498173,38.4201389 C41.0361843,38.7289839 37.9523027,39.168494 34.9634503,39.6692253 L32.9376828,35.9283626 C41.8411916,34.4298246 50.8561768,33.6924342 59.8848683,33.7225876 C92.8207237,33.7225876 115.775767,42.66356 115.775767,50.6898758 C115.779422,50.8077485 115.774854,50.9256213 115.763889,51.0434943 C115.67617,51.9618056 115.344481,52.8399123 114.803545,53.5882676 C109.552266,61.6081871 85.9420688,67.6571637 59.8848683,67.6571637 C33.8276681,67.6571637 10.2183846,61.6081871 4.94883041,53.5599415 C4.40606737,52.8051902 4.07712,51.9188596 3.99396936,50.9932384 C3.98848678,50.8918129 3.98848678,50.7913011 3.99396936,50.6898758 C3.99396936,47.0614035 8.82309942,43.1487574 16.9965277,40.084978 Z M77.8499635,105.113304 C76.452851,106.033443 70.1827485,107.578582 59.8848683,107.578582 C49.5869883,107.578582 43.3177998,106.033443 41.9197733,105.113304 L41.9197733,101.427266 C53.7235015,104.305556 66.0462353,104.305556 77.8499635,101.427266 L77.8499635,105.113304 Z M59.8848683,99.5942982 C30.9576023,99.5942982 9.03417404,83.0802267 4.76516819,59.1675804 C13.8550805,66.658443 35.2549343,71.6493055 59.8848683,71.6493055 C84.5148026,71.6493055 105.96674,66.658443 115.025585,59.1611841 C110.831506,83.0107822 88.874269,99.5942982 59.8848683,99.5942982 Z" id="Shape"></path>
            <path d="M33.9354898,49.6920688 C33.9354898,50.7940423 33.0418494,51.6876828 31.9398758,51.6876828 C30.8369883,51.6876828 29.9433478,50.7940423 29.9433478,49.6920688 C29.9433478,48.5891813 30.8369883,47.6955411 31.9398758,47.6955411 C33.0418494,47.6955411 33.9354898,48.5891813 33.9354898,49.6920688 Z" id="Path"></path>
            <path d="M65.873538,49.6920688 C65.873538,50.7940423 64.9798975,51.6876828 63.8770103,51.6876828 C62.7750365,51.6876828 61.8813963,50.7940423 61.8813963,49.6920688 C61.8813963,48.5891813 62.7750365,47.6955411 63.8770103,47.6955411 C64.9798975,47.6955411 65.873538,48.5891813 65.873538,49.6920688 Z" id="Path"></path>
            <path d="M75.8543495,53.6842105 C75.8543495,54.7861843 74.960709,55.6798246 73.8578218,55.6798246 C72.755848,55.6798246 71.8612938,54.7861843 71.8612938,53.6842105 C71.8612938,52.581323 72.755848,51.6876828 73.8578218,51.6876828 C74.960709,51.6876828 75.8543495,52.581323 75.8543495,53.6842105 L75.8543495,53.6842105 Z" id="Path"></path>
            <path d="M57.8892543,51.6876828 C57.8892543,52.7905703 56.995614,53.6842105 55.8927265,53.6842105 C54.790753,53.6842105 53.8971125,52.7905703 53.8971125,51.6876828 C53.8971125,50.585709 54.790753,49.6920688 55.8927265,49.6920688 C56.995614,49.6920688 57.8892543,50.585709 57.8892543,51.6876828 Z" id="Path"></path>
            <path d="M89.8263888,51.6876828 C89.8263888,52.7905703 88.9327485,53.6842105 87.8307747,53.6842105 C86.7278875,53.6842105 85.834247,52.7905703 85.834247,51.6876828 C85.834247,50.585709 86.7278875,49.6920688 87.8307747,49.6920688 C88.9327485,49.6920688 89.8263888,50.585709 89.8263888,51.6876828 L89.8263888,51.6876828 Z" id="Path"></path>
            <path d="M52.1838451,91.630117 C35.7227705,89.2708332 25.7255116,82.0166302 20.2467106,76.3477705 C19.4800805,75.5528143 18.213633,75.5299708 17.418677,76.2966009 C16.6246344,77.0632309 16.6017909,78.3296784 17.3684211,79.1246344 C23.28856,85.2421418 34.0360014,93.0610381 51.6154971,95.582054 C52.3209064,95.6834795 53.0281432,95.4002194 53.4685673,94.8391813 C53.9089913,94.2790571 54.0168129,93.5252192 53.7518274,92.8636697 C53.4868421,92.2012061 52.8883406,91.7315425 52.1820175,91.630117 L52.1838451,91.630117 Z" id="Path"></path>
        </g>
        <g id="Group-4-Copy" transform="translate(114.000000, 42.000000)" fill="#424141" fill-rule="nonzero">
            <path d="M20.2768855,57.0889988 C21.3305657,56.75759 22.4534022,57.3431067 22.784811,58.3967869 L22.9757819,58.9877183 C23.0077309,59.0838157 23.0397543,59.1787286 23.0718733,59.2724741 L23.2659049,59.8210717 L23.4632508,60.3424589 C23.5629222,60.5964849 23.6642187,60.8406106 23.7677134,61.0752915 L23.9778038,61.5321953 C25.2224105,64.1255819 26.818246,65.4747556 29.6756067,66.3029709 L30.1779677,66.4399823 C30.2638107,66.462012 30.3507261,66.4836501 30.4387349,66.5049136 L30.9800801,66.6281335 L31.5486886,66.7431711 C31.6457852,66.7617071 31.7440603,66.779936 31.8435351,66.7978745 L32.4549495,66.9021569 C32.5593078,66.9190017 32.6649083,66.9355898 32.7717721,66.9519383 L33.4282854,67.0472873 C33.5402876,67.0627444 33.6535956,67.0779955 33.7682307,67.0930574 L34.4721358,67.181295 C34.5921641,67.195668 34.7135619,67.2098857 34.8363504,67.2239648 L35.5899403,67.3069127 L38.8577743,67.642127 L39.1601998,67.6749249 C40.4445682,67.815497 41.586399,67.957922 42.7240909,68.1243673 C43.8170258,68.2842645 44.5734023,69.2998856 44.413505,70.3928205 C44.2536078,71.4857554 43.2379866,72.2421318 42.1450518,72.0822346 C41.2406718,71.9499231 40.3293496,71.8329995 39.3333719,71.7191901 L37.810756,71.5537859 L35.1084321,71.2785642 L34.2227671,71.1822002 L33.3933084,71.0847696 L32.616257,70.985041 C32.4909046,70.9681596 32.3675776,70.9511312 32.2461968,70.93393 L31.5406329,70.8284452 L30.8779785,70.7175836 L30.2544345,70.6001138 C28.3377931,70.2163627 26.9522925,69.7146882 25.5550574,68.919115 C22.5128784,67.1869255 20.4370249,64.2640491 18.9690974,59.5969243 C18.6376886,58.5432441 19.2232053,57.4204076 20.2768855,57.0889988 Z" id="Path-3" transform="translate(31.655627, 64.549942) rotate(147.000000) translate(-31.655627, -64.549942) "></path>
            <path d="M65.8356124,66.0774441 C66.8892927,65.7460353 68.0121291,66.331552 68.3435379,67.3852322 L68.5345089,67.9761636 C68.5664578,68.072261 68.5984812,68.1671739 68.6306003,68.2609194 L68.8246319,68.809517 L69.0219778,69.3309043 C69.1216492,69.5849302 69.2229457,69.8290559 69.3264404,70.0637369 L69.5365308,70.5206406 C70.7811375,73.1140272 72.376973,74.4632009 75.2343337,75.2914162 L75.7366946,75.4284276 C75.8225377,75.4504573 75.909453,75.4720954 75.9974619,75.4933589 L76.538807,75.6165788 L77.1074156,75.7316164 C77.2045122,75.7501524 77.3027873,75.7683813 77.402262,75.7863198 L78.0136764,75.8906022 C78.1180348,75.907447 78.2236353,75.9240351 78.3304991,75.9403836 L78.9870123,76.0357326 C79.0990146,76.0511897 79.2123226,76.0664408 79.3269577,76.0815028 L80.0308628,76.1697403 C80.1508911,76.1841133 80.2722888,76.198331 80.3950773,76.2124101 L81.1486673,76.295358 L84.4165012,76.6305723 L84.7189268,76.6633702 C86.0032951,76.8039423 87.145126,76.9463673 88.2828179,77.1128126 C89.3757528,77.2727098 90.1321292,78.2883309 89.972232,79.3812658 C89.8123347,80.4742007 88.7967136,81.2305771 87.7037787,81.0706799 C86.7993988,80.9383684 85.8880765,80.8214448 84.8920989,80.7076355 L83.369483,80.5422312 L80.6671591,80.2670095 L79.7814941,80.1706455 L78.9520354,80.0732149 L78.1749839,79.9734863 C78.0496316,79.9566049 77.9263046,79.9395765 77.8049237,79.9223754 L77.0993598,79.8168906 L76.4367054,79.706029 L75.8131614,79.5885591 C73.8965201,79.204808 72.5110195,78.7031335 71.1137843,77.9075603 C68.0716053,76.1753708 65.9957518,73.2524944 64.5278243,68.5853696 C64.1964155,67.5316894 64.7819322,66.4088529 65.8356124,66.0774441 Z" id="Path-3"></path>
            <path d="M57.6375704,54.4062464 L57.4075447,54.972765 L57.2045763,55.4903808 L56.9830827,56.086866 L56.8123256,56.5742445 L56.566244,57.3144578 L56.0206496,59.0441557 L55.7866811,59.7993009 L55.6196018,59.9480051 C49.9452781,65.0437771 47.7714201,72.6918524 49.6728612,79.1299221 C51.8112041,86.370115 58.833798,93.946245 67.0068619,96.0131276 C69.8915819,96.7426432 72.3418399,96.6974031 75.0051718,95.9860116 L75.1538906,95.9444686 L75.5139321,95.8344221 L75.9462901,95.6929141 L76.7011366,95.4334371 L77.8357625,95.0275939 L79.8731636,94.2736073 L81.7863555,93.5453362 L82.0782017,93.428949 C83.7924846,92.8131808 85.4104428,92.3230579 87.1760669,91.9103425 C88.0121049,91.7149183 88.7561769,91.645437 89.9081279,91.6569164 L90.4705796,91.6677995 L91.1018755,91.6891972 L91.4467528,91.7035319 C91.669721,91.7132496 91.8871574,91.7212851 92.0993105,91.7274527 L92.7201687,91.7401659 C96.7568726,91.785084 98.7797094,91.0085085 100.777428,87.9241059 C102.05695,85.9485736 101.609138,84.1313583 99.7723427,81.3987265 L99.4338527,80.9067763 C99.3750576,80.8231279 99.3150781,80.7386331 99.2539229,80.6532644 L98.8729521,80.1303477 L98.4641773,79.5851475 L97.1584528,77.8716127 L96.8766666,77.4925503 L96.5101967,76.9874237 L96.2065533,76.5511149 L96.0364584,76.2943954 L95.8904321,76.0621428 L95.7669328,75.8519097 L95.6644187,75.6612485 C95.6489962,75.6309666 95.6343838,75.6013983 95.6205494,75.5724925 L95.5466226,75.4066001 L95.4898268,75.2541609 C95.4654548,75.1808967 95.4469287,75.1117595 95.4333815,75.0453728 C95.1230428,73.5245904 95.0779161,72.1746857 95.2640467,70.2202851 L95.3346088,69.5453659 L95.4220216,68.8192876 L95.5260056,68.0356684 L95.6970934,66.8072967 L95.7960375,66.0529825 L95.8804373,65.3526343 L95.9497728,64.7015424 L96.0035244,64.0949971 C96.1790386,61.84927 95.9995994,60.4816153 95.3334556,58.7982224 C93.1446348,53.2669159 86.6613271,48.8306305 77.2504965,45.5552324 L76.1928707,45.19608 C75.8363593,45.0779571 75.4759015,44.9614301 75.1115668,44.8465022 C66.8483826,42.2399144 61.492368,45.8089973 58.0673646,53.4072902 L57.7784991,54.0683898 C57.7311354,54.180201 57.6841602,54.2928219 57.6375704,54.4062464 Z M73.908233,48.661209 C83.4232622,51.6626863 89.831903,55.7663509 91.6140785,60.2700356 C91.9630084,61.1518064 92.0973902,61.9783586 92.0399391,63.2828623 L92.013715,63.7361302 L91.973468,64.2291901 L91.919385,64.7664303 L91.8127272,65.6647279 L91.6759902,66.6871149 L91.5586131,67.5246816 L91.4418561,68.4090648 C91.4239406,68.5513345 91.4068048,68.691142 91.3904601,68.8286395 L91.3019788,69.6271232 C91.0655707,71.9467252 91.0929723,73.6165769 91.4513474,75.5247611 L91.5455402,75.9920724 L91.6155144,76.2773121 C91.6657417,76.4643725 91.7236291,76.6461993 91.7922025,76.8285858 L91.9034556,77.1033096 C91.9234596,77.1494082 91.9442261,77.1957229 91.9658023,77.2423441 L92.1053546,77.5264738 L92.26661,77.8223054 L92.451838,78.1341837 C92.4848332,78.187742 92.5189217,78.24215 92.554151,78.2974981 L92.7795935,78.6415932 L93.0346826,79.0125971 L93.3216879,79.414855 L93.8170032,80.0863471 L94.6103129,81.1316109 L95.2816985,82.0083247 L95.6558601,82.5073751 L95.9882175,82.9640959 L96.28113,83.3826952 L96.536957,83.767381 C96.814706,84.1980347 97.0215558,84.5680396 97.1743658,84.9074653 C97.2815687,85.1455875 97.3465958,85.3245394 97.3841082,85.4551817 L97.4168545,85.589459 L97.4288168,85.6815296 C97.4305403,85.7177083 97.426581,85.7396234 97.4201058,85.7496209 C96.3624418,87.382614 95.4733418,87.7807946 92.7931617,87.7435508 L92.232664,87.7305333 L90.8364604,87.6768923 C90.712604,87.6728073 90.5920072,87.6692383 90.4743945,87.6662192 L89.8023208,87.654972 C88.4141881,87.6460675 87.4371723,87.7414838 86.2656079,88.0153375 C84.6154407,88.4010647 83.0844285,88.8485418 81.514773,89.3873104 L80.6634618,89.6896957 L77.6261049,90.84259 L76.0865166,91.4083408 L75.2196841,91.7167247 L74.6585332,91.9086651 L74.2037135,92.0548328 L73.9729368,92.1214947 C71.9535104,92.6608953 70.1946795,92.6933693 67.9875472,92.1352086 C61.2773332,90.4382654 55.2691774,83.9565337 53.5090479,77.9969298 C51.9906963,72.855959 53.8961568,66.5438896 58.8024786,62.484209 L59.2630401,62.1031225 L60.3156663,58.721278 L60.6165483,57.8148284 L60.8432979,57.1798628 L60.9433267,56.9142248 L61.1286521,56.4408515 L61.3375959,55.9260527 C64.0412264,49.3439629 67.6616976,46.6907648 73.908233,48.661209 Z" id="Path-4"></path>
            <path d="M16.9846809,50.5424245 C15.1515301,51.8034146 13.7689364,53.4765857 12.1224951,56.2017918 L11.6865338,56.9370006 L11.2357837,57.722463 L9.69518269,60.4891841 L9.31784084,61.1465873 C8.40356322,62.713242 7.69857678,63.7142625 7.00518979,64.3918964 L6.33253115,65.021085 C6.24551457,65.103555 6.15949658,65.1857713 6.07447782,65.2677381 L5.57636118,65.7565819 C4.68514934,66.6474391 3.91500044,67.5091935 3.26677283,68.3477499 L2.92529065,68.8028792 C-0.478307709,73.4828424 -0.00368035004,77.4599482 4.50286521,81.7915301 L4.95157432,82.2118575 C5.02845866,82.2821083 5.10639318,82.3524602 5.18537852,82.4229177 L5.67190556,82.8469641 C6.00467037,83.1305533 6.35426894,83.4159728 6.72074256,83.7035066 L7.09480136,83.9929707 L8.78047577,85.2443447 L11.0858002,86.9376288 L11.4355722,87.1998364 L12.0940323,87.7015183 L12.7013438,88.1763008 C12.8957402,88.3305333 13.0823379,88.4809649 13.2618629,88.6282779 L13.779946,89.0615433 C13.8629988,89.1324223 13.944465,89.2026922 14.0244352,89.2724384 L14.487032,89.6853122 L14.7849642,89.9628144 C16.1453711,91.2545717 18.5206581,92.3524684 21.9789481,93.3369921 L22.8297663,93.5711423 L23.722381,93.8011862 L24.6570016,94.027371 C25.2941305,94.1769296 25.9594027,94.3240803 26.6530975,94.4691528 C34.3363949,96.2554009 41.8842564,95.7111075 47.0989171,91.9248104 C49.7028111,90.0341569 51.2623866,87.4145764 52.0767862,84.0054377 L52.1853681,83.5324019 L52.2838573,83.063062 C52.2994672,82.9848671 52.3146836,82.9066164 52.32952,82.8282051 L52.4140876,82.3549711 L52.4901854,81.8728489 L52.5584628,81.376805 L52.6195687,80.8618057 L52.6741525,80.3228174 L52.745219,79.4583443 L52.7863373,78.8373612 L52.8232055,78.1747714 L52.8719588,77.0918629 L52.9010417,76.303234 L53.0366587,71.8565753 L53.0768144,70.9674965 L53.1400269,69.6694013 C53.1479653,69.4879166 53.1553835,69.3085919 53.1622851,69.1311131 L53.1857004,68.4744929 C53.3858559,62.2749121 52.9195783,57.7291738 51.3858767,54.0909882 C49.4070516,49.3968983 45.6915054,46.633797 40.1330592,46.1783408 C30.6996891,45.4053753 23.2050871,46.2635234 16.9846809,50.5424245 Z M39.806396,50.1649798 C45.2067962,50.6074858 47.9226723,53.6907395 48.850097,59.9632554 L48.938281,60.6121541 L49.0143438,61.2831695 L49.0784948,61.9764299 C49.0882057,62.0938342 49.0974289,62.2121707 49.1061689,62.331442 L49.152845,63.0583103 L49.1881329,63.807744 L49.212242,64.5798715 C49.2184385,64.8410438 49.2228068,65.1060197 49.2253818,65.3748207 L49.2277617,66.1927201 C49.2272733,66.3309562 49.2263453,66.470154 49.2249821,66.6103161 L49.2116148,67.4628809 C49.2054413,67.7509404 49.1975618,68.0428784 49.1880111,68.3387162 L49.1650649,68.9821545 L49.119243,70.0290109 L49.0478047,71.50099 L48.9887803,73.2284411 L48.9286474,75.3387508 L48.8803286,76.6173817 L48.8418732,77.4214985 L48.7978326,78.1884301 L48.7477006,78.9194259 L48.6909707,79.6157357 C48.6809378,79.7289662 48.6706088,79.8408036 48.6599733,79.9512737 L48.5923971,80.5978972 L48.5169572,81.2129583 C48.4904436,81.4128572 48.462535,81.6077039 48.433147,81.7977068 L48.3404603,82.3533921 C47.8702068,84.9709813 47.071159,86.6139348 45.6860237,87.9171528 L45.3909968,88.1821448 C45.3404038,88.2255716 45.2890927,88.2686465 45.2370531,88.3113956 L44.9159886,88.5641877 C44.8609927,88.6057374 44.8052471,88.6470133 44.7487413,88.6880414 C40.6576014,91.6585647 34.2234881,92.1225432 27.5152703,90.5634281 L27.0564611,90.4661364 L26.168867,90.2701226 L25.3214391,90.0723984 C25.1835572,90.039315 25.0473556,90.0061701 24.9128377,89.9729688 L24.1259604,89.7731227 L23.3796512,89.5721576 C23.2586559,89.5385834 23.1393576,89.5049723 23.0217598,89.4713294 L22.3366039,89.2691294 L21.6924178,89.0664018 C21.4845353,88.9987643 21.2835079,88.9310783 21.0893623,88.8633832 L20.527598,88.66031 L20.0072858,88.4574188 C18.8417095,87.9844025 18.0159705,87.5148044 17.5392567,87.0621468 L17.1864405,86.7335003 C16.2692394,85.8947272 15.2149769,85.0403405 13.8850387,84.0371016 L12.9369794,83.333505 L9.92766486,81.1181598 L9.4387396,80.7499346 L8.9367433,80.3578907 L8.46286528,79.9758154 C8.38622865,79.9129282 8.3107635,79.8504273 8.23646978,79.7882983 L7.80476416,79.4198696 L7.40117014,79.0596678 C4.09008767,76.0309439 3.82531013,73.8183195 6.5994558,70.4966076 L6.93984585,70.100585 C7.23518715,69.7661085 7.55973484,69.4202462 7.91348198,69.0611839 L8.35199384,68.623857 C8.42741496,68.5498745 8.50400394,68.4753349 8.58176073,68.4002238 L9.06231478,67.9425827 L9.57089361,67.4705281 C10.6639281,66.4676333 11.5851875,65.1934836 12.7345792,63.2282317 L13.2329801,62.3588036 L14.6967094,59.7285182 L15.0854187,59.0501033 C15.1488667,58.9409466 15.2116724,58.8337188 15.2738749,58.7283787 L15.6401653,58.1186627 L15.9938599,57.5522811 C17.1539376,55.7343748 18.135419,54.6058395 19.2516494,53.8380055 C24.4913848,50.2336894 31.2293337,49.4621798 39.806396,50.1649798 Z" id="Path-5"></path>
            <path d="M53.4269007,22.1827123 C54.4578303,22.5792699 54.9720904,23.7364769 54.5755327,24.7674065 L54.1472783,25.8873647 L53.9479427,26.3889918 C53.9272893,26.4393904 53.9068827,26.4886163 53.8864711,26.5372758 C53.3658213,27.7784611 52.8300985,28.6241107 51.9588903,29.4518078 C51.4474505,29.9377046 50.8335767,30.4016708 50.009996,30.9187925 L49.539328,31.2065818 L49.0231966,31.5076222 L48.4577332,31.8246214 L47.8390693,32.1602874 L47.1633362,32.517328 C46.1843341,33.0288245 44.9760463,32.6498364 44.4645498,31.6708343 C43.9530533,30.6918322 44.3320414,29.4835443 45.3110436,28.9720478 L46.1365738,28.5341416 L46.6259377,28.2665703 L47.0695695,28.0167004 L47.4700916,27.7829961 L47.8301267,27.5639216 C47.8869043,27.528543 47.9421042,27.49371 47.9957811,27.4593906 L48.3000027,27.2593813 C48.3478059,27.2269883 48.3941953,27.1950449 48.4392256,27.1635191 L48.6935344,26.9791197 C48.7333466,26.9491364 48.7719089,26.9195067 48.809276,26.8901986 L49.0195728,26.7179537 L49.2038062,26.551892 C49.5860168,26.1887703 49.8242668,25.8367082 50.10314,25.2095989 L50.2485534,24.8676072 L50.6262722,23.8967467 L50.8422064,23.3313443 C51.238764,22.3004147 52.3959711,21.7861546 53.4269007,22.1827123 Z" id="Path-2" transform="translate(49.473095, 27.396967) rotate(112.000000) translate(-49.473095, -27.396967) "></path>
            <path d="M65.0153387,18.5522322 C66.0690189,18.2208234 67.1918554,18.8063401 67.5232641,19.8600203 L67.6201746,20.1638193 L67.815469,20.7493031 C67.8482239,20.8444614 67.8810958,20.9384202 67.9141057,21.0311969 L68.1139898,21.5738105 C69.5944236,25.4509921 71.4236099,27.1069774 75.3954967,28.0248894 L75.9505673,28.1456236 C76.0453488,28.16503 76.1412791,28.1840899 76.2383794,28.2028208 L76.835189,28.3113975 L77.4610882,28.4129139 L78.1170877,28.5082056 C78.2289855,28.5236153 78.3421796,28.5388004 78.4566911,28.5537784 L79.5234317,28.683458 L80.2757977,28.7650901 C81.3744347,28.8794167 82.1723759,29.862718 82.0580493,30.961355 C81.9437226,32.0599919 80.9604214,32.8579331 79.8617844,32.7436065 L79.0515859,32.6548536 L78.269369,32.5597236 C78.1412945,32.5432996 78.0143584,32.5265817 77.8885467,32.5095557 L77.1470607,32.4035913 L76.4319011,32.2895579 L75.7424057,32.166779 C68.9735668,30.8930057 65.9550598,28.2058827 63.7075505,21.0601577 C63.3761418,20.0064775 63.9616584,18.883641 65.0153387,18.5522322 Z" id="Path" transform="translate(72.841911, 25.607031) scale(1, -1) rotate(-52.000000) translate(-72.841911, -25.607031) "></path>
            <path d="M74.2847477,15.2007249 L74.9900045,15.8695173 C78.3404916,19.0459505 79.50613,20.9500537 79.961636,25.2619275 L80.0530141,26.1812729 C80.0670285,26.3321767 80.080429,26.4819237 80.0932062,26.630519 L80.1623145,27.5083109 L80.2160127,28.3587066 C80.5369133,34.2161621 79.6920353,38.0780052 76.9854729,40.322316 C76.1870691,40.9843611 75.3583104,41.6275959 74.5078671,42.2478379 L73.7738074,42.7737456 L73.03034,43.2878062 L72.2786782,43.7894346 C70.8938615,44.6973326 69.4738487,45.5396005 68.0522843,46.3000087 L67.2769339,46.7065609 C67.1477506,46.7729341 67.018605,46.8386063 66.8895225,46.9035654 L66.1159854,47.2846654 C65.3436089,47.6570129 64.5753208,48.0028107 63.816581,48.319425 L63.0612262,48.6262139 C58.3000314,50.5063652 53.9948324,51.1807189 51.5326653,49.9801995 C51.3429791,49.8877111 51.1583284,49.7956717 50.9785677,49.7038678 L50.4538098,49.4289489 C50.3687466,49.3831756 50.2848694,49.3374077 50.2021601,49.2916186 L49.7197734,49.0164155 L49.2645419,48.7394206 C46.318241,46.8839671 45.1240411,44.8236139 44.5169492,40.8493243 L44.4301431,40.2386127 C44.4163608,40.1343638 44.402909,40.0288653 44.3897695,39.9220904 L44.314535,39.2659119 L44.2459229,38.5778199 L44.1830592,37.8565327 L44.1250703,37.1007684 L43.9272735,34.3030098 L43.8513284,33.3755626 L43.7544287,32.3798956 L43.6739867,31.6483599 L41.6376497,25.4375068 L41.5923528,25.3133641 L41.4258097,24.8964025 L41.1105525,24.0858912 L40.8188323,23.306179 C40.7721579,23.1787657 40.7264526,23.052615 40.6817102,22.9277163 L40.4247657,22.1932656 C40.383852,22.0733335 40.3438896,21.9546327 40.3048726,21.8371526 L40.0820683,21.1468389 C40.0468094,21.0342004 40.012484,20.922762 39.9790864,20.8125131 L39.7897868,20.1652117 C38.8687724,16.8937141 38.8280093,14.7453895 39.4921928,13.410025 C39.9862465,12.4167124 40.938953,11.6868493 42.7981844,10.9840235 L43.3040596,10.8011355 C43.3918976,10.7707045 43.4815229,10.7402858 43.5729723,10.70986 L44.1438522,10.5270632 C44.3416382,10.4659986 44.547015,10.4047498 44.7602771,10.3431614 L45.424014,10.1572218 L46.1368297,9.96831192 L47.3870148,9.65517941 L49.7114407,9.08953967 L50.2105201,8.95048691 L50.5383786,8.84544859 L51.1875796,8.6187882 L53.0006489,7.94938451 L54.6989394,7.31579096 L55.5947817,6.99108177 L56.3993525,6.71228257 L56.8851864,6.55192807 L57.3306949,6.41198715 L57.7359739,6.29246346 C57.8643727,6.25602551 57.9860825,6.22299104 58.1011194,6.19336066 L58.4262271,6.1146824 C58.4770806,6.1032716 58.5262699,6.09271198 58.5737969,6.08300361 L58.839028,6.03496902 L59.0644612,6.00736812 C59.1329832,6.00157383 59.1948883,5.99918578 59.2501924,5.99997606 C63.1517074,6.07314056 68.8812774,8.53052006 70.9900827,11.5200765 C71.8885897,12.7938487 72.8150391,13.798981 74.2847477,15.2007249 Z M78.0434982,13.2547769 L76.7551685,12.0274412 L76.2253645,11.506209 C75.4775858,10.7558418 74.9294512,10.1329528 74.4253336,9.44602645 L74.2587111,9.21441652 C71.3349499,5.06953433 64.4014706,2.09580508 59.324411,2.0008932 C58.4801977,1.98534157 57.4995856,2.17262175 56.1601156,2.58212049 L55.6046612,2.75781759 L55.0077647,2.95749374 L54.3662624,3.18142464 L53.6769902,3.42988603 L50.2262236,4.71153022 L49.4525552,4.98755709 L49.0098482,5.1313985 L48.6482037,5.23192312 L45.533081,5.99413531 L44.8950267,6.1598559 L44.2835211,6.3281829 L43.6919718,6.50110607 L43.1203334,6.67896178 C42.6522517,6.82932354 42.2048635,6.98517378 41.7780509,7.14738851 L41.2757443,7.34515719 L40.7931451,7.54937216 L40.3302077,7.76036981 C35.8745137,9.8696308 34.2640555,13.0114527 35.3051084,18.6251437 L35.4201112,19.2046048 L35.5533497,19.8014448 C35.6007968,20.0033253 35.6512756,20.2081584 35.7047787,20.4160001 L35.8743529,21.0486069 C35.9338968,21.2625219 35.9964573,21.4795015 36.062027,21.6996018 L36.2677557,22.3693212 L36.4914939,23.0581013 C36.5302818,23.174505 36.5698183,23.291717 36.6101023,23.4097442 L36.8607696,24.1277463 L37.1293331,24.8656501 L37.4157475,25.623792 L37.7199675,26.4025085 L37.8571899,26.7473754 L39.7441899,32.5023754 L39.8682097,33.7448839 L39.9725241,35.0584754 L40.1380691,37.4300314 L40.2335007,38.6830633 L40.3002114,39.447353 C40.3116195,39.5703217 40.3231892,39.6911488 40.3349455,39.8099319 L40.4079245,40.4988799 L40.4865888,41.1434449 L40.5721434,41.7483026 C40.7956471,43.2147094 41.0950453,44.3526966 41.555071,45.491032 L41.7478488,45.9471641 C41.7814732,46.023449 41.8158617,46.0999302 41.8510395,46.1767053 C43.2571723,49.2455764 45.7551977,51.613336 49.7796051,53.5755826 C54.737654,55.9930602 63.1913295,53.7221995 71.1619678,49.1858026 L71.9572741,48.7247008 C72.3539749,48.4904638 72.7491365,48.2507648 73.1422616,48.0059067 L73.9256492,47.5094016 L74.702722,46.9996772 C74.8316588,46.9136515 74.9602956,46.8270973 75.0886141,46.7400261 L75.854557,46.2114825 C75.9815283,46.1223875 76.1081443,46.0327978 76.2343868,45.9427246 L76.9872104,45.3965731 L77.7301827,44.8393561 C78.0990586,44.5580709 78.4639088,44.272838 78.8242358,43.9839603 L79.5387115,43.4014348 C83.392549,40.2057911 84.5421945,35.5941478 84.2541994,28.9124418 L84.2097219,28.0481624 L84.1502105,27.1610901 L84.0762508,26.2509226 L83.9884283,25.3173574 C83.9726686,25.1597966 83.9563556,25.0012482 83.9395015,24.8417061 C83.3823823,19.5679497 81.8044149,16.878406 78.0434982,13.2547769 Z" id="Path-6"></path>
        </g>
    </g>
</svg>