<?xml version="1.0" encoding="UTF-8"?>
<svg width="235px" height="152px" viewBox="0 0 235 152" version="1.1" xmlns="http://www.w3.org/2000/svg" xmlns:xlink="http://www.w3.org/1999/xlink">
    <title>chickpea-pasta</title>
    <g id="chickpea-pasta" stroke="none" stroke-width="1" fill="none" fill-rule="evenodd">
        <g id="Group-5-Copy-2" transform="translate(185.500000, 106.000000) rotate(52.000000) translate(-185.500000, -106.000000) translate(159.000000, 81.000000)" fill="#424141" fill-rule="nonzero">
            <path d="M19.5790681,11.1652862 C20.6327483,10.8338774 21.7555848,11.4193941 22.0869936,12.4730743 L22.2779645,13.0640057 C22.3099135,13.1601031 22.3419369,13.255016 22.3740559,13.3487615 L22.5680875,13.8973591 L22.7654334,14.4187463 C22.8651048,14.6727723 22.9664013,14.916898 23.069896,15.1515789 L23.2799864,15.6084827 C24.5245931,18.2018693 26.1204286,19.551043 28.9777893,20.3792583 L29.4801503,20.5162697 C29.5659933,20.5382994 29.6529087,20.5599375 29.7409175,20.581201 L30.2822627,20.7044209 L30.8508712,20.8194585 C30.9479678,20.8379945 31.0462429,20.8562234 31.1457177,20.8741619 L31.7571321,20.9784443 C31.8614904,20.9952891 31.9670909,21.0118772 32.0739547,21.0282257 L32.730468,21.1235747 C32.8424702,21.1390318 32.9557782,21.1542829 33.0704133,21.1693448 L33.7743184,21.2575824 C33.8943467,21.2719554 34.0157445,21.2861731 34.138533,21.3002522 L34.8921229,21.3832001 L38.1599568,21.7184144 L38.4623824,21.7512123 C39.7467508,21.8917844 40.8885816,22.0342094 42.0262735,22.2006547 C43.1192084,22.3605519 43.8755849,23.376173 43.7156876,24.4691079 C43.5557903,25.5620428 42.5401692,26.3184192 41.4472344,26.158522 C40.5428544,26.0262105 39.6315322,25.9092869 38.6355545,25.7954775 L37.1129386,25.6300733 L34.4106147,25.3548516 L33.5249497,25.2584876 L32.695491,25.161057 L31.9184396,25.0613284 C31.7930872,25.044447 31.6697602,25.0274186 31.5483794,25.0102174 L30.8428155,24.9047327 L30.1801611,24.793871 L29.5566171,24.6764012 C27.6399757,24.2926501 26.2544751,23.7909756 24.85724,22.9954024 C21.815061,21.2632129 19.7392075,18.3403365 18.27128,13.6732117 C17.9398712,12.6195315 18.5253879,11.496695 19.5790681,11.1652862 Z" id="Path-3" transform="translate(30.957809, 18.626230) rotate(147.000000) translate(-30.957809, -18.626230) "></path>
            <path d="M16.2868634,4.61871191 C14.4537127,5.87970202 13.071119,7.55287308 11.4246777,10.2780792 L10.9887164,11.013288 L10.5379663,11.7987504 L8.99736528,14.5654715 L8.62002344,15.2228747 C7.70574582,16.7895294 7.00075937,17.79055 6.30737238,18.4681838 L5.63471374,19.0973724 C5.54769717,19.1798424 5.46167918,19.2620587 5.37666042,19.3440255 L4.87854378,19.8328693 C3.98733193,20.7237265 3.21718303,21.5854809 2.56895542,22.4240373 L2.22747325,22.8791666 C-1.17612512,27.5591298 -0.701497757,31.5362356 3.8050478,35.8678175 L4.25375691,36.2881449 C4.33064125,36.3583957 4.40857577,36.4287476 4.48756111,36.4992051 L4.97408815,36.9232515 C5.30685296,37.2068407 5.65645154,37.4922602 6.02292515,37.779794 L6.39698395,38.0692581 L8.08265837,39.3206321 L10.3879828,41.0139162 L10.7377548,41.2761238 L11.3962149,41.7778057 L12.0035264,42.2525882 C12.1979228,42.4068207 12.3845205,42.5572523 12.5640455,42.7045653 L13.0821286,43.1378307 C13.1651814,43.2087097 13.2466476,43.2789796 13.3266178,43.3487258 L13.7892146,43.7615996 L14.0871468,44.0391018 C15.4475537,45.3308591 17.8228407,46.4287558 21.2811307,47.4132795 L22.1319489,47.6474297 L23.0245636,47.8774736 L23.9591842,48.1036584 C24.5963131,48.253217 25.2615853,48.4003677 25.9552801,48.5454402 C33.6385775,50.3316883 41.186439,49.7873949 46.4010997,46.0010978 C49.0049937,44.1104443 50.5645692,41.4908638 51.3789688,38.0817251 L51.4875507,37.6086893 L51.5860399,37.1393494 C51.6016498,37.0611545 51.6168662,36.9829038 51.6317026,36.9044925 L51.7162702,36.4312585 L51.792368,35.9491363 L51.8606453,35.4530924 L51.9217513,34.9380931 L51.9763351,34.3991048 L52.0474016,33.5346317 L52.0885199,32.9136486 L52.1253881,32.2510588 L52.1741414,31.1681503 L52.2032243,30.3795214 L52.3388413,25.9328627 L52.378997,25.0437839 L52.4422095,23.7456887 C52.4501479,23.564204 52.4575661,23.3848793 52.4644677,23.2074005 L52.4878829,22.5507803 C52.6880385,16.3511995 52.2217609,11.8054612 50.6880593,8.16727565 C48.7092342,3.47318575 44.993688,0.710084376 39.4352418,0.254628157 C30.0018717,-0.518337327 22.5072697,0.339810772 16.2868634,4.61871191 Z M39.1085786,4.24126724 C44.5089788,4.68377325 47.2248548,7.76702687 48.1522796,14.0395428 L48.2404636,14.6884415 L48.3165264,15.3594569 L48.3806774,16.0527173 C48.3903882,16.1701216 48.3996115,16.2884581 48.4083515,16.4077295 L48.4550276,17.1345977 L48.4903155,17.8840315 L48.5144246,18.6561589 C48.5206211,18.9173312 48.5249894,19.1823072 48.5275644,19.4511081 L48.5299443,20.2690075 C48.5294559,20.4072437 48.5285279,20.5464414 48.5271647,20.6866035 L48.5137973,21.5391683 C48.5076239,21.8272278 48.4997443,22.1191658 48.4901937,22.4150036 L48.4672475,23.0584419 L48.4214256,24.1052983 L48.3499873,25.5772774 L48.2909629,27.3047285 L48.23083,29.4150382 L48.1825112,30.6936691 L48.1440558,31.4977859 L48.1000152,32.2647175 L48.0498832,32.9957134 L47.9931533,33.6920231 C47.9831204,33.8052536 47.9727914,33.917091 47.9621559,34.0275611 L47.8945797,34.6741846 L47.8191398,35.2892457 C47.7926262,35.4891446 47.7647176,35.6839913 47.7353296,35.8739942 L47.6426428,36.4296795 C47.1723894,39.0472687 46.3733416,40.6902222 44.9882063,41.9934402 L44.6931794,42.2584322 C44.6425864,42.301859 44.5912753,42.3449339 44.5392357,42.387683 L44.2181712,42.6404751 C44.1631753,42.6820248 44.1074297,42.7233007 44.0509239,42.7643288 C39.959784,45.7348521 33.5256707,46.1988306 26.8174529,44.6397155 L26.3586437,44.5424238 L25.4710496,44.34641 L24.6236217,44.1486858 C24.4857398,44.1156024 24.3495382,44.0824575 24.2150203,44.0492562 L23.428143,43.8494101 L22.6818338,43.648445 C22.5608385,43.6148708 22.4415402,43.5812597 22.3239424,43.5476168 L21.6387865,43.3454168 L20.9946004,43.1426892 C20.7867179,43.0750517 20.5856904,43.0073657 20.3915449,42.9396706 L19.8297806,42.7365974 L19.3094684,42.5337062 C18.1438921,42.0606899 17.318153,41.5910918 16.8414393,41.1384342 L16.4886231,40.8097877 C15.571422,39.9710147 14.5171594,39.1166279 13.1872213,38.113389 L12.239162,37.4097924 L9.22984745,35.1944472 L8.7409222,34.826222 L8.2389259,34.4341781 L7.76504787,34.0521028 C7.68841124,33.9892156 7.6129461,33.9267147 7.53865238,33.8645857 L7.10694676,33.496157 L6.70335273,33.1359552 C3.39227027,30.1072313 3.12749272,27.8946069 5.9016384,24.572895 L6.24202844,24.1768724 C6.53736974,23.8423959 6.86191744,23.4965336 7.21566458,23.1374713 L7.65417643,22.7001444 C7.72959755,22.6261619 7.80618653,22.5516223 7.88394332,22.4765112 L8.36449737,22.0188701 L8.8730762,21.5468155 C9.96611067,20.5439207 10.8873701,19.269771 12.0367617,17.3045192 L12.5351627,16.435091 L13.998892,13.8048056 L14.3876013,13.1263907 C14.4510493,13.017234 14.513855,12.9100062 14.5760575,12.8046661 L14.9423479,12.1949501 L15.2960424,11.6285685 C16.4561202,9.81066219 17.4376015,8.68212688 18.553832,7.91429286 C23.7935674,4.30997685 30.5315163,3.53846717 39.1085786,4.24126724 Z" id="Path-5"></path>
        </g>
        <path d="M183.578934,48 L181.420559,48 C170.687738,48.0251701 162,56.9400671 162,67.9285158 L162,72.3571614 C162,76.0818218 165.793377,79 170.63426,79 C175.475143,79 179.26852,76.0818218 179.26852,72.3571614 L179.26852,66.821549 C179.262438,65.635958 179.877052,64.5375543 180.878938,63.9430721 C181.880823,63.3483305 183.117149,63.3483305 184.119035,63.9430721 C185.12092,64.5378138 185.735281,65.635958 185.729452,66.821549 L185.729452,72.3571614 C185.729452,76.0818218 189.522829,79 194.36574,79 C199.206623,79 203,76.0818218 203,72.3571614 L203,67.9285158 C202.999493,56.9400671 194.311755,48.0251701 183.578934,48 Z M170,75 C167.558824,75 166,73.8154225 166,73 C166,72.1845775 167.558824,71 170,71 C172.441176,71 174,72.1845775 174,73 C174,73.8154225 172.441176,75 170,75 Z M195.000941,75 C192.558457,75 191,73.8154225 191,73 C191,72.1845775 192.558457,71 195.000941,71 C197.441543,71 199,72.1845775 199,73 C199,73.8154225 197.441543,75 195.000941,75 Z M190.218035,65 C190.11185,61.1625117 186.691333,58.0989885 182.5,58.0870997 C178.308147,58.0982752 174.886593,61.1617983 174.779888,64.9997622 C171.976492,63.9105043 168.813002,63.8988532 166,64.966949 C166.691892,57.6462605 173.37118,52.0202111 181.394531,52 L183.605469,52 C191.62856,52.0199733 198.308108,57.6462605 199,64.966949 C196.186479,63.8986154 193.02195,63.9105043 190.218035,65 Z" id="Shape" fill="#424141" fill-rule="nonzero"></path>
        <path d="M86.578934,104 L84.4205591,104 C73.687738,104.02517 65,112.940067 65,123.928516 L65,128.357161 C65,132.081822 68.7933769,135 73.6342602,135 C78.4751434,135 82.2685204,132.081822 82.2685204,128.357161 L82.2685204,122.821549 C82.2624376,121.635958 82.8770523,120.537554 83.8789377,119.943072 C84.8808232,119.348331 86.1171493,119.348331 87.1190347,119.943072 C88.1209201,120.537814 88.7352814,121.635958 88.7294521,122.821549 L88.7294521,128.357161 C88.7294521,132.081822 92.522829,135 97.3657398,135 C102.206623,135 106,132.081822 106,128.357161 L106,123.928516 C105.999493,112.940067 97.3117551,104.02517 86.578934,104 Z M73,131 C70.5588235,131 69,129.815422 69,129 C69,128.184578 70.5588235,127 73,127 C75.4411765,127 77,128.184578 77,129 C77,129.815422 75.4411765,131 73,131 Z M98.000941,131 C95.5584568,131 94,129.815422 94,129 C94,128.184578 95.5584568,127 98.000941,127 C100.441543,127 102,128.184578 102,129 C102,129.815422 100.441543,131 98.000941,131 Z M93.2180351,121 C93.1118498,117.162512 89.6913334,114.098989 85.5,114.0871 C81.3081474,114.098275 77.8865925,117.161798 77.779888,120.999762 C74.9764924,119.910504 71.8130015,119.898853 69,120.966949 C69.6918919,113.64626 76.3711804,108.020211 84.3945306,108 L86.6054694,108 C94.62856,108.019973 101.308108,113.64626 102,120.966949 C99.1864792,119.898615 96.0219498,119.910504 93.2180351,121 Z" id="Shape-Copy" fill="#424141" fill-rule="nonzero" transform="translate(85.500000, 119.500000) rotate(23.000000) translate(-85.500000, -119.500000) "></path>
        <path d="M111.578934,48 L109.420559,48 C98.687738,48.0251701 90,56.9400671 90,67.9285158 L90,72.3571614 C90,76.0818218 93.7933769,79 98.6342602,79 C103.475143,79 107.26852,76.0818218 107.26852,72.3571614 L107.26852,66.821549 C107.262438,65.635958 107.877052,64.5375543 108.878938,63.9430721 C109.880823,63.3483305 111.117149,63.3483305 112.119035,63.9430721 C113.12092,64.5378138 113.735281,65.635958 113.729452,66.821549 L113.729452,72.3571614 C113.729452,76.0818218 117.522829,79 122.36574,79 C127.206623,79 131,76.0818218 131,72.3571614 L131,67.9285158 C130.999493,56.9400671 122.311755,48.0251701 111.578934,48 Z M98,75 C95.5588235,75 94,73.8154225 94,73 C94,72.1845775 95.5588235,71 98,71 C100.441176,71 102,72.1845775 102,73 C102,73.8154225 100.441176,75 98,75 Z M123.000941,75 C120.558457,75 119,73.8154225 119,73 C119,72.1845775 120.558457,71 123.000941,71 C125.441543,71 127,72.1845775 127,73 C127,73.8154225 125.441543,75 123.000941,75 Z M118.218035,65 C118.11185,61.1625117 114.691333,58.0989885 110.5,58.0870997 C106.308147,58.0982752 102.886593,61.1617983 102.779888,64.9997622 C99.9764924,63.9105043 96.8130015,63.8988532 94,64.966949 C94.6918919,57.6462605 101.37118,52.0202111 109.394531,52 L111.605469,52 C119.62856,52.0199733 126.308108,57.6462605 127,64.966949 C124.186479,63.8986154 121.02195,63.9105043 118.218035,65 Z" id="Shape-Copy-2" fill="#424141" fill-rule="nonzero" transform="translate(110.500000, 63.500000) rotate(-32.000000) translate(-110.500000, -63.500000) "></path>
        <g id="Group-4" transform="translate(46.500000, 84.500000) rotate(-26.000000) translate(-46.500000, -84.500000) translate(20.000000, 58.000000)" fill="#424141" fill-rule="nonzero">
            <path d="M16.8356124,22.0774441 C17.8892927,21.7460353 19.0121291,22.331552 19.3435379,23.3852322 L19.5345089,23.9761636 C19.5664578,24.072261 19.5984812,24.1671739 19.6306003,24.2609194 L19.8246319,24.809517 L20.0219778,25.3309043 C20.1216492,25.5849302 20.2229457,25.8290559 20.3264404,26.0637369 L20.5365308,26.5206406 C21.7811375,29.1140272 23.376973,30.4632009 26.2343337,31.2914162 L26.7366946,31.4284276 C26.8225377,31.4504573 26.909453,31.4720954 26.9974619,31.4933589 L27.538807,31.6165788 L28.1074156,31.7316164 C28.2045122,31.7501524 28.3027873,31.7683813 28.402262,31.7863198 L29.0136764,31.8906022 C29.1180348,31.907447 29.2236353,31.9240351 29.3304991,31.9403836 L29.9870123,32.0357326 C30.0990146,32.0511897 30.2123226,32.0664408 30.3269577,32.0815028 L31.0308628,32.1697403 C31.1508911,32.1841133 31.2722888,32.198331 31.3950773,32.2124101 L32.1486673,32.295358 L35.4165012,32.6305723 L35.7189268,32.6633702 C37.0032951,32.8039423 38.145126,32.9463673 39.2828179,33.1128126 C40.3757528,33.2727098 41.1321292,34.2883309 40.972232,35.3812658 C40.8123347,36.4742007 39.7967136,37.2305771 38.7037787,37.0706799 C37.7993988,36.9383684 36.8880765,36.8214448 35.8920989,36.7076355 L34.369483,36.5422312 L31.6671591,36.2670095 L30.7814941,36.1706455 L29.9520354,36.0732149 L29.1749839,35.9734863 C29.0496316,35.9566049 28.9263046,35.9395765 28.8049237,35.9223754 L28.0993598,35.8168906 L27.4367054,35.706029 L26.8131614,35.5885591 C24.8965201,35.204808 23.5110195,34.7031335 22.1137843,33.9075603 C19.0716053,32.1753708 16.9957518,29.2524944 15.5278243,24.5853696 C15.1964155,23.5316894 15.7819322,22.4088529 16.8356124,22.0774441 Z" id="Path-3"></path>
            <path d="M8.63757043,10.4062464 L8.40754469,10.972765 L8.20457634,11.4903808 L7.98308268,12.086866 L7.81232556,12.5742445 L7.56624405,13.3144578 L7.02064958,15.0441557 L6.78668113,15.7993009 L6.61960183,15.9480051 C0.945278111,21.0437771 -1.22857992,28.6918524 0.672861212,35.1299221 C2.81120413,42.370115 9.83379796,49.946245 18.0068619,52.0131276 C20.8915819,52.7426432 23.3418399,52.6974031 26.0051718,51.9860116 L26.1538906,51.9444686 L26.5139321,51.8344221 L26.9462901,51.6929141 L27.7011366,51.4334371 L28.8357625,51.0275939 L30.8731636,50.2736073 L32.7863555,49.5453362 L33.0782017,49.428949 C34.7924846,48.8131808 36.4104428,48.3230579 38.1760669,47.9103425 C39.0121049,47.7149183 39.7561769,47.645437 40.9081279,47.6569164 L41.4705796,47.6677995 L42.1018755,47.6891972 L42.4467528,47.7035319 C42.669721,47.7132496 42.8871574,47.7212851 43.0993105,47.7274527 L43.7201687,47.7401659 C47.7568726,47.785084 49.7797094,47.0085085 51.7774284,43.9241059 C53.0569496,41.9485736 52.6091381,40.1313583 50.7723427,37.3987265 L50.4338527,36.9067763 C50.3750576,36.8231279 50.3150781,36.7386331 50.2539229,36.6532644 L49.8729521,36.1303477 L49.4641773,35.5851475 L48.1584528,33.8716127 L47.8766666,33.4925503 L47.5101967,32.9874237 L47.2065533,32.5511149 L47.0364584,32.2943954 L46.8904321,32.0621428 L46.7669328,31.8519097 L46.6644187,31.6612485 C46.6489962,31.6309666 46.6343838,31.6013983 46.6205494,31.5724925 L46.5466226,31.4066001 L46.4898268,31.2541609 C46.4654548,31.1808967 46.4469287,31.1117595 46.4333815,31.0453728 C46.1230428,29.5245904 46.0779161,28.1746857 46.2640467,26.2202851 L46.3346088,25.5453659 L46.4220216,24.8192876 L46.5260056,24.0356684 L46.6970934,22.8072967 L46.7960375,22.0529825 L46.8804373,21.3526343 L46.9497728,20.7015424 L47.0035244,20.0949971 C47.1790386,17.84927 46.9995994,16.4816153 46.3334556,14.7982224 C44.1446348,9.26691594 37.6613271,4.8306305 28.2504965,1.55523242 L27.1928707,1.19607996 C26.8363593,1.07795714 26.4759015,0.96143011 26.1115668,0.846502208 C17.8483826,-1.76008564 12.492368,1.8089973 9.06736459,9.40729019 L8.77849911,10.0683898 C8.73113544,10.180201 8.68416016,10.2928219 8.63757043,10.4062464 Z M24.908233,4.661209 C34.4232622,7.66268627 40.831903,11.7663509 42.6140785,16.2700356 C42.9630084,17.1518064 43.0973902,17.9783586 43.0399391,19.2828623 L43.013715,19.7361302 L42.973468,20.2291901 L42.919385,20.7664303 L42.8127272,21.6647279 L42.6759902,22.6871149 L42.5586131,23.5246816 L42.4418561,24.4090648 C42.4239406,24.5513345 42.4068048,24.691142 42.3904601,24.8286395 L42.3019788,25.6271232 C42.0655707,27.9467252 42.0929723,29.6165769 42.4513474,31.5247611 L42.5455402,31.9920724 L42.6155144,32.2773121 C42.6657417,32.4643725 42.7236291,32.6461993 42.7922025,32.8285858 L42.9034556,33.1033096 C42.9234596,33.1494082 42.9442261,33.1957229 42.9658023,33.2423441 L43.1053546,33.5264738 L43.26661,33.8223054 L43.451838,34.1341837 C43.4848332,34.187742 43.5189217,34.24215 43.554151,34.2974981 L43.7795935,34.6415932 L44.0346826,35.0125971 L44.3216879,35.414855 L44.8170032,36.0863471 L45.6103129,37.1316109 L46.2816985,38.0083247 L46.6558601,38.5073751 L46.9882175,38.9640959 L47.28113,39.3826952 L47.536957,39.767381 C47.814706,40.1980347 48.0215558,40.5680396 48.1743658,40.9074653 C48.2815687,41.1455875 48.3465958,41.3245394 48.3841082,41.4551817 L48.4168545,41.589459 L48.4288168,41.6815296 C48.4305403,41.7177083 48.426581,41.7396234 48.4201058,41.7496209 C47.3624418,43.382614 46.4733418,43.7807946 43.7931617,43.7435508 L43.232664,43.7305333 L41.8364604,43.6768923 C41.712604,43.6728073 41.5920072,43.6692383 41.4743945,43.6662192 L40.8023208,43.654972 C39.4141881,43.6460675 38.4371723,43.7414838 37.2656079,44.0153375 C35.6154407,44.4010647 34.0844285,44.8485418 32.514773,45.3873104 L31.6634618,45.6896957 L28.6261049,46.84259 L27.0865166,47.4083408 L26.2196841,47.7167247 L25.6585332,47.9086651 L25.2037135,48.0548328 L24.9729368,48.1214947 C22.9535104,48.6608953 21.1946795,48.6933693 18.9875472,48.1352086 C12.2773332,46.4382654 6.26917736,39.9565337 4.50904793,33.9969298 C2.99069635,28.855959 4.89615677,22.5438896 9.80247855,18.484209 L10.2630401,18.1031225 L11.3156663,14.721278 L11.6165483,13.8148284 L11.8432979,13.1798628 L11.9433267,12.9142248 L12.1286521,12.4408515 L12.3375959,11.9260527 C15.0412264,5.34396287 18.6616976,2.69076479 24.908233,4.661209 Z" id="Path-4"></path>
        </g>
        <g id="Group-5-Copy" transform="translate(132.500000, 100.000000) rotate(139.000000) translate(-132.500000, -100.000000) translate(106.000000, 75.000000)" fill="#424141" fill-rule="nonzero">
            <path d="M19.5790681,11.1652862 C20.6327483,10.8338774 21.7555848,11.4193941 22.0869936,12.4730743 L22.2779645,13.0640057 C22.3099135,13.1601031 22.3419369,13.255016 22.3740559,13.3487615 L22.5680875,13.8973591 L22.7654334,14.4187463 C22.8651048,14.6727723 22.9664013,14.916898 23.069896,15.1515789 L23.2799864,15.6084827 C24.5245931,18.2018693 26.1204286,19.551043 28.9777893,20.3792583 L29.4801503,20.5162697 C29.5659933,20.5382994 29.6529087,20.5599375 29.7409175,20.581201 L30.2822627,20.7044209 L30.8508712,20.8194585 C30.9479678,20.8379945 31.0462429,20.8562234 31.1457177,20.8741619 L31.7571321,20.9784443 C31.8614904,20.9952891 31.9670909,21.0118772 32.0739547,21.0282257 L32.730468,21.1235747 C32.8424702,21.1390318 32.9557782,21.1542829 33.0704133,21.1693448 L33.7743184,21.2575824 C33.8943467,21.2719554 34.0157445,21.2861731 34.138533,21.3002522 L34.8921229,21.3832001 L38.1599568,21.7184144 L38.4623824,21.7512123 C39.7467508,21.8917844 40.8885816,22.0342094 42.0262735,22.2006547 C43.1192084,22.3605519 43.8755849,23.376173 43.7156876,24.4691079 C43.5557903,25.5620428 42.5401692,26.3184192 41.4472344,26.158522 C40.5428544,26.0262105 39.6315322,25.9092869 38.6355545,25.7954775 L37.1129386,25.6300733 L34.4106147,25.3548516 L33.5249497,25.2584876 L32.695491,25.161057 L31.9184396,25.0613284 C31.7930872,25.044447 31.6697602,25.0274186 31.5483794,25.0102174 L30.8428155,24.9047327 L30.1801611,24.793871 L29.5566171,24.6764012 C27.6399757,24.2926501 26.2544751,23.7909756 24.85724,22.9954024 C21.815061,21.2632129 19.7392075,18.3403365 18.27128,13.6732117 C17.9398712,12.6195315 18.5253879,11.496695 19.5790681,11.1652862 Z" id="Path-3" transform="translate(30.957809, 18.626230) rotate(147.000000) translate(-30.957809, -18.626230) "></path>
            <path d="M16.2868634,4.61871191 C14.4537127,5.87970202 13.071119,7.55287308 11.4246777,10.2780792 L10.9887164,11.013288 L10.5379663,11.7987504 L8.99736528,14.5654715 L8.62002344,15.2228747 C7.70574582,16.7895294 7.00075937,17.79055 6.30737238,18.4681838 L5.63471374,19.0973724 C5.54769717,19.1798424 5.46167918,19.2620587 5.37666042,19.3440255 L4.87854378,19.8328693 C3.98733193,20.7237265 3.21718303,21.5854809 2.56895542,22.4240373 L2.22747325,22.8791666 C-1.17612512,27.5591298 -0.701497757,31.5362356 3.8050478,35.8678175 L4.25375691,36.2881449 C4.33064125,36.3583957 4.40857577,36.4287476 4.48756111,36.4992051 L4.97408815,36.9232515 C5.30685296,37.2068407 5.65645154,37.4922602 6.02292515,37.779794 L6.39698395,38.0692581 L8.08265837,39.3206321 L10.3879828,41.0139162 L10.7377548,41.2761238 L11.3962149,41.7778057 L12.0035264,42.2525882 C12.1979228,42.4068207 12.3845205,42.5572523 12.5640455,42.7045653 L13.0821286,43.1378307 C13.1651814,43.2087097 13.2466476,43.2789796 13.3266178,43.3487258 L13.7892146,43.7615996 L14.0871468,44.0391018 C15.4475537,45.3308591 17.8228407,46.4287558 21.2811307,47.4132795 L22.1319489,47.6474297 L23.0245636,47.8774736 L23.9591842,48.1036584 C24.5963131,48.253217 25.2615853,48.4003677 25.9552801,48.5454402 C33.6385775,50.3316883 41.186439,49.7873949 46.4010997,46.0010978 C49.0049937,44.1104443 50.5645692,41.4908638 51.3789688,38.0817251 L51.4875507,37.6086893 L51.5860399,37.1393494 C51.6016498,37.0611545 51.6168662,36.9829038 51.6317026,36.9044925 L51.7162702,36.4312585 L51.792368,35.9491363 L51.8606453,35.4530924 L51.9217513,34.9380931 L51.9763351,34.3991048 L52.0474016,33.5346317 L52.0885199,32.9136486 L52.1253881,32.2510588 L52.1741414,31.1681503 L52.2032243,30.3795214 L52.3388413,25.9328627 L52.378997,25.0437839 L52.4422095,23.7456887 C52.4501479,23.564204 52.4575661,23.3848793 52.4644677,23.2074005 L52.4878829,22.5507803 C52.6880385,16.3511995 52.2217609,11.8054612 50.6880593,8.16727565 C48.7092342,3.47318575 44.993688,0.710084376 39.4352418,0.254628157 C30.0018717,-0.518337327 22.5072697,0.339810772 16.2868634,4.61871191 Z M39.1085786,4.24126724 C44.5089788,4.68377325 47.2248548,7.76702687 48.1522796,14.0395428 L48.2404636,14.6884415 L48.3165264,15.3594569 L48.3806774,16.0527173 C48.3903882,16.1701216 48.3996115,16.2884581 48.4083515,16.4077295 L48.4550276,17.1345977 L48.4903155,17.8840315 L48.5144246,18.6561589 C48.5206211,18.9173312 48.5249894,19.1823072 48.5275644,19.4511081 L48.5299443,20.2690075 C48.5294559,20.4072437 48.5285279,20.5464414 48.5271647,20.6866035 L48.5137973,21.5391683 C48.5076239,21.8272278 48.4997443,22.1191658 48.4901937,22.4150036 L48.4672475,23.0584419 L48.4214256,24.1052983 L48.3499873,25.5772774 L48.2909629,27.3047285 L48.23083,29.4150382 L48.1825112,30.6936691 L48.1440558,31.4977859 L48.1000152,32.2647175 L48.0498832,32.9957134 L47.9931533,33.6920231 C47.9831204,33.8052536 47.9727914,33.917091 47.9621559,34.0275611 L47.8945797,34.6741846 L47.8191398,35.2892457 C47.7926262,35.4891446 47.7647176,35.6839913 47.7353296,35.8739942 L47.6426428,36.4296795 C47.1723894,39.0472687 46.3733416,40.6902222 44.9882063,41.9934402 L44.6931794,42.2584322 C44.6425864,42.301859 44.5912753,42.3449339 44.5392357,42.387683 L44.2181712,42.6404751 C44.1631753,42.6820248 44.1074297,42.7233007 44.0509239,42.7643288 C39.959784,45.7348521 33.5256707,46.1988306 26.8174529,44.6397155 L26.3586437,44.5424238 L25.4710496,44.34641 L24.6236217,44.1486858 C24.4857398,44.1156024 24.3495382,44.0824575 24.2150203,44.0492562 L23.428143,43.8494101 L22.6818338,43.648445 C22.5608385,43.6148708 22.4415402,43.5812597 22.3239424,43.5476168 L21.6387865,43.3454168 L20.9946004,43.1426892 C20.7867179,43.0750517 20.5856904,43.0073657 20.3915449,42.9396706 L19.8297806,42.7365974 L19.3094684,42.5337062 C18.1438921,42.0606899 17.318153,41.5910918 16.8414393,41.1384342 L16.4886231,40.8097877 C15.571422,39.9710147 14.5171594,39.1166279 13.1872213,38.113389 L12.239162,37.4097924 L9.22984745,35.1944472 L8.7409222,34.826222 L8.2389259,34.4341781 L7.76504787,34.0521028 C7.68841124,33.9892156 7.6129461,33.9267147 7.53865238,33.8645857 L7.10694676,33.496157 L6.70335273,33.1359552 C3.39227027,30.1072313 3.12749272,27.8946069 5.9016384,24.572895 L6.24202844,24.1768724 C6.53736974,23.8423959 6.86191744,23.4965336 7.21566458,23.1374713 L7.65417643,22.7001444 C7.72959755,22.6261619 7.80618653,22.5516223 7.88394332,22.4765112 L8.36449737,22.0188701 L8.8730762,21.5468155 C9.96611067,20.5439207 10.8873701,19.269771 12.0367617,17.3045192 L12.5351627,16.435091 L13.998892,13.8048056 L14.3876013,13.1263907 C14.4510493,13.017234 14.513855,12.9100062 14.5760575,12.8046661 L14.9423479,12.1949501 L15.2960424,11.6285685 C16.4561202,9.81066219 17.4376015,8.68212688 18.553832,7.91429286 C23.7935674,4.30997685 30.5315163,3.53846717 39.1085786,4.24126724 Z" id="Path-5"></path>
        </g>
        <g id="Group-5" transform="translate(149.500000, 31.000000) rotate(-83.000000) translate(-149.500000, -31.000000) translate(123.000000, 6.000000)" fill="#424141" fill-rule="nonzero">
            <path d="M19.5790681,11.1652862 C20.6327483,10.8338774 21.7555848,11.4193941 22.0869936,12.4730743 L22.2779645,13.0640057 C22.3099135,13.1601031 22.3419369,13.255016 22.3740559,13.3487615 L22.5680875,13.8973591 L22.7654334,14.4187463 C22.8651048,14.6727723 22.9664013,14.916898 23.069896,15.1515789 L23.2799864,15.6084827 C24.5245931,18.2018693 26.1204286,19.551043 28.9777893,20.3792583 L29.4801503,20.5162697 C29.5659933,20.5382994 29.6529087,20.5599375 29.7409175,20.581201 L30.2822627,20.7044209 L30.8508712,20.8194585 C30.9479678,20.8379945 31.0462429,20.8562234 31.1457177,20.8741619 L31.7571321,20.9784443 C31.8614904,20.9952891 31.9670909,21.0118772 32.0739547,21.0282257 L32.730468,21.1235747 C32.8424702,21.1390318 32.9557782,21.1542829 33.0704133,21.1693448 L33.7743184,21.2575824 C33.8943467,21.2719554 34.0157445,21.2861731 34.138533,21.3002522 L34.8921229,21.3832001 L38.1599568,21.7184144 L38.4623824,21.7512123 C39.7467508,21.8917844 40.8885816,22.0342094 42.0262735,22.2006547 C43.1192084,22.3605519 43.8755849,23.376173 43.7156876,24.4691079 C43.5557903,25.5620428 42.5401692,26.3184192 41.4472344,26.158522 C40.5428544,26.0262105 39.6315322,25.9092869 38.6355545,25.7954775 L37.1129386,25.6300733 L34.4106147,25.3548516 L33.5249497,25.2584876 L32.695491,25.161057 L31.9184396,25.0613284 C31.7930872,25.044447 31.6697602,25.0274186 31.5483794,25.0102174 L30.8428155,24.9047327 L30.1801611,24.793871 L29.5566171,24.6764012 C27.6399757,24.2926501 26.2544751,23.7909756 24.85724,22.9954024 C21.815061,21.2632129 19.7392075,18.3403365 18.27128,13.6732117 C17.9398712,12.6195315 18.5253879,11.496695 19.5790681,11.1652862 Z" id="Path-3" transform="translate(30.957809, 18.626230) rotate(147.000000) translate(-30.957809, -18.626230) "></path>
            <path d="M16.2868634,4.61871191 C14.4537127,5.87970202 13.071119,7.55287308 11.4246777,10.2780792 L10.9887164,11.013288 L10.5379663,11.7987504 L8.99736528,14.5654715 L8.62002344,15.2228747 C7.70574582,16.7895294 7.00075937,17.79055 6.30737238,18.4681838 L5.63471374,19.0973724 C5.54769717,19.1798424 5.46167918,19.2620587 5.37666042,19.3440255 L4.87854378,19.8328693 C3.98733193,20.7237265 3.21718303,21.5854809 2.56895542,22.4240373 L2.22747325,22.8791666 C-1.17612512,27.5591298 -0.701497757,31.5362356 3.8050478,35.8678175 L4.25375691,36.2881449 C4.33064125,36.3583957 4.40857577,36.4287476 4.48756111,36.4992051 L4.97408815,36.9232515 C5.30685296,37.2068407 5.65645154,37.4922602 6.02292515,37.779794 L6.39698395,38.0692581 L8.08265837,39.3206321 L10.3879828,41.0139162 L10.7377548,41.2761238 L11.3962149,41.7778057 L12.0035264,42.2525882 C12.1979228,42.4068207 12.3845205,42.5572523 12.5640455,42.7045653 L13.0821286,43.1378307 C13.1651814,43.2087097 13.2466476,43.2789796 13.3266178,43.3487258 L13.7892146,43.7615996 L14.0871468,44.0391018 C15.4475537,45.3308591 17.8228407,46.4287558 21.2811307,47.4132795 L22.1319489,47.6474297 L23.0245636,47.8774736 L23.9591842,48.1036584 C24.5963131,48.253217 25.2615853,48.4003677 25.9552801,48.5454402 C33.6385775,50.3316883 41.186439,49.7873949 46.4010997,46.0010978 C49.0049937,44.1104443 50.5645692,41.4908638 51.3789688,38.0817251 L51.4875507,37.6086893 L51.5860399,37.1393494 C51.6016498,37.0611545 51.6168662,36.9829038 51.6317026,36.9044925 L51.7162702,36.4312585 L51.792368,35.9491363 L51.8606453,35.4530924 L51.9217513,34.9380931 L51.9763351,34.3991048 L52.0474016,33.5346317 L52.0885199,32.9136486 L52.1253881,32.2510588 L52.1741414,31.1681503 L52.2032243,30.3795214 L52.3388413,25.9328627 L52.378997,25.0437839 L52.4422095,23.7456887 C52.4501479,23.564204 52.4575661,23.3848793 52.4644677,23.2074005 L52.4878829,22.5507803 C52.6880385,16.3511995 52.2217609,11.8054612 50.6880593,8.16727565 C48.7092342,3.47318575 44.993688,0.710084376 39.4352418,0.254628157 C30.0018717,-0.518337327 22.5072697,0.339810772 16.2868634,4.61871191 Z M39.1085786,4.24126724 C44.5089788,4.68377325 47.2248548,7.76702687 48.1522796,14.0395428 L48.2404636,14.6884415 L48.3165264,15.3594569 L48.3806774,16.0527173 C48.3903882,16.1701216 48.3996115,16.2884581 48.4083515,16.4077295 L48.4550276,17.1345977 L48.4903155,17.8840315 L48.5144246,18.6561589 C48.5206211,18.9173312 48.5249894,19.1823072 48.5275644,19.4511081 L48.5299443,20.2690075 C48.5294559,20.4072437 48.5285279,20.5464414 48.5271647,20.6866035 L48.5137973,21.5391683 C48.5076239,21.8272278 48.4997443,22.1191658 48.4901937,22.4150036 L48.4672475,23.0584419 L48.4214256,24.1052983 L48.3499873,25.5772774 L48.2909629,27.3047285 L48.23083,29.4150382 L48.1825112,30.6936691 L48.1440558,31.4977859 L48.1000152,32.2647175 L48.0498832,32.9957134 L47.9931533,33.6920231 C47.9831204,33.8052536 47.9727914,33.917091 47.9621559,34.0275611 L47.8945797,34.6741846 L47.8191398,35.2892457 C47.7926262,35.4891446 47.7647176,35.6839913 47.7353296,35.8739942 L47.6426428,36.4296795 C47.1723894,39.0472687 46.3733416,40.6902222 44.9882063,41.9934402 L44.6931794,42.2584322 C44.6425864,42.301859 44.5912753,42.3449339 44.5392357,42.387683 L44.2181712,42.6404751 C44.1631753,42.6820248 44.1074297,42.7233007 44.0509239,42.7643288 C39.959784,45.7348521 33.5256707,46.1988306 26.8174529,44.6397155 L26.3586437,44.5424238 L25.4710496,44.34641 L24.6236217,44.1486858 C24.4857398,44.1156024 24.3495382,44.0824575 24.2150203,44.0492562 L23.428143,43.8494101 L22.6818338,43.648445 C22.5608385,43.6148708 22.4415402,43.5812597 22.3239424,43.5476168 L21.6387865,43.3454168 L20.9946004,43.1426892 C20.7867179,43.0750517 20.5856904,43.0073657 20.3915449,42.9396706 L19.8297806,42.7365974 L19.3094684,42.5337062 C18.1438921,42.0606899 17.318153,41.5910918 16.8414393,41.1384342 L16.4886231,40.8097877 C15.571422,39.9710147 14.5171594,39.1166279 13.1872213,38.113389 L12.239162,37.4097924 L9.22984745,35.1944472 L8.7409222,34.826222 L8.2389259,34.4341781 L7.76504787,34.0521028 C7.68841124,33.9892156 7.6129461,33.9267147 7.53865238,33.8645857 L7.10694676,33.496157 L6.70335273,33.1359552 C3.39227027,30.1072313 3.12749272,27.8946069 5.9016384,24.572895 L6.24202844,24.1768724 C6.53736974,23.8423959 6.86191744,23.4965336 7.21566458,23.1374713 L7.65417643,22.7001444 C7.72959755,22.6261619 7.80618653,22.5516223 7.88394332,22.4765112 L8.36449737,22.0188701 L8.8730762,21.5468155 C9.96611067,20.5439207 10.8873701,19.269771 12.0367617,17.3045192 L12.5351627,16.435091 L13.998892,13.8048056 L14.3876013,13.1263907 C14.4510493,13.017234 14.513855,12.9100062 14.5760575,12.8046661 L14.9423479,12.1949501 L15.2960424,11.6285685 C16.4561202,9.81066219 17.4376015,8.68212688 18.553832,7.91429286 C23.7935674,4.30997685 30.5315163,3.53846717 39.1085786,4.24126724 Z" id="Path-5"></path>
        </g>
        <g id="Group" transform="translate(43.000000, 10.000000)" fill="#424141" fill-rule="nonzero">
            <path d="M48.8838652,9.51989057 L48.572317,9.29925667 L46.6371347,7.96858257 L45.6857304,7.29828198 L45.1411624,6.90555468 L44.8347946,6.67857789 L43.795824,5.86958376 C38.3160813,1.64948523 34.40085,0 28.0917979,0 C24.4793451,0 21.1286178,1.1175597 16.7176603,3.52134291 L15.9036908,3.97260521 C15.7659839,4.05019032 15.62723,4.12896592 15.487392,4.20893671 L14.6350629,4.70314119 L13.7549535,5.2262554 L12.8452983,5.77850461 L11.6951095,6.48911993 L11.2283781,6.7696545 L10.4268402,7.23727405 L9.22274542,7.92158912 L4.22820979,10.6943223 L3.54621464,11.0843385 L3.35781932,11.1971064 L3.22449573,11.2817987 C1.00473149,12.7700431 0,14.4789761 0,17.1142578 C0,17.9086525 0.00725501542,18.6743735 0.0227800128,19.414347 L0.0523968663,20.5053623 C0.304908438,28.012415 1.52513556,32.8420934 4.88802891,38.3816184 C9.06436371,45.2610846 16.5897859,50.2769724 24.7156493,52.1036478 C32.6853507,53.8952183 40.5983333,51.577288 44.9365864,45.902121 C47.7448438,42.2284466 49.4952355,37.3892477 50.8960646,30.5959717 L51.112444,29.5175773 L51.2912749,28.583493 L51.4720442,27.6015599 L52.0067958,24.5244778 L52.5335807,21.4356009 L52.7131336,20.4246111 C53.6874298,15.0423788 52.4978089,12.1881755 48.8838652,9.51989057 Z M46.3222305,12.6052007 L46.312805,12.5960569 C46.4487765,12.6932794 46.5792321,12.7890936 46.7042722,12.8839514 L47.0632459,13.1661079 C48.9493466,14.7071599 49.3883463,16.1108758 48.8305455,19.4071739 L48.4059531,21.8350284 L47.8144037,25.312702 L47.6271542,26.3807715 L47.4483139,27.3698375 L47.1870963,28.7483815 L47.0999078,29.1897275 C45.7877836,35.7607662 44.1906163,40.2915591 41.7587281,43.472879 C38.4347103,47.8212551 32.1252174,49.6694792 25.5929466,48.2010397 C18.4822282,46.6025666 11.891193,42.2094718 8.30728567,36.3058816 C5.34897222,31.4328007 4.27422275,27.2050524 4.04803016,20.3186985 L4.02086619,19.2915771 C4.0173084,19.1170992 4.01422536,18.940944 4.01160207,18.7630633 L4.00125908,17.6746913 C4,17.4897174 4,17.3029222 4,17.1142578 C4,15.9443684 4.26277855,15.4358391 5.27607834,14.7247273 L5.49427841,14.5768782 L5.78993521,14.4022933 L7.06718232,13.6903287 L10.0582953,12.0399275 L11.627446,11.1596804 L12.6185995,10.5917067 L13.2249727,10.2364431 L13.772224,9.9075853 L14.9125531,9.2032765 L15.7737974,8.68080655 L16.6047344,8.18745863 L17.4068663,7.72298092 L18.1816956,7.28712161 L18.9307247,6.87962891 L19.6554562,6.50025099 C22.9831786,4.79503016 25.566255,4 28.0917979,4 C33.358187,4 36.50691,5.30862642 41.3113861,9.00472722 L42.1055998,9.62519276 C42.1892434,9.69146714 42.2865508,9.76630903 42.3948032,9.84791995 L42.9466401,10.2547901 L43.8170983,10.8764862 L45.2493134,11.8744598 L46.3222305,12.6052007 Z" id="Oval-Copy"></path>
            <path d="M13.7231745,26.0296432 C14.7768548,25.6982344 15.8996912,26.2837511 16.2311,27.3374313 L16.326426,27.6365007 L16.5181623,28.2131185 C16.5502814,28.3068639 16.582496,28.3994419 16.6148276,28.4908692 L16.8103889,29.0257604 C18.0928616,32.4145581 19.6176735,34.1045548 22.6442505,35.0963973 L23.1218958,35.2436153 C23.3668124,35.3146051 23.6209974,35.3817676 23.885024,35.445558 L24.4263691,35.5687779 L24.9949777,35.6838154 C25.189171,35.7208876 25.388078,35.7567309 25.5918686,35.7914805 L26.2180612,35.8925827 L26.8745744,35.9879317 C26.9865767,36.0033888 27.0998847,36.0186399 27.2145198,36.0337018 L27.9184249,36.1219394 L28.6551985,36.206448 L32.3040633,36.5827714 L32.6064889,36.6155693 C33.8908572,36.7561413 35.0326881,36.8985664 36.17038,37.0650117 C37.2633149,37.2249089 38.0196913,38.24053 37.8597941,39.3334649 C37.6998968,40.4263998 36.6842757,41.1827762 35.5913408,41.022879 C34.6869609,40.8905675 33.7756386,40.7736439 32.779661,40.6598345 L28.1046255,40.171083 L26.8395975,40.025414 L26.062546,39.9256854 L25.3341027,39.8224272 L24.6504685,39.7144079 L24.0078442,39.6003961 C23.9039466,39.5808263 23.8015994,39.5609556 23.7007235,39.5407581 L23.1124908,39.4154485 C21.4922678,39.0481349 20.2515042,38.5715881 19.0013464,37.8597594 C15.9591674,36.1275699 13.8833139,33.2046935 12.4153864,28.5375687 C12.0839776,27.4838885 12.6694943,26.361052 13.7231745,26.0296432 Z" id="Path-3-Copy"></path>
        </g>
    </g>
</svg>