<?xml version="1.0" encoding="UTF-8"?>
<svg width="235px" height="152px" viewBox="0 0 235 152" version="1.1" xmlns="http://www.w3.org/2000/svg" xmlns:xlink="http://www.w3.org/1999/xlink">
    <title>cookies</title>
    <g id="cookies" stroke="none" stroke-width="1" fill="none" fill-rule="evenodd">
        <g id="135384" transform="translate(59.000000, 16.000000)" fill="#424141" fill-rule="nonzero">
            <path d="M113.951039,89.0606691 C113.04146,89.0112305 112.262342,88.8482667 111.568981,88.5681152 C109.715155,87.8182983 108.265484,86.3909911 107.484541,84.5507812 C106.702686,82.7078248 106.681703,80.6680298 107.42889,78.8113404 C108.131374,77.062683 109.476128,75.6481934 111.21409,74.8388672 L114.856057,73.1396484 L111.4148,71.0614013 C108.592093,69.3566895 107.430715,65.9042358 108.656868,62.8491211 C108.895895,62.2521973 109.267207,61.6580201 109.78814,61.0437012 L112.294273,58.078308 L108.457983,57.5335692 C107.616827,57.4145508 106.861429,57.2167969 106.143436,56.9256591 C101.094678,54.8840332 98.6396351,49.1015625 100.672276,44.0322877 C101.107451,42.9437255 101.74151,41.9384766 102.557121,41.0458373 L104.10076,39.3548583 L102.31627,37.9238892 C99.8648759,35.963745 97.2054739,34.2480469 94.4101369,32.8271484 C88.8167258,29.9798583 82.8301065,28.3602905 76.7559047,27.9492188 C71.4681196,11.4239503 56.3483021,0 39.4002028,0 C17.6752155,0 0,18.2601928 0,40.7070923 C0,58.7319947 11.492448,74.498291 28.1093767,79.6298217 C28.4761277,82.5238036 29.105626,85.4058839 30.0307146,88.2403566 C33.8432844,99.9334716 41.9647239,109.437561 52.9024836,114.99939 C59.4310188,118.322754 66.4950838,120 73.6093259,120 C77.1591486,120 80.7226558,119.576111 84.2368981,118.733826 C84.2925493,118.738403 84.3454638,118.753052 84.401115,118.753052 C84.8417639,118.753052 85.2614293,118.603821 85.6227066,118.352966 C86.3954385,118.142395 87.1681702,117.945557 87.9345159,117.692871 C99.5875318,113.865967 109.058287,105.714111 114.602433,94.7378541 C114.96371,94.0246582 115.271161,93.2958984 115.575874,92.5698853 L117,89.2254637 L113.951039,89.0606691 Z M4.26964014,40.7070923 C4.26964014,39.4711303 4.33167765,38.249817 4.44936639,37.044983 C6.30684232,38.2470703 9.74627477,40.02594 14.6609226,40.6896973 C14.7567157,40.7006836 14.8525089,40.7070923 14.9473898,40.7070923 C15.9992904,40.7070923 16.9152559,39.927063 17.0603143,38.8513184 C17.2181449,37.6776122 16.396148,36.6000366 15.2283832,36.4416504 C14.9035986,36.3958739 14.6180437,36.328125 14.3078561,36.2722779 C16.0011151,34.7058105 17.0794728,32.4819947 17.0794728,29.9945067 C17.0794728,28.8098145 16.1224531,27.852173 14.9446528,27.852173 C13.7659401,27.852173 12.8089204,28.8098145 12.8089204,29.9945067 C12.8089204,32.3583984 10.8939685,34.2800904 8.53928029,34.2800904 C8.4580842,34.2800904 8.38966042,34.3185424 8.31120134,34.3249512 C6.63710092,33.4762573 5.73025843,32.713623 5.68281799,32.6733398 C5.54414591,32.5506591 5.38175374,32.4865723 5.22392308,32.4050904 C8.86132787,16.3156127 22.7860112,4.28558344 39.4002028,4.28558344 C45.9880385,4.28558344 52.2656867,6.24114984 57.6492652,9.65881359 C57.6173341,10.7601928 57.4403446,12.6663209 56.7378612,14.5715332 C49.4876838,12.1673583 48.6547391,12.722168 47.9203245,13.2147216 C46.9404967,13.8729858 46.6759249,15.201416 47.3291436,16.1865234 C47.8436897,16.960144 48.7724278,17.2897338 49.6245311,17.0782472 C50.3571211,17.1441652 52.2656867,17.6651002 54.2955904,18.2968139 C53.8220984,18.7152098 53.2920427,19.0896607 52.6753167,19.3899537 C50.3680689,19.9612427 46.817334,21.8774414 46.9733401,25.7958984 C47.0153068,26.9485474 47.9613787,27.852173 49.1017739,27.852173 C49.1291435,27.852173 49.1592499,27.852173 49.1893563,27.8503418 C50.3680689,27.805481 51.2840344,26.8066406 51.236594,25.6246948 C51.179118,24.1799927 53.8029398,23.5244752 53.8157121,23.522644 L54.253624,23.3789063 C59.345261,21.0653686 61.0768374,16.1672974 61.6506843,12.6022338 C66.3308666,16.5847779 70.043994,21.810608 72.2490623,27.8759766 C70.7847948,27.9226685 69.3177902,28.0389403 67.8553472,28.22937 C67.2486569,28.3062745 66.6620375,28.4371948 66.0617335,28.5379029 C65.2205778,28.6816406 64.3794223,28.8034057 63.5428281,28.996582 C62.5757731,29.2144777 61.6360872,29.5001222 60.6945768,29.7784425 C60.256665,29.9093627 59.8123669,29.9972534 59.3771921,30.1409911 C59.3279272,30.1556395 59.2832235,30.1794434 59.2366953,30.1940918 C58.3736442,30.4815675 57.5416118,30.8285522 56.7041053,31.1645508 C56.1211354,31.3961791 55.5235682,31.6012573 54.9533706,31.8548583 C54.695185,31.9702148 54.4534213,32.1139526 54.1970605,32.2338867 C48.0745059,35.0985717 42.7283326,39.2440795 38.4459199,44.4094849 C36.6650785,42.140808 33.9390775,40.7070923 30.9567157,40.7070923 C25.6598075,40.7070923 21.349113,45.032959 21.349113,50.3485106 C21.349113,55.3216552 25.1343134,59.3792723 29.956817,59.8892213 C29.8464268,60.2334595 29.7351241,60.5786133 29.6320325,60.9255982 C29.3638114,61.836548 29.1494172,62.7557372 28.9386721,63.6785888 C28.8255449,64.1766356 28.6978206,64.6664428 28.5992904,65.1718139 C28.3830715,66.2796021 28.2316269,67.3937988 28.0993411,68.5125731 C28.0591992,68.8568114 28.0017232,69.1955566 27.9688798,69.5425416 C27.8493666,70.7904052 27.7982769,72.0410156 27.7836798,73.2943725 C27.7809428,73.5049439 27.7535732,73.7063599 27.7535732,73.9160156 C27.7535732,74.0249634 27.7581347,74.1384888 27.7581347,74.2483521 C27.7599595,74.5092773 27.7453624,74.7683716 27.7517487,75.0302123 C13.7878357,69.9563599 4.26964014,56.2619018 4.26964014,40.7070923 Z M35.7326914,48.0340575 C35.6989355,48.0862427 35.6606184,48.1347656 35.6241257,48.1887818 C35.5128232,48.3508301 35.391485,48.5055541 35.2847441,48.6703491 C34.776584,49.4503784 34.3195133,50.2670287 33.8560569,51.0809325 C33.7839839,51.2072754 33.7046123,51.3290405 33.634364,51.4562988 C33.5641157,51.5808105 33.4856564,51.7007447 33.4172326,51.8243409 C33.2630512,52.1054077 33.1070451,52.381897 32.9601622,52.6647949 C32.8853524,52.8103638 32.7932083,52.9431152 32.7183985,53.0886841 C32.4474406,53.6242676 32.2403447,54.1772461 31.993107,54.7192383 C31.9392802,54.8345948 31.8818043,54.9462891 31.8307145,55.0634766 C31.7385707,55.2648926 31.6254434,55.4598998 31.5378611,55.6613159 C31.3371515,55.6887818 31.1473897,55.7043457 30.9612772,55.7043457 C28.0199695,55.7043457 25.6242271,53.3029174 25.6242271,50.3485106 C25.6242271,47.3931886 28.0199695,44.9917603 30.9612772,44.9917603 C33.0112519,44.9917603 34.8623416,46.2030028 35.7399899,48.0303956 C35.7326914,48.0303956 35.7326914,48.0322266 35.7326914,48.0340575 Z M86.8479474,113.529968 C86.261328,110.07843 83.2826154,106.435547 78.7411049,104.126587 C77.688292,103.586426 76.4037507,104.013061 75.8718703,105.066833 C75.3399898,106.120605 75.7587431,107.410583 76.8115559,107.946167 C80.5128232,109.831238 82.6631526,112.756348 82.6759251,114.703674 C73.2799798,116.811218 63.5318805,115.602722 54.8320326,111.180725 C53.3732388,110.440064 51.9883426,109.597778 50.645413,108.704224 C53.8731881,107.727356 56.4240244,105.119934 57.7204258,103.088379 C59.9236696,98.9428711 64.9167765,99.4363404 65.160365,99.4720458 C66.2989357,99.6029662 67.3855045,98.7780762 67.5305626,97.6062012 C67.6728839,96.432495 66.8408515,95.3631591 65.6703499,95.2194213 C65.3373543,95.1745605 57.5562088,94.302063 54.0419666,100.923157 C53.8859604,101.164856 50.1627978,106.846619 45.4552458,104.012146 C45.1541816,103.831787 44.82666,103.75946 44.5000506,103.738403 C39.7842879,99.1040039 36.1997973,93.3837891 34.0886974,86.9073487 C33.2457171,84.3191529 32.6663965,81.6860962 32.3352256,79.0438842 L32.2522048,78.1567383 C32.1627979,77.2851562 32.1007602,76.4108276 32.0670045,75.5364989 C32.0460214,75.0613404 32.0332489,74.5980834 32.0303897,74.1503906 C32.0286874,73.8912963 32.0478459,73.6340332 32.0514952,73.3749389 C32.0670045,72.2048951 32.1180942,71.0440064 32.2266599,69.8995971 C32.2585911,69.5782472 32.3096808,69.256897 32.3479979,68.9355469 C32.4702484,67.9119872 32.6171313,66.895752 32.8114546,65.897827 C32.9035985,65.4354858 33.0185504,64.9786378 33.1252914,64.5181275 C33.3196147,63.6758423 33.524886,62.8381348 33.767562,62.0178223 C33.8067917,61.888733 33.8560569,61.7651367 33.8934618,61.6387941 C35.702585,62.0214844 37.5810441,61.9683839 39.386518,61.3751222 C40.0424735,61.158142 40.6674101,60.8843995 41.2567665,60.5566406 C41.9254943,62.6751708 43.4070959,64.5327759 45.5337052,65.6149291 C45.8429802,65.7733153 46.1714141,65.8465575 46.4961986,65.8465575 C47.2753169,65.8465575 48.0270655,65.4171752 48.4029398,64.6719361 C48.9366447,63.6181641 48.516067,62.3263549 47.4632539,61.7926027 C45.363102,60.7232667 44.5219462,58.1396484 45.5847949,56.0339355 C46.1184998,54.979248 45.6979219,53.6874389 44.6460213,53.1536864 C43.5932084,52.6135254 42.3077548,53.0410767 41.7758744,54.0948488 C41.0031424,55.6292723 39.6821085,56.7636108 38.0572733,57.2973633 C37.1823619,57.5866699 36.2764319,57.6644897 35.3860112,57.5674439 C35.5547897,57.173767 35.7299544,56.7837525 35.9096806,56.3919068 C36.1295488,55.9185792 36.3494172,55.4470826 36.5866194,54.9838256 C36.7252915,54.713745 36.8575773,54.4418334 37.0008109,54.1744995 C37.2179423,53.7670898 37.4514953,53.3752441 37.6795742,52.9769897 C37.9979725,52.4258423 38.3236696,51.882019 38.6657883,51.3482667 C38.9860111,50.8493041 39.3190065,50.3540039 39.6602129,49.8678588 C40.2541308,49.0255737 40.8516978,48.1906127 41.5030918,47.395935 C41.5477952,47.3400879 41.5988849,47.2860717 41.6435886,47.2329713 C44.9899644,43.1964113 49.0762291,39.8025513 53.6934619,37.2619629 C54.0054739,37.0898438 54.332083,36.9470215 54.6504816,36.7840575 C55.4870755,36.3510131 56.3282313,35.9262084 57.1949316,35.5517578 C57.8417638,35.2734375 58.5123163,35.039978 59.1764825,34.7937012 C59.7786113,34.5684816 60.371617,34.3240357 60.986518,34.1271973 C61.3852002,33.998108 61.7893563,33.9001465 62.1880385,33.7838745 C63.0255449,33.5440064 63.8667004,33.3169556 64.72519,33.1283569 C65.1220476,33.0404663 65.5189053,32.9653931 65.9157629,32.8884888 C66.9065382,32.6998901 67.9082616,32.5433348 68.9218448,32.4252319 C69.1572225,32.3977662 69.3916878,32.362976 69.62889,32.3419191 C70.9608717,32.213745 72.300152,32.1368409 73.6558541,32.1368409 C73.9076534,32.1368409 74.1548909,32.156067 74.4048657,32.1725463 C74.644805,32.1899414 74.8856565,32.2073365 75.126508,32.213745 L77.1527623,32.279663 C77.8698428,32.3400879 78.5878358,32.4188231 79.3003547,32.5177003 C78.0732894,37.2821044 80.2482514,42.441101 84.7961479,44.7537232 C85.1054232,44.9121094 85.4347695,44.9844361 85.7586416,44.9844361 C86.5386721,44.9844361 87.2895085,44.5559693 87.6653828,43.8107299 C88.1990877,42.7569581 87.77851,41.465149 86.7266094,40.9313965 C83.910289,39.4976808 82.6184492,36.2475586 83.5152561,33.314209 C86.5824633,34.0704347 89.5894577,35.1809693 92.4778512,36.6485597 C94.3909783,37.6208496 96.2311202,38.7460327 97.9754689,40.0012207 C97.4736948,40.7684325 97.0512926,41.5805053 96.7091739,42.4310302 C93.7970604,49.6893309 97.3113026,57.973938 104.544146,60.899048 C104.627167,60.9329224 104.712924,60.9649659 104.796858,60.9979247 C104.760365,61.0812377 104.726609,61.1627198 104.691941,61.2460327 C103.090826,65.2349855 103.963913,69.6377564 106.718196,72.6800536 C105.292245,73.8977051 104.17557,75.4421998 103.463964,77.2055053 C102.292549,80.1251222 102.323568,83.3285522 103.551546,86.2252807 C104.781348,89.1220092 107.059402,91.3604738 109.969691,92.5387573 C110.232438,92.6458739 110.501571,92.7401733 110.774354,92.826233 C105.786721,102.692871 97.2939686,110.024414 86.8479474,113.529968 L86.8479474,113.529968 Z" id="Shape"></path>
            <path d="M78.9687973,60.7905704 C80.1152382,58.5285814 80.3136779,55.9554332 79.5244287,53.5428253 C78.7342778,51.1302172 77.0547556,49.1721715 74.7916401,48.0258444 C70.1201871,45.655626 64.3933955,47.5343037 62.0256479,52.2025876 C59.6569986,56.8735773 61.5313526,62.6016048 66.2028054,64.9682155 C67.5530978,65.6536667 69.0161403,66 70.4900066,66 C71.4822058,66 72.4807185,65.8412639 73.4512694,65.5228899 C75.8614108,64.7355229 77.8223568,63.0552653 78.9687973,60.7905704 L78.9687973,60.7905704 Z M75.2029516,58.8830318 C74.5661402,60.1411955 73.4792315,61.0737701 72.138861,61.5130001 C70.7984904,61.9495243 69.368822,61.8403933 68.1114353,61.2045469 C65.5172861,59.8895629 64.4763794,56.7067239 65.7914938,54.1128322 C66.719651,52.2810538 68.5795728,51.2240158 70.5071447,51.2240158 C71.3072178,51.2240158 72.121723,51.4071035 72.8839121,51.7931206 C74.1422008,52.4334765 75.0748677,53.5202774 75.5141412,54.8605152 C75.9498068,56.1980471 75.840665,57.6248679 75.2029516,58.8830318 L75.2029516,58.8830318 Z" id="Shape"></path>
            <path d="M32.4995488,30 C37.7373819,30 42,25.7373819 42,20.4995491 C42,15.261716 37.7373819,11 32.4995488,11 C27.2617157,11 23,15.261716 23,20.4995491 C23,25.7373819 27.2617157,30 32.4995488,30 Z M32.4995488,15.2220218 C35.4089548,15.2220218 37.7779782,17.5883387 37.7779782,20.4995491 C37.7779782,23.4116615 35.4089548,25.7779782 32.4995488,25.7779782 C29.591045,25.7779782 27.2220218,23.4116615 27.2220218,20.4995491 C27.2220218,17.5883387 29.591045,15.2220218 32.4995488,15.2220218 Z" id="Shape"></path>
            <path d="M61.7986121,74.031012 C59.5375025,72.8826927 56.9634273,72.6887503 54.5507954,73.4735405 C52.1381638,74.263743 50.179197,75.9433742 49.0310547,78.206637 C47.8829126,80.4698995 47.6871964,83.0425679 48.4763751,85.4555718 C49.2655537,87.8685761 50.9449257,89.8278452 53.207839,90.9734585 C54.5796568,91.670749 56.0425686,92 57.4865399,92 C60.9544164,92 64.3014355,90.0957563 65.9726903,86.7960296 C68.343834,82.1269793 66.4696474,76.3971093 61.7986121,74.031012 L61.7986121,74.031012 Z M62.2098869,84.8881777 C60.8948897,87.4815934 57.7138234,88.5207638 55.1181023,87.2100741 C53.859926,86.5705153 52.9273423,85.4835357 52.4881082,84.1430782 C52.0497757,82.8026204 52.158908,81.3728591 52.7965642,80.1171949 C53.4342205,78.8588245 54.5210322,77.926097 55.8612831,77.4867949 C56.4015323,77.3117958 56.957114,77.223394 57.5072841,77.223394 C58.326226,77.223394 59.1370508,77.4173365 59.8883487,77.7952987 C62.4840701,79.1104986 63.5248838,82.2929579 62.2098869,84.8881777 Z" id="Shape"></path>
            <path d="M88.7982934,81.0317964 C86.5380852,79.8834694 83.9613038,79.6877216 81.5504754,80.4743211 C79.137843,81.2645287 77.1797777,82.9441712 76.0316353,85.2074485 C74.883493,87.4707259 74.6868746,90.0434111 75.4760534,92.4564312 C76.2661342,94.869451 77.9455065,96.8287332 80.2084205,97.9743538 C81.5802387,98.6716489 83.0431508,99 84.4862206,99 C87.9540976,99 91.3020195,97.096646 92.9732746,93.7968975 C95.3435168,89.1278166 93.46933,83.3988112 88.7982934,81.0317964 L88.7982934,81.0317964 Z M89.2104702,91.888131 C87.8927671,94.4824658 84.7144059,95.5234472 82.118684,94.2109447 C80.8605075,93.5713817 79.9279237,92.483493 79.4886893,91.1430266 C79.0494549,89.8025601 79.1594891,88.3736915 79.7971456,87.118019 C80.4348019,85.8596405 81.521614,84.9269067 82.861865,84.4876017 C83.4021143,84.3126015 83.9567943,84.2241991 84.5078666,84.2241991 C85.3268085,84.2241991 86.1376334,84.4181429 86.8889318,84.7961075 C89.4846534,86.1131203 90.5272713,89.2946985 89.2104702,91.888131 L89.2104702,91.888131 Z" id="Shape"></path>
        </g>
    </g>
</svg>