<?xml version="1.0" encoding="UTF-8"?>
<svg width="235px" height="152px" viewBox="0 0 235 152" version="1.1" xmlns="http://www.w3.org/2000/svg" xmlns:xlink="http://www.w3.org/1999/xlink">
    <title>cornbead</title>
    <g id="cornbead" stroke="none" stroke-width="1" fill="none" fill-rule="evenodd">
        <polygon id="Rectangle" stroke="#424141" stroke-width="4" stroke-linejoin="round" transform="translate(117.351600, 39.312603) rotate(-46.000000) translate(-117.351600, -39.312603) " points="75.8516003 -0.687397389 138.345504 19.8186993 158.8516 79.3126026 94.9434834 60.2207195"></polygon>
        <polyline id="Path-11" stroke="#424141" stroke-width="4" stroke-linejoin="round" points="116.825655 69.9556514 116.825655 138.708008 174.953515 104.33183 174.953515 37.2463357"></polyline>
        <polyline id="Path-12" stroke="#424141" stroke-width="4" stroke-linejoin="round" points="59.7496859 41.3788695 59.7496859 106.629883 116.825655 138.708008"></polyline>
        <path d="M128,85 C128,86.1046771 127.104677,87 126,87 C124.895323,87 124,86.1046771 124,85 C124,83.8953231 124.895323,83 126,83 C127.104677,83 128,83.8953231 128,85 L128,85 Z" id="Path" fill="#424141" fill-rule="nonzero"></path>
        <path d="M169,63 C169,64.1046771 168.104478,65 167.000446,65 C165.895522,65 165,64.1046771 165,63 C165,61.8953231 165.895522,61 167.000446,61 C168.104478,61 169,61.8953231 169,63 L169,63 Z" id="Path" fill="#424141" fill-rule="nonzero"></path>
        <path d="M167,76 C167,77.1046771 166.104478,78 164.999554,78 C163.895522,78 163,77.1046771 163,76 C163,74.8953231 163.895522,74 164.999554,74 C166.104478,74 167,74.8953231 167,76 Z" id="Path" fill="#424141" fill-rule="nonzero"></path>
        <path d="M93,85.0004455 C93,86.1044774 92.1044775,87 90.9995544,87 C89.8955223,87 89,86.1044774 89,85.0004455 C89,83.8955223 89.8955223,83 90.9995544,83 C92.1044775,83 93,83.8955223 93,85.0004455 Z" id="Path" fill="#424141" fill-rule="nonzero"></path>
        <path d="M109,83.0004456 C109,84.1044777 108.104677,85 107,85 C105.895323,85 105,84.1044777 105,83.0004456 C105,81.8955225 105.895323,81 107,81 C108.104677,81 109,81.8955225 109,83.0004456 Z" id="Path" fill="#424141" fill-rule="nonzero"></path>
        <path d="M71,99.0004456 C71,100.104478 70.1046771,101 69,101 C67.8953229,101 67,100.104478 67,99.0004456 C67,97.8955225 67.8953229,97 69,97 C70.1046771,97 71,97.8955225 71,99.0004456 Z" id="Path-Copy-7" fill="#424141" fill-rule="nonzero"></path>
        <path d="M129,120.000446 C129,121.104478 128.104677,122 127,122 C125.895323,122 125,121.104478 125,120.000446 C125,118.895523 125.895323,118 127,118 C128.104677,118 129,118.895523 129,120.000446 Z" id="Path-Copy-4" fill="#424141" fill-rule="nonzero"></path>
        <path d="M130,110.000446 C130,111.104478 129.104677,112 128,112 C126.895323,112 126,111.104478 126,110.000446 C126,108.895523 126.895323,108 128,108 C129.104677,108 130,108.895523 130,110.000446 Z" id="Path-Copy-5" fill="#424141" fill-rule="nonzero"></path>
        <path d="M163,99.0004456 C163,100.104478 162.104677,101 161,101 C159.895323,101 159,100.104478 159,99.0004456 C159,97.8955225 159.895323,97 161,97 C162.104677,97 163,97.8955225 163,99.0004456 Z" id="Path-Copy-6" fill="#424141" fill-rule="nonzero"></path>
        <path d="M109,97 C109,98.1046769 108.104477,99 106.999554,99 C105.895522,99 105,98.1046769 105,97 C105,95.8953229 105.895522,95 106.999554,95 C108.104477,95 109,95.8953229 109,97 Z" id="Path" fill="#424141" fill-rule="nonzero"></path>
        <path d="M71,65.0004455 C71,66.1044777 70.1046771,67 69,67 C67.8953231,67 67,66.1044777 67,65.0004455 C67,63.8955223 67.8953231,63 69,63 C70.1046771,63 71,63.8955223 71,65.0004455 L71,65.0004455 Z" id="Path" fill="#424141" fill-rule="nonzero"></path>
        <path d="M73,76 C73,77.1046771 72.1044777,78 71.0004457,78 C69.8955226,78 69,77.1046771 69,76 C69,74.8953229 69.8955226,74 71.0004457,74 C72.1044777,74 73,74.8953229 73,76 Z" id="Path" fill="#424141" fill-rule="nonzero"></path>
        <path d="M109,121.999554 C109,123.104478 108.104477,124 106.999554,124 C105.895522,124 105,123.104478 105,121.999554 C105,120.895523 105.895522,120 106.999554,120 C108.104477,120 109,120.895523 109,121.999554 L109,121.999554 Z" id="Path" fill="#424141" fill-rule="nonzero"></path>
        <polygon id="Path-13" fill="#424141" fill-rule="nonzero" points="174.977949 43.5922751 176.92908 47.0841357 118.475565 79.7459303 116.524435 76.2540697"></polygon>
        <polygon id="Path-13" fill="#424141" fill-rule="nonzero" transform="translate(87.601600, 64.121913) scale(-1, 1) translate(-87.601600, -64.121913) " points="115.55345 47.7960067 117.353579 51.3680558 59.6497504 80.4478192 57.8496213 76.87577"></polygon>
    </g>
</svg>