<?xml version="1.0" encoding="UTF-8"?>
<svg width="235px" height="152px" viewBox="0 0 235 152" version="1.1" xmlns="http://www.w3.org/2000/svg" xmlns:xlink="http://www.w3.org/1999/xlink">
    <title>cornbead</title>
    <g id="cornbead" stroke="none" stroke-width="1" fill="none" fill-rule="evenodd">
        <g id="Group" transform="translate(59.749686, -18.687397)">
            <polygon id="Rectangle" stroke="#424141" stroke-width="4" stroke-linejoin="round" transform="translate(57.601914, 58.000000) rotate(-46.000000) translate(-57.601914, -58.000000) " points="16.1019144 18 78.5958177 38.5060967 99.1019144 98 35.1937975 78.9081169"></polygon>
            <polyline id="Path-11" stroke="#424141" stroke-width="4" stroke-linejoin="round" points="57.0759691 88.6430488 57.0759691 157.395405 115.203829 123.019227 115.203829 55.9337331"></polyline>
            <polyline id="Path-12" stroke="#424141" stroke-width="4" stroke-linejoin="round" points="0 60.0662669 0 125.31728 57.0759691 157.395405"></polyline>
            <path d="M30.5164918,55.3962075 C30.2286467,56.0747722 29.5297154,56.413178 28.9607787,56.1536752 C27.7410253,55.5969715 26.3803037,55.5864511 25.1318505,56.1317576 C23.9171618,56.6612838 22.9506445,57.6537065 22.4112517,58.9284265 C21.9900358,59.922603 22.4239136,61.0851053 23.3828339,61.5199479 C23.631005,61.6347955 23.890994,61.6873974 24.1450741,61.6873974 C24.8718615,61.6873974 25.5674164,61.2481714 25.8797406,60.5108676 C26.0283058,60.1645716 26.282386,59.8971785 26.5963985,59.7586603 C26.7593138,59.6885244 27.085144,59.5955942 27.4337655,59.7533999 C29.9163225,60.8922316 32.854704,59.6446893 33.9858248,56.9804019 C34.1335458,56.6341061 34.3876259,56.366713 34.7024826,56.2281945 C34.8653979,56.1580586 35.190384,56.0651287 35.5398496,56.2229342 C36.7596029,56.779638 38.1203245,56.7892817 39.3687778,56.243975 C40.5834665,55.7144492 41.5499838,54.7229029 42.0893765,53.4481829 C42.5105924,52.4540067 42.0767146,51.2915041 41.1177944,50.8557849 C40.1588741,50.4156821 39.0429476,50.8680588 38.6208876,51.8657418 C38.4723225,52.2120379 38.2182422,52.4794309 37.9042298,52.6170726 C37.7430028,52.6880851 37.4171724,52.7783851 37.0668628,52.6232095 C35.8428887,52.0665058 34.4846997,52.056862 33.2354022,52.6012921 C32.0190251,53.1308181 31.0550402,54.1223644 30.5164918,55.3962075 Z" id="Path" fill="#424141" fill-rule="nonzero" transform="translate(32.250314, 56.187397) rotate(-8.000000) translate(-32.250314, -56.187397) "></path>
            <path d="M58.5164918,48.3962075 C58.2286467,49.0747722 57.5297154,49.413178 56.9607787,49.1536752 C55.7410253,48.5969715 54.3803037,48.5864511 53.1318505,49.1317576 C51.9171618,49.6612838 50.9506445,50.6537065 50.4112517,51.9284265 C49.9900358,52.922603 50.4239136,54.0851053 51.3828339,54.5199479 C51.631005,54.6347955 51.890994,54.6873974 52.1450741,54.6873974 C52.8718615,54.6873974 53.5674164,54.2481714 53.8797406,53.5108676 C54.0283058,53.1645716 54.282386,52.8971785 54.5963985,52.7586603 C54.7593138,52.6885244 55.085144,52.5955942 55.4337655,52.7533999 C57.9163225,53.8922316 60.854704,52.6446893 61.9858248,49.9804019 C62.1335458,49.6341061 62.3876259,49.366713 62.7024826,49.2281945 C62.8653979,49.1580586 63.190384,49.0651287 63.5398496,49.2229342 C64.7596029,49.779638 66.1203245,49.7892817 67.3687778,49.243975 C68.5834665,48.7144492 69.5499838,47.7229029 70.0893765,46.4481829 C70.5105924,45.4540067 70.0767146,44.2915041 69.1177944,43.8557849 C68.1588741,43.4156821 67.0429476,43.8680588 66.6208876,44.8657418 C66.4723225,45.2120379 66.2182422,45.4794309 65.9042298,45.6170726 C65.7430028,45.6880851 65.4171724,45.7783851 65.0668628,45.6232095 C63.8428887,45.0665058 62.4846997,45.056862 61.2354022,45.6012921 C60.0190251,46.1308181 59.0550402,47.1223644 58.5164918,48.3962075 Z" id="Path-Copy" fill="#424141" fill-rule="nonzero" transform="translate(60.250314, 49.187397) rotate(-8.000000) translate(-60.250314, -49.187397) "></path>
            <path d="M55.5164918,66.3962075 C55.2286467,67.0747722 54.5297154,67.413178 53.9607787,67.1536752 C52.7410253,66.5969715 51.3803037,66.5864511 50.1318505,67.1317576 C48.9171618,67.6612838 47.9506445,68.6537065 47.4112517,69.9284265 C46.9900358,70.922603 47.4239136,72.0851053 48.3828339,72.5199479 C48.631005,72.6347955 48.890994,72.6873974 49.1450741,72.6873974 C49.8718615,72.6873974 50.5674164,72.2481714 50.8797406,71.5108676 C51.0283058,71.1645716 51.282386,70.8971785 51.5963985,70.7586603 C51.7593138,70.6885244 52.085144,70.5955942 52.4337655,70.7533999 C54.9163225,71.8922316 57.854704,70.6446893 58.9858248,67.9804019 C59.1335458,67.6341061 59.3876259,67.366713 59.7024826,67.2281945 C59.8653979,67.1580586 60.190384,67.0651287 60.5398496,67.2229342 C61.7596029,67.779638 63.1203245,67.7892817 64.3687778,67.243975 C65.5834665,66.7144492 66.5499838,65.7229029 67.0893765,64.4481829 C67.5105924,63.4540067 67.0767146,62.2915041 66.1177944,61.8557849 C65.1588741,61.4156821 64.0429476,61.8680588 63.6208876,62.8657418 C63.4723225,63.2120379 63.2182422,63.4794309 62.9042298,63.6170726 C62.7430028,63.6880851 62.4171724,63.7783851 62.0668628,63.6232095 C60.8428887,63.0665058 59.4846997,63.056862 58.2354022,63.6012921 C57.0190251,64.1308181 56.0550402,65.1223644 55.5164918,66.3962075 Z" id="Path-Copy-2" fill="#424141" fill-rule="nonzero" transform="translate(57.250314, 67.187397) rotate(-8.000000) translate(-57.250314, -67.187397) "></path>
            <path d="M80.5164918,57.3962075 C80.2286467,58.0747722 79.5297154,58.413178 78.9607787,58.1536752 C77.7410253,57.5969715 76.3803037,57.5864511 75.1318505,58.1317576 C73.9171618,58.6612838 72.9506445,59.6537065 72.4112517,60.9284265 C71.9900358,61.922603 72.4239136,63.0851053 73.3828339,63.5199479 C73.631005,63.6347955 73.890994,63.6873974 74.1450741,63.6873974 C74.8718615,63.6873974 75.5674164,63.2481714 75.8797406,62.5108676 C76.0283058,62.1645716 76.282386,61.8971785 76.5963985,61.7586603 C76.7593138,61.6885244 77.085144,61.5955942 77.4337655,61.7533999 C79.9163225,62.8922316 82.854704,61.6446893 83.9858248,58.9804019 C84.1335458,58.6341061 84.3876259,58.366713 84.7024826,58.2281945 C84.8653979,58.1580586 85.190384,58.0651287 85.5398496,58.2229342 C86.7596029,58.779638 88.1203245,58.7892817 89.3687778,58.243975 C90.5834665,57.7144492 91.5499838,56.7229029 92.0893765,55.4481829 C92.5105924,54.4540067 92.0767146,53.2915041 91.1177944,52.8557849 C90.1588741,52.4156821 89.0429476,52.8680588 88.6208876,53.8657418 C88.4723225,54.2120379 88.2182422,54.4794309 87.9042298,54.6170726 C87.7430028,54.6880851 87.4171724,54.7783851 87.0668628,54.6232095 C85.8428887,54.0665058 84.4846997,54.056862 83.2354022,54.6012921 C82.0190251,55.1308181 81.0550402,56.1223644 80.5164918,57.3962075 Z" id="Path-Copy-3" fill="#424141" fill-rule="nonzero" transform="translate(82.250314, 58.187397) rotate(-8.000000) translate(-82.250314, -58.187397) "></path>
            <path d="M71.2503141,94.6873974 C71.2503141,95.7920745 70.3549912,96.6873974 69.2503141,96.6873974 C68.145637,96.6873974 67.2503141,95.7920745 67.2503141,94.6873974 C67.2503141,93.5827205 68.145637,92.6873974 69.2503141,92.6873974 C70.3549912,92.6873974 71.2503141,93.5827205 71.2503141,94.6873974 L71.2503141,94.6873974 Z" id="Path" fill="#424141" fill-rule="nonzero"></path>
            <path d="M103.250314,79.6873974 C103.250314,80.7920745 102.354792,81.6873974 101.25076,81.6873974 C100.145836,81.6873974 99.2503141,80.7920745 99.2503141,79.6873974 C99.2503141,78.5827205 100.145836,77.6873974 101.25076,77.6873974 C102.354792,77.6873974 103.250314,78.5827205 103.250314,79.6873974 L103.250314,79.6873974 Z" id="Path" fill="#424141" fill-rule="nonzero"></path>
            <path d="M103.250314,94.6873974 C103.250314,95.7920745 102.354792,96.6873974 101.249869,96.6873974 C100.145836,96.6873974 99.2503141,95.7920745 99.2503141,94.6873974 C99.2503141,93.5827205 100.145836,92.6873974 101.249869,92.6873974 C102.354792,92.6873974 103.250314,93.5827205 103.250314,94.6873974 Z" id="Path" fill="#424141" fill-rule="nonzero"></path>
            <path d="M33.2503141,103.687843 C33.2503141,104.791875 32.3547916,105.687397 31.2498685,105.687397 C30.1458364,105.687397 29.2503141,104.791875 29.2503141,103.687843 C29.2503141,102.58292 30.1458364,101.687397 31.2498685,101.687397 C32.3547916,101.687397 33.2503141,102.58292 33.2503141,103.687843 Z" id="Path" fill="#424141" fill-rule="nonzero"></path>
            <path d="M49.2503141,101.687843 C49.2503141,102.791875 48.3549912,103.687397 47.2503141,103.687397 C46.145637,103.687397 45.2503141,102.791875 45.2503141,101.687843 C45.2503141,100.58292 46.145637,99.6873974 47.2503141,99.6873974 C48.3549912,99.6873974 49.2503141,100.58292 49.2503141,101.687843 Z" id="Path" fill="#424141" fill-rule="nonzero"></path>
            <path d="M11.2503141,117.687843 C11.2503141,118.791875 10.3549912,119.687397 9.25031412,119.687397 C8.14563703,119.687397 7.25031412,118.791875 7.25031412,117.687843 C7.25031412,116.58292 8.14563703,115.687397 9.25031412,115.687397 C10.3549912,115.687397 11.2503141,116.58292 11.2503141,117.687843 Z" id="Path-Copy-7" fill="#424141" fill-rule="nonzero"></path>
            <path d="M69.2503141,138.687843 C69.2503141,139.791875 68.3549912,140.687397 67.2503141,140.687397 C66.145637,140.687397 65.2503141,139.791875 65.2503141,138.687843 C65.2503141,137.58292 66.145637,136.687397 67.2503141,136.687397 C68.3549912,136.687397 69.2503141,137.58292 69.2503141,138.687843 Z" id="Path-Copy-4" fill="#424141" fill-rule="nonzero"></path>
            <path d="M70.2503141,128.687843 C70.2503141,129.791875 69.3549912,130.687397 68.2503141,130.687397 C67.145637,130.687397 66.2503141,129.791875 66.2503141,128.687843 C66.2503141,127.58292 67.145637,126.687397 68.2503141,126.687397 C69.3549912,126.687397 70.2503141,127.58292 70.2503141,128.687843 Z" id="Path-Copy-5" fill="#424141" fill-rule="nonzero"></path>
            <path d="M103.250314,117.687843 C103.250314,118.791875 102.354991,119.687397 101.250314,119.687397 C100.145637,119.687397 99.2503141,118.791875 99.2503141,117.687843 C99.2503141,116.58292 100.145637,115.687397 101.250314,115.687397 C102.354991,115.687397 103.250314,116.58292 103.250314,117.687843 Z" id="Path-Copy-6" fill="#424141" fill-rule="nonzero"></path>
            <path d="M44.2503141,90.6873974 C44.2503141,91.7920743 43.3547916,92.6873974 42.2498685,92.6873974 C41.1458364,92.6873974 40.2503141,91.7920743 40.2503141,90.6873974 C40.2503141,89.5827202 41.1458364,88.6873974 42.2498685,88.6873974 C43.3547916,88.6873974 44.2503141,89.5827202 44.2503141,90.6873974 Z" id="Path" fill="#424141" fill-rule="nonzero"></path>
            <path d="M11.2503141,83.6878429 C11.2503141,84.791875 10.3549913,85.6873974 9.25031412,85.6873974 C8.14563721,85.6873974 7.25031412,84.791875 7.25031412,83.6878429 C7.25031412,82.5829197 8.14563721,81.6873974 9.25031412,81.6873974 C10.3549913,81.6873974 11.2503141,82.5829197 11.2503141,83.6878429 L11.2503141,83.6878429 Z" id="Path" fill="#424141" fill-rule="nonzero"></path>
            <path d="M11.2503141,75.6873974 C11.2503141,76.7920745 10.3547918,77.6873974 9.25075986,77.6873974 C8.14583669,77.6873974 7.25031412,76.7920745 7.25031412,75.6873974 C7.25031412,74.5827203 8.14583669,73.6873974 9.25075986,73.6873974 C10.3547918,73.6873974 11.2503141,74.5827203 11.2503141,75.6873974 Z" id="Path" fill="#424141" fill-rule="nonzero"></path>
            <path d="M49.2503141,140.686952 C49.2503141,141.791875 48.3547916,142.687397 47.2498685,142.687397 C46.1458364,142.687397 45.2503141,141.791875 45.2503141,140.686952 C45.2503141,139.58292 46.1458364,138.687397 47.2498685,138.687397 C48.3547916,138.687397 49.2503141,139.58292 49.2503141,140.686952 L49.2503141,140.686952 Z" id="Path" fill="#424141" fill-rule="nonzero"></path>
        </g>
    </g>
</svg>