<?xml version="1.0" encoding="UTF-8"?>
<svg width="235px" height="152px" viewBox="0 0 235 152" version="1.1" xmlns="http://www.w3.org/2000/svg" xmlns:xlink="http://www.w3.org/1999/xlink">
    <title>feta pizza</title>
    <g id="feta-pizza" stroke="none" stroke-width="1" fill="none" fill-rule="evenodd">
        <g id="135414" transform="translate(58.000000, 16.000000)" fill="#424141" fill-rule="nonzero">
            <path d="M84.2843462,46.0629715 C83.2855736,46.6304425 82.9378938,47.8964802 83.5087528,48.8884086 C84.0814562,49.883087 85.3550525,50.2314537 86.3519806,49.6593989 C86.6019043,49.5163853 86.9182285,49.6016434 87.062096,49.8519172 C87.6827552,50.9336874 88.6916724,51.7101784 89.8988683,52.0392933 C91.1069867,52.3674912 92.3722828,52.2079761 93.457745,51.5882501 C93.7058242,51.4470698 94.0267594,51.5341615 94.1687826,51.7807684 C95.033832,53.2851623 96.6172969,54.1276596 98.2477954,54.1276596 C99.035378,54.1276596 99.8349494,53.9305573 100.567198,53.514351 C101.565048,52.9496303 101.91365,51.6817589 101.341869,50.6889139 C100.772855,49.6960691 99.502025,49.3504528 98.4995637,49.9179236 C98.2514843,50.0591038 97.9305491,49.9720121 97.7885261,49.7254053 C96.5029406,47.494025 93.6329681,46.7202843 91.3901104,47.9918227 C91.234254,48.0807478 91.0885419,48.0660797 90.9963194,48.0413273 C90.9031742,48.0147415 90.7712956,47.9524022 90.6818396,47.7965541 C90.0611804,46.7157006 89.0522632,45.9410433 87.8432229,45.6110117 C86.6369491,45.2864805 85.3744195,45.4459959 84.2843462,46.0629715 Z" id="Path"></path>
            <path d="M48.9708858,33.108669 C49.1618442,33.1648027 49.3573489,33.1914894 49.5464886,33.1914894 C50.436718,33.1914894 51.25602,32.6025456 51.5169964,31.6942839 C51.597017,31.4182165 51.8789077,31.2488951 52.1544333,31.3381569 C54.6032462,32.064214 57.1720899,30.6332647 57.8868194,28.1587808 C57.9677492,27.8827134 58.2469121,27.7161528 58.526075,27.8035742 C59.7145631,28.1523391 60.961248,28.0133854 62.0424356,27.4143191 C63.1254418,26.8134125 63.9120083,25.8214102 64.2575518,24.6214373 C64.5758155,23.5199285 63.9492905,22.3632063 62.8599191,22.0429681 C61.7732754,21.7162883 60.6329815,22.3549243 60.3119897,23.4573533 C60.2319691,23.7361814 59.9482596,23.8870982 59.6745528,23.8107195 C57.2257399,23.0800611 54.6550777,24.5156115 53.9412575,26.991936 C53.8612369,27.2689235 53.5757086,27.4272024 53.3047296,27.3453022 C50.8595542,26.6137236 48.2870732,28.0511145 47.5714343,30.527439 C47.2549891,31.6317086 47.8815143,32.7884309 48.9708858,33.108669 Z" id="Path"></path>
            <path d="M23.9001747,67.4105623 C24.932393,68.1313361 26.1827509,68.4009315 27.4266111,68.1915549 C27.7115848,68.1229979 27.9844916,68.3323745 28.0346174,68.6186457 C28.4374794,70.9004782 30.4341534,72.5106383 32.6814559,72.5106383 C32.9497212,72.5106383 33.2244843,72.4874772 33.4964626,72.4420815 C34.6382149,72.2410432 35.4012397,71.1580298 35.2025932,70.0175768 C35.0030186,68.8789765 33.9225312,68.1331889 32.7752095,68.3156983 C32.4855943,68.3722116 32.217329,68.1767318 32.1672031,67.8923133 C31.7160719,65.3362534 29.270123,63.6028762 26.7007165,64.0670247 C26.5280614,64.088333 26.3897514,64.0355257 26.3099217,63.9817919 C26.2282353,63.9243524 26.1279839,63.8205907 26.0936386,63.6427133 C25.8754989,62.4003513 25.1876629,61.3228967 24.1554446,60.6002699 C23.1232264,59.8757906 21.871012,59.5969309 20.6271517,59.8192775 C19.4863278,60.0203159 18.7251596,61.1042556 18.9256625,62.2437823 C19.1270935,63.3823823 20.21872,64.1485518 21.3576875,63.9410283 C21.5294146,63.9160142 21.6677244,63.9725273 21.7494107,64.0271876 C21.831097,64.0837006 21.9313485,64.188389 21.9656938,64.3662663 C22.1801205,65.6067753 22.8679565,66.6860829 23.9001747,67.4105623 Z" id="Path"></path>
            <path d="M38.2490034,62.2140837 C38.4399426,62.2711705 38.6354283,62.2978723 38.8245492,62.2978723 C39.7137811,62.2978723 40.5339113,61.7085901 40.7948619,60.7998063 C40.873056,60.5226595 41.1540096,60.3560032 41.4313265,60.4434748 C43.8762598,61.1763944 46.4512138,59.7381775 47.1640542,57.2622712 C47.2440669,56.9851242 47.5241113,56.8230716 47.801428,56.9059396 C50.2481799,57.6305727 52.8185878,56.1988008 53.5341557,53.724736 C53.8523881,52.6216733 53.2259251,51.4652069 52.1366613,51.1447846 C51.0537621,50.8308077 49.9072166,51.4569202 49.5889844,52.5590621 C49.5389765,52.7321638 49.4280499,52.8233182 49.3416725,52.869356 C49.2580228,52.9153938 49.1198191,52.9632727 48.9516104,52.9135522 C46.5030402,52.1889191 43.9344509,53.6206909 43.2188827,56.0975181 C43.13887,56.3737439 42.8488239,56.5321137 42.5796903,56.4510874 C40.134757,55.7227713 37.5625308,57.1563845 36.8469626,59.6341324 C36.5332765,60.737195 37.1579212,61.8936615 38.2490034,62.2140837 Z" id="Path"></path>
            <path d="M93.0857465,63.880615 C89.2453737,63.5302858 85.9008579,65.0136535 84.5773499,67.628216 C83.7258687,69.3097964 83.9375931,71.2098715 85.1300335,72.5890625 C85.6378061,73.1744811 86.7670041,74.6329572 86.3215576,75.5364379 C85.8962752,76.3947444 84.1254872,77.1119975 82.6919926,77.016118 C81.3254064,76.9220823 80.3327753,76.5994105 79.9725685,76.1292317 C79.6765206,75.7392601 79.6389418,74.9934274 79.8625817,73.8428724 C79.9129924,73.5828913 80.1448812,72.9412357 80.3474402,72.3760993 C81.1888395,70.0408784 82.1411418,67.3931268 81.0495228,65.4801447 C80.5738298,64.6448859 79.7654266,64.0843591 78.76363,63.8990534 L78.4483345,63.8492697 C77.3127206,63.6925436 76.3457531,64.509364 76.1926883,65.647012 C76.0707863,66.557868 76.59414,67.4134089 77.3878783,67.8015368 C77.2815577,68.6579996 76.7178753,70.2197306 76.4529904,70.9554221 C76.1615252,71.7676327 75.9085555,72.470135 75.7967357,73.0454125 C75.4997713,74.5702667 75.2724652,76.8142176 76.6894619,78.666353 C77.8204931,80.147877 79.7470954,80.989589 82.4124426,81.173051 C82.5948375,81.1850361 82.7790653,81.1914894 82.9678762,81.1914894 C85.6313901,81.1914894 88.7733468,79.9413671 90.032696,77.3894951 C90.6770355,76.0849796 91.3021271,73.3708498 88.2573255,69.8537288 C88.2014154,69.7891943 88.1583372,69.7394108 88.2701572,69.5181502 C88.6367799,68.7953657 90.1362669,67.809834 92.727373,68.0310946 C93.8703192,68.1435688 94.8711994,67.2834184 94.9711041,66.1374729 C95.068259,64.9933714 94.2250267,63.9801823 93.0857465,63.880615 L93.0857465,63.880615 Z" id="Path"></path>
            <path d="M47.6444637,72.5700394 C43.6628819,72.2037154 41.568466,73.6024071 40.513954,74.8253374 C39.2558437,76.2869333 38.799345,78.3165163 39.2640606,80.3960526 C40.0519774,83.9251591 39.8492919,86.5255047 38.6797423,87.9093955 C37.5156706,89.2877358 35.4815124,89.306237 34.6625538,89.2498083 C33.7942932,89.1915295 33.173455,88.8779338 32.7087394,88.2646188 C31.6323154,86.8455756 31.5556236,84.0777941 31.8468698,82.5662451 C32.0632502,81.4330456 31.3346784,80.3359238 30.2162564,80.1139092 C29.0905307,79.8863442 28.0131937,80.6300932 27.7968134,81.7660674 C27.4042244,83.8058264 27.3092727,88.0056018 29.4383828,90.813161 C30.6271053,92.3765134 32.3371494,93.2802976 34.3840896,93.4199818 C34.64612,93.4366328 34.9063241,93.4468085 35.1619634,93.4468085 C37.8899996,93.4468085 40.2847918,92.4412677 41.8158884,90.6272236 C43.8984354,88.1647122 44.3932798,84.4098909 43.2912922,79.471917 C43.1899494,79.0223376 43.1013887,78.1823825 43.6254491,77.5718425 C44.2262015,76.8734216 45.5235707,76.572777 47.2902207,76.7337374 C48.4250763,76.8401195 49.4257215,75.9835134 49.5243254,74.8336629 C49.621103,73.6819625 48.7811454,72.669946 47.6444637,72.5700394 L47.6444637,72.5700394 Z" id="Path"></path>
            <path d="M60,0 C26.9155884,0 0,26.9174194 0,60 C0,75.4980469 5.86944586,90.1528931 16.5518189,101.36261 L16.5518189,107.586365 C16.5518189,111.008606 19.336853,113.79364 22.7590943,113.79364 C23.2681275,113.79364 23.7561035,113.714905 24.2294311,113.598633 C24.3704224,113.563843 24.5031738,113.513489 24.6395873,113.470459 C24.9783326,113.361511 25.3033448,113.22876 25.6155396,113.063049 C25.7400513,112.998962 25.8618164,112.938538 25.9799194,112.866211 C26.3690184,112.628174 26.732483,112.359009 27.0602416,112.044983 C27.0721434,112.032165 27.0867919,112.023926 27.0968627,112.013855 C27.4511719,111.667786 27.7514648,111.275025 28.0133058,110.852966 C28.0279542,110.830078 28.0508423,110.811768 28.0654908,110.788879 C37.630005,116.824036 48.6126708,120 60,120 C93.0844116,120 120,93.0825806 120,60 C120,26.9174194 93.0844116,0 60,0 Z M20.689087,107.586365 L20.689087,86.8194581 L20.343933,86.2985229 C15.1556395,78.4927369 12.4136353,69.3988036 12.4136353,60 C12.4136353,46.3183594 18.1466674,33.5879517 28.2595826,24.55719 C29.1622924,27.9437255 31.0986328,30.8029174 34.466858,31.0308839 C36.8975831,31.2066652 39.5480346,30.0045776 41.3314819,27.9162598 C43.0984498,25.8535767 44.8864746,22.0101928 43.4500123,15.3826903 C48.7527466,13.41156 54.3118287,12.4136353 60,12.4136353 C86.2390137,12.4136353 107.585449,33.7591552 107.585449,60 C107.585449,80.7824707 94.2929077,98.9996339 74.5074464,105.326843 L72.4484252,105.984192 L73.1973267,108.012085 C73.3255005,108.357239 73.547058,108.879089 73.9892578,109.386292 C74.4964598,109.967651 75.6243895,111.413269 75.1794434,112.313232 C74.7555541,113.168335 72.9885865,113.876038 71.5539551,113.782654 C70.1889037,113.68927 69.1973878,113.368835 68.8375854,112.901001 C68.54187,112.514648 68.5052489,111.772156 68.7258912,110.631409 C68.8174439,110.163574 68.8705444,109.700317 68.8879395,109.248047 L68.9739989,106.791687 L66.5414428,107.123108 C64.3167115,107.433472 62.1157837,107.586365 59.9990845,107.586365 C48.2766724,107.586365 37.0111083,103.278809 28.2751465,95.4602051 L24.8263549,92.3712159 L24.8263549,107.586365 C24.8263549,108.728027 23.8980103,109.655456 22.7572631,109.655456 C21.6183471,109.655456 20.689087,108.728027 20.689087,107.586365 L20.689087,107.586365 Z M28.9654542,106.400757 L28.9654542,101.372681 C37.8890991,108.074341 48.7509155,111.723633 60,111.723633 C61.4566041,111.723633 62.9461669,111.657715 64.4522095,111.524963 C64.3981934,112.777405 64.6078491,114.188232 65.5572511,115.42511 C65.5984498,115.480957 65.6607056,115.518494 65.7064819,115.57251 C63.8296509,115.764771 61.9262695,115.861816 60,115.861816 C48.8708496,115.861816 38.1719972,112.578735 28.9654542,106.400757 Z M79.3798828,112.390137 C79.4879152,111.320801 79.2993164,109.963074 78.3636473,108.361816 C98.4283448,100.769348 111.723633,81.6705323 111.723633,60 C111.723633,31.4794922 88.5205078,8.27545172 60,8.27545172 C53.286438,8.27545172 46.7340089,9.55627453 40.5267333,12.0803834 L39.3850709,12.5463867 L39.2504883,13.7731934 C39.1635131,14.5715332 39.2001342,15.338745 39.3621825,16.0528566 C40.5166627,21.1569213 39.3621825,23.859558 38.1912232,25.2310181 C37.050476,26.5612793 35.6231691,26.9851685 34.7479247,26.9046021 C32.8637695,26.7764283 31.940918,22.9257202 31.8017578,20.5297852 L31.576538,16.6195678 L28.4729004,19.0090943 C15.637207,28.8931275 8.27545172,43.8345337 8.27545172,60 C8.27545172,70.0057983 11.1355591,79.6939087 16.5518189,88.060913 L16.5518189,95.0930787 C8.51348883,85.1788331 4.13726812,72.9034425 4.13726812,59.9990845 C4.13726812,29.1970826 29.1970826,4.13726812 60,4.13726812 C90.8029174,4.13726812 115.861816,29.1970826 115.861816,59.9990845 C115.861816,83.991394 100.657654,104.494629 79.3798828,112.390137 Z" id="Shape"></path>
            <path d="M67.8998645,84.4029201 C65.7986468,82.6367413 62.6472728,82.9015776 60.8737761,84.997672 L59.3890725,86.7548119 C58.5290306,87.7698676 58.1180213,89.0587983 58.2311847,90.3838843 C58.3434427,91.7080663 58.9653888,92.9093209 59.9820487,93.7689094 L64.8698018,97.8887879 C65.7778247,98.6543729 66.9031215,99.0638298 68.0773047,99.0638298 C68.2185326,99.0638298 68.3615713,99.0575028 68.5027992,99.0448484 C69.8308847,98.9327675 71.0340378,98.3136107 71.8931742,97.2967474 L73.3805938,95.5377997 C75.1522798,93.4417055 74.8861196,90.2962082 72.7867124,88.5237022 L67.8998645,84.4029201 Z M70.2545682,92.9029937 L68.7671488,94.6619414 C68.5580228,94.9068925 68.2981996,94.9620291 68.1587825,94.9719718 C68.0175546,94.9882415 67.7522996,94.9719718 67.5069614,94.7640796 L62.6192082,90.646009 C62.37387,90.438117 62.3186463,90.1759921 62.3059721,90.0376988 C62.2960137,89.9012131 62.3059721,89.6327612 62.5150979,89.3878101 L64.0025175,87.631574 C64.3193751,87.2510412 64.8860972,87.2067512 65.262705,87.5249164 L70.1504581,91.6429871 C70.5243499,91.9611523 70.5732363,92.5269802 70.2545682,92.9029937 Z" id="Shape"></path>
            <path d="M72.4635406,35.1897769 C72.6914839,36.4991561 73.4220009,37.6415917 74.5241849,38.4077273 C75.3846935,39.0078218 76.3898413,39.3191489 77.420621,39.3191489 C77.7062367,39.3191489 77.9955144,39.2947844 78.2829609,39.2460548 L84.6589657,38.171299 C85.987262,37.9493093 87.1462026,37.2291958 87.9234071,36.1463185 C88.7015267,35.0634412 89.0036204,33.7441359 88.7784232,32.437464 L88.3847863,30.1733479 C88.1577584,28.863969 87.4272412,27.7224359 86.3287192,26.9553977 C85.2301971,26.1910668 83.893662,25.8905684 82.5681121,26.1152654 L76.1921073,27.1900211 C74.8638111,27.4129134 73.7048705,28.1339292 72.9267506,29.2177089 C72.1495463,30.3005861 71.8474527,31.6198915 72.0726498,32.9247587 L72.4635406,35.1897769 Z M76.3010442,31.5720645 C76.3816024,31.4583623 76.5637738,31.262542 76.8841762,31.2074958 L83.260181,30.13274 C83.3141917,30.1246185 83.3663715,30.1201066 83.4158051,30.1201066 C83.6583953,30.1201066 83.8396515,30.2184679 83.9348568,30.2834405 C84.0492861,30.3628515 84.2479354,30.5442334 84.3028615,30.8609751 L84.6964987,33.1241886 C84.7523402,33.4400279 84.6232639,33.6773583 84.5427056,33.787451 C84.4621473,33.901153 84.2808911,34.0951685 83.9577426,34.1520197 L77.5799068,35.2267752 C77.2567583,35.2718952 77.0214916,35.1554859 76.907062,35.0760749 C76.7935481,34.9984686 76.5930678,34.8170867 76.5390573,34.5003451 L76.1463355,32.2353269 C76.0950711,31.9185852 76.2204859,31.6848641 76.3010442,31.5720645 L76.3010442,31.5720645 Z" id="Shape"></path>
            <path d="M59.5764306,50.7807577 C58.5547514,51.6673913 57.9463667,52.8915293 57.8603793,54.2315135 L57.7124439,56.5502611 C57.5349213,59.3123254 59.6698148,61.7040467 62.4722671,61.8810087 L68.9934467,62.2869262 C69.1034738,62.2933115 69.2098022,62.2978723 69.3207538,62.2978723 C70.560638,62.2978723 71.7431971,61.8582044 72.6788886,61.0445447 C73.700568,60.1579112 74.3089524,58.9337729 74.3949398,57.5937887 L74.5428753,55.274129 C74.7203978,52.5120647 72.5855044,50.1212555 69.7830523,49.9433815 L63.2646463,49.5374639 C61.9101123,49.4781726 60.5962607,49.8941242 59.5764306,50.7807577 L59.5764306,50.7807577 Z M70.370171,55.0123349 L70.2222355,57.333819 C70.2009697,57.6549045 70.0215981,57.8592315 69.9171188,57.950449 C69.8098656,58.0407541 69.5805656,58.1939994 69.2541828,58.1730196 L62.7348525,57.7661896 C62.231872,57.7333513 61.8490889,57.3064537 61.8805253,56.8120553 L62.0293852,54.4914834 C62.0497263,54.1694859 62.2300226,53.9651588 62.3345022,53.8748535 C62.4408307,53.7818116 62.6682815,53.6167081 62.9965132,53.6522829 L69.5139947,54.0582005 C70.0188243,54.0910388 70.4016074,54.5179364 70.370171,55.0123349 Z" id="Shape"></path>
            <path d="M24.8348271,54.1052161 L31.0966289,55.5360677 L31.0984467,55.5360677 C31.4683384,55.6184055 31.8382298,55.6595745 32.2017597,55.6595745 C34.4874538,55.6595745 36.5577565,54.0722812 37.0830571,51.7375417 L38.1718291,46.9043015 C38.4671971,45.591468 38.239991,44.2429548 37.5265635,43.1039457 C36.814045,41.9640221 35.7034613,41.1726623 34.4011156,40.8753307 L28.1393135,39.4463093 C26.8351501,39.1471479 25.4937249,39.3804389 24.3640558,40.0976943 C23.2316603,40.8149497 22.4455271,41.9338313 22.1519766,43.2420906 L21.0632046,48.0762456 C20.7651101,49.3890791 20.9959517,50.7394222 21.7102877,51.8802606 C22.4218975,53.0192697 23.5324814,53.8087996 24.8348271,54.1052161 Z M26.157167,44.157872 C26.2289642,43.8440727 26.437085,43.6702482 26.5534146,43.596144 C26.6706529,43.5238695 26.919671,43.4104261 27.2295801,43.4799559 L33.491382,44.9089776 C33.807653,44.9794223 33.9776032,45.1898415 34.052127,45.3060296 C34.1257417,45.4258772 34.238436,45.6701466 34.1666388,45.9885199 L33.0778669,50.8217601 C32.9697167,51.3038948 32.4925836,51.6176941 32.0063626,51.501506 L25.7418342,50.0715695 C25.4291985,50.0011248 25.2574305,49.7916204 25.1856333,49.6745175 C25.1111098,49.5564998 24.9984155,49.3104005 25.0683949,48.9938568 L26.157167,44.157872 Z" id="Shape"></path>
        </g>
    </g>
</svg>