<?xml version="1.0" encoding="UTF-8"?>
<svg width="61px" height="80px" viewBox="0 0 61 80" version="1.1" xmlns="http://www.w3.org/2000/svg" xmlns:xlink="http://www.w3.org/1999/xlink">
    <title>Group</title>
    <g id="Recipe-website" stroke="none" stroke-width="1" fill="none" fill-rule="evenodd">
        <g id="category-view-mobile-default" transform="translate(-244.000000, -511.000000)" fill="#000000" fill-rule="nonzero">
            <g id="Group" transform="translate(244.000000, 511.000000)">
                <path d="M58.5,7.99999964 L52.5,7.99999964 L52.5,1.99999964 C52.5003186,1.46946941 52.2897072,0.960576449 51.9145654,0.585434605 C51.5394236,0.210292761 51.0305306,-3.60954696e-07 50.5,-3.60954696e-07 L6.5,-3.60954696e-07 C3.18779934,0.00363742227 0.503637422,2.68779934 0.5,5.99999964 L0.5,73.9999996 C0.503637422,77.3122007 3.18779934,79.9963626 6.5,79.9999996 L58.5,79.9999996 C59.0305306,79.9999996 59.5394236,79.7897072 59.9145654,79.4145654 C60.2897072,79.0394236 60.5,78.5305306 60.5,77.9999996 L60.5,9.99999964 C60.5,9.46946941 60.2897072,8.96057645 59.9145654,8.58543461 C59.5394236,8.21029276 59.0305306,7.99968139 58.5,7.99999964 Z M6.5,4 L48.5,4 L48.5,8 L6.5,8 C5.3954305,8 4.5,7.1045695 4.5,6 C4.5,4.8954305 5.3954305,4 6.5,4 Z M56.5,76 L6.5,76 C5.39602435,75.9985676 4.50143238,75.1039756 4.5,74 L4.5,11.6316 C5.14048341,11.8686352 5.81709491,11.993267 6.5,12 L56.5,12 L56.5,76 Z" id="Shape"></path>
                <path d="M34.4999996,19.9999996 C33.9694694,19.9999996 33.4605764,20.2102928 33.0854346,20.5854346 C32.7102928,20.9605764 32.4996814,21.4694694 32.4999996,21.9999996 L32.4999996,65.9999996 C32.4999996,67.1045695 33.3954305,67.9999996 34.4999996,67.9999996 C35.6045695,67.9999996 36.4999996,67.1045695 36.4999996,65.9999996 L36.4999996,47.9999996 L46.4999996,47.9999996 C47.0305306,48.0003186 47.5394236,47.7897072 47.9145654,47.4145654 C48.2897072,47.0394236 48.5003186,46.5305306 48.4999996,45.9999996 L48.4999996,33.9999996 C48.4906329,26.2718968 42.2281032,20.0093671 34.4999996,19.9999996 Z M44.5,44 L36.5,44 L36.5,24.2012 C41.1525839,25.1576585 44.4937822,29.2501252 44.5,34 L44.5,44 Z" id="Shape"></path>
                <path d="M20.5,20 C15.3477,20 12.5,28.2773 12.5,34 C12.5,40.0662 15.4138,42.8813 18.5,43.7041 L18.5,66 C18.5,67.1045695 19.3954305,68 20.5,68 C21.6045695,68 22.5,67.1045695 22.5,66 L22.5,43.7041 C25.5862,42.8813 28.5,40.0662 28.5,34 C28.5,28.2773 25.6523,20 20.5,20 Z M20.5,40 C17.02,40 16.5,36.24 16.5,34 C16.5,28.5273 19.1484,24 20.5,24 C21.8516,24 24.5,28.5273 24.5,34 C24.5,36.24 23.9805,40 20.5,40 Z" id="Shape"></path>
            </g>
        </g>
    </g>
</svg>