<?xml version="1.0" encoding="UTF-8"?>
<svg width="235px" height="152px" viewBox="0 0 235 152" version="1.1" xmlns="http://www.w3.org/2000/svg" xmlns:xlink="http://www.w3.org/1999/xlink">
    <title>iron slice</title>
    <g id="iron-slice" stroke="none" stroke-width="1" fill="none" fill-rule="evenodd">
        <g id="2484499" transform="translate(44.000000, 25.000000)" fill="#424141" fill-rule="nonzero">
            <path d="M97.2442094,6.4514843 C89.0354179,4.37656484 81.0179148,2.22607008 73.1917002,0 C65.4623912,2.24143289 57.9212594,4.391115 50.5683048,6.44904634 L4.35473048,21.7374927 C2.30385605,22.3694638 0.906282826,24.2686004 0.906282826,26.4183756 L0.906282826,75.1775731 C0.89935859,77.329176 2.30047284,79.2312728 4.35473048,79.858456 L68.8911888,101.200357 C72.159869,102.266548 75.6818451,102.266548 78.9505252,101.200357 L143.452917,79.8706458 C145.510996,79.2404856 146.91389,77.3337045 146.906226,75.1775731 L146.906226,26.4183756 C146.906226,24.2686004 145.508658,22.3694638 143.457784,21.7374927 L97.2442094,6.4514843 Z M130.768031,35.2949875 C130.831297,35.2803598 130.89213,35.2608561 130.952963,35.2413524 L142.039159,31.5722228 L142.012393,44.195979 L76.339575,66.8885095 L76.339575,53.0408974 C77.2169935,52.9114162 78.0821699,52.7091837 78.926192,52.4362834 L130.768031,35.2949875 Z M71.4729392,66.8885095 L5.77335484,44.1837892 L5.77335484,31.5673469 L68.8741556,52.4338454 C69.7225536,52.7058949 70.5917009,52.9081044 71.4729392,53.0384595 L71.4729392,66.8885095 Z M5.77335484,49.3351984 L71.4729392,72.0326048 L71.4729392,79.0783089 L5.77335484,56.3735886 L5.77335484,49.3351984 Z M76.339575,72.0326048 L141.990493,49.359578 L141.97346,56.4052821 L76.339575,79.0783089 L76.339575,72.0326048 Z M141.932093,26.4695728 L129.765504,30.4995205 C125.698906,30.7300191 121.619597,30.5667314 117.584314,30.0119285 C112.293225,29.3333745 107.364306,26.9544601 103.53677,23.2319621 C102.918707,22.5761509 102.34931,21.8740184 101.777481,21.1767619 C100.771714,19.8629965 99.6441167,18.6475378 98.4097687,17.5466397 C96.8325556,16.2315968 95.0268626,15.219174 93.0832358,14.5601388 C93.9619446,13.4390625 94.74114,12.2431593 95.411921,10.9860897 L141.932093,26.4695728 Z M56.5688668,9.60182426 L73.1917002,4.54239536 L91.5113124,9.60182426 C88.4526446,16.7923426 81.716203,19.0959137 73.9147737,19.0959137 C68.7138209,19.0959137 62.9318519,15.9312172 56.5688668,9.60182426 Z M89.2361601,18.5193857 C91.4450064,18.9096882 93.5198083,19.8522159 95.2683553,21.2596526 C96.2724413,22.1749451 97.1926689,23.1785196 98.0180045,24.2583432 C98.6604005,25.0482422 99.3100964,25.8405792 100.006025,26.576843 C104.540826,31.0639006 110.408992,33.9518126 116.725353,34.8049576 L94.095496,42.2870564 C93.2657346,41.0461349 92.4092067,39.8490966 91.5113124,38.7593285 C88.1307064,34.365253 83.4195912,31.1874384 78.084264,29.7023076 C74.0754343,28.9600417 69.9691506,28.9130373 65.9444408,29.5633439 C63.0368274,29.9848016 60.0914778,30.0812865 57.1625964,29.8510231 C54.810796,29.7212654 52.6064066,28.6621218 51.0330685,26.9059676 C50.365513,25.8899403 49.8314606,24.7919378 49.4441119,23.6391014 C48.8506159,21.8496579 47.9506335,20.1774307 46.7844954,18.6973567 C44.9307169,16.6955774 42.4089184,15.4439819 39.6962402,15.1793806 L52.4005932,10.9763378 C56.6093854,18.969582 64.8861254,23.9743738 73.9062571,23.9804158 C79.4918447,23.9854889 84.9075267,22.0562399 89.2361601,18.5193857 Z M25.5683963,19.8553877 C25.9066275,19.9431542 26.2253921,20.0504245 26.5928231,20.1211253 C28.9181918,20.421008 31.2728994,20.411991 33.5959121,20.0943077 C34.5327395,20.0089791 35.4720003,19.9187746 36.4063944,19.8822052 C38.8276187,19.5656834 41.2685198,20.3001488 43.1150519,21.900836 C43.9028104,22.9689979 44.5110447,24.1589642 44.9157072,25.423688 C45.4524037,26.9879433 46.2007297,28.4710445 47.1397598,29.8315195 C49.4731117,32.6951015 52.8874553,34.4607052 56.5688668,34.7074392 C59.8610591,34.988741 63.1744604,34.8955042 66.4457043,34.4295118 C69.9252898,33.8526049 73.4767157,33.8633173 76.9527712,34.4612053 C81.2448335,35.7347775 85.0264439,38.332609 87.7591361,41.8847931 C88.2798662,42.5186626 88.7908629,43.1939775 89.2896931,43.891234 L77.4175349,47.8163494 C75.1351785,48.5525543 72.679769,48.5525543 70.3974126,47.8163494 L5.87798751,26.3671785 L25.5683963,19.8553877 Z M5.77335484,75.1775731 L5.77335484,61.5249978 L71.4729392,84.2224042 L71.4729392,96.809591 C71.1103748,96.7315763 70.7429438,96.6657514 70.3876794,96.565795 L5.77335484,75.1775731 Z M77.456468,96.5511672 C77.081737,96.6681893 76.7118727,96.7340142 76.339575,96.8144669 L76.339575,84.2297181 L141.963727,61.5566913 L141.934527,75.2287702 L77.456468,96.5511672 Z" id="Shape"></path>
        </g>
    </g>
</svg>