<?xml version="1.0" encoding="UTF-8"?>
<svg width="235px" height="152px" viewBox="0 0 235 152" version="1.1" xmlns="http://www.w3.org/2000/svg" xmlns:xlink="http://www.w3.org/1999/xlink">
    <title>jerk-seasoning</title>
    <g id="jerk-seasoning" stroke="none" stroke-width="1" fill="none" fill-rule="evenodd">
        <g id="1094638" transform="translate(58.000000, 16.000000)" fill="#424141" fill-rule="nonzero">
            <path d="M0.0100708125,68.1994629 C0.0100708125,68.2241822 0.0402832031,68.4521484 0.094299375,68.8220215 C0.119934141,69.093933 0.16296375,69.3649291 0.222473203,69.6313477 C1.33850109,76.2597656 7.68035883,104.316101 36.3125611,116.731568 C41.4495848,118.927917 46.9839478,120.040283 52.5704955,120.001056 L67.4304199,120.001056 C73.0169677,120.040283 78.5513306,118.927917 83.6883544,116.731568 C112.210693,104.36554 118.614807,76.4739989 119.76654,69.7100831 C119.808655,69.5516967 119.815979,69.3896484 119.846191,69.2321777 C119.944153,68.6013795 119.986267,68.2315064 119.990845,68.2040405 C119.994507,68.1756591 119.990845,68.1573488 119.990845,68.1317137 C119.990845,68.1060792 120,68.0438231 120,67.9998778 C120,59.3875123 103.748474,54.8895262 93.3627319,52.8936769 L117.820129,32.6934816 C119.12384,31.6177369 119.912109,30.0411987 119.992676,28.3529662 C120.073242,26.6647338 119.436951,25.0213622 118.242188,23.8256836 L96.1807252,1.7578125 C94.9850463,0.562133906 93.3416747,-0.0732421875 91.6534425,0.00640870312 C89.9652098,0.0869751562 88.3886719,0.875244141 87.3120117,2.17803961 L64.2443848,30.1034545 C63.9587402,30.0375366 63.6657715,30.0027466 63.3728027,30 C62.3117065,29.9963379 61.2936401,30.4174805 60.5465698,31.1700441 L57.7102662,33.9999389 C56.6693114,35.0555419 56.2976074,36.6000366 56.7443848,38.0136108 C54.6002198,41.119995 54.5965575,45.5401612 56.4724732,50.0299073 C28.5140991,50.5178834 -1.99840144e-14,56.7993164 -1.99840144e-14,67.9998778 C-1.99840144e-14,68.0474855 0.0146484375,68.0941772 0.0164794922,68.1399537 C0.0183105469,68.1857299 -1.99840144e-14,68.1820678 0.0100708125,68.1994629 Z M82.0980834,113.062134 C77.4636841,115.039673 72.4694824,116.040344 67.4304199,116.000061 L52.5704955,116.000061 C47.531433,116.040344 42.5372316,115.039673 37.902832,113.062134 C17.3400879,104.145813 9.08203125,86.5658569 5.88867188,76.1297606 C15.4806518,82.1017455 36.4141847,86.0000611 60,86.0000611 C83.586731,86.0000611 104.512024,82.1099855 114.108581,76.1434936 C110.912475,86.5795898 102.652588,104.149475 82.0980834,113.062134 L82.0980834,113.062134 Z M116.000061,67.9421998 C115.980835,68.1033326 115.935974,68.4036255 115.870056,68.8174439 C115.733643,69.2010497 115.542297,69.562683 115.302429,69.8913574 C110.054626,65.7156373 100.39032,62.291565 88.072815,60.2197266 L88.8345337,59.4580078 C89.5852662,58.7081909 90.0045776,57.6901245 90,56.6299439 C90,56.5356445 89.980774,56.445923 89.9743652,56.3534545 C107.728271,59.3453979 115.906677,64.4000245 116.000061,67.9421998 Z M59.4662475,41.4120483 L78.5888672,60.5319213 C75.046692,61.8081666 69.2980957,59.7317505 64.7882081,55.2154542 C60.2783203,50.7000731 58.2000731,44.9514771 59.4662475,41.4120483 L59.4662475,41.4120483 Z M72.3403931,37.3141479 C78.6895753,38.4173583 85.1202394,38.9941406 91.5646362,39.0380859 C96.2008666,39.0673828 100.827942,38.6444091 105.38269,37.7755737 L87.5427246,52.5155639 L77.512207,42.487793 L72.3403931,37.3141479 Z M90.4000854,4.72595203 C90.7589721,4.29107672 91.2854004,4.02740484 91.8484498,4.00085438 C92.4114989,3.97430414 92.9598998,4.18670648 93.3581543,4.58587641 L115.414124,26.6473387 C115.812378,27.0465089 116.02478,27.5939941 115.99823,28.1570435 C115.97168,28.7191772 115.708923,29.24469 115.274048,29.6035767 L113.634338,30.9576417 C98.0905151,38.4741211 72.6901245,33.4359741 67.60437,32.3135377 L90.4000854,4.72595203 Z M63.3700561,33.9999389 L86.0000611,56.6299439 L83.1719972,59.4580078 L60.5419922,36.8316652 L63.3700561,33.9999389 Z M19.4247436,58.6340332 C32.244873,55.4544068 45.4156495,53.9025879 58.6239623,54.0161133 C59.6017455,55.461731 60.716858,56.8112182 61.9528198,58.0435181 C65.6652832,62.0919799 70.794983,64.5538331 76.276245,64.9154662 C78.2473755,64.9557495 80.1855469,64.4082642 81.8444824,63.3435059 C95.5307006,65.0894166 106.682739,68.4933471 112.268372,72.6013184 C103.70636,78.1997681 82.9339598,82.0001222 60,82.0001222 C37.1704102,82.0001222 16.4401245,78.215332 7.77008062,72.5994872 C8.45306391,72.0932006 9.16442859,71.6253661 9.90051281,71.1996459 C11.3552857,70.3720092 12.8631591,69.642334 14.4140625,69.0133666 C16.1105346,68.3139038 17.9983521,67.6473998 20.026245,67.0339966 C22.0541381,66.4196777 24.2825318,65.8337402 26.5988159,65.3201295 C28.944397,64.7955323 31.4346314,64.3194581 33.998108,63.9193725 C36.5982056,63.5073853 39.3319702,63.1576538 42.1124269,62.8738404 C42.8237916,62.8024291 43.4417723,62.3565675 43.7356568,61.7056275 C44.029541,61.053772 43.9535522,60.2957154 43.5360717,59.7152709 C43.1185912,59.1357422 42.4237059,58.8226317 41.7123412,58.894043 C38.8604737,59.1833496 36.0543823,59.5458984 33.3764648,59.9697877 C30.6985474,60.3936769 28.1506348,60.8761596 25.7244872,61.4154052 C23.2983398,61.9555664 21.0021973,62.5579833 18.8644409,63.215332 C16.7266847,63.8735962 14.7042846,64.5794677 12.8887941,65.3256225 C11.1740112,66.0232545 9.50775141,66.8316652 7.89825445,67.7453613 C6.7849732,68.3898926 5.72204578,69.1159057 4.71862781,69.9197388 C4.46319586,69.5736694 4.26544195,69.1882324 4.13269031,68.7799073 C4.06860352,68.3798217 4.02648937,68.0877684 4.00634766,67.9321289 C4.07867437,65.4693605 8.15460211,61.7578125 19.4247436,58.6340332 L19.4247436,58.6340332 Z" id="Shape"></path>
            <path d="M57.2406005,63.8397216 C57.7249146,64.0530396 58.276062,64.0530396 58.7603761,63.8397216 C59.5220948,63.5513306 60.019226,62.8143309 60,61.9995117 C59.9972534,61.8722534 59.9835206,61.744995 59.9588013,61.6195678 C59.9414062,61.4868164 59.901123,61.3586426 59.8406981,61.2396239 C59.7958373,61.1123658 59.7354127,60.9915162 59.6603393,60.8798217 L59.4204712,60.5795287 C58.6184693,59.8397827 57.3825073,59.8397827 56.5805053,60.5795287 C56.4944459,60.6747436 56.4138795,60.7745362 56.3406373,60.8798217 C56.2646484,60.9915162 56.2042237,61.1123658 56.1602784,61.2396239 C56.0998535,61.3586426 56.0586548,61.4877319 56.0403443,61.6195678 C56.0174559,61.744995 56.0037232,61.8722534 56.0000611,61.9995117 C56.0073853,62.5296021 56.2142944,63.0368041 56.5805053,63.4194947 C56.7718505,63.600769 56.9952394,63.7426758 57.2406005,63.8397216 Z" id="Path"></path>
            <path d="M51.2402344,67.8634643 C51.7245483,68.0767823 52.2766113,68.0767823 52.7600098,67.8634643 C53.5217285,67.5750731 54.0188599,66.8380737 54.0005494,66.0241699 C53.9978027,65.8969116 53.9831543,65.7705689 53.958435,65.6460572 C53.9419556,65.5123901 53.9016724,65.3833008 53.840332,65.2633666 C53.7954712,65.137024 53.7350463,65.0161744 53.6599732,64.9035645 L53.4201049,64.604187 C52.618103,63.8635254 51.3821412,63.8635254 50.5801392,64.604187 C50.4940795,64.6984863 50.4144286,64.7991942 50.3402709,64.9035645 C50.2651978,65.0152589 50.2047729,65.1361083 50.1608276,65.2633666 C50.0994872,65.3833008 50.0582885,65.5123901 50.039978,65.6460572 C50.0170898,65.7705689 50.0033569,65.8969116 50.0006105,66.0241699 C50.007019,66.5533448 50.2148438,67.0605469 50.5801392,67.4441529 C50.7714844,67.6245117 50.9957885,67.767334 51.2402344,67.8634643 L51.2402344,67.8634643 Z" id="Path"></path>
            <path d="M63.2400513,67.8634643 C63.7243652,68.0767823 64.2764283,68.0767823 64.7607422,67.8634643 C65.5224609,67.5750731 66.0195923,66.8380737 66.0003661,66.0241699 C65.9976197,65.8969116 65.9829713,65.7705689 65.958252,65.6460572 C65.9417723,65.5123901 65.9014894,65.3833008 65.840149,65.2633666 C65.795288,65.137024 65.7348633,65.0161744 65.6607056,64.9035645 L65.4208373,64.604187 C64.6179199,63.8635254 63.3828736,63.8635254 62.5799559,64.604187 C62.494812,64.6984863 62.4142455,64.7991942 62.3400879,64.9035645 C62.2650145,65.0152589 62.2045898,65.1361083 62.1606445,65.2633666 C62.0993041,65.3833008 62.0590209,65.5123901 62.0407104,65.6460572 C62.0169068,65.7705689 62.0040893,65.8969116 62.0004272,66.0241699 C62.0068359,66.5533448 62.2146607,67.0605469 62.5799559,67.4441529 C62.7713013,67.6245117 62.9956055,67.767334 63.2400513,67.8634643 L63.2400513,67.8634643 Z" id="Path"></path>
            <path d="M47.2402955,73.8400268 C47.7246094,74.0533448 48.2757567,74.0533448 48.7600709,73.8400268 C49.5217896,73.5516356 50.0189208,72.8137207 50.0006105,71.999817 C49.9969481,71.8725586 49.9832154,71.7453002 49.9584961,71.619873 C49.941101,71.4871216 49.9017333,71.3589478 49.8403931,71.2399291 C49.7955323,71.1126708 49.7351074,70.9918214 49.6600341,70.880127 L49.420166,70.579834 C48.6181641,69.8400879 47.382202,69.8400879 46.5802003,70.579834 C46.4941406,70.6750488 46.4144897,70.7748412 46.340332,70.880127 C46.2643432,70.9909057 46.2039185,71.1126708 46.1599732,71.2399291 C46.0995483,71.3589478 46.0592651,71.4871216 46.0400391,71.619873 C46.0171509,71.7453002 46.003418,71.8725586 46.0006713,71.999817 C46.0070801,72.5289916 46.2139894,73.0371094 46.5802003,73.4197997 C46.7715455,73.6001587 46.9958496,73.742981 47.2402955,73.8400268 Z" id="Path"></path>
            <path d="M64.5803834,72.5793457 C64.4943237,72.6745605 64.414673,72.7752684 64.3405151,72.8796387 C64.2645262,72.9913331 64.2041016,73.1121825 64.1601562,73.2394409 C64.0997316,73.3584595 64.0585327,73.4875488 64.0402221,73.6193848 C64.017334,73.744812 64.003601,73.8720703 64.0008544,73.9993287 C64.0072631,74.5294191 64.2141724,75.0366211 64.5803834,75.4193114 C64.7717285,75.6005859 64.9960327,75.7434082 65.2404785,75.8395385 C65.7247924,76.0528566 66.27594,76.0528566 66.7602539,75.8395385 C67.5219727,75.5511473 68.0191041,74.8141479 68.0007935,73.9993287 C67.9971314,73.8720703 67.9833984,73.744812 67.9586791,73.6193848 C67.9412841,73.4875488 67.9010011,73.3584595 67.8405762,73.2394409 C67.7957154,73.1130982 67.7352905,72.9913331 67.6602173,72.8796387 L67.4203491,72.5793457 C66.6183471,71.8395996 65.3823853,71.8395996 64.5803834,72.5793457 L64.5803834,72.5793457 Z" id="Path"></path>
            <path d="M54.5800781,77.4197388 C54.7714233,77.6000977 54.9957277,77.7429199 55.2401733,77.8399659 C55.7244872,78.0532837 56.2765502,78.0532837 56.7608644,77.8399659 C57.5225831,77.5515748 58.0187988,76.8136596 58.0004883,75.9997559 C57.9977416,75.8724975 57.9830932,75.7452394 57.9583739,75.619812 C57.9409791,75.4870605 57.9016113,75.3588867 57.8402709,75.2398683 C57.7954102,75.1126099 57.7349855,74.9917603 57.6608276,74.8800659 L57.4200441,74.5797729 C56.6180419,73.8400268 55.3820801,73.8400268 54.5800781,74.5797729 C54.4940184,74.6749877 54.4143677,74.7747802 54.3402098,74.8800659 C54.2642212,74.9908448 54.2037963,75.1126099 54.1607667,75.2398683 C54.0994263,75.3588867 54.0591431,75.4870605 54.0408326,75.619812 C54.0170288,75.7452394 54.0042115,75.8724975 54.0005494,75.9997559 C54.0069581,76.5298463 54.2147827,77.0370483 54.5800781,77.4197388 L54.5800781,77.4197388 Z" id="Path"></path>
            <path d="M57.2406005,71.8395996 C57.7249146,72.0529174 58.276062,72.0529174 58.7603761,71.8395996 C59.5220948,71.5512084 60.019226,70.814209 60,69.9993895 C59.9972534,69.8721314 59.9835206,69.744873 59.9588013,69.6194459 C59.9414062,69.4876099 59.901123,69.3585206 59.8406981,69.239502 C59.7958373,69.1122436 59.7354127,68.991394 59.6603393,68.8796998 L59.4204712,68.5794068 C58.6184693,67.8396607 57.3825073,67.8396607 56.5805053,68.5794068 C56.4944459,68.6746216 56.4138795,68.7753295 56.3406373,68.8796998 C56.2646484,68.991394 56.2042237,69.1122436 56.1602784,69.239502 C56.0998535,69.3585206 56.0586548,69.4876099 56.0403443,69.6194459 C56.0174559,69.744873 56.0037232,69.8721314 56.0000611,69.9993895 C56.0073853,70.5294799 56.2142944,71.0366822 56.5805053,71.4193725 C56.7718505,71.600647 56.9952394,71.7434693 57.2406005,71.8395996 L57.2406005,71.8395996 Z" id="Path"></path>
        </g>
    </g>
</svg>