<?xml version="1.0" encoding="UTF-8"?>
<svg width="235px" height="152px" viewBox="0 0 235 152" version="1.1" xmlns="http://www.w3.org/2000/svg" xmlns:xlink="http://www.w3.org/1999/xlink">
    <title>lasagne</title>
    <g id="lasagne" stroke="none" stroke-width="1" fill="none" fill-rule="evenodd">
        <g id="605568" transform="translate(52.000000, 4.000000)" fill="#424141" fill-rule="nonzero">
            <path d="M130.953939,38.7968605 C130.969007,38.5065812 130.92949,38.2160187 130.837381,37.9401826 C130.49197,35.7459544 129.145578,33.8352086 127.191377,32.765848 L68.9522581,0.870525802 C66.7928004,-0.293423361 64.1884307,-0.290024969 62.0321001,0.879871379 L3.82880154,32.7539537 C1.86692454,33.8233143 0.51342557,35.738308 0.164318926,37.9387666 C0.0716407772,38.214886 0.0318403454,38.5060148 0.0469076518,38.7965773 C0.040937587,38.9126891 0,39.0208712 0,39.1375493 L0,101.245423 C0.00227431039,103.120203 0.440363349,104.969211 1.27929959,106.64745 L4.99864995,114.055378 C6.98554436,118.009973 11.3817863,120.152093 15.735385,119.287485 L16.2542121,119.1861 C18.6175048,118.715422 20.9816505,119.991802 21.8760231,122.221147 L22.1389902,122.87732 C23.910678,127.27144 28.5750043,129.782852 33.2356349,128.852825 C35.5992119,128.381015 37.9636419,129.657677 38.8574459,131.887872 L39.120413,132.544045 C40.8815821,136.937032 45.5399384,139.451276 50.195736,138.521816 L51.8423367,138.196137 C53.6751466,137.82288 55.5628242,138.508222 56.7249968,139.968398 L57.8101272,141.318409 C59.6790418,143.645458 62.5085682,145 65.5001392,145 C68.4917102,145 71.3212366,143.645458 73.1901512,141.318409 L74.2775558,139.966132 C75.4391599,138.50539 77.3276904,137.820614 79.160216,138.196137 L80.8019838,138.521816 C85.4569286,139.449577 90.1138634,136.937032 91.8773068,132.546594 L92.1451068,131.88589 C93.0437437,129.652297 95.4161338,128.37705 97.7834066,128.855657 C102.438351,129.782852 107.095002,127.27059 108.85873,122.880152 L109.12653,122.219448 C110.029999,119.997183 112.388744,118.725334 114.750615,119.186949 L115.26006,119.288335 C119.614228,120.149261 124.009617,118.008274 126.001344,114.056227 L129.720694,106.6483 C130.559915,104.970061 130.99772,103.121053 131,101.246273 L131,39.1378325 C131,39.020588 130.959909,38.9126891 130.953939,38.7968605 Z M6.14575525,36.9996777 L64.3516124,5.12332983 C65.0626187,4.74044437 65.9188966,4.73676278 66.6330301,5.11398426 L124.874423,37.0115721 C125.130852,37.1551541 125.358283,37.3448977 125.545061,37.5708907 L66.7490199,69.7706522 C65.978313,70.1920528 65.0458457,70.196584 64.2708744,69.7825466 L5.45806064,37.5720235 C5.64995558,37.3406497 5.8830724,37.1466582 6.14575525,36.9996777 Z M126.14889,101.245707 C126.147469,102.370291 125.884786,103.4793 125.38131,104.486073 L121.66196,111.894001 C120.649323,113.898769 118.418509,114.984838 116.208448,114.548994 L115.699002,114.447609 C111.044058,113.520981 106.387976,116.033242 104.623679,120.423114 L104.355879,121.083818 C103.45639,123.316845 101.084852,124.591525 98.7175796,124.114051 C94.0623505,123.185157 89.4048471,125.697985 87.6422566,130.089556 L87.3744565,130.75026 C86.4829268,132.981871 84.1162226,134.258817 81.7526455,133.782759 L80.1108777,133.457079 C76.50041,132.727558 72.7839025,134.07587 70.4899762,136.947511 L69.4048458,138.297522 C68.4251866,139.428054 67.0000469,140.078279 65.5007078,140.078279 C64.0013686,140.078279 62.5762289,139.428337 61.5965697,138.297522 L60.513998,136.95006 C58.6550335,134.620462 55.83034,133.263088 52.8430333,133.263654 C52.1883162,133.263937 51.5353048,133.32879 50.8933807,133.457079 L49.24678,133.782759 C46.8826344,134.25825 44.5159301,132.980455 43.624969,130.747712 L43.3620019,130.091539 C41.5940098,125.694303 36.9268406,123.181192 32.2653572,124.116033 C29.9009273,124.593224 27.5330859,123.314862 26.6435462,121.080986 L26.3805791,120.424814 C24.6219686,116.030976 19.9630437,113.515883 15.3075304,114.447042 L14.7887033,114.548428 C12.5800636,114.982006 10.3520923,113.896503 9.3397399,111.893434 L5.61982097,104.486073 C5.11634551,103.479583 4.85366266,102.370291 4.85224121,101.245707 L4.85224121,92.402525 L4.99921852,92.6953531 C6.99378873,96.6471163 11.3894621,98.7881031 15.7453351,97.929726 L16.2547806,97.8257918 C18.6160834,97.3593626 20.9765333,98.633193 21.8743173,100.85829 L22.1395588,101.518994 C23.9092565,105.91453 28.5755729,108.426225 33.2362034,107.492234 C35.5977905,107.024105 37.9590933,108.298502 38.8557401,110.524732 L39.1209816,111.185436 C40.8818664,115.57984 45.5419284,118.094366 50.1988632,117.163207 L51.8429053,116.835262 C53.6757152,116.463138 55.5628242,117.148198 56.7255654,118.607524 L57.8106958,119.957535 C59.6796103,122.284583 62.5091367,123.639126 65.5007078,123.639126 C68.4922788,123.639126 71.3218052,122.284583 73.1907198,119.957535 L74.2781244,118.605258 C75.4420028,117.148764 77.3271218,116.465121 79.1585102,116.835262 L80.8025524,117.163207 C85.4589186,118.091251 90.1169905,115.577574 91.8801497,111.185436 L92.1453911,110.524732 C93.0482924,108.295104 95.4178395,107.022973 97.7836909,107.496765 C102.440057,108.425659 107.098698,105.911699 108.861572,101.518994 L109.126814,100.85829 C110.014648,98.6266795 112.379646,97.3491674 114.741518,97.8257918 L115.260345,97.929726 C119.614228,98.7835719 124.005921,96.6434347 126.001628,92.6953531 L126.14889,92.402525 L126.14889,101.245707 L126.14889,101.245707 Z M126.14889,81.596489 L121.66196,90.5336928 C120.654725,92.5393103 118.426185,93.6270789 116.217829,93.1909519 L115.699002,93.0870178 C111.041499,92.1516104 106.378878,94.6675531 104.621405,99.065072 L104.356164,99.725776 C103.455537,101.957387 101.084284,103.230934 98.7178639,102.753743 C94.0600762,101.816636 89.3963184,104.333146 87.6399822,108.731514 L87.3747408,109.392218 C86.4843483,111.623829 84.1182126,112.900774 81.7552041,112.424716 L80.111162,112.096771 C76.5006943,111.36725 72.7844711,112.715562 70.4902605,115.587203 L69.4051301,116.937214 C68.4254709,118.067746 67.0003312,118.717971 65.5009921,118.717971 C64.0016529,118.717971 62.5765132,118.068029 61.596854,116.937214 L60.5142822,115.589752 C58.2206402,112.715845 54.5029956,111.366684 50.8911064,112.097055 L49.2470643,112.424999 C46.8849087,112.896809 44.5213316,111.62128 43.6275276,109.392501 L43.3622862,108.731797 C41.5934413,104.335411 36.9265563,101.82315 32.2656415,102.758557 C29.9037701,103.228102 27.5416145,101.953139 26.6461048,99.7260592 L26.3808634,99.0653552 C24.6069012,94.6802971 19.9542308,92.1705848 15.2984331,93.0875842 L14.7889876,93.1915183 C12.5800636,93.6236805 10.3523766,92.5373279 9.34002419,90.5342592 L4.85224121,81.596489 L4.85224121,75.0970648 L4.99921852,75.3896097 C6.98526007,79.3447713 11.3823549,81.4874572 15.7359536,80.621717 L16.2547806,80.5203316 C18.6183577,80.0485216 20.9827876,81.325184 21.8765916,83.5553786 L22.1395588,84.2115514 C23.9120994,88.6048223 28.5755729,91.1159506 33.2362034,90.1870568 C35.6000648,89.7132644 37.9659162,90.9904933 38.8580144,93.2221038 L39.1209816,93.8782766 C40.8812978,98.2718307 45.5402226,100.786641 50.1963046,99.8560477 L51.8429053,99.5303685 C53.6754309,99.1593774 55.5619714,99.8444365 56.7255654,101.30263 L57.8106958,102.652641 C59.6796103,104.97969 62.5091367,106.334232 65.5007078,106.334232 C68.4922788,106.334232 71.3218052,104.97969 73.1907198,102.652641 L74.2781244,101.300364 C75.4420028,99.8424541 77.3285432,99.1585278 79.1607845,99.5303685 L80.8025524,99.8560477 C85.4574971,100.783809 90.1144319,98.2712643 91.8778754,93.8808254 L92.1456754,93.2201214 C93.0451652,90.9870949 95.4167023,89.7124148 97.7839752,90.1898888 C102.43892,91.1170834 107.09557,88.6048223 108.859298,84.2143834 L109.127098,83.5536794 C110.032274,81.3328304 112.389596,80.0618319 114.751184,80.5211812 L115.260629,80.6225666 C119.614796,81.4823597 124.009333,79.3416561 126.001913,75.3904593 L126.14889,75.0976312 L126.14889,81.596489 Z M126.14889,64.2907456 L121.66196,73.2279494 C120.649323,75.2327173 118.418509,76.3187867 116.208448,75.8829429 L115.699002,75.7815576 C111.043489,74.8503982 106.384564,77.3640753 104.623679,81.757063 L104.355879,82.417767 C103.45639,84.6507935 101.084852,85.9254736 98.7175796,85.4479996 C94.0623505,84.5191059 89.4048471,87.0319333 87.6422566,91.423505 L87.3744565,92.084209 C86.4846326,94.3175188 84.1165069,95.5947477 81.7526455,95.1167072 L80.1108777,94.791028 C76.50041,94.0626394 72.7847554,95.4109513 70.4899762,98.2814595 L69.4048458,99.6314706 C68.4251866,100.762002 67.0000469,101.412228 65.5007078,101.412228 C64.0013686,101.412228 62.5762289,100.762285 61.5965697,99.6314706 L60.513998,98.2840083 C58.2217774,95.4098185 54.504417,94.0600906 50.8930964,94.7913112 L49.2464957,95.1169904 C46.8820658,95.5944645 44.5139401,94.3161028 43.6246847,92.0819434 L43.3617176,91.4257706 C41.5920198,87.0299509 36.926272,84.5176899 32.2650729,85.4502652 C29.9009273,85.9263232 27.5336544,84.6482447 26.6432619,82.4152182 L26.3802948,81.7590454 C24.6191257,77.3674737 19.9624751,74.8535134 15.3072461,75.7812744 L14.788419,75.8826597 C12.5797793,76.3162379 10.351808,75.2307349 9.33945561,73.2276662 L4.85224121,64.2907456 L4.85224121,55.7641808 L4.99921852,56.0567257 C6.98781867,60.0096216 11.3826392,62.151458 15.7359536,61.2888329 L16.2547806,61.1874475 C18.6183577,60.7147879 20.9836405,61.9914504 21.8765916,64.2224945 L22.1395588,64.8786673 C23.9095408,69.2742038 28.5752886,71.7864649 33.2362034,70.8541728 C35.5994962,70.3834955 37.9636419,71.6598748 38.8580144,73.8892198 L39.1209816,74.5453926 C40.8804449,78.9397963 45.5402226,81.4548893 50.1963046,80.5231636 L51.8429053,80.1974844 C53.6754309,79.8264933 55.5619714,80.5115524 56.7255654,81.9697457 L57.8106958,83.3197568 C59.6796103,85.6468055 62.5091367,87.0013478 65.5007078,87.0013478 C68.4922788,87.0013478 71.3218052,85.6468055 73.1907198,83.3197568 L74.2781244,81.9674801 C75.4420028,80.50957 77.3285432,79.8256437 79.1607845,80.1974844 L80.8025524,80.5231636 C85.4569286,81.4475261 90.1118733,78.9361147 91.8778754,74.5479414 L92.1456754,73.8872374 C93.0457338,71.6550604 95.4169866,70.3806635 97.7839752,70.8570048 C102.439204,71.7864649 107.097276,69.2733542 108.859298,64.8814993 L109.127098,64.2207953 C110.031421,61.9990968 112.389596,60.7278151 114.751184,61.1882971 L115.260629,61.2896825 C119.614796,62.1506084 124.010185,60.0096216 126.001913,56.0575753 L126.14889,55.7647472 L126.14889,64.2907456 Z M126.14889,44.9575783 L121.66196,53.8947821 C120.64847,55.8989836 118.418509,56.9844866 116.208448,56.5497757 L115.699002,56.4483903 C111.043773,55.5194966 106.38627,58.032324 104.623679,62.4238957 L104.355879,63.0845997 C103.45639,65.3176263 101.084852,66.5923064 98.7175796,66.1148323 C94.0626348,65.1882042 89.4065528,67.7004653 87.6422566,72.0903378 L87.3744565,72.7510417 C86.4812211,74.9812363 84.115654,76.2573324 81.7526455,75.78354 L80.1108777,75.4578608 C76.50041,74.7283393 72.7839025,76.0766512 70.4899762,78.9482922 L69.4048458,80.2983033 C68.4251866,81.428835 67.0000469,82.0790606 65.5007078,82.0790606 C64.0013686,82.0790606 62.5762289,81.4291182 61.5965697,80.2983033 L60.513998,78.950841 C58.2217774,76.0766512 54.504417,74.7269233 50.8930964,75.4581439 L49.2464957,75.7838232 C46.8823501,76.2604476 44.5147929,74.9820859 43.6246847,72.7487762 L43.3617176,72.0926034 C41.5920198,67.6967837 36.926272,65.1845226 32.2650729,66.1170979 C29.9012115,66.5920232 27.5345073,65.3145111 26.6432619,63.0820509 L26.3802948,62.4258781 C24.6222528,58.0311912 19.9630437,55.515815 15.3072461,56.4481071 L14.788419,56.5494925 C12.5797793,56.9842034 10.3509552,55.8984172 9.33945561,53.8944989 L4.85224121,44.9575783 L4.85224121,42.7531549 L61.9539207,74.0279874 C64.1750691,75.2185573 66.8488053,75.2140261 69.0659736,74.0160931 L126.14889,42.7531549 L126.14889,44.9575783 Z" id="Shape"></path>
            <path d="M65.7073678,14.1266029 C65.0786097,13.0751536 63.6415276,12.6910485 62.4973486,13.2689891 L59.2252572,14.9225766 C58.2792104,15.4006702 57.8059099,16.4070356 58.0747047,17.3680623 C58.3434995,18.3290891 59.286498,19.0007635 60.3658337,19 C60.7632066,19 61.154206,18.9072843 61.5019766,18.7305145 L64.774068,17.076927 C65.918247,16.4989865 66.3361259,15.1780523 65.7073678,14.1266029 Z" id="Path"></path>
            <path d="M51.8227099,20.3498532 C51.071955,19.9056162 50.1328624,19.8830279 49.3598992,20.2901754 L22.286864,34.5286259 C21.2970097,35.0484362 20.7983331,36.1516386 21.0763691,37.2074335 C21.3544051,38.2629495 22.3382026,39.0013924 23.4647676,39 C23.8743227,39 24.2775326,38.9009998 24.6377681,38.7119272 L51.7108033,24.4734767 C52.4849201,24.0680024 52.9760979,23.2938644 52.9991714,22.4430376 C53.0219565,21.591932 52.5734648,20.7940902 51.8227099,20.3498532 Z" id="Path"></path>
        </g>
    </g>
</svg>