<?xml version="1.0" encoding="UTF-8"?>
<svg width="235px" height="152px" viewBox="0 0 235 152" version="1.1" xmlns="http://www.w3.org/2000/svg" xmlns:xlink="http://www.w3.org/1999/xlink">
    <title>leek soup</title>
    <g id="leek-soup" stroke="none" stroke-width="1" fill="none" fill-rule="evenodd">
        <g id="605497" transform="translate(154.343750, 75.864930) rotate(-7.000000) translate(-154.343750, -75.864930) translate(94.343750, 15.864930)" fill="#424141" fill-rule="nonzero">
            <path d="M119.414069,30.2483747 C119.039073,29.8733813 118.530251,29.6626819 117.999632,29.6626819 L104.519235,29.6626819 L115.29849,18.8834964 C115.67372,18.5085029 115.884421,17.9999181 115.884421,17.4695368 C115.884421,16.9391555 115.67372,16.4305707 115.29849,16.0555773 L103.943147,4.70124567 C103.568152,4.32601789 103.059564,4.11531847 102.529179,4.11531847 C101.998794,4.11531847 101.490206,4.32601789 101.11521,4.70124567 L90.3361896,15.4804312 L90.3361896,2.00012128 C90.336424,1.46973998 90.1257232,0.960920803 89.750493,0.585693024 C89.3754972,0.210699616 88.8666747,0 88.3360556,0 L72.5822466,0 C72.0518619,0 71.5430394,0.210465245 71.1678092,0.585693024 C70.7928134,0.960686432 70.5821126,1.46950561 70.5821126,2.00012128 L70.5821126,11.4970637 L64.2071836,11.4970637 C63.6767989,11.4968293 63.1679764,11.7075288 62.7927462,12.0827565 C62.4177504,12.4577499 62.2070496,12.9665691 62.2070496,13.4971848 L62.2070496,32.4528672 C62.2218151,37.7810548 60.1042605,42.8936211 56.3261776,46.6508207 L54.2772941,48.6994566 L54.2772941,48.6996909 L7.58093897,95.3969169 L2.67880604,98.6645157 C1.32296176,99.5677811 0.391800247,100.982444 0.098366014,102.585072 C-0.195068219,104.187465 0.174302669,105.840483 1.12210462,107.165382 L3.87199588,111.013986 C5.28244893,112.989498 7.01024219,114.717983 8.98529833,116.129131 L12.8348649,118.878067 C13.8482911,119.60696 15.0649182,120 16.3134199,120 C16.6827908,120 17.0516929,119.966251 17.4149701,119.899455 C19.0190148,119.610241 20.4350927,118.678383 21.3348484,117.3195 L24.6024682,112.419274 L73.3479412,63.6722402 C77.1058681,59.8946504 82.2187018,57.7771095 87.5469238,57.7914061 L106.501791,57.7914061 C107.032176,57.7916405 107.540998,57.5809411 107.916228,57.2057133 C108.291224,56.8307199 108.501925,56.3219007 108.501925,55.791285 L108.501925,49.4182721 L117.999866,49.4182721 C118.530251,49.4185064 119.039073,49.207807 119.414303,48.8325792 C119.789299,48.4575858 120,47.9487666 120,47.418151 L120,31.6625686 C120,31.1321873 119.789299,30.6236025 119.414069,30.2483747 Z M90.3359552,21.1365036 L102.529179,8.9433586 L111.05635,17.4695368 L98.8631259,29.6626819 L90.4393134,29.6626819 C90.4046263,29.6626819 90.370408,29.6657287 90.3357209,29.6659631 L90.3357209,21.1365036 L90.3359552,21.1365036 Z M74.5823806,4.00024237 L86.336156,4.00024237 L86.336156,29.8825217 C84.8680473,30.025488 83.4083761,30.2455622 81.9632359,30.541807 L81.9632359,13.4971848 C81.9634703,12.9668035 81.7527695,12.4579843 81.3775393,12.0827565 C81.0025435,11.7077631 80.493721,11.4970637 79.9631019,11.4970637 L74.5821462,11.4970637 L74.5821462,4.00024237 L74.5823806,4.00024237 Z M21.6336732,109.730806 C21.5401586,109.823382 21.4562533,109.925568 21.3835978,110.035488 L18.0067604,115.100945 C17.7041856,115.555156 17.2302847,115.867104 16.6935719,115.965305 C16.1568591,116.063507 15.6030372,115.939759 15.1591359,115.622421 L11.3114443,112.874422 C9.69474356,111.719677 8.28030618,110.305014 7.12602216,108.687855 L4.37613089,104.840188 C4.05925942,104.396056 3.93597954,103.842706 4.03418157,103.305997 C4.13238361,102.769287 4.44386451,102.295624 4.89760946,101.992582 L9.96403744,98.6157666 C10.0734893,98.5426428 10.1756757,98.4589724 10.2687215,98.3656928 L55.6919659,52.9415695 L67.0571519,64.3066822 L21.6336732,109.730806 Z M104.502126,53.7913983 L87.5469238,53.7913983 C81.1569949,53.7738205 75.0258132,56.3134633 70.5197696,60.8440868 L69.8850891,61.4787632 L58.5199032,50.1136505 L59.1545836,49.4789741 C63.6854707,44.9734283 66.2251299,38.8425205 66.2073176,32.4528672 L66.2073176,32.4528672 L66.2073176,15.4970715 L77.962968,15.4970715 L77.962968,39.7125052 C77.1485239,39.9332826 76.3399392,40.1772626 75.5372137,40.4449142 L69.2522837,42.5394867 C68.2044047,42.8889337 67.638161,44.0218826 67.9876103,45.0697548 C68.3370595,46.117627 69.4700156,46.683867 70.5178946,46.33442 L76.803059,44.2396131 C80.8968416,42.8736996 85.1844501,42.1780868 89.5001833,42.1790243 L104.502126,42.1790243 L104.502126,53.7913983 L104.502126,53.7913983 Z M115.999732,45.4182643 L108.501925,45.4182643 L108.501925,40.1791376 C108.502159,39.6487563 108.291458,39.1399371 107.916228,38.7647093 C107.540998,38.3894816 107.03241,38.1790165 106.501791,38.1790165 L89.4999489,38.1790165 C86.9736489,38.1783134 84.4520364,38.3951065 81.9630016,38.8265833 L81.9630016,34.6336882 C84.7433612,33.9940901 87.5865327,33.6683146 90.4395478,33.6624553 L115.999732,33.6624553 L115.999732,45.4182643 L115.999732,45.4182643 Z" id="Shape"></path>
            <path d="M51.6011728,62.4954178 C51.0140867,63.082482 50.8386827,63.9654841 51.1562867,64.7325171 C51.4738906,65.4995501 52.2224254,65.9997576 53.0527672,66 L53.0527672,66 C53.5975061,66.00072 54.1198684,65.78418 54.5043616,65.3984981 L57.407791,62.4954178 C58.2008385,61.6922948 58.1969887,60.3995508 57.3986479,59.6012398 C56.6005477,58.8031694 55.3077552,58.7990792 54.5043616,59.592097 L51.6011728,62.4954178 Z" id="Path"></path>
            <path d="M37.5000656,76.600501 L34.6003946,79.5000141 C34.0140685,80.0863083 33.8388916,80.9681524 34.1560844,81.7341794 C34.4732772,82.5002064 35.220843,82.9997579 36.05011,83 L36.05011,83 C36.5941437,83.0007191 37.1158298,82.784463 37.4998253,82.3992869 L40.3994963,79.4997738 C41.2001679,78.6991459 41.2001679,77.4008887 40.3994963,76.6002607 C39.5990651,75.799873 38.3007372,75.799873 37.5000656,76.600501 Z" id="Path"></path>
            <path d="M48.5000656,70.6005009 L45.6003946,73.5000132 C45.0140685,74.0863073 44.8388916,74.9681512 45.1560844,75.734178 C45.4732772,76.5002048 46.220843,76.9997561 47.05011,77 C47.5941437,77.0007173 48.1158298,76.7844613 48.4998253,76.3992853 L51.3994963,73.4997729 C52.2001679,72.6991452 52.2001679,71.4008883 51.3994963,70.6002606 C50.5990651,69.7998731 49.3007372,69.7998731 48.5000656,70.6005009 Z" id="Path"></path>
        </g>
        <g id="1357800-copy" transform="translate(29.000000, 16.442128)" fill="#424141" fill-rule="nonzero">
            <path d="M15.9713085,71.6493055 C15.9713085,72.7512793 15.0776681,73.6449195 13.9747808,73.6449195 C12.872807,73.6449195 11.9782529,72.7512793 11.9782529,71.6493055 C11.9782529,70.5464182 12.872807,69.6527778 13.9747808,69.6527778 C15.0776681,69.6527778 15.9713085,70.5464182 15.9713085,71.6493055 L15.9713085,71.6493055 Z" id="Path"></path>
            <path d="M119.735928,51.4245249 C119.760599,51.1805556 119.771564,50.9347588 119.769071,50.6898758 C119.769071,37.0769371 88.9144737,29.7304458 59.8848683,29.7304458 C50.1854898,29.6929825 40.5025586,30.5308844 30.9539474,32.2341008 C27.4168494,25.337171 21.4025951,12.2733918 19.0990498,6.41812865 C18.9473684,6.0142545 18.7691885,5.61951766 18.5654241,5.23848678 C15.9722222,0.415752982 9.96801895,-1.40350877 5.13432023,1.16867696 C0.358187135,3.82858199 -1.38888889,9.83552632 1.21527766,14.6427265 C1.40990503,15.0100512 1.63377193,15.3618421 1.88413754,15.6944444 C4.81451018,19.8282164 10.9804458,29.6792763 14.9945174,36.5752924 C5.17635228,40.3545322 0.00182748538,45.2083333 0.00182748538,50.6898758 C-0.00365497076,50.8689694 0.00274123977,51.0489766 0.0219298246,51.2271565 C0.233918129,74.630848 15.2704678,93.0729167 37.9276316,100.286915 L37.9276316,105.582968 C37.9276316,111.139437 54.7350147,111.570724 59.8848683,111.570724 C65.0347223,111.570724 81.8421053,111.139437 81.8421053,105.582968 L81.8421053,100.288743 M4.73501474,12.7640716 C3.15149848,9.89126456 4.18311392,6.27923977 7.04404234,4.67562129 C9.93512421,3.15423977 13.5124269,4.25347228 15.0484283,7.13724421 C15.1717836,7.36567977 15.2786915,7.60233918 15.3700657,7.84539462 C17.8792033,14.215095 24.6600877,28.8907163 28.1094664,35.4139254 L28.2127193,35.6131214 C28.3104898,35.798611 28.412829,35.9850147 28.4685673,36.0782164 L30.582054,39.9744152 C27.7978802,39.9671053 25.0767544,40.8022662 22.7759504,42.3702484 L20.8077485,38.7134503 C20.4742325,38.0884503 20.081323,37.3821273 19.6436402,36.6529605 C16.1101974,30.4057018 8.72532889,18.4429825 5.10233918,13.3287647 C4.96436398,13.1514985 4.84100865,12.9623537 4.73501474,12.7640716 Z M44.6564327,42.4040571 C45.419408,42.3263888 46.1997441,42.2660819 46.9901315,42.2048611 C47.9879387,42.1226243 48.9446271,42.0604898 49.8848683,42.0047513 C48.5690788,44.0588449 47.1737939,45.2330044 41.0179092,42.8353436 C42.2258772,42.6800073 43.4173977,42.5155336 44.6564327,42.3958335 L44.6564327,42.4040571 Z M103.248355,52.4122807 C102.748538,50.8177998 101.983735,49.3192618 100.985015,47.9788012 C102.888341,48.6924342 104.717654,49.5897296 106.446455,50.6578947 C105.425804,51.3194444 104.356725,51.9033261 103.248355,52.4049708 L103.248355,52.4122807 Z M83.3452119,43.455775 L82.287098,43.9053361 C80.2887427,44.9378655 78.0985015,45.5482456 75.8543495,45.699927 C73.5206505,45.699927 72.8435673,44.7012061 71.5387427,42.4616229 C71.4702119,42.3437499 71.3943715,42.2185673 71.3230994,42.0988669 C71.793677,42.1189694 72.2605993,42.1482091 72.7622442,42.2002924 C76.6164108,42.5054826 80.1315789,42.9367691 83.3452119,43.448465 L83.3452119,43.455775 Z M65.6478435,41.2600512 L65.6761696,41.2865497 L65.6898758,41.2984283 C65.7255116,41.3358919 65.7638889,41.3724416 65.8031799,41.4062501 C66.7361111,42.290753 67.5091373,43.3296784 68.0875366,44.4782529 C69.4407895,46.7955043 71.1248173,49.6920688 75.8543495,49.6920688 C78.6421782,49.548611 81.3697004,48.8249268 83.8623904,47.5657895 C86.754386,46.3240131 89.2516447,45.252193 92.2962353,46.1906068 C95.8159722,47.4625366 98.5197368,50.3362573 99.5732821,53.927266 C93.8843202,56.0096856 80.9000365,59.6719663 59.8848683,59.6719663 C38.2410454,59.6719663 25.1407163,55.8662281 19.286367,53.6165937 C20.372807,50.6048978 22.2377558,47.9349415 24.6920688,45.8790204 L24.7560306,45.8296784 C26.9471857,44.2525586 29.6783626,43.6165937 32.3410087,44.0652412 L32.415022,44.0652412 C34.0387427,44.3375366 35.6186037,44.8273027 37.1116594,45.5199195 C48.2437867,50.4641813 51.0846126,47.6653874 53.6513158,43.4859284 C54.1054458,42.669956 54.6555191,41.9115497 55.2905703,41.2262428 C56.5350877,40.088633 58.207237,39.5367324 59.8848683,39.7112573 C61.9270833,39.5321637 63.9674709,40.0767544 65.6478435,41.25 L65.6478435,41.2600512 Z M15.6295687,52.0074926 C14.8318713,51.6100145 14.0597588,51.165022 13.3159722,50.674342 C14.5732821,49.8784723 15.8945542,49.1876828 17.2642545,48.6083698 C16.6438232,49.7030337 16.0974049,50.8388159 15.6295687,52.0074926 Z M16.9965277,40.084978 C17.0888159,40.2503654 17.2066887,40.4477338 17.290753,40.6039839 L18.952851,43.6659357 C13.962902,45.4623537 10.2403144,47.5018274 8.69700304,49.3868786 C8.09576023,50.1215277 8.09576023,51.178728 8.69700304,51.9133773 C10.7684575,53.9537647 13.2410454,55.5409357 15.958516,56.5743787 C20.8854166,58.7061404 35.035636,63.6641081 59.8848683,63.6641081 C82.7686405,63.6641081 96.4254386,59.534905 102.527412,57.0778508 C105.687135,55.9777048 108.583699,54.2351974 111.037098,51.9618056 C111.673977,51.2271565 111.68951,50.1407163 111.072734,49.3887062 C108.305007,46.0133406 95.5391083,40.0063963 73.1313963,38.2282529 C72.5328947,38.164291 71.8996711,38.1222587 71.334978,38.1021565 L70.7355628,38.0601242 C70.2649853,38.0290571 69.7898391,37.9943347 69.4508407,37.9888524 C69.051535,37.9486477 68.6357822,37.9267179 68.2364767,37.9066154 L67.9532164,37.9066154 C67.8737207,37.9066154 67.8033626,37.9066154 67.7275219,37.8947368 C65.4102704,36.3569078 62.66356,35.5948465 59.8848683,35.7191156 C57.4762428,35.6176901 55.1087354,36.3660454 53.1962718,37.8326023 C51.1083698,37.9111841 48.9747808,38.032712 46.6831139,38.2200292 C45.8644005,38.2803364 45.0484283,38.3424706 44.2616959,38.4201389 L44.2498173,38.4201389 C41.0361843,38.7289839 37.9523027,39.168494 34.9634503,39.6692253 L32.9376828,35.9283626 C41.8411916,34.4298246 50.8561768,33.6924342 59.8848683,33.7225876 C92.8207237,33.7225876 115.775767,42.66356 115.775767,50.6898758 C115.779422,50.8077485 115.774854,50.9256213 115.763889,51.0434943 C115.67617,51.9618056 115.344481,52.8399123 114.803545,53.5882676 C109.552266,61.6081871 85.9420688,67.6571637 59.8848683,67.6571637 C33.8276681,67.6571637 10.2183846,61.6081871 4.94883041,53.5599415 C4.40606737,52.8051902 4.07712,51.9188596 3.99396936,50.9932384 C3.98848678,50.8918129 3.98848678,50.7913011 3.99396936,50.6898758 C3.99396936,47.0614035 8.82309942,43.1487574 16.9965277,40.084978 Z M77.8499635,105.113304 C76.452851,106.033443 70.1827485,107.578582 59.8848683,107.578582 C49.5869883,107.578582 43.3177998,106.033443 41.9197733,105.113304 L41.9197733,101.427266 C53.7235015,104.305556 66.0462353,104.305556 77.8499635,101.427266 L77.8499635,105.113304 Z M81.8959961,95.6023622 C77.4894732,97.3306375 74.1445725,98.4018228 71.8612938,98.815918 C69.2532107,99.2889197 65.2610689,99.5483798 59.8848683,99.5942982 C30.9576023,99.5942982 9.03417404,83.0802267 4.76516819,59.1675804 C13.8550805,66.658443 35.2549343,71.6493055 59.8848683,71.6493055 C84.5148026,71.6493055 105.96674,66.658443 115.025585,59.1611841" id="Shape"></path>
            <path d="M33.9354898,49.6920688 C33.9354898,50.7940423 33.0418494,51.6876828 31.9398758,51.6876828 C30.8369883,51.6876828 29.9433478,50.7940423 29.9433478,49.6920688 C29.9433478,48.5891813 30.8369883,47.6955411 31.9398758,47.6955411 C33.0418494,47.6955411 33.9354898,48.5891813 33.9354898,49.6920688 Z" id="Path"></path>
            <path d="M65.873538,49.6920688 C65.873538,50.7940423 64.9798975,51.6876828 63.8770103,51.6876828 C62.7750365,51.6876828 61.8813963,50.7940423 61.8813963,49.6920688 C61.8813963,48.5891813 62.7750365,47.6955411 63.8770103,47.6955411 C64.9798975,47.6955411 65.873538,48.5891813 65.873538,49.6920688 Z" id="Path"></path>
            <path d="M75.8543495,53.6842105 C75.8543495,54.7861843 74.960709,55.6798246 73.8578218,55.6798246 C72.755848,55.6798246 71.8612938,54.7861843 71.8612938,53.6842105 C71.8612938,52.581323 72.755848,51.6876828 73.8578218,51.6876828 C74.960709,51.6876828 75.8543495,52.581323 75.8543495,53.6842105 L75.8543495,53.6842105 Z" id="Path"></path>
            <path d="M57.8892543,51.6876828 C57.8892543,52.7905703 56.995614,53.6842105 55.8927265,53.6842105 C54.790753,53.6842105 53.8971125,52.7905703 53.8971125,51.6876828 C53.8971125,50.585709 54.790753,49.6920688 55.8927265,49.6920688 C56.995614,49.6920688 57.8892543,50.585709 57.8892543,51.6876828 Z" id="Path"></path>
            <path d="M89.8263888,51.6876828 C89.8263888,52.7905703 88.9327485,53.6842105 87.8307747,53.6842105 C86.7278875,53.6842105 85.834247,52.7905703 85.834247,51.6876828 C85.834247,50.585709 86.7278875,49.6920688 87.8307747,49.6920688 C88.9327485,49.6920688 89.8263888,50.585709 89.8263888,51.6876828 L89.8263888,51.6876828 Z" id="Path"></path>
            <path d="M52.1838451,91.630117 C35.7227705,89.2708332 25.7255116,82.0166302 20.2467106,76.3477705 C19.4800805,75.5528143 18.213633,75.5299708 17.418677,76.2966009 C16.6246344,77.0632309 16.6017909,78.3296784 17.3684211,79.1246344 C23.28856,85.2421418 34.0360014,93.0610381 51.6154971,95.582054 C52.3209064,95.6834795 53.0281432,95.4002194 53.4685673,94.8391813 C53.9089913,94.2790571 54.0168129,93.5252192 53.7518274,92.8636697 C53.4868421,92.2012061 52.8883406,91.7315425 52.1820175,91.630117 L52.1838451,91.630117 Z" id="Path"></path>
        </g>
    </g>
</svg>