<?xml version="1.0" encoding="UTF-8"?>
<svg width="235px" height="152px" viewBox="0 0 235 152" version="1.1" xmlns="http://www.w3.org/2000/svg" xmlns:xlink="http://www.w3.org/1999/xlink">
    <title>lemon - lentil - soup</title>
    <g id="lemon---lentil---soup" stroke="none" stroke-width="1" fill="none" fill-rule="evenodd">
        <g id="1357800" transform="translate(41.000000, 12.000000)" fill="#424141" fill-rule="nonzero">
            <path d="M15.9713085,71.6493055 C15.9713085,72.7512793 15.0776681,73.6449195 13.9747808,73.6449195 C12.872807,73.6449195 11.9782529,72.7512793 11.9782529,71.6493055 C11.9782529,70.5464182 12.872807,69.6527778 13.9747808,69.6527778 C15.0776681,69.6527778 15.9713085,70.5464182 15.9713085,71.6493055 L15.9713085,71.6493055 Z" id="Path"></path>
            <path d="M59.8848683,29.7304458 C50.1854898,29.6929825 40.5025586,30.5308844 30.9539474,32.2341008 C27.4168494,25.337171 21.4025951,12.2733918 19.0990498,6.41812865 C18.9473684,6.0142545 18.7691885,5.61951766 18.5654241,5.23848678 C15.9722222,0.415752982 9.96801895,-1.40350877 5.13432023,1.16867696 C0.358187135,3.82858199 -1.38888889,9.83552632 1.21527766,14.6427265 C1.40990503,15.0100512 1.63377193,15.3618421 1.88413754,15.6944444 C4.81451018,19.8282164 10.9804458,29.6792763 14.9945174,36.5752924 C5.17635228,40.3545322 0.00182748538,45.2083333 0.00182748538,50.6898758 C-0.00365497076,50.8689694 0.00274123977,51.0489766 0.0219298246,51.2271565 C0.233918129,74.630848 15.2704678,93.0729167 37.9276316,100.286915 L37.9276316,105.582968 C37.9276316,111.139437 54.7350147,111.570724 59.8848683,111.570724 C65.0347223,111.570724 81.8421053,111.139437 81.8421053,105.582968 L81.8421053,100.288743 C104.498355,93.082968 119.534905,74.6747076 119.735928,51.4245249 C119.760599,51.1805556 119.771564,50.9347588 119.768596,50.6898758 C119.768596,37.0769371 88.9144737,29.7304458 59.8848683,29.7304458 Z M4.73501474,12.7640716 C3.15149848,9.89126456 4.18311392,6.27923977 7.04404234,4.67562129 C9.93512421,3.15423977 13.5124269,4.25347228 15.0484283,7.13724421 C15.1717836,7.36567977 15.2786915,7.60233918 15.3700657,7.84539462 C17.8792033,14.215095 24.6600877,28.8907163 28.1094664,35.4139254 L28.2127193,35.6131214 C28.3104898,35.798611 28.412829,35.9850147 28.4685673,36.0782164 L30.582054,39.9744152 C27.7978802,39.9671053 25.0767544,40.8022662 22.7759504,42.3702484 L20.8077485,38.7134503 C20.4742325,38.0884503 20.081323,37.3821273 19.6436402,36.6529605 C16.1101974,30.4057018 8.72532889,18.4429825 5.10233918,13.3287647 C4.96436398,13.1514985 4.84100865,12.9623537 4.73501474,12.7640716 Z M44.6564327,42.4040571 C45.419408,42.3263888 46.1997441,42.2660819 46.9901315,42.2048611 C47.9879387,42.1226243 48.9446271,42.0604898 49.8848683,42.0047513 C48.5690788,44.0588449 47.1737939,45.2330044 41.0179092,42.8353436 C42.2258772,42.6800073 43.4173977,42.5155336 44.6564327,42.3958335 L44.6564327,42.4040571 Z M103.248355,52.4122807 C102.748538,50.8177998 101.983735,49.3192618 100.985015,47.9788012 C102.888341,48.6924342 104.717654,49.5897296 106.446455,50.6578947 C105.425804,51.3194444 104.356725,51.9033261 103.248355,52.4049708 L103.248355,52.4122807 Z M83.3452119,43.455775 L82.287098,43.9053361 C80.2887427,44.9378655 78.0985015,45.5482456 75.8543495,45.699927 C73.5206505,45.699927 72.8435673,44.7012061 71.5387427,42.4616229 C71.4702119,42.3437499 71.3943715,42.2185673 71.3230994,42.0988669 C71.793677,42.1189694 72.2605993,42.1482091 72.7622442,42.2002924 C76.6164108,42.5054826 80.1315789,42.9367691 83.3452119,43.448465 L83.3452119,43.455775 Z M65.6478435,41.2600512 L65.6761696,41.2865497 L65.6898758,41.2984283 C65.7255116,41.3358919 65.7638889,41.3724416 65.8031799,41.4062501 C66.7361111,42.290753 67.5091373,43.3296784 68.0875366,44.4782529 C69.4407895,46.7955043 71.1248173,49.6920688 75.8543495,49.6920688 C78.6421782,49.548611 81.3697004,48.8249268 83.8623904,47.5657895 C86.754386,46.3240131 89.2516447,45.252193 92.2962353,46.1906068 C95.8159722,47.4625366 98.5197368,50.3362573 99.5732821,53.927266 C93.8843202,56.0096856 80.9000365,59.6719663 59.8848683,59.6719663 C38.2410454,59.6719663 25.1407163,55.8662281 19.286367,53.6165937 C20.372807,50.6048978 22.2377558,47.9349415 24.6920688,45.8790204 L24.7560306,45.8296784 C26.9471857,44.2525586 29.6783626,43.6165937 32.3410087,44.0652412 L32.415022,44.0652412 C34.0387427,44.3375366 35.6186037,44.8273027 37.1116594,45.5199195 C48.2437867,50.4641813 51.0846126,47.6653874 53.6513158,43.4859284 C54.1054458,42.669956 54.6555191,41.9115497 55.2905703,41.2262428 C56.5350877,40.088633 58.207237,39.5367324 59.8848683,39.7112573 C61.9270833,39.5321637 63.9674709,40.0767544 65.6478435,41.25 L65.6478435,41.2600512 Z M15.6295687,52.0074926 C14.8318713,51.6100145 14.0597588,51.165022 13.3159722,50.674342 C14.5732821,49.8784723 15.8945542,49.1876828 17.2642545,48.6083698 C16.6438232,49.7030337 16.0974049,50.8388159 15.6295687,52.0074926 Z M16.9965277,40.084978 C17.0888159,40.2503654 17.2066887,40.4477338 17.290753,40.6039839 L18.952851,43.6659357 C13.962902,45.4623537 10.2403144,47.5018274 8.69700304,49.3868786 C8.09576023,50.1215277 8.09576023,51.178728 8.69700304,51.9133773 C10.7684575,53.9537647 13.2410454,55.5409357 15.958516,56.5743787 C20.8854166,58.7061404 35.035636,63.6641081 59.8848683,63.6641081 C82.7686405,63.6641081 96.4254386,59.534905 102.527412,57.0778508 C105.687135,55.9777048 108.583699,54.2351974 111.037098,51.9618056 C111.673977,51.2271565 111.68951,50.1407163 111.072734,49.3887062 C108.305007,46.0133406 95.5391083,40.0063963 73.1313963,38.2282529 C72.5328947,38.164291 71.8996711,38.1222587 71.334978,38.1021565 L70.7355628,38.0601242 C70.2649853,38.0290571 69.7898391,37.9943347 69.4508407,37.9888524 C69.051535,37.9486477 68.6357822,37.9267179 68.2364767,37.9066154 L67.9532164,37.9066154 C67.8737207,37.9066154 67.8033626,37.9066154 67.7275219,37.8947368 C65.4102704,36.3569078 62.66356,35.5948465 59.8848683,35.7191156 C57.4762428,35.6176901 55.1087354,36.3660454 53.1962718,37.8326023 C51.1083698,37.9111841 48.9747808,38.032712 46.6831139,38.2200292 C45.8644005,38.2803364 45.0484283,38.3424706 44.2616959,38.4201389 L44.2498173,38.4201389 C41.0361843,38.7289839 37.9523027,39.168494 34.9634503,39.6692253 L32.9376828,35.9283626 C41.8411916,34.4298246 50.8561768,33.6924342 59.8848683,33.7225876 C92.8207237,33.7225876 115.775767,42.66356 115.775767,50.6898758 C115.779422,50.8077485 115.774854,50.9256213 115.763889,51.0434943 C115.67617,51.9618056 115.344481,52.8399123 114.803545,53.5882676 C109.552266,61.6081871 85.9420688,67.6571637 59.8848683,67.6571637 C33.8276681,67.6571637 10.2183846,61.6081871 4.94883041,53.5599415 C4.40606737,52.8051902 4.07712,51.9188596 3.99396936,50.9932384 C3.98848678,50.8918129 3.98848678,50.7913011 3.99396936,50.6898758 C3.99396936,47.0614035 8.82309942,43.1487574 16.9965277,40.084978 Z M77.8499635,105.113304 C76.452851,106.033443 70.1827485,107.578582 59.8848683,107.578582 C49.5869883,107.578582 43.3177998,106.033443 41.9197733,105.113304 L41.9197733,101.427266 C53.7235015,104.305556 66.0462353,104.305556 77.8499635,101.427266 L77.8499635,105.113304 Z M59.8848683,99.5942982 C30.9576023,99.5942982 9.03417404,83.0802267 4.76516819,59.1675804 C13.8550805,66.658443 35.2549343,71.6493055 59.8848683,71.6493055 C84.5148026,71.6493055 105.96674,66.658443 115.025585,59.1611841 C110.831506,83.0107822 88.874269,99.5942982 59.8848683,99.5942982 Z" id="Shape"></path>
            <path d="M33.9354898,49.6920688 C33.9354898,50.7940423 33.0418494,51.6876828 31.9398758,51.6876828 C30.8369883,51.6876828 29.9433478,50.7940423 29.9433478,49.6920688 C29.9433478,48.5891813 30.8369883,47.6955411 31.9398758,47.6955411 C33.0418494,47.6955411 33.9354898,48.5891813 33.9354898,49.6920688 Z" id="Path"></path>
            <path d="M65.873538,49.6920688 C65.873538,50.7940423 64.9798975,51.6876828 63.8770103,51.6876828 C62.7750365,51.6876828 61.8813963,50.7940423 61.8813963,49.6920688 C61.8813963,48.5891813 62.7750365,47.6955411 63.8770103,47.6955411 C64.9798975,47.6955411 65.873538,48.5891813 65.873538,49.6920688 Z" id="Path"></path>
            <path d="M75.8543495,53.6842105 C75.8543495,54.7861843 74.960709,55.6798246 73.8578218,55.6798246 C72.755848,55.6798246 71.8612938,54.7861843 71.8612938,53.6842105 C71.8612938,52.581323 72.755848,51.6876828 73.8578218,51.6876828 C74.960709,51.6876828 75.8543495,52.581323 75.8543495,53.6842105 L75.8543495,53.6842105 Z" id="Path"></path>
            <path d="M57.8892543,51.6876828 C57.8892543,52.7905703 56.995614,53.6842105 55.8927265,53.6842105 C54.790753,53.6842105 53.8971125,52.7905703 53.8971125,51.6876828 C53.8971125,50.585709 54.790753,49.6920688 55.8927265,49.6920688 C56.995614,49.6920688 57.8892543,50.585709 57.8892543,51.6876828 Z" id="Path"></path>
            <path d="M89.8263888,51.6876828 C89.8263888,52.7905703 88.9327485,53.6842105 87.8307747,53.6842105 C86.7278875,53.6842105 85.834247,52.7905703 85.834247,51.6876828 C85.834247,50.585709 86.7278875,49.6920688 87.8307747,49.6920688 C88.9327485,49.6920688 89.8263888,50.585709 89.8263888,51.6876828 L89.8263888,51.6876828 Z" id="Path"></path>
            <path d="M52.1838451,91.630117 C35.7227705,89.2708332 25.7255116,82.0166302 20.2467106,76.3477705 C19.4800805,75.5528143 18.213633,75.5299708 17.418677,76.2966009 C16.6246344,77.0632309 16.6017909,78.3296784 17.3684211,79.1246344 C23.28856,85.2421418 34.0360014,93.0610381 51.6154971,95.582054 C52.3209064,95.6834795 53.0281432,95.4002194 53.4685673,94.8391813 C53.9089913,94.2790571 54.0168129,93.5252192 53.7518274,92.8636697 C53.4868421,92.2012061 52.8883406,91.7315425 52.1820175,91.630117 L52.1838451,91.630117 Z" id="Path"></path>
        </g>
        <g id="2743019" transform="translate(175.000000, 107.000000) rotate(-219.000000) translate(-175.000000, -107.000000) translate(143.000000, 90.000000)" fill="#424141" fill-rule="nonzero">
            <path d="M4.10894942,33.8677448 L27.4696965,33.8677448 L36.5303035,33.8677448 L59.8910506,33.8677448 C60.9949642,33.8727121 62.0499962,33.4128078 62.7976965,32.6006537 C63.5644149,31.7721375 63.9526039,30.6624076 63.8695097,29.5366226 C62.6048795,12.8742754 48.7162462,-0.000190376342 32.0059767,-0.000190376342 C15.2957071,-0.000190376342 1.40707382,12.8742754 0.14244358,29.5366226 C0.0593493665,30.6624076 0.447538403,31.7721375 1.21425681,32.6006537 C1.95914529,33.4097334 3.00919214,33.8693546 4.10894942,33.8677448 Z M33.9922179,12.0509261 C37.8990072,12.4335986 41.6053003,13.9633889 44.644607,16.447751 L33.9922179,27.0742412 L33.9922179,12.0509261 Z M30.0077821,27.0742412 L19.355393,16.4497432 C22.394154,13.9641472 26.1006314,12.4335876 30.0077821,12.0509261 L30.0077821,27.0742412 Z M16.5403891,19.2667393 L27.1828171,29.8832685 L12.1216498,29.8832685 C12.510608,25.9848995 14.0485343,22.2898551 16.5403891,19.2667393 Z M36.8171829,29.8832685 L47.4576187,19.2687315 C49.9509726,22.2903698 51.4897302,25.9850527 51.8783502,29.8832685 L36.8171829,29.8832685 Z M12.2391907,12.1644825 C19.9732626,4.43626763 31.5021023,1.9245517 41.7500598,5.73513467 C51.9980173,9.54571762 59.0850526,18.9795286 59.8910506,29.8832685 L55.862786,29.8832685 C54.8229315,17.4768988 44.4498717,7.9368969 32,7.9368969 C19.5501283,7.9368969 9.17706848,17.4768988 8.13721401,29.8832685 L4.10894942,29.8832685 L4.10894942,29.8254942 C4.60105652,23.1507972 7.48841358,16.8787021 12.2391907,12.1644825 Z" id="Shape"></path>
        </g>
    </g>
</svg>