<?xml version="1.0" encoding="UTF-8"?>
<svg width="235px" height="152px" viewBox="0 0 235 152" version="1.1" xmlns="http://www.w3.org/2000/svg" xmlns:xlink="http://www.w3.org/1999/xlink">
    <title>mushroom-pasta</title>
    <g id="mushroom-pasta" stroke="none" stroke-width="1" fill="none" fill-rule="evenodd">
        <g id="Group" transform="translate(11.000000, 12.000000)" fill="#424141" fill-rule="nonzero">
            <path d="M63.6932608,29.9175618 C67.492545,35.0392095 74.7142858,36.0813664 79.7897085,32.251273 L80.1167305,31.9544622 C80.8168214,31.2043745 81.9830127,30.2172176 82.9612601,29.443423 C84.8491559,32.2076524 85.8819069,34.7765364 85.7155767,36.3829188 C85.6460376,36.9063681 85.3960722,39.6137008 87.236042,41.4941351 C87.9361329,42.2100848 89.1427321,43 91.0437838,43 C91.3228803,43 91.6217108,42.9810344 91.9308786,42.945 C92.5896216,42.870086 93.2314497,42.6121545 93.8009194,42.1873261 L101.221881,36.5811088 C101.766918,36.1600735 102.187912,35.6157623 102.440696,35.0126575 C103.404848,32.7311016 102.944386,31.0517019 102.387132,30.0436827 C101.117572,27.7336786 98.4722628,27.2102294 98.0249565,27.1429016 C96.3945439,26.8413492 94.2425872,25.125915 92.1394961,22.516255 C93.103648,21.8278053 94.2782966,21.0511661 95.0911535,20.633924 L95.4642222,20.3987511 C97.9150095,18.5477132 99.5050138,15.8346907 99.9438627,12.7603748 C100.380832,9.68700704 99.6121419,6.6316564 97.6744414,4.03147926 C94.0264519,-0.289821832 88.8439013,-1.13853037 82.2715065,1.49199165 L82.2480136,1.50242276 C75.7085087,4.19458301 69.931116,8.56045321 65.4176453,14.290895 C61.6305775,19.9331467 60.98687,25.0955702 63.5062569,29.6292854 L63.6932608,29.9175618 Z M69.5373736,17.3462454 C73.3855232,12.4702019 78.4459102,8.64579808 84.1753771,6.28648334 C89.9330358,3.98027215 92.3377769,5.66251678 93.691912,7.2556232 C94.7086878,8.62493609 95.1334411,10.319508 94.8900538,12.0292527 C94.6523049,13.686842 93.8197137,15.1490862 92.5360574,16.1703811 C91.3989975,16.8019341 86.6054907,19.5690081 86.1431489,21.4418565 L85.8696906,22.5835828 L86.5237351,23.5403948 C88.4858684,26.4108313 92.4702772,31.3570474 97.1388014,32.2228248 C97.4432704,32.277825 97.9159491,32.4703252 97.8877574,32.4504114 C97.8905766,32.4532563 97.8924562,32.5253254 97.8473497,32.6893774 L91.0212305,37.8451628 C90.9422939,37.8480077 90.8906095,37.8480077 90.8727548,37.8555939 C90.8013362,37.6858522 90.7581092,37.2942136 90.7909992,36.9841267 C91.2740149,32.2598077 87.6965045,27.0091943 85.5266932,24.3094481 L84.7824358,23.3886704 L83.6228223,23.3422049 C83.604028,23.3422049 83.5871131,23.3422049 83.5683187,23.3422049 C81.6494123,23.3422049 77.5578757,27.2642812 76.600302,28.2163519 C73.8318896,30.2096313 69.9837402,29.6444579 67.8806489,26.9551425 C67.2632536,25.8105714 65.8978418,22.782721 69.5373736,17.3462454 Z" id="Shape"></path>
            <path d="M120.024384,22.7830043 L120.430028,22.9347185 C121.568596,23.2447432 123.216062,23.9185055 124.47448,24.4820155 C122.799356,27.9262123 120.86886,30.3244286 119.174376,31.0453072 C118.86369,31.1678093 116.120985,32.3061375 115.317995,34.9993016 C114.975042,36.1442259 114.871787,37.9534894 116.321041,40.0577006 C116.697184,40.6183838 117.23374,41.0754113 117.891067,41.3929746 L126.88345,45.6315512 C127.405255,45.8746709 127.963937,46 128.522619,46 C128.636015,46 128.751255,45.9952884 128.866495,45.9849228 C131.390705,45.7408606 132.67217,44.4856844 133.303683,43.4755123 C134.783361,41.1008541 133.85038,38.2305329 133.762798,37.9789322 C133.188444,36.1668417 133.725,33.0458623 135.17702,29.5385299 C136.339558,30.1199442 137.781437,30.8992468 138.678462,31.5315467 L139.052761,31.7520506 C141.976161,33.1259601 145.2545,33.2512892 148.283921,32.112961 C151.317029,30.9708635 153.728765,28.6951493 155.135611,25.5609775 C157.268929,19.9287026 155.449063,14.5885487 149.724878,9.69599889 L149.705518,9.68092169 C143.896515,4.81192993 136.916678,1.51850505 129.330219,0.142710997 C122.232376,-0.57722507 117.160908,1.42898415 114.267931,6.11045324 L114.109361,6.40540105 C112.763362,9.39162795 112.637981,12.7434768 113.756267,15.8408982 C114.880084,18.9420888 117.105593,21.4072102 120.024384,22.7830043 L120.024384,22.7830043 Z M118.602787,8.70750034 C120.440169,5.86262202 123.792261,4.72712082 128.646156,5.21712967 C135.19177,6.41388191 141.374149,9.32472283 146.521214,13.6377431 C151.713454,18.0779771 151.354828,21.3553823 150.525102,23.5651336 C149.74055,25.3074922 148.329095,26.6342854 146.553482,27.304278 C144.825808,27.9516552 142.960769,27.9007697 141.298552,27.1629294 C140.15814,26.4222621 135.186239,23.2569936 133.308293,23.7545411 L132.192773,24.0494887 L131.676499,25.084161 C130.016126,28.4237598 127.461492,34.7429893 129.014001,39.627058 C129.096052,39.8682931 129.176259,40.5241511 129.091442,40.6956543 C129.088677,40.6984814 128.988188,40.7776367 128.693174,40.8370032 L120.274224,36.8707583 C120.134092,36.6191576 120.115654,36.4957132 120.112888,36.4957132 C120.183876,36.3194985 120.631928,35.97555 121.028352,35.8068738 C125.606594,33.8694542 128.648,27.7782674 130.05669,24.3105125 L130.485382,23.2193007 L129.978327,22.1808587 C129.125553,20.4234232 123.320239,18.4888304 121.988068,18.0657267 C120.350743,17.2534429 119.102466,15.8390136 118.465421,14.07027 C117.83022,12.3052959 117.880004,10.4083964 118.602787,8.70750034 L118.602787,8.70750034 Z" id="Shape"></path>
            <path d="M205.831857,25.4630886 C204.586222,20.0215427 200.402308,16.8970359 193.396075,16.1772152 L193.370825,16.174418 C186.359917,15.5282577 179.284482,16.6788518 172.690655,19.6028903 C166.772951,22.7824093 163.851505,26.986647 164.005807,32.0981201 L164.038538,32.4300579 C165.055994,38.6399103 170.966217,42.8767824 177.176627,41.8520635 L177.601191,41.7439039 C178.559731,41.4110332 180.040093,41.0865547 181.252998,40.8609113 C181.659793,44.1392657 181.397948,46.8507147 180.520766,48.1766019 C180.220579,48.5999163 178.768273,50.8488897 179.531365,53.3309657 C179.864282,54.4162914 180.742399,55.8894994 183.033546,56.7594383 C183.455304,56.9188802 183.907922,57 184.368022,57 C184.579368,57 184.792585,56.9822844 185.006737,56.94965 L194.098381,55.4689825 C194.777309,55.354296 195.402932,55.0736406 195.901373,54.6596504 C197.791336,53.1155791 198.152308,51.4372407 198.121448,50.3034298 C198.052246,47.7075997 195.957483,46.0385853 195.596511,45.7747131 C194.294765,44.7630481 193.172571,42.2707156 192.511412,39.0380492 C193.648569,38.880472 194.98585,38.730354 195.978057,38.7536642 L196.196885,38.7564615 L196.412907,38.7210298 C199.421323,38.2315145 202.06035,36.596067 203.848379,34.1186528 C205.64202,31.634712 206.356483,28.6174325 205.831857,25.4630886 L205.831857,25.4630886 Z M199.72151,31.152656 C198.757358,32.4887998 197.350874,33.3839136 195.748942,33.6832172 C194.444391,33.7186489 188.964342,33.9470894 187.720577,35.3317185 L186.945328,36.2063194 L187.087473,37.3503868 C187.509231,40.7536841 188.770764,46.894538 192.524504,49.8129819 C192.64888,49.9015609 192.999566,50.2847816 193.05287,50.3323344 C193.05287,50.3323344 193.022945,50.3985355 192.90792,50.5206813 L184.533546,51.8820003 C184.462473,51.8465686 184.41665,51.8260557 184.396077,51.8232584 C184.411974,51.6433033 184.554119,51.2805957 184.719643,51.0297774 C187.30256,47.137897 186.542273,40.9149912 185.86054,37.5657737 L185.624879,36.4198413 L184.61771,35.8445443 C182.976501,34.9093367 177.491776,36.4729886 176.199383,36.8655335 C174.576877,37.0837174 172.967463,36.6855784 171.621765,35.7251957 C170.281678,34.7638807 169.381117,33.359671 169.081866,31.7643171 C169.053811,30.4813206 169.231492,27.2160198 174.922887,24.1474579 C180.540404,21.6653818 186.740528,20.6583787 192.879865,21.2215545 C199.016398,21.8527962 200.371447,24.4234514 200.837158,26.4374575 C201.114901,28.099945 200.718392,29.7736212 199.72151,31.152656 L199.72151,31.152656 Z" id="Shape"></path>
            <path d="M127.500165,72.4234863 C125.836404,72.2727038 123.513578,70.7553374 121.165185,68.3409112 C122.0714,67.5621873 123.17647,66.6698993 123.956743,66.1765167 L124.309002,65.907399 C129.047454,61.5891074 129.41581,54.1874122 125.020149,49.297484 C120.955913,45.3065236 115.680551,44.9352937 109.324738,48.2000175 L109.303905,48.2105151 C102.997333,51.5172289 97.5998162,56.4348326 93.5961845,62.6016394 C90.3122216,68.6119377 90.1427209,73.8435123 93.0933631,78.1541693 L93.3026354,78.4223328 C95.3726303,80.728921 98.2153226,82.0840531 101.313687,82.2415159 C104.429095,82.3894351 107.377844,81.3339589 109.667527,79.2525901 L109.968652,78.92335 C110.599309,78.1112251 111.678813,77.0108958 112.590709,76.14342 C114.743087,78.7410753 116.010083,81.2175321 115.994932,82.8389192 C115.9741,83.3714291 115.9741,86.1093691 117.99296,87.822371 C118.674752,88.4006879 119.761831,89 121.343209,89 C121.806259,89 122.310974,88.9456039 122.859248,88.8320399 C123.508844,88.6888923 124.121509,88.3720585 124.641375,87.9025337 L131.557772,81.5973508 C132.067222,81.127826 132.445995,80.5437831 132.652426,79.9005722 C133.407132,77.5252733 132.791626,75.8857541 132.142977,74.9276182 C130.656292,72.7250509 127.952799,72.4492527 127.500165,72.4234863 Z M127.832539,77.9928895 L121.455893,83.8008723 C121.376351,83.8113699 121.32427,83.8161414 121.306278,83.823776 C121.21916,83.6605877 121.141512,83.2740885 121.144353,82.9629807 C121.198328,78.1904333 117.121782,73.2594694 114.68343,70.7391138 L113.849182,69.8954964 L112.685402,69.9603898 C110.779227,70.0691823 106.978238,74.450459 106.097591,75.5011637 C104.846693,76.5890868 103.236907,77.1674038 101.573146,77.0528856 C99.9046507,76.96986 98.3677787,76.2617555 97.2314594,75.0545426 C96.5032682,73.9675736 94.8499235,71.0635824 98.0041566,65.2737314 C101.421637,60.0230704 106.146831,55.7152765 111.673131,52.817011 C117.232573,49.956918 119.80539,51.4237056 121.309119,52.892402 C122.454907,54.1692804 123.040112,55.8297947 122.954888,57.5666545 C122.869664,59.2481637 122.16704,60.7979771 120.96917,61.9450682 C119.877357,62.6970712 115.33492,65.9360284 115.047052,67.8150816 L114.87187,68.9936652 L115.621841,69.8945419 C117.856602,72.5857203 122.313815,77.1654953 127.109082,77.598756 C127.266273,77.6092534 127.775723,77.7419037 127.84769,77.7571728 C127.849583,77.7543098 127.862841,77.8287467 127.832539,77.9928895 L127.832539,77.9928895 Z" id="Shape"></path>
            <path d="M36.5001653,79.4234863 C34.8364044,79.2727038 32.5135784,77.7553374 30.1651852,75.3409112 C31.0713998,74.5621873 32.1764704,73.6698993 32.956743,73.1765167 L33.3090019,72.907399 C38.0474535,68.5891074 38.4158103,61.1874122 34.0201485,56.297484 C29.9559128,52.3065236 24.6805506,51.9352937 18.3247379,55.2000175 L18.3039052,55.2105151 C11.997333,58.5172289 6.59981621,63.4348326 2.59618448,69.6016394 C-0.687778358,75.6119377 -0.857279141,80.8435123 2.09336312,85.1541693 L2.30263544,85.4223328 C4.37263035,87.728921 7.21532263,89.0840531 10.3136866,89.2415159 C13.4290953,89.3894351 16.3778441,88.3339589 18.6675274,86.2525901 L18.9686521,85.92335 C19.5993092,85.1112251 20.6788126,84.0108958 21.5907089,83.14342 C23.743087,85.7410753 25.0100832,88.2175321 24.9949323,89.8389192 C24.9740996,90.3714291 24.9740996,93.1093691 26.9929603,94.822371 C27.6747519,95.4006879 28.7618307,96 30.3432085,96 C30.8062586,96 31.3109737,95.9456039 31.8592478,95.8320399 C32.5088436,95.6888923 33.1215091,95.3720585 33.6413754,94.9025337 L40.5577723,88.5973508 C41.067222,88.127826 41.4459952,87.5437831 41.6524264,86.9005722 C42.407132,84.5252733 41.7916256,82.8857541 41.1429767,81.9276182 C39.6562923,79.7250509 36.9527992,79.4492527 36.5001653,79.4234863 Z M36.8325387,84.9928895 L30.4558933,90.8008723 C30.3763512,90.8113699 30.3242699,90.8161414 30.3062781,90.823776 C30.2191603,90.6605877 30.1415119,90.2740885 30.1443525,89.9629807 C30.1983276,85.1904333 26.1217821,80.2594694 23.6834302,77.7391138 L22.8491825,76.8954964 L21.6854022,76.9603898 C19.7792266,77.0691823 15.9782383,81.450459 15.097591,82.5011637 C13.8466929,83.5890868 12.2369069,84.1674038 10.5731461,84.0528856 C8.90465069,83.96986 7.36777875,83.2617555 6.23145943,82.0545426 C5.50326819,80.9675736 3.84992346,78.0635824 7.00415657,72.2737314 C10.4216369,67.0230704 15.1468315,62.7152765 20.6731311,59.817011 C26.2325734,56.956918 28.8053897,58.4237056 30.3091189,59.892402 C31.4549075,61.1692804 32.040112,62.8297947 31.954888,64.5666545 C31.8696641,66.2481637 31.1670399,67.7979771 29.96917,68.9450682 C28.8773566,69.6970712 24.3349199,72.9360284 24.0470524,74.8150816 L23.8718699,75.9936652 L24.6218406,76.8945419 C26.856602,79.5857203 31.3138146,84.1654953 36.1090821,84.598756 C36.2662728,84.6092534 36.7757227,84.7419037 36.8476896,84.7571728 C36.8495834,84.7543098 36.8628406,84.8287467 36.8325387,84.9928895 L36.8325387,84.9928895 Z" id="Shape-Copy-4"></path>
            <path d="M174.318933,107.910775 L174.500342,107.627196 C177.021272,103.092772 176.376471,97.929541 172.471003,92.1242264 C168.067364,86.5531731 162.287647,82.1837751 155.754095,79.4959364 L155.731537,79.4855036 C149.159447,76.8526735 143.972835,77.7062568 140.220578,82.1524771 C138.385807,84.6288169 137.615993,87.6846451 138.053067,90.7594416 C138.49296,93.8313929 140.083346,96.5467362 142.533781,98.3990118 L142.907878,98.6332731 C143.763228,99.0742911 144.921239,99.8425161 145.862123,100.514002 C143.766047,103.121224 141.616395,104.838823 140.044808,105.12999 C139.527839,105.209658 136.882836,105.731292 135.609212,108.044503 C135.054645,109.052679 134.596892,110.732342 135.558455,113.0171 C135.821639,113.633576 136.248374,114.180818 136.795421,114.59528 L144.210641,120.197632 C144.757688,120.605455 145.392151,120.865323 146.055751,120.944991 C146.367813,120.983877 146.663895,121 146.947758,121 C148.862425,121 150.068373,120.208064 150.766751,119.492951 C152.607162,117.610326 152.356197,114.905415 152.297921,114.453965 C152.126851,112.78758 153.15703,110.207862 155.045377,107.435613 C156.021979,108.209529 157.18751,109.199685 157.888709,109.947045 L158.215809,110.243902 C160.669063,112.096178 163.700383,112.87199 166.744863,112.430972 C169.792162,111.988057 172.484162,110.38427 174.318933,107.910775 L174.318933,107.910775 Z M170.129602,104.947892 C169.117282,106.24439 167.660368,107.08849 166.019226,107.328441 C164.365864,107.55227 162.74258,107.165312 161.40786,106.20835 C160.441597,105.251389 156.272945,101.313524 154.393996,101.33439 L153.216246,101.38276 L152.48215,102.296094 C150.307119,105.00954 146.731571,110.262871 147.222222,115.055267 C147.242901,115.212705 147.211883,115.736236 147.211883,115.811162 C147.209063,115.814007 147.142327,115.839615 146.975957,115.84246 L140.146322,110.681127 C140.120944,110.604304 140.107785,110.557831 140.095565,110.538863 C140.235617,110.423155 140.596556,110.271407 140.898278,110.214501 C145.529383,109.352382 149.514746,104.408238 151.475469,101.545889 L152.14001,100.565216 L151.858967,99.4280541 C151.398394,97.5937984 146.615958,94.8139621 145.471106,94.1690326 C144.186202,93.147578 143.349652,91.6803631 143.111846,90.0244117 C142.869341,88.3143998 143.293255,86.6167174 144.211581,85.3714344 C145.665675,83.65099 148.086031,81.9741731 153.83191,84.2750541 C159.55241,86.6318923 164.615889,90.4568939 168.355927,95.1772093 C172.110064,100.771973 170.748085,103.805039 170.129602,104.947892 Z" id="Shape"></path>
            <path d="M63.4063395,102.501078 L63.7806671,102.28594 C64.2494941,101.953454 64.9761301,101.546461 65.6642322,101.184173 C66.4853675,103.331828 66.7798752,105.165623 66.4505038,106.196609 C66.2982037,106.629679 65.6045967,108.8863 66.834006,110.843963 C67.3780656,111.707309 68.4689369,112.781137 70.5873742,112.981373 C70.6965531,112.994412 70.8066495,113 70.9167458,113 C71.4250239,113 71.9342196,112.882652 72.3929544,112.66472 L79.0372691,109.554998 C79.6061005,109.285842 80.087772,108.876056 80.4299881,108.379655 C81.6575623,106.60919 81.564898,105.069696 81.2703903,104.091796 C80.5997199,101.868703 78.4592634,100.939232 78.1023678,100.802326 C77.0839764,100.373913 75.8692466,98.9201012 74.79122,96.9019018 C75.5646467,96.5750037 76.4151411,96.2462431 77.0417729,96.0786028 L77.448212,95.9295895 C82.230981,93.6878701 84.327399,87.9154654 82.1236371,83.0604244 L81.9667498,82.7670543 C79.6914251,79.1125019 75.7563978,77.5320292 70.0534068,78.1197006 C64.4871188,79.1301973 59.2355228,81.5889176 54.8665324,85.2257745 L54.8463482,85.2444012 C50.3901981,89.0274777 48.9809648,93.1886754 50.7269095,97.7559345 C52.9370938,102.60725 58.6281578,104.739072 63.4063395,102.501078 L63.4063395,102.501078 Z M76.0041147,105.398456 L71.2387777,107.629931 C72.0837672,104.706476 71.1433609,101.227014 69.9359706,98.3948291 C71.2653843,101.166477 73.2562932,104.139294 76.0041147,105.398456 Z M55.3206799,95.7815077 C54.7041404,94.1609875 54.5445005,92.1064659 58.0400598,89.1355124 C61.7493895,86.048142 66.2055393,83.9638177 70.7415091,83.1330685 C75.631622,82.6338738 77.1261801,84.5030598 77.65556,85.3217019 C78.5858743,87.56249 77.6399631,90.1637045 75.5050113,91.2608151 C74.3847809,91.6026145 70.0286352,93.0182413 69.2552083,94.6015082 L68.7506001,95.6473957 L68.6460085,95.7004816 L67.5432099,95.4117684 C65.8587359,94.9610027 62.1044501,97.3489419 61.1658788,97.9729351 C58.9125735,98.9266206 56.2931977,97.9040164 55.3206799,95.7815077 L55.3206799,95.7815077 Z" id="Shape"></path>
            <path d="M206.611916,73.2906914 C201.926057,69.91977 196.417641,67.7848223 190.680372,67.1220268 L190.657861,67.1192262 C184.752704,66.489104 180.735583,68.3523992 178.667465,72.810865 C177.723916,75.222133 177.782067,77.8630461 178.833477,80.2463088 C179.886764,82.6277047 181.799187,84.4573933 184.225592,85.394642 L184.645781,85.5187994 C185.219789,85.6336217 186.025464,85.8791359 186.778616,86.131185 C185.806928,88.2101221 184.671105,89.7280167 183.706921,90.1975746 C183.286732,90.3880116 181.1614,91.4494177 180.613653,93.7131906 C180.370732,94.7139182 180.370732,96.2598184 181.738222,97.9662834 C182.131212,98.4507773 182.653634,98.8288507 183.23796,99.0500938 L190.178583,101.740483 C190.611903,101.910383 191.067733,102 191.509494,102 C191.690514,102 191.874346,101.98413 192.047862,101.954258 C194.203207,101.620993 195.251804,100.481172 195.751716,99.5831305 C196.886602,97.5471352 196.042472,95.3328385 195.888653,94.9753023 C195.475967,93.9316331 195.66449,92.0356649 196.366055,89.8372379 C197.15391,90.1742368 197.99804,90.5709805 198.564545,90.9135804 L198.957534,91.1040174 C201.377373,92.043133 204.03263,91.9824546 206.428084,90.9387854 C208.820723,89.8904484 210.65905,87.9860786 211.600724,85.5720097 L211.70202,85.2546147 C212.738423,81.0360623 211.078301,77.0527554 206.611916,73.2906914 Z M191.070547,96.6332243 L186.069546,94.6961816 C188.790458,93.2753723 190.64473,90.1695693 191.833078,87.3167487 C190.772288,90.2209124 190.033205,93.7467973 191.070547,96.6332243 L191.070547,96.6332243 Z M206.790122,83.8711461 C206.323036,84.9530894 205.471403,85.8053884 204.376848,86.2861485 C203.280417,86.7631743 202.077063,86.8107836 200.966563,86.4280427 C199.939539,85.8492634 195.820185,83.6200308 194.085029,84.1838734 L192.983908,84.5470107 L192.294535,83.4856047 C191.422268,81.9621088 187.047799,80.8652291 185.918541,80.6019778 C184.837117,80.1370877 183.98267,79.2913233 183.503391,78.2047123 C183.000665,77.0630241 182.969714,75.8037127 183.3552,74.8011181 C184.089593,73.2216114 185.469276,71.673844 190.104487,72.1686069 C194.970427,72.7315163 199.643155,74.5444015 203.466126,77.2861339 C207.303165,80.5254298 207.006781,82.9124266 206.790122,83.8711461 L206.790122,83.8711461 Z" id="Shape"></path>
            <path d="M48.6119163,17.2906914 C43.9260575,13.91977 38.417641,11.7848223 32.6803716,11.1220268 L32.6578614,11.1192262 C26.7527039,10.489104 22.7355834,12.3523992 20.6674653,16.810865 C19.7239155,19.222133 19.7820668,21.8630461 20.8334774,24.2463088 C21.8867638,26.6277047 23.799187,28.4573933 26.2255915,29.394642 L26.6457806,29.5187994 C27.219789,29.6336217 28.0254641,29.8791359 28.7786156,30.131185 C27.8069281,32.2101221 26.6711046,33.7280167 25.7069207,34.1975746 C25.2867316,34.3880116 23.1614,35.4494177 22.6136534,37.7131906 C22.3707318,38.7139182 22.3707318,40.2598184 23.7382221,41.9662834 C24.1312115,42.4507773 24.6536341,42.8288507 25.2379596,43.0500938 L32.1785832,45.7404828 C32.6119031,45.9103826 33.0677333,46 33.5094945,46 C33.6905136,46 33.8743463,45.9841303 34.0478619,45.9542578 C36.2032068,45.6209929 37.2518038,44.4811717 37.7517162,43.5831305 C38.8866021,41.5471352 38.0424722,39.3328385 37.888653,38.9753023 C37.4759672,37.9316331 37.6644895,36.0356649 38.3660552,33.8372379 C39.1539098,34.1742368 39.9980397,34.5709805 40.5645447,34.9135804 L40.9575341,35.1040174 C43.3773731,36.043133 46.0326304,35.9824546 48.4280836,34.9387854 C50.8207229,33.8904484 52.6590502,31.9860786 53.600724,29.5720097 L53.7020196,29.2546147 C54.7384235,25.0360623 53.0783012,21.0527554 48.6119163,17.2906914 Z M33.0705472,40.6332243 L28.0695463,38.6961816 C30.7904585,37.2753723 32.6447304,34.1695693 33.8330778,31.3167487 C32.7722878,34.2209124 32.0332052,37.7467973 33.0705472,40.6332243 L33.0705472,40.6332243 Z M48.7901216,27.8711461 C48.3230363,28.9530894 47.471403,29.8053884 46.3768479,30.2861485 C45.280417,30.7631743 44.0770629,30.8107836 42.9665631,30.4280427 C41.9395386,29.8492634 37.8201847,27.6200308 36.0850287,28.1838734 L34.9839083,28.5470107 L34.2945355,27.4856047 C33.4222678,25.9621088 29.0477991,24.8652291 27.9185409,24.6019778 C26.8371167,24.1370877 25.9826696,23.2913233 25.5033914,22.2047123 C25.0006651,21.0630241 24.9697138,19.8037127 25.3551998,18.8011181 C26.0895929,17.2216114 27.4692761,15.673844 32.1044873,16.1686069 C36.9704272,16.7315163 41.643155,18.5444015 45.4661257,21.2861339 C49.3031648,24.5254298 49.0067815,26.9124266 48.7901216,27.8711461 L48.7901216,27.8711461 Z" id="Shape-Copy-3"></path>
            <path d="M154.578934,40 L152.420559,40 C141.687738,40.0251701 133,48.9400671 133,59.9285158 L133,64.3571614 C133,68.0818218 136.793377,71 141.63426,71 C146.475143,71 150.26852,68.0818218 150.26852,64.3571614 L150.26852,58.821549 C150.262438,57.635958 150.877052,56.5375543 151.878938,55.9430721 C152.880823,55.3483305 154.117149,55.3483305 155.119035,55.9430721 C156.12092,56.5378138 156.735281,57.635958 156.729452,58.821549 L156.729452,64.3571614 C156.729452,68.0818218 160.522829,71 165.36574,71 C170.206623,71 174,68.0818218 174,64.3571614 L174,59.9285158 C173.999493,48.9400671 165.311755,40.0251701 154.578934,40 Z M141,67 C138.558824,67 137,65.8154225 137,65 C137,64.1845775 138.558824,63 141,63 C143.441176,63 145,64.1845775 145,65 C145,65.8154225 143.441176,67 141,67 Z M166.000941,67 C163.558457,67 162,65.8154225 162,65 C162,64.1845775 163.558457,63 166.000941,63 C168.441543,63 170,64.1845775 170,65 C170,65.8154225 168.441543,67 166.000941,67 Z M161.218035,57 C161.11185,53.1625117 157.691333,50.0989885 153.5,50.0870997 C149.308147,50.0982752 145.886593,53.1617983 145.779888,56.9997622 C142.976492,55.9105043 139.813002,55.8988532 137,56.966949 C137.691892,49.6462605 144.37118,44.0202111 152.394531,44 L154.605469,44 C162.62856,44.0199733 169.308108,49.6462605 170,56.966949 C167.186479,55.8986154 164.02195,55.9105043 161.218035,57 Z" id="Shape"></path>
            <path d="M112.010575,91.1132812 L109.8522,91.1132812 C99.1193786,91.1384514 90.4316406,100.053348 90.4316406,111.041797 L90.4316406,115.470443 C90.4316406,119.195103 94.2250176,122.113281 99.0659008,122.113281 C103.906784,122.113281 107.700161,119.195103 107.700161,115.470443 L107.700161,109.93483 C107.694078,108.749239 108.308693,107.650836 109.310578,107.056353 C110.312464,106.461612 111.54879,106.461612 112.550675,107.056353 C113.552561,107.651095 114.166922,108.749239 114.161093,109.93483 L114.161093,115.470443 C114.161093,119.195103 117.95447,122.113281 122.79738,122.113281 C127.638264,122.113281 131.431641,119.195103 131.431641,115.470443 L131.431641,111.041797 C131.431134,100.053348 122.743396,91.1384514 112.010575,91.1132812 Z M98.4316406,118.113281 C95.9904642,118.113281 94.4316406,116.928704 94.4316406,116.113281 C94.4316406,115.297859 95.9904642,114.113281 98.4316406,114.113281 C100.872817,114.113281 102.431641,115.297859 102.431641,116.113281 C102.431641,116.928704 100.872817,118.113281 98.4316406,118.113281 Z M123.432582,118.113281 C120.990097,118.113281 119.431641,116.928704 119.431641,116.113281 C119.431641,115.297859 120.990097,114.113281 123.432582,114.113281 C125.873184,114.113281 127.431641,115.297859 127.431641,116.113281 C127.431641,116.928704 125.873184,118.113281 123.432582,118.113281 Z M118.649676,108.113281 C118.54349,104.275793 115.122974,101.21227 110.931641,101.200381 C106.739788,101.211556 103.318233,104.27508 103.211529,108.113043 C100.408133,107.023786 97.2446422,107.012134 94.4316406,108.08023 C95.1235326,100.759542 101.802821,95.1334923 109.826171,95.1132812 L112.03711,95.1132812 C120.060201,95.1332545 126.739749,100.759542 127.431641,108.08023 C124.61812,107.011897 121.45359,107.023786 118.649676,108.113281 Z" id="Shape-Copy" transform="translate(110.931641, 106.613281) rotate(23.000000) translate(-110.931641, -106.613281) "></path>
            <path d="M62.578934,40.6230469 L60.4205591,40.6230469 C49.687738,40.648217 41,49.563114 41,60.5515627 L41,64.9802083 C41,68.7048686 44.7933769,71.6230469 49.6342602,71.6230469 C54.4751434,71.6230469 58.2685204,68.7048686 58.2685204,64.9802083 L58.2685204,59.4445959 C58.2624376,58.2590049 58.8770523,57.1606012 59.8789377,56.566119 C60.8808232,55.9713774 62.1171493,55.9713774 63.1190347,56.566119 C64.1209201,57.1608607 64.7352814,58.2590049 64.7294521,59.4445959 L64.7294521,64.9802083 C64.7294521,68.7048686 68.522829,71.6230469 73.3657398,71.6230469 C78.2066231,71.6230469 82,68.7048686 82,64.9802083 L82,60.5515627 C81.9994931,49.563114 73.3117551,40.648217 62.578934,40.6230469 Z M49,67.6230469 C46.5588235,67.6230469 45,66.4384694 45,65.6230469 C45,64.8076244 46.5588235,63.6230469 49,63.6230469 C51.4411765,63.6230469 53,64.8076244 53,65.6230469 C53,66.4384694 51.4411765,67.6230469 49,67.6230469 Z M74.000941,67.6230469 C71.5584568,67.6230469 70,66.4384694 70,65.6230469 C70,64.8076244 71.5584568,63.6230469 74.000941,63.6230469 C76.4415432,63.6230469 78,64.8076244 78,65.6230469 C78,66.4384694 76.4415432,67.6230469 74.000941,67.6230469 Z M69.2180351,57.6230469 C69.1118498,53.7855585 65.6913334,50.7220354 61.5,50.7101465 C57.3081474,50.7213221 53.8865925,53.7848452 53.779888,57.6228091 C50.9764924,56.5335511 47.8130015,56.5219001 45,57.5899958 C45.6918919,50.2693074 52.3711804,44.6432579 60.3945306,44.6230469 L62.6054694,44.6230469 C70.62856,44.6430202 77.3081081,50.2693074 78,57.5899958 C75.1864792,56.5216623 72.0219498,56.5335511 69.2180351,57.6230469 Z" id="Shape-Copy-2" transform="translate(61.500000, 56.123047) rotate(-23.000000) translate(-61.500000, -56.123047) "></path>
        </g>
    </g>
</svg>