<?xml version="1.0" encoding="UTF-8"?>
<svg width="85px" height="90px" viewBox="0 0 85 90" version="1.1" xmlns="http://www.w3.org/2000/svg" xmlns:xlink="http://www.w3.org/1999/xlink">
    <title>Group 3</title>
    <g id="Recipe-website" stroke="none" stroke-width="1" fill="none" fill-rule="evenodd">
        <g id="category-view-desktop" transform="translate(-1095.000000, -905.000000)" fill="#0A090B">
            <g id="Group-3" transform="translate(1095.000000, 905.000000)">
                <path d="M14.4685118,71.7829322 C7.74371168,65.6933321 3.69251162,57.405332 3.84771162,48.2645319 C3.84931162,48.2085319 3.76931162,48.2037319 3.76611162,48.2597319 C2.95971161,57.334932 6.78531167,66.6677321 14.2605118,72.0165322 C14.4029118,72.1189322 14.6029118,71.9045322 14.4685118,71.7829322" id="Fill-2557-Copy"></path>
                <path d="M16.0925118,68.5253322 C11.1069117,63.5189321 8.15811169,57.627732 8.38851169,50.4373319 C8.39171169,50.3285319 8.23651169,50.3221319 8.22211169,50.4261319 C7.23651167,57.227732 9.99491171,64.9109321 15.8301118,68.8213322 C16.0125118,68.9445322 16.2557118,68.6901322 16.0925118,68.5253322" id="Fill-2558-Copy"></path>
                <path d="M21.1245119,68.5669322 C17.1053118,64.0133321 13.8621118,59.640532 12.8749118,53.4693319 C12.8557118,53.3509319 12.6861118,53.3925319 12.6957118,53.5061319 C13.1821118,59.251732 15.8013118,65.6693321 20.8829119,68.8389322 C21.0557119,68.9461322 21.2653119,68.7269322 21.1245119,68.5669322" id="Fill-2559-Copy"></path>
                <path d="M31.764512,75.1989323 C26.732512,75.8901323 21.8669119,74.8853323 17.7453118,71.8357322 C17.5069118,71.6597322 17.1709118,72.0245322 17.3949118,72.2309322 C18.2077118,72.9829322 19.0861118,73.6357322 20.0077119,74.1925323 C14.2685118,72.7685322 8.8829117,70.3717322 5.00451164,65.7141321 C4.93571164,65.6309321 4.81571164,65.7381321 4.87971164,65.8229321 C8.65731169,70.8421322 14.1389118,74.6629323 20.6333119,74.6517323 C20.6749119,74.6517323 20.7085119,74.6341323 20.7357119,74.6069323 C24.1101119,76.4021323 28.036512,76.8693323 31.844512,75.5925323 C32.084512,75.5109323 32.025312,75.1637323 31.764512,75.1989323" id="Fill-2560-Copy"></path>
                <path d="M34.4397121,69.7525322 C31.169312,73.0741322 25.7469119,73.9989322 21.8461119,71.1605322 C21.7117119,71.0629322 21.5197119,71.2677322 21.6493119,71.3829322 C25.4669119,74.7685323 31.801312,74.4613323 34.6749121,69.9605322 C34.7677121,69.8165322 34.5709121,69.6213322 34.4397121,69.7525322" id="Fill-2561-Copy"></path>
                <path d="M72.4941126,23.5093315 C72.4797126,23.4005315 72.3229126,23.4389315 72.3309126,23.5413315 C72.7357126,28.6709316 71.7469126,33.2293316 70.4605126,38.1525317 C70.4125126,38.3333317 70.6509126,38.4037317 70.7293126,38.2437317 C72.8845127,33.7477316 73.1357127,28.3765316 72.4941126,23.5093315" id="Fill-2562-Copy"></path>
                <path d="M69.2285126,26.3589315 C69.2093126,26.2805315 69.0733126,26.2821315 69.0797126,26.3701315 C69.3965126,30.8661316 68.1293126,34.3941317 66.7773126,38.5717317 C66.7037126,38.7973317 66.9933126,38.9157317 67.1325126,38.7477317 C69.8477126,35.4581317 70.1549126,30.3557316 69.2285126,26.3589315" id="Fill-2563-Copy"></path>
                <path d="M62.0941125,36.5013317 C62.0845125,36.4133317 61.9533125,36.4325317 61.9453125,36.5141317 C61.5293125,40.3973317 57.7837124,41.5269318 55.2429124,43.8069318 C53.1197124,45.7157318 53.0941124,48.4741319 51.4797123,50.6885319 C48.9117123,54.213332 42.8797122,55.453332 41.6189122,59.915732 C41.5533122,60.149332 41.8397122,60.277332 41.9885122,60.099732 C43.8653122,57.826132 45.7197122,56.282132 48.1453123,54.632532 C50.1085123,53.2981319 52.0557123,51.8533319 53.0909124,49.6485319 C53.9725124,47.7701319 54.2077124,45.9637318 55.8173124,44.4661318 C56.9117124,43.4501318 58.2557124,42.7557318 59.4029124,41.8117318 C61.0493125,40.4597317 62.3149125,38.6885317 62.0941125,36.5013317" id="Fill-2564-Copy"></path>
                <path d="M51.2429123,78.2645323 C51.0413123,76.0805323 50.3325123,73.7333322 49.1389123,71.7349322 C49.3165123,71.8085322 49.5629123,71.6773322 49.5005123,71.4565322 C48.8445123,69.1333322 46.2765123,66.4469321 43.9613122,65.7413321 C43.7165122,65.6661321 43.4605122,65.9813321 43.6669122,66.1829321 C44.5885122,67.0821321 45.6941122,67.7509322 46.5981123,68.6821322 C46.6621123,68.7477322 46.7181123,68.8213322 46.7789123,68.8885322 C45.6669122,67.9413322 44.3597122,67.2549321 42.8493122,66.9829321 C42.7757122,66.9701321 42.7501122,67.0981321 42.8237122,67.1125321 C48.6109123,68.2837322 49.1005123,73.8341322 50.9005123,78.3829323 C50.9821123,78.5925323 51.2605123,78.4549323 51.2429123,78.2645323" id="Fill-2565-Copy"></path>
                <path d="M50.8013123,69.0629322 C50.2845123,68.0085322 49.4365123,67.1445321 48.6925123,66.2485321 C47.8509123,65.2325321 46.9885123,64.2453321 46.0381123,63.3285321 C45.8957122,63.1893321 45.5965122,63.3429321 45.7229122,63.5381321 C46.4093123,64.5909321 47.1677123,65.5845321 47.9661123,66.5525321 C48.7549123,67.5125322 49.4893123,68.5845322 50.4861123,69.3365322 C50.6637123,69.4693322 50.8925123,69.2501322 50.8013123,69.0629322" id="Fill-2566-Copy"></path>
                <path d="M54.1885124,64.0661321 C53.6941124,62.0293321 51.8429123,60.254932 50.1885123,59.080532 C49.9469123,58.910932 49.6125123,59.267732 49.8381123,59.477332 C50.5965123,60.182932 51.3373123,60.9349321 51.9917123,61.7397321 C52.6477123,62.5493321 53.1485124,63.4661321 53.8557124,64.2309321 C53.9821124,64.3669321 54.2349124,64.2597321 54.1885124,64.0661321" id="Fill-2567-Copy"></path>
                <path d="M52.6285123,57.101332 C52.4637123,56.933332 52.1917123,57.165332 52.3517123,57.341332 C53.0205124,58.074132 53.5805124,58.880532 54.0205124,59.771732 C54.4285124,60.600532 54.6205124,61.4933321 54.9821124,62.3317321 C55.0413124,62.4661321 55.2669124,62.4213321 55.2669124,62.2725321 C55.2621124,60.379732 53.8909124,58.402132 52.6285123,57.101332" id="Fill-2568-Copy"></path>
                <path d="M58.3565124,61.5237321 C57.4109124,59.744532 56.1805124,58.101332 55.0669124,56.426132 C54.9325124,56.222932 54.5869124,56.390932 54.7229124,56.597332 C55.8413124,58.288532 56.8829124,60.074132 58.1645124,61.6517321 C58.2461124,61.7525321 58.4173124,61.6405321 58.3565124,61.5237321" id="Fill-2569-Copy"></path>
                <path d="M59.9661125,59.907732 C59.4317124,58.837332 58.6605124,57.891732 58.0557124,56.859732 C57.4493124,55.821332 56.9069124,54.739732 56.3837124,53.6597319 C56.2925124,53.4709319 56.0317124,53.6133319 56.1005124,53.7989319 C56.8893124,55.933332 58.0397124,58.486932 59.7453125,60.054932 C59.8509125,60.150932 60.0381125,60.053332 59.9661125,59.907732" id="Fill-2570-Copy"></path>
                <path d="M61.8653125,57.648532 C60.5853125,56.365332 59.5373125,54.979732 58.7901124,53.3205319 C58.7725124,53.2805319 58.7133124,53.3109319 58.7309124,53.3493319 C59.4461125,54.982932 60.4589125,56.514132 61.7885125,57.714132 C61.8349125,57.754132 61.9101125,57.693332 61.8653125,57.648532" id="Fill-2571-Copy"></path>
                <path d="M63.9549125,56.637332 C62.7213125,54.400532 61.4333125,52.4021319 60.7261125,49.9093319 C60.6493125,49.6437319 60.2269125,49.7285319 60.3005125,49.9989319 C60.9629125,52.3765319 61.9853125,54.997332 63.7629125,56.766932 C63.8509125,56.854932 64.0221125,56.760532 63.9549125,56.637332" id="Fill-2572-Copy"></path>
                <path d="M70.2205126,57.742932 C67.7837126,54.466132 65.4237125,51.2501319 63.6093125,47.5701319 C63.5805125,47.5125319 63.4925125,47.5557319 63.5197125,47.6133319 C65.1981125,51.2805319 67.2925126,54.925332 70.1325126,57.819732 C70.1853126,57.874132 70.2653126,57.803732 70.2205126,57.742932" id="Fill-2573-Copy"></path>
                <path d="M58.2077124,77.6629323 C56.7021124,78.6005323 55.5133124,79.7509323 54.7965124,81.4005324 C54.2045124,82.7637324 53.7709124,84.7909324 54.7309124,86.0661324 C54.8541124,86.2293324 55.1661124,86.1765324 55.2125124,85.9717324 C55.5005124,84.7269324 55.2221124,83.4485324 55.5517124,82.1749324 C55.9837124,80.5157323 56.9501124,78.9765323 58.3853124,78.0213323 C58.5965124,77.8805323 58.4301124,77.5253323 58.2077124,77.6629323" id="Fill-2574-Copy"></path>
                <polyline id="Fill-2579-Copy" points="67.9773126 72.1509322 67.9613126 72.2005322 67.9773126 72.1509322"></polyline>
                <path d="M23.6349119,67.7525322 C20.6605119,63.2981321 17.9725118,58.912532 16.6573118,53.6517319 C16.6157118,53.4853319 16.3629118,53.5349319 16.3965118,53.7061319 C17.4157118,58.928532 19.4765119,64.2133321 23.3725119,67.9829322 C23.5373119,68.1429322 23.7597119,67.9381322 23.6349119,67.7525322" id="Fill-2580-Copy"></path>
                <path d="M28.777312,67.3141321 C25.0653119,64.0453321 22.2493119,60.427732 21.6637119,55.354132 C21.6317119,55.085332 21.2333119,55.178132 21.2557119,55.438932 C21.6381119,60.264532 24.1117119,65.4005321 28.631712,67.6101322 C28.815712,67.6997322 28.903712,67.4245321 28.777312,67.3141321" id="Fill-2581-Copy"></path>
                <path d="M34.0589121,66.8709321 C33.0653121,65.8245321 31.812512,65.1509321 30.911712,63.9653321 C29.898912,62.6341321 29.210912,61.0645321 28.932512,59.414932 C28.910112,59.278932 28.678112,59.290132 28.686112,59.432532 C28.783712,61.1557321 29.233312,62.7525321 30.194912,64.1973321 C30.993312,65.3989321 32.337312,66.9397321 33.8173121,67.2325321 C34.0141121,67.2709321 34.2301121,67.0517321 34.0589121,66.8709321" id="Fill-2582-Copy"></path>
                <path d="M66.5629126,13.6965313 C66.4909126,13.6181313 66.3693126,13.7237313 66.4365126,13.8053314 C68.6685126,16.5157314 69.4653126,19.5285314 70.1053126,22.8949315 C70.1325126,23.0357315 70.3421126,23.0165315 70.3533126,22.8757315 C70.5933126,19.4869314 68.8061126,16.1253314 66.5629126,13.6965313" id="Fill-2583-Copy"></path>
                <path d="M60.3485125,6.86933125 C53.1629124,4.93973122 45.2077122,7.53973126 39.4173122,11.8245313 C39.3821122,11.8501313 39.4269122,11.8981313 39.4621122,11.8741313 C45.8413122,7.55413126 52.8093124,6.70133124 60.3053125,7.09653125 C60.4333125,7.10453125 60.4781125,6.90453125 60.3485125,6.86933125" id="Fill-2584-Copy"></path>
                <path d="M57.9565124,7.54933126 C52.8253124,6.03253123 46.3693123,9.42773129 42.8541122,12.9333313 C42.7485122,13.0405313 42.8893122,13.2021313 43.0077122,13.1109313 C45.2557122,11.3317313 47.9149123,9.83253129 50.6605123,8.97973128 C53.0717124,8.22933127 55.5101124,8.34453127 57.9373124,7.85493126 C58.0877124,7.82293126 58.1085124,7.59413126 57.9565124,7.54933126" id="Fill-2585-Copy"></path>
                <path d="M79.4589127,33.3029316 C79.2957127,34.0533317 79.0589127,34.7509317 78.7677127,35.4117317 C77.5389127,36.7925317 76.5645127,38.3749317 75.6525127,39.9973317 C75.4141127,40.2677317 75.1725127,40.5349317 74.9309127,40.8021318 C75.5837127,39.3701317 76.2269127,37.9365317 76.8701127,36.5221317 C77.8813127,34.2949317 79.0269127,32.0021316 79.9309127,29.6453316 C79.8685128,30.8757316 79.7213128,32.1013316 79.4589127,33.3029316 Z M69.0429126,49.8517319 C68.9165126,49.6821319 68.7917126,49.5141319 68.6685126,49.3429319 C70.1901126,46.2677318 70.8973126,41.3013318 66.8429126,40.6661318 C66.4925126,40.6101317 66.1517125,40.5989317 65.8205125,40.6229318 C65.6509125,40.4997317 65.4013125,40.4917317 65.2765125,40.6901318 C63.8509125,40.9653318 62.6573125,41.9269318 61.8061125,43.1909318 C61.2029125,44.0869318 60.8109125,45.1125318 60.3709125,46.0917318 C59.1901124,48.7333319 58.1165124,50.4693319 55.6093124,52.0085319 C53.2061124,53.4821319 51.7133123,54.984532 50.0765123,57.282132 C48.0333123,60.149332 45.5693122,61.9173321 42.6845122,63.8661321 C39.0173121,66.3429321 33.9101121,70.9125322 36.1645121,75.9205323 C36.1821121,75.9589323 36.2061121,75.9893323 36.2317121,76.0149323 C30.063712,77.9269323 23.8173119,78.7685323 17.2669118,76.6277323 C8.9661117,73.9141322 3.85731162,66.9349321 2.4365116,58.486932 C1.72611159,54.262932 1.96771159,49.9317319 2.6973116,45.7253318 C3.41731162,41.5685318 4.35811163,37.1077317 5.96291165,33.1925316 C6.11011166,32.8357316 6.27171166,32.4949316 6.44291166,32.1621316 C5.49891165,34.2197317 4.96291164,36.4469317 4.98851164,38.6389317 C4.99011164,38.8597317 5.28131164,38.8661317 5.32131164,38.6581317 C6.29411166,33.4565316 8.23011169,29.5365316 11.9613117,25.8949315 C13.0813118,24.9957315 14.2525118,24.1349315 15.4077118,23.2517315 C17.6157118,21.5653315 19.7821119,19.8309314 21.9261119,18.0661314 C22.0781119,18.1333314 22.2509119,18.1493314 22.4173119,18.0693314 C22.7661119,17.8997314 23.0941119,17.6853314 23.4333119,17.4997314 C22.9597119,18.1445314 22.5069119,18.8021314 22.1037119,19.4821314 C21.9581119,19.7269314 22.3165119,19.9653314 22.5181119,19.8101314 C26.308512,16.8773314 29.714912,13.8789314 33.4381121,11.3029313 C36.5965121,9.69173129 39.8861122,8.34133127 43.2893122,7.33653125 C48.3965123,5.82933123 54.5597124,4.50933121 60.2429125,5.05653122 C61.7565125,5.73493123 63.2077125,6.66293124 64.6253125,7.65013126 C64.5805125,7.63093126 64.5421125,7.60373126 64.4989125,7.58613126 C64.3485125,7.52373126 64.2749125,7.75573126 64.4189125,7.82293126 C69.5981126,10.2485313 73.1565127,15.2437314 74.5005127,20.7301315 C75.9133127,26.4869315 74.7245127,31.9605316 73.6317127,37.6341317 C73.6013127,37.7893317 73.8365127,37.8133317 73.8909127,37.6837317 C77.4669127,29.1301316 76.5645127,17.7845314 69.9757126,11.2469313 C72.4829126,12.7541313 74.4845127,14.0661314 76.0445127,15.9237314 C75.9565127,15.9749314 75.8909127,16.0597314 75.9325127,16.1813314 C77.4285127,20.6069315 77.1821127,24.4933315 76.5437127,29.0261316 C76.5037127,29.3109316 76.8925127,29.3269316 76.9981127,29.1141316 C78.7917127,25.4533315 78.3997127,20.8021315 76.8733127,17.0453314 C77.5485127,18.0533314 78.1389127,19.2053314 78.6365127,20.6229315 C79.1789127,22.1685315 79.5565127,23.7797315 79.7693128,25.4149315 C79.7181128,25.6821315 79.6877128,25.9349315 79.6157128,26.2149315 C77.4861127,34.5557317 72.0653126,41.8389318 69.0429126,49.8517319 Z M67.6669126,47.7941319 C66.6397126,46.0229318 65.9677125,44.0885318 65.9677125,41.8101318 C67.2397126,41.6869318 68.3837126,42.2805318 68.5037126,44.3189318 C68.5741126,45.5221318 68.0973126,46.6533318 67.6669126,47.7941319 Z M75.5309127,64.9861321 C75.5357127,65.0037321 75.5549127,65.0149321 75.5629127,65.0309321 C75.7741127,66.0885321 75.9485127,67.1477321 76.0285127,68.1877322 C76.1661127,70.0277322 75.8365127,71.8037322 75.5789127,73.5893322 C74.6429127,76.0661323 73.0557127,78.3173323 71.1005126,80.0661323 C67.9661126,82.8677324 64.6221125,85.0725324 60.9309125,86.5221324 C58.5645124,87.1589324 56.0861124,87.4085324 53.5469124,87.2277324 C53.1373124,86.8149324 53.0157124,86.2277324 53.2093124,85.4469324 C53.2173124,84.3397324 53.5741124,83.6437324 54.0493124,82.6741324 C54.6429124,81.4629324 55.3229124,80.2405323 56.1069124,79.1365323 C57.1741124,77.6341323 58.3117124,76.6965323 59.9181125,75.8261323 C60.6989125,75.4021323 61.3741125,75.0981323 61.9853125,74.4325323 C63.6749125,72.5925322 64.3453125,69.9861322 66.0189125,68.0581322 C67.9213126,65.8645321 72.2045126,61.8085321 75.2877127,64.1829321 C75.3677127,64.4485321 75.4477127,64.7125321 75.5309127,64.9861321 Z M71.2989126,6.36373124 C66.6109126,4.10453121 63.4493125,0.542931153 58.0509124,0.0613311457 C53.8205124,-0.31626886 49.4957123,1.11573116 45.5741122,2.54613118 C40.5053122,4.39893121 34.9533121,7.13493125 30.255712,10.7157313 C27.967712,11.9637313 25.5325119,13.3989313 23.5677119,15.1541314 C23.5645119,15.1525314 23.5629119,15.1541314 23.5597119,15.1541314 C22.9757119,15.6261314 22.3853119,16.0901314 21.7917119,16.5493314 C21.9517119,16.5173314 22.1085119,16.4789314 22.2701119,16.4517314 C22.1869119,16.5445314 22.0941119,16.6341314 22.0141119,16.7317314 C20.1453119,17.9909314 18.2893118,19.2661314 16.4573118,20.5797315 C13.1949118,22.9157315 9.47651171,25.1989315 6.85731167,28.2709316 C4.51171163,31.0229316 3.37891161,34.5829317 2.3501116,37.9877317 C1.27651158,41.5349318 0.503711572,45.1733318 0.159711567,48.8661319 C-1.13948845,62.7653321 5.48611165,76.4677323 20.0957119,79.3317323 C27.674912,80.8149323 36.4157121,78.8389323 42.8349122,74.6037323 C43.3133122,74.2885323 42.9853122,73.5845322 42.4365122,73.7989322 C40.5917122,74.5237323 38.7469121,75.2037323 36.8973121,75.8005323 C36.9037121,75.7589323 36.9069121,75.7157323 36.8973121,75.6661323 C35.8605121,70.1205322 39.8829122,66.9141321 43.9821122,64.0741321 C45.0797122,63.3157321 46.1789123,62.5541321 47.1997123,61.7013321 C47.1405123,61.8309321 47.1581123,61.9925321 47.3037123,62.0853321 C48.2285123,62.6773321 49.0509123,63.3669321 49.7389123,64.2261321 C50.3693123,65.0165321 50.7133123,65.9589321 51.2957123,66.7749321 C51.4221123,66.9541321 51.7053123,66.8245321 51.7181123,66.6293321 C51.8669123,64.3525321 49.5629123,62.2405321 47.5805123,61.5237321 C47.5245123,61.5029321 47.4701123,61.5045321 47.4205123,61.5157321 C48.0333123,60.9893321 48.6157123,60.426132 49.1469123,59.802132 C50.4269123,58.301332 51.2989123,56.506132 52.6141123,55.032532 C54.1677124,53.2933319 56.4109124,52.6309319 58.0829124,51.0661319 C59.3645124,49.8661319 60.0285125,48.2581319 60.7853125,46.7125318 C60.8477125,46.5829318 60.9117125,46.4533318 60.9741125,46.3237318 C61.8317125,49.9333319 63.1997125,54.309332 65.7085125,57.122132 C65.8765125,57.309332 66.1597126,57.106132 66.0653125,56.882132 C65.3469125,55.179732 64.2685125,53.6245319 63.5069125,51.9301319 C62.6749125,50.0757319 61.9949125,48.1525319 61.4253125,46.2021318 C61.3805125,46.0501318 61.2317125,46.0053318 61.1149125,46.0437318 C61.6205125,45.0261318 62.1757125,44.0197318 63.0013125,43.2245318 C63.4429125,42.7989318 64.0541125,42.4005318 64.7101125,42.1333318 C63.8349125,45.4725318 65.6973125,48.9397319 67.6653126,51.6629319 C69.1053126,53.6565319 70.8781126,55.384532 72.3101126,57.387732 C73.5485127,59.120532 74.2221127,60.8149321 74.8125127,62.6501321 C72.2861126,61.3301321 68.8541126,63.2645321 66.8653126,65.1205321 C65.0429125,66.8197321 63.7293125,68.8757322 62.5885125,71.0757322 C61.7325125,72.7301322 61.0093125,73.8309322 59.4093124,74.7989323 C58.4349124,75.3893323 57.5725124,75.7685323 56.7277124,76.5653323 C54.2733124,78.8837323 50.8493123,83.9061324 52.0909123,87.4389324 C52.2717123,87.9573325 52.5981123,88.4037325 52.9965124,88.7685325 C52.9757124,88.8549325 52.9709124,88.9429325 52.9821124,89.0325325 C48.9933123,88.8197325 49.6333123,82.1669324 49.0141123,79.3029323 C48.4397123,76.6453323 47.4973123,73.6789322 45.6461122,71.6149322 C43.1693122,68.8533322 37.5853121,68.6213322 36.9869121,73.0965322 C36.9245121,73.5557322 37.6125121,73.6581322 37.7645121,73.2469322 C38.6829121,70.7509322 41.6045122,71.0149322 43.2333122,72.4309322 C44.2717122,73.3333322 44.9309122,74.5989323 45.4653122,75.8453323 C46.6557123,78.6293323 47.3389123,81.5445324 47.9117123,84.5045324 C48.3917123,86.9717324 50.5181123,91.3333325 53.6493124,89.6005325 C56.7053124,90.2869325 59.7709125,89.1829325 62.3965125,87.6069325 C65.9293125,86.5909324 69.2365126,84.7157324 71.9565126,82.2245324 C73.3517127,80.9477324 74.7245127,79.3877323 75.9197127,77.6565323 C76.1581127,77.6725323 76.4109127,77.5973323 76.5725127,77.4229323 C79.6109128,74.1557322 80.1165128,68.2981322 79.4669127,64.0181321 C78.6333127,58.530132 74.8877127,54.333332 73.8333127,48.9221319 C74.1325127,48.2053319 74.4941127,47.5269319 74.9085127,46.8789318 C75.4461127,46.2021318 75.9613127,45.5013318 76.4477127,44.7813318 C78.3677127,42.4149318 80.5997128,40.2277317 81.7501128,37.3605317 C83.4525128,33.1173316 83.8125128,27.5653316 84.0813128,23.0309315 C84.6653128,13.2021313 79.1309127,10.1381313 71.2989126,6.36373124 L71.2989126,6.36373124 Z" id="Fill-2586-Copy"></path>
            </g>
        </g>
    </g>
</svg>