<?xml version="1.0" encoding="UTF-8"?>
<svg width="235px" height="152px" viewBox="0 0 235 152" version="1.1" xmlns="http://www.w3.org/2000/svg" xmlns:xlink="http://www.w3.org/1999/xlink">
    <title>mushroom-pasta</title>
    <g id="mushroom-pasta" stroke="none" stroke-width="1" fill="none" fill-rule="evenodd">
        <g id="135473" transform="translate(59.000000, 15.000000)" fill="#424141" fill-rule="nonzero">
            <path d="M12.6932608,29.9175618 C16.492545,35.0392095 23.7142858,36.0813664 28.7897085,32.251273 L29.1167305,31.9544622 C29.8168214,31.2043745 30.9830127,30.2172176 31.9612601,29.443423 C33.8491559,32.2076524 34.8819069,34.7765364 34.7155767,36.3829188 C34.6460376,36.9063681 34.3960722,39.6137008 36.236042,41.4941351 C36.9361329,42.2100848 38.1427321,43 40.0437838,43 C40.3228803,43 40.6217108,42.9810344 40.9308786,42.945 C41.5896216,42.870086 42.2314497,42.6121545 42.8009194,42.1873261 L50.2218806,36.5811088 C50.7669176,36.1600735 51.1879118,35.6157623 51.4406964,35.0126575 C52.404848,32.7311016 51.9443858,31.0517019 51.3871322,30.0436827 C50.117572,27.7336786 47.4722628,27.2102294 47.0249565,27.1429016 C45.3945439,26.8413492 43.2425872,25.125915 41.1394961,22.516255 C42.103648,21.8278053 43.2782966,21.0511661 44.0911535,20.633924 L44.4642222,20.3987511 C46.9150095,18.5477132 48.5050138,15.8346907 48.9438627,12.7603748 C49.3808322,9.68700704 48.6121419,6.6316564 46.6744414,4.03147926 C43.0264519,-0.289821832 37.8439013,-1.13853037 31.2715065,1.49199165 L31.2480136,1.50242276 C24.7085087,4.19458301 18.931116,8.56045321 14.4176453,14.290895 C10.6305775,19.9331467 9.98687,25.0955702 12.5062569,29.6292854 L12.6932608,29.9175618 Z M18.5373736,17.3462454 C22.3855232,12.4702019 27.4459102,8.64579808 33.1753771,6.28648334 C38.9330358,3.98027215 41.3377769,5.66251678 42.691912,7.2556232 C43.7086878,8.62493609 44.1334411,10.319508 43.8900538,12.0292527 C43.6523049,13.686842 42.8197137,15.1490862 41.5360574,16.1703811 C40.3989975,16.8019341 35.6054907,19.5690081 35.1431489,21.4418565 L34.8696906,22.5835828 L35.5237351,23.5403948 C37.4858684,26.4108313 41.4702772,31.3570474 46.1388014,32.2228248 C46.4432704,32.277825 46.9159491,32.4703252 46.8877574,32.4504114 C46.8905766,32.4532563 46.8924562,32.5253254 46.8473497,32.6893774 L40.0212305,37.8451628 C39.9422939,37.8480077 39.8906095,37.8480077 39.8727548,37.8555939 C39.8013362,37.6858522 39.7581092,37.2942136 39.7909992,36.9841267 C40.2740149,32.2598077 36.6965045,27.0091943 34.5266932,24.3094481 L33.7824358,23.3886704 L32.6228223,23.3422049 C32.604028,23.3422049 32.5871131,23.3422049 32.5683187,23.3422049 C30.6494123,23.3422049 26.5578757,27.2642812 25.600302,28.2163519 C22.8318896,30.2096313 18.9837402,29.6444579 16.8806489,26.9551425 C16.2632536,25.8105714 14.8978418,22.782721 18.5373736,17.3462454 Z" id="Shape"></path>
            <path d="M60.0243839,23.7830043 L60.4300276,23.9347185 C61.5685957,24.2447432 63.2160621,24.9185055 64.4744796,25.4820155 C62.7993556,28.9262123 60.8688603,31.3244286 59.1743758,32.0453072 C58.8636897,32.1678093 56.1209851,33.3061375 55.3179951,35.9993016 C54.9750418,37.1442259 54.8717871,38.9534894 56.3210414,41.0577006 C56.6971837,41.6183838 57.2337396,42.0754113 57.8910667,42.3929746 L66.88345,46.6315512 C67.4052552,46.8746709 67.9639373,47 68.5226194,47 C68.6360151,47 68.7512549,46.9952884 68.8664946,46.9849228 C71.3907045,46.7408606 72.67217,45.4856844 73.3036834,44.4755123 C74.7833609,42.1008541 73.8503804,39.2305329 73.7627982,38.9789322 C73.1884438,37.1668417 73.7249996,34.0458623 75.1770197,30.5385299 C76.3395576,31.1199442 77.7814366,31.8992468 78.6784625,32.5315467 L79.0527609,32.7520506 C81.9761613,34.1259601 85.2544999,34.2512892 88.2839206,33.112961 C91.3170293,31.9708635 93.7287655,29.6951493 95.1356114,26.5609775 C97.2689286,20.9287026 95.4490634,15.5885487 89.7248777,10.6959989 L89.7055175,10.6809217 C83.8965152,5.81192993 76.9166781,2.51850505 69.3302189,1.142711 C62.2323763,0.42277493 57.160908,2.42898415 54.267931,7.11045324 L54.1093612,7.40540105 C52.7633617,10.3916279 52.6379809,13.7434768 53.7562668,16.8408982 C54.8800843,19.9420888 57.1055932,22.4072102 60.0243839,23.7830043 L60.0243839,23.7830043 Z M58.6027872,9.70750034 C60.4401687,6.86262202 63.7922607,5.72712082 68.6461562,6.21712967 C75.1917704,7.41388191 81.374149,10.3247228 86.5212144,14.6377431 C91.7134537,19.0779771 91.3548279,22.3553823 90.5251021,24.5651336 C89.7405503,26.3074922 88.3290945,27.6342854 86.5534816,28.304278 C84.8258081,28.9516552 82.9607692,28.9007697 81.2985519,28.1629294 C80.15814,27.4222621 75.1862388,24.2569936 73.3082929,24.7545411 L72.1927729,25.0494887 L71.6764991,26.084161 C70.0161255,29.4237598 67.4614923,35.7429893 69.0140014,40.627058 C69.096052,40.8682931 69.1762588,41.5241511 69.0914424,41.6956543 C69.0886766,41.6984814 68.9881877,41.7776367 68.6931741,41.8370032 L60.2742236,37.8707583 C60.1340921,37.6191576 60.1156537,37.4957132 60.1128879,37.4957132 C60.1838755,37.3194985 60.6319275,36.97555 61.0283519,36.8068738 C65.6065943,34.8694542 68.6480002,28.7782674 70.0566901,25.3105125 L70.4853817,24.2193007 L69.9783269,23.1808587 C69.1255533,21.4234232 63.3202389,19.4888304 61.9880682,19.0657267 C60.3507428,18.2534429 59.1024664,16.8390136 58.4654213,15.07027 C57.8302202,13.3052959 57.8800039,11.4083964 58.6027872,9.70750034 L58.6027872,9.70750034 Z" id="Shape"></path>
            <path d="M117.831857,46.4630886 C116.586222,41.0215427 112.402308,37.8970359 105.396075,37.1772152 L105.370825,37.174418 C98.3599167,36.5282577 91.2844819,37.6788518 84.6906554,40.6028903 C78.772951,43.7824093 75.8515053,47.986647 76.0058069,53.0981201 L76.0385376,53.4300579 C77.0559938,59.6399103 82.9662169,63.8767824 89.1766269,62.8520635 L89.6011905,62.7439039 C90.5597314,62.4110332 92.0400927,62.0865547 93.2529976,61.8609113 C93.6597929,65.1392657 93.3979476,67.8507147 92.5207658,69.1766019 C92.2205789,69.5999163 90.7682726,71.8488897 91.5313647,74.3309657 C91.8642821,75.4162914 92.7423991,76.8894994 95.0335459,77.7594383 C95.4553037,77.9188802 95.9079223,78 96.3680217,78 C96.5793684,78 96.7925853,77.9822844 97.0067373,77.94965 L106.098381,76.4689825 C106.777309,76.354296 107.402932,76.0736406 107.901373,75.6596504 C109.791336,74.1155791 110.152308,72.4372407 110.121448,71.3034298 C110.052246,68.7075997 107.957483,67.0385853 107.596511,66.7747131 C106.294765,65.7630481 105.172571,63.2707156 104.511412,60.0380492 C105.648569,59.880472 106.98585,59.730354 107.978057,59.7536642 L108.196885,59.7564615 L108.412907,59.7210298 C111.421323,59.2315145 114.06035,57.596067 115.848379,55.1186528 C117.64202,52.634712 118.356483,49.6174325 117.831857,46.4630886 L117.831857,46.4630886 Z M111.72151,52.152656 C110.757358,53.4887998 109.350874,54.3839136 107.748942,54.6832172 C106.444391,54.7186489 100.964342,54.9470894 99.7205773,56.3317185 L98.9453281,57.2063194 L99.0874727,58.3503868 C99.5092305,61.7536841 100.770764,67.894538 104.524504,70.8129819 C104.64888,70.9015609 104.999566,71.2847816 105.05287,71.3323344 C105.05287,71.3323344 105.022945,71.3985355 104.90792,71.5206813 L96.5335455,72.8820003 C96.4624732,72.8465686 96.4166504,72.8260557 96.3960767,72.8232584 C96.4119744,72.6433033 96.554119,72.2805957 96.7196426,72.0297774 C99.3025598,68.137897 98.5422733,61.9149912 97.8605403,58.5657737 L97.6248793,57.4198413 L96.61771,56.8445443 C94.9765008,55.9093367 89.4917764,57.4729886 88.1993828,57.8655335 C86.5768769,58.0837174 84.9674633,57.6855784 83.6217653,56.7251957 C82.2816784,55.7638807 81.3811174,54.359671 81.0818656,52.7643171 C81.0538107,51.4813206 81.2314915,48.2160198 86.9228869,45.1474579 C92.5404042,42.6653818 98.7405276,41.6583787 104.879865,42.2215545 C111.016398,42.8527962 112.371447,45.4234514 112.837158,47.4374575 C113.114901,49.099945 112.718392,50.7736212 111.72151,52.152656 L111.72151,52.152656 Z" id="Shape"></path>
            <path d="M41.5001653,106.423486 C39.8364044,106.272704 37.5135784,104.755337 35.1651852,102.340911 C36.0713998,101.562187 37.1764704,100.669899 37.956743,100.176517 L38.3090019,99.907399 C43.0474535,95.5891074 43.4158103,88.1874122 39.0201485,83.297484 C34.9559128,79.3065236 29.6805506,78.9352937 23.3247379,82.2000175 L23.3039052,82.2105151 C16.997333,85.5172289 11.5998162,90.4348326 7.59618448,96.6016394 C4.31222164,102.611938 4.14272086,107.843512 7.09336312,112.154169 L7.30263544,112.422333 C9.37263035,114.728921 12.2153226,116.084053 15.3136866,116.241516 C18.4290953,116.389435 21.3778441,115.333959 23.6675274,113.25259 L23.9686521,112.92335 C24.5993092,112.111225 25.6788126,111.010896 26.5907089,110.14342 C28.743087,112.741075 30.0100832,115.217532 29.9949323,116.838919 C29.9740996,117.371429 29.9740996,120.109369 31.9929603,121.822371 C32.6747519,122.400688 33.7618307,123 35.3432085,123 C35.8062586,123 36.3109737,122.945604 36.8592478,122.83204 C37.5088436,122.688892 38.1215091,122.372058 38.6413754,121.902534 L45.5577723,115.597351 C46.067222,115.127826 46.4459952,114.543783 46.6524264,113.900572 C47.407132,111.525273 46.7916256,109.885754 46.1429767,108.927618 C44.6562923,106.725051 41.9527992,106.449253 41.5001653,106.423486 Z M41.8325387,111.99289 L35.4558933,117.800872 C35.3763512,117.81137 35.3242699,117.816141 35.3062781,117.823776 C35.2191603,117.660588 35.1415119,117.274088 35.1443525,116.962981 C35.1983276,112.190433 31.1217821,107.259469 28.6834302,104.739114 L27.8491825,103.895496 L26.6854022,103.96039 C24.7792266,104.069182 20.9782383,108.450459 20.097591,109.501164 C18.8466929,110.589087 17.2369069,111.167404 15.5731461,111.052886 C13.9046507,110.96986 12.3677787,110.261756 11.2314594,109.054543 C10.5032682,107.967574 8.84992346,105.063582 12.0041566,99.2737314 C15.4216369,94.0230704 20.1468315,89.7152765 25.6731311,86.817011 C31.2325734,83.956918 33.8053897,85.4237056 35.3091189,86.892402 C36.4549075,88.1692804 37.040112,89.8297947 36.954888,91.5666545 C36.8696641,93.2481637 36.1670399,94.7979771 34.96917,95.9450682 C33.8773566,96.6970712 29.3349199,99.9360284 29.0470524,101.815082 L28.8718699,102.993665 L29.6218406,103.894542 C31.856602,106.58572 36.3138146,111.165495 41.1090821,111.598756 C41.2662728,111.609253 41.7757227,111.741904 41.8476896,111.757173 C41.8495834,111.75431 41.8628406,111.828747 41.8325387,111.99289 L41.8325387,111.99289 Z" id="Shape"></path>
            <path d="M80.3189329,79.9107749 L80.5003421,79.6271955 C83.0212725,75.0927716 82.3764706,69.929541 78.4710025,64.1242264 C74.0673641,58.5531731 68.2876474,54.1837751 61.7540954,51.4959364 L61.7315367,51.4855036 C55.159447,48.8526735 49.9728352,49.7062568 46.220578,54.1524771 C44.385807,56.6288169 43.6159926,59.6846451 44.0530666,62.7594416 C44.4929605,65.8313929 46.083346,68.5467362 48.5337806,70.3990118 L48.9078782,70.6332731 C49.7632276,71.0742911 50.9212388,71.8425161 51.8621228,72.5140016 C49.7660472,75.1212242 47.6163951,76.8388235 46.0448084,77.1299901 C45.527839,77.2096581 42.8828362,77.7312922 41.6092118,80.0445029 C41.0546448,81.0526794 40.5968919,82.7323416 41.5584549,85.0170997 C41.8216393,85.6335764 42.2483738,86.180818 42.7954212,86.5952803 L50.210641,92.1976316 C50.7576884,92.6054548 51.3921508,92.8653234 52.0557515,92.9449912 C52.3678127,92.9838768 52.6638952,93 52.9477584,93 C54.8624247,93 56.0683731,92.2080644 56.7667514,91.4929511 C58.6071623,89.6103259 58.3561971,86.9054154 58.2979207,86.4539647 C58.1268507,84.7875805 59.1570295,82.2078622 61.0453773,79.4356134 C62.0219794,80.2095289 63.1875102,81.1996854 63.8887087,81.947045 L64.2158092,82.2439022 C66.6690634,84.0961781 69.7003833,84.8719903 72.7448626,84.4309724 C75.7921617,83.9880574 78.4841619,82.3842695 80.3189329,79.9107749 L80.3189329,79.9107749 Z M76.1296015,76.9478923 C75.1172817,78.2443905 73.6603683,79.0884896 72.0192257,79.3284413 C70.365864,79.5522698 68.7425804,79.1653121 67.4078597,78.2083504 C66.441597,77.2513886 62.2729446,73.3135244 60.3939961,73.3343899 L59.2162461,73.3827597 L58.4821498,74.2960939 C56.3071188,77.0095402 52.7315712,82.262871 53.2222221,87.0552668 C53.2429008,87.2127053 53.2118827,87.7362364 53.2118827,87.8111621 C53.2090628,87.8140074 53.1423267,87.839615 52.9759566,87.8424601 L46.1463224,82.6811267 C46.1209438,82.6043043 46.1077847,82.5578313 46.0955653,82.5388627 C46.2356171,82.4231549 46.5965557,82.2714068 46.8982777,82.2145012 C51.5293827,81.3523822 55.514746,76.408238 57.4754695,73.5458889 L58.1400101,72.5652165 L57.8589667,71.4280541 C57.3983939,69.5937984 52.615958,66.8139621 51.4711061,66.1690326 C50.1862023,65.147578 49.3496521,63.6803631 49.1118461,62.0244117 C48.8693406,60.3143998 49.2932555,58.6167174 50.2115809,57.3714344 C51.6656746,55.65099 54.0860309,53.9741731 59.8319096,56.2750541 C65.5524097,58.6318923 70.6158891,62.4568939 74.355927,67.1772093 C78.1100639,72.7719734 76.7480849,75.8050392 76.1296015,76.9478923 Z" id="Shape"></path>
            <path d="M13.4063395,67.5010781 L13.7806671,67.2859403 C14.2494941,66.9534543 14.9761301,66.5464614 15.6642322,66.1841728 C16.4853675,68.3318278 16.7798752,70.1656232 16.4505038,71.1966092 C16.2982037,71.6296794 15.6045967,73.8863001 16.834006,75.8439631 C17.3780656,76.7073092 18.4689369,77.7811366 20.5873742,77.9813733 C20.6965531,77.9944119 20.8066495,78 20.9167458,78 C21.4250239,78 21.9342196,77.8826519 22.3929544,77.66472 L29.0372691,74.5549976 C29.6061005,74.2858423 30.087772,73.8760556 30.4299881,73.3796547 C31.6575623,71.6091899 31.564898,70.0696958 31.2703903,69.0917959 C30.5997199,66.8687029 28.4592634,65.939232 28.1023678,65.802326 C27.0839764,65.3739128 25.8692466,63.9201012 24.79122,61.9019018 C25.5646467,61.5750037 26.4151411,61.2462431 27.0417729,61.0786028 L27.448212,60.9295895 C32.230981,58.6878701 34.327399,52.9154654 32.1236371,48.0604244 L31.9667498,47.7670543 C29.6914251,44.1125019 25.7563978,42.5320292 20.0534068,43.1197006 C14.4871188,44.1301973 9.2355228,46.5889176 4.86653241,50.2257745 L4.8463482,50.2444012 C0.390198143,54.0274777 -1.01903517,58.1886754 0.726909548,62.7559345 C2.93709377,67.6072503 8.6281578,69.7390724 13.4063395,67.5010781 L13.4063395,67.5010781 Z M26.0041147,70.3984565 L21.2387777,72.6299314 C22.0837672,69.7064757 21.1433609,66.227014 19.9359706,63.3948291 C21.2653843,66.1664774 23.2562932,69.1392937 26.0041147,70.3984565 Z M5.32067993,60.7815077 C4.70414035,59.1609875 4.54450052,57.1064659 8.04005984,54.1355124 C11.7493895,51.048142 16.2055393,48.9638177 20.7415091,48.1330685 C25.631622,47.6338738 27.1261801,49.5030598 27.65556,50.3217019 C28.5858743,52.56249 27.6399631,55.1637045 25.5050113,56.2608151 C24.3847809,56.6026145 20.0286352,58.0182413 19.2552083,59.6015082 L18.7506001,60.6473957 L18.6460085,60.7004816 L17.5432099,60.4117684 C15.8587359,59.9610027 12.1044501,62.3489419 11.1658788,62.9729351 C8.9125735,63.9266206 6.29319771,62.9040164 5.32067993,60.7815077 L5.32067993,60.7815077 Z" id="Shape"></path>
            <path d="M102.611916,89.2906914 C97.9260575,85.91977 92.417641,83.7848223 86.6803716,83.1220268 L86.6578614,83.1192262 C80.7527039,82.489104 76.7355834,84.3523992 74.6674653,88.810865 C73.7239155,91.222133 73.7820668,93.8630461 74.8334774,96.2463088 C75.8867638,98.6277047 77.799187,100.457393 80.2255915,101.394642 L80.6457806,101.518799 C81.219789,101.633622 82.0254641,101.879136 82.7786156,102.131185 C81.8069281,104.210122 80.6711046,105.728017 79.7069207,106.197575 C79.2867316,106.388012 77.1614,107.449418 76.6136534,109.713191 C76.3707318,110.713918 76.3707318,112.259818 77.7382221,113.966283 C78.1312115,114.450777 78.6536341,114.828851 79.2379596,115.050094 L86.1785832,117.740483 C86.6119031,117.910383 87.0677333,118 87.5094945,118 C87.6905136,118 87.8743463,117.98413 88.0478619,117.954258 C90.2032068,117.620993 91.2518038,116.481172 91.7517162,115.58313 C92.8866021,113.547135 92.0424722,111.332838 91.888653,110.975302 C91.4759672,109.931633 91.6644895,108.035665 92.3660552,105.837238 C93.1539098,106.174237 93.9980397,106.57098 94.5645447,106.91358 L94.9575341,107.104017 C97.3773731,108.043133 100.03263,107.982455 102.428084,106.938785 C104.820723,105.890448 106.65905,103.986079 107.600724,101.57201 L107.70202,101.254615 C108.738423,97.0360623 107.078301,93.0527554 102.611916,89.2906914 Z M87.0705472,112.633224 L82.0695463,110.696182 C84.7904585,109.275372 86.6447304,106.169569 87.8330778,103.316749 C86.7722878,106.220912 86.0332052,109.746797 87.0705472,112.633224 L87.0705472,112.633224 Z M102.790122,99.8711461 C102.323036,100.953089 101.471403,101.805388 100.376848,102.286149 C99.280417,102.763174 98.0770629,102.810784 96.9665631,102.428043 C95.9395386,101.849263 91.8201847,99.6200308 90.0850287,100.183873 L88.9839083,100.547011 L88.2945355,99.4856047 C87.4222678,97.9621088 83.0477991,96.8652291 81.9185409,96.6019778 C80.8371167,96.1370877 79.9826696,95.2913233 79.5033914,94.2047123 C79.0006651,93.0630241 78.9697138,91.8037127 79.3551998,90.8011181 C80.0895929,89.2216114 81.4692761,87.673844 86.1044873,88.1686069 C90.9704272,88.7315163 95.643155,90.5444015 99.4661257,93.2861339 C103.303165,96.5254298 103.006781,98.9124266 102.790122,99.8711461 L102.790122,99.8711461 Z" id="Shape"></path>
        </g>
    </g>
</svg>