<?xml version="1.0" encoding="UTF-8"?>
<svg width="235px" height="152px" viewBox="0 0 235 152" version="1.1" xmlns="http://www.w3.org/2000/svg" xmlns:xlink="http://www.w3.org/1999/xlink">
    <title>pizza dough</title>
    <g id="pizza-dough" stroke="none" stroke-width="1" fill="none" fill-rule="evenodd">
        <path d="M120.663537,76.0012597 L137.284221,59.3472221 L142.58854,54.0331759 L155.138405,41.4581269 L160.88254,35.7015489 L159.446963,34.2621752 C136.478653,11.2477739 99.1052001,11.2441093 76.1368898,34.2621752 C65.0116287,45.4125103 58.8825397,60.2350343 58.8825397,76.0012597 C58.8825397,91.7674852 65.0116287,106.590009 76.1368898,117.739428 C87.6196734,129.246171 102.706943,135 117.791469,135 C132.875995,135 147.963265,129.246171 159.446049,117.739428 L160.88254,116.300054 L155.13749,110.544393 L120.663537,76.0012597 Z M134.00434,56.8761907 L114.919402,76.0012597 L149.361352,110.511409 C131.049979,127.342276 102.487492,126.875007 84.7540066,109.103187 C66.5395577,90.849438 66.5395577,61.1485005 84.7540066,42.8965841 C93.8630598,33.7720002 105.827722,29.2092504 117.792383,29.2092504 C129.12338,29.2092504 140.456205,33.3019821 149.361352,41.4911107 L145.426775,45.4335831 M117.791469,130.95766 C103.141273,130.95766 89.3688822,125.239563 79.0089572,114.861597 C68.6490321,104.482715 62.9451299,90.6808544 62.9451299,76.0012597 C62.9451299,61.3207491 68.650861,47.5216368 79.0089572,37.1409225 C89.3670535,26.7602079 103.141273,21.0448597 117.791469,21.0448597 C131.763195,21.0448597 144.936667,26.2434627 155.111888,35.728119 L152.229762,38.6169444 C132.336511,20.2001095 101.200045,20.6600494 81.881939,40.0187533 C62.0819553,59.8584699 62.0819553,92.1422172 81.881939,111.981934 C91.781931,121.901792 104.787157,126.863096 117.791469,126.863096 C130.162116,126.863096 142.530019,122.364481 152.229762,113.386491 L155.111888,116.2744 C144.936667,125.759057 131.763195,130.95766 117.791469,130.95766 Z" id="Shape" fill="#424141" fill-rule="nonzero"></path>
        <path d="M164.661067,45.5884401 L162.753689,44 L127.864947,73.6889449 L125.888868,75.3696408 L125.88254,75.3778615 L127.59014,76.9114966 L157.645352,104.127809 L157.778235,104.013631 L163.330422,109 L164.660163,107.857309 C173.064377,100.645845 177.88254,89.2965809 177.88254,76.7233316 C177.88254,64.1500822 173.063473,52.8008177 164.661067,45.5884401 Z M132.022307,75.4628097 L141.838523,67.1250966 L154.098171,56.7093491 L157.074946,54.1809979 C162.573799,59.3272158 165.832613,67.6731496 165.832613,76.7260719 C165.832613,85.3862228 162.84499,93.3914504 157.7701,98.5760318 L132.022307,75.4628097 Z M163.352118,103.587977 L160.746875,101.25053 C166.466296,95.3087225 169.848954,86.3581034 169.848954,76.7251583 C169.848954,66.7359788 166.209568,57.4903247 160.102344,51.5631315 L162.759113,49.3024128 C169.828162,55.7657846 173.864391,65.7001588 173.864391,76.7233316 C173.865295,87.4332007 170.055059,97.1191242 163.352118,103.587977 Z" id="Shape" fill="#424141" fill-rule="nonzero"></path>
        <path d="M91.0003602,49 C92.1040691,49 92.99982,48.1060498 92.99982,47.00054 C92.99982,44.7940223 94.7940223,42.99982 96.99964,42.99982 C98.1042494,42.99982 99,42.1058695 99,41.00036 C99,39.8939502 98.1042494,39 96.99964,39 C92.5884049,39 89,42.5884046 89,46.9996398 C89,48.1060498 89.8957509,49 91.0003602,49 L91.0003602,49 Z" id="Path" fill="#424141" fill-rule="nonzero"></path>
        <path d="M152.758789,88.5963197 C152.758789,89.7027294 153.65454,90.5966797 154.758249,90.5966797 C155.861958,90.5966797 156.758609,89.7027294 156.758609,88.5963197 C156.758609,86.390702 158.551911,84.5964997 160.758429,84.5964997 C161.862138,84.5964997 162.758789,83.7025492 162.758789,82.5970399 C162.758789,81.4906299 161.862138,80.5966797 160.758429,80.5966797 C156.346294,80.5966797 152.758789,84.1850843 152.758789,88.5963197 Z" id="Path" fill="#424141" fill-rule="nonzero" transform="translate(157.758789, 85.596680) rotate(179.000000) translate(-157.758789, -85.596680) "></path>
        <path d="M92.5567834,98.7751918 C91.5920896,98.1541909 90.2507887,98.3620647 89.5642047,99.2328633 C88.8776208,100.106282 89.1055164,101.319461 90.0711759,101.939588 C91.9995978,103.179843 92.4563549,105.607074 91.0880152,107.351292 C90.4014315,108.226458 90.6283616,109.43789 91.5959522,110.058017 C91.9715937,110.300828 92.405175,110.416992 92.835859,110.416992 C93.507958,110.416992 94.1704002,110.134004 94.5865995,109.600345 C97.3261756,106.107543 96.414593,101.253081 92.5567834,98.7751918 L92.5567834,98.7751918 Z" id="Path" fill="#424141" fill-rule="nonzero" transform="translate(92.667696, 104.416992) rotate(136.000000) translate(-92.667696, -104.416992) "></path>
    </g>
</svg>