<?xml version="1.0" encoding="UTF-8"?>
<svg width="235px" height="152px" viewBox="0 0 235 152" version="1.1" xmlns="http://www.w3.org/2000/svg" xmlns:xlink="http://www.w3.org/1999/xlink">
    <title>pizza</title>
    <g id="pizza" stroke="none" stroke-width="1" fill="none" fill-rule="evenodd">
        <g id="135413" transform="translate(61.000000, 27.000000)" fill="#424141" fill-rule="nonzero">
            <path d="M74,38 C74,39.1046771 73.1046771,40 72,40 C70.8953229,40 70,39.1046771 70,38 C70,36.8953231 70.8953229,36 72,36 C73.1046771,36 74,36.8953231 74,38 L74,38 Z" id="Path"></path>
            <path d="M84,33 C84,34.1046771 83.1044777,35 82.0004455,35 C80.8955223,35 80,34.1046771 80,33 C80,31.8953231 80.8955223,31 82.0004455,31 C83.1044777,31 84,31.8953231 84,33 L84,33 Z" id="Path"></path>
            <path d="M81,37 C81,38.1046771 80.1044777,39 78.9995545,39 C77.8955223,39 77,38.1046771 77,37 C77,35.8953231 77.8955223,35 78.9995545,35 C80.1044777,35 81,35.8953231 81,37 Z" id="Path"></path>
            <path d="M30,28.0004455 C30,29.1044774 29.1044775,30 27.9995544,30 C26.8955223,30 26,29.1044774 26,28.0004455 C26,26.8955223 26.8955223,26 27.9995544,26 C29.1044775,26 30,26.8955223 30,28.0004455 Z" id="Path"></path>
            <path d="M42,26.0004456 C42,27.1044777 41.1046771,28 40,28 C38.8953229,28 38,27.1044777 38,26.0004456 C38,24.8955225 38.8953229,24 40,24 C41.1046771,24 42,24.8955225 42,26.0004456 Z" id="Path"></path>
            <path d="M36,24 C36,25.1046769 35.1044775,26 33.9995544,26 C32.8955223,26 32,25.1046769 32,24 C32,22.8953229 32.8955223,22 33.9995544,22 C35.1044775,22 36,22.8953229 36,24 Z" id="Path"></path>
            <path d="M26,60.0004455 C26,61.1044777 25.1046771,62 24,62 C22.8953231,62 22,61.1044777 22,60.0004455 C22,58.8955223 22.8953231,58 24,58 C25.1046771,58 26,58.8955223 26,60.0004455 L26,60.0004455 Z" id="Path"></path>
            <path d="M33,55 C33,56.1046771 32.1044777,57 31.0004457,57 C29.8955226,57 29,56.1046771 29,55 C29,53.8953229 29.8955226,53 31.0004457,53 C32.1044777,53 33,53.8953229 33,55 Z" id="Path"></path>
            <path d="M36,58.9995545 C36,60.1044777 35.1044775,61 33.9995544,61 C32.8955223,61 32,60.1044777 32,58.9995545 C32,57.8955226 32.8955223,57 33.9995544,57 C35.1044775,57 36,57.8955226 36,58.9995545 L36,58.9995545 Z" id="Path"></path>
            <path d="M52.3161196,17.7673208 C52.6774613,17.6866824 53.0413721,17.7498628 53.3350691,17.9294287 C53.4866274,18.0208744 53.7537805,18.2295367 53.8325563,18.5969816 C54.3882693,21.2098315 57.102614,22.8774665 59.893166,22.3312869 C60.2562203,22.2531426 60.6175623,22.3138292 60.9112593,22.4933951 C61.0636738,22.5848406 61.3308269,22.7935028 61.4096029,23.160948 C61.6818935,24.4470053 62.476503,25.5418586 63.6444419,26.2459897 C64.4715893,26.7439523 65.415188,27 66.379337,27 C66.7406787,27 67.1063019,26.9642532 67.4676438,26.8910968 C68.5071436,26.6824345 69.1758827,25.6931594 68.9592489,24.6839327 C68.7434714,23.6763686 67.7288031,23.0320928 66.6875907,23.235767 C66.3219676,23.3105862 65.9649071,23.2507309 65.668641,23.073659 C65.517083,22.9822133 65.2499298,22.7735511 65.1728665,22.4061062 C64.8980068,21.1200486 64.1042538,20.0227015 62.9354584,19.3210644 C61.8000575,18.6343911 60.4411725,18.404946 59.1131129,18.6734633 C58.4015607,18.8206075 57.720834,18.4423555 57.5941075,17.8413085 C57.3192478,16.5560824 56.5254947,15.4587353 55.3566996,14.757098 C54.2212985,14.0720874 52.8589885,13.8401483 51.5326415,14.1094971 C50.4922853,14.3181592 49.8235461,15.3074343 50.0410363,16.3166612 C50.2576701,17.3250566 51.2672009,17.9726577 52.3161196,17.7673208 L52.3161196,17.7673208 Z" id="Path"></path>
            <path d="M60.0721854,46 C59.0306109,46.0228086 58.2042448,46.8912211 58.2252612,47.9353435 C58.2303052,48.1549809 58.1042065,48.2994348 58.0134158,48.3011242 C55.8134155,48.350965 54.0640078,50.2508285 54.1136066,52.5392813 C54.1186505,52.7589187 53.992552,52.9033726 53.901761,52.905062 C52.8114283,52.9295602 51.8051616,53.400091 51.063702,54.2271104 C50.3541873,55.0228735 49.9767322,56.0585484 50.0011112,57.1449087 C50.023809,58.1763597 50.8636255,59 51.8867056,59 L51.9295789,59 C52.9711533,58.975502 53.7975195,58.1087789 53.7731403,57.0621224 C53.7714591,56.9218923 53.8454369,56.7014101 53.9849861,56.6997207 C56.1849861,56.6507246 57.9360751,54.7483268 57.8873171,52.459874 C57.8814324,52.2402366 58.0083717,52.0974724 58.0966407,52.0957827 C60.2974815,52.0459419 62.0485706,50.144389 61.9989718,47.855936 C61.976274,46.8092793 61.1650398,46.0565989 60.0721854,46 L60.0721854,46 Z" id="Path"></path>
            <path d="M45.2661777,37.7088101 C44.9783326,38.3873748 44.2794013,38.7257806 43.7104645,38.4662778 C42.4907112,37.9095741 41.1299896,37.8990537 39.8815363,38.4443602 C38.6668476,38.9738864 37.7003303,39.9663091 37.1609376,41.2410291 C36.7397217,42.2352056 37.1735995,43.3977079 38.1325198,43.8325505 C38.3806909,43.9473981 38.6406799,44 38.8947599,44 C39.6215474,44 40.3171022,43.560774 40.6294265,42.8234702 C40.7779916,42.4771742 41.0320719,42.2097811 41.3460843,42.0712629 C41.5089996,42.001127 41.8348298,41.9081968 42.1834513,42.0660026 C44.6660083,43.2048342 47.6043899,41.9572919 48.7355107,39.2930045 C48.8832317,38.9467087 49.1373118,38.6793157 49.4521685,38.5407972 C49.6150838,38.4706613 49.9400699,38.3777313 50.2895355,38.5355368 C51.5092888,39.0922406 52.8700104,39.1018843 54.1184637,38.5565776 C55.3331524,38.0270518 56.2996697,37.0355055 56.8390624,35.7607855 C57.2602783,34.7666093 56.8264005,33.6041067 55.8674802,33.1683875 C54.90856,32.7282847 53.7926335,33.1806614 53.3705735,34.1783444 C53.2220084,34.5246405 52.9679281,34.7920335 52.6539157,34.9296752 C52.4926887,35.0006877 52.1668583,35.0909877 51.8165487,34.9358121 C50.5925746,34.3791084 49.2343856,34.3694646 47.9850881,34.9138947 C46.768711,35.4434207 45.8047261,36.434967 45.2661777,37.7088101 Z" id="Path"></path>
            <path d="M112.276902,31.7162216 C112.262986,31.6795454 112.234284,31.6559677 112.218628,31.6184181 C111.680254,29.4510226 110.990543,27.4163602 110.151235,25.520544 C110.124273,25.4288532 110.069479,25.3458948 110.027731,25.2559505 C105.557221,15.4039936 97.2015424,9.14369594 87.1185421,5.33547191 C87.0559202,5.30403484 87.0106933,5.25251352 86.9428529,5.22718923 C86.8958864,5.21147092 86.8489201,5.21933007 86.8019535,5.20797794 C82.4975658,3.60993859 77.8878961,2.45026842 73.1460246,1.63465691 C73.1338482,1.63029074 73.1277599,1.62068498 73.116453,1.61631881 C72.8624865,1.52637445 72.6006919,1.49319123 72.3467252,1.51065592 C62.6029272,-0.0803974638 52.353805,-0.245440828 43.0257471,0.242703523 C43.0005244,0.242703523 42.9805201,0.228731593 42.9552975,0.228731593 C42.9144192,0.228731593 42.8796293,0.250562677 42.8361419,0.252309057 C34.4691566,0.696791239 26.8571134,1.65386842 21.0785011,2.56553662 C16.0765745,3.35757044 12.3201286,7.4033175 11.8191531,12.436705 L11.8191531,12.4428177 C11.8095858,12.5449876 11.7800145,12.6366784 11.7721868,12.7362283 L8.8393932,50.3635082 C5.28385931,52.6383132 -2.21598633,58.8051735 0.631571989,68.9121183 C1.6370016,72.4758336 3.27908771,74.5707498 5.51434274,75.13312 C5.92312465,75.2370363 6.5884828,75.577602 6.49020122,76.2010994 C5.73699848,80.9995839 4.45672796,89.8534212 4.36105568,95.2404733 C4.31321943,97.8331394 5.16296414,100.009268 6.81635693,101.526095 C9.15946083,103.678646 12.4549397,104 14.1996563,104 C14.8128293,104 15.2372668,103.958957 15.3599014,103.947605 C16.0487426,103.902196 22.1422039,103.376503 24.1521939,99.1508672 C25.3768005,96.5791589 24.7323165,93.4433339 22.2544017,89.8377028 L54.263774,76.8088784 C54.2698621,76.8132446 54.27769,76.8132446 54.2837781,76.8167375 C54.6647282,77.0193305 55.0726405,77.1773879 55.493599,77.3066283 C55.5605696,77.3284594 55.6205824,77.3616428 55.6892925,77.3817275 C56.1772218,77.5170804 56.688634,77.6070248 57.2252693,77.6445744 C57.6705808,77.6716448 58.1080644,77.6716448 58.5377205,77.6524335 C58.633393,77.6480674 58.7290652,77.6349686 58.8264771,77.6288558 C59.1917717,77.6035318 59.5492386,77.561616 59.8980079,77.5013621 C59.9858525,77.4856436 60.0736973,77.4699253 60.1615419,77.4524603 C60.5738028,77.3721217 60.9738873,77.2682055 61.3591862,77.1407115 C61.3844089,77.1328523 61.4113711,77.1249932 61.4365938,77.117134 C62.8638521,76.6307361 64.0997653,75.8369559 65.0251783,74.7515115 C65.3765569,74.340213 65.6670529,73.8791393 65.9331962,73.3971077 C65.9410239,73.3848822 65.9471122,73.3717837 65.9523306,73.3578117 C66.2106462,72.8836393 66.425474,72.3719173 66.5985542,71.8287586 C66.6046425,71.8112937 66.6124701,71.7990682 66.6185584,71.7816033 L103.280218,56.8552161 C103.524617,56.7731312 109.325843,54.7498209 112.297776,48.6266227 C114.574778,43.9399137 114.566951,38.2533383 112.276902,31.7162216 L112.276902,31.7162216 Z M107.384563,35.724419 C106.70529,34.2311689 105.965133,32.7606233 105.169313,31.3145286 L107.480236,29.328768 C108.035136,30.871793 108.499582,32.4942835 108.843133,34.2198168 C109.186683,35.9418571 108.890099,37.6691368 108.109064,39.1274571 C108.134287,38.0551115 107.929026,36.919019 107.384563,35.724419 Z M105.852066,25.5711923 L103.122794,27.9158567 C101.664224,25.6986861 99.9951759,23.5758262 98.0486778,21.5926853 L100.426571,18.1267736 C102.566154,20.2906761 104.399585,22.7584683 105.852066,25.5711923 Z M86.1183309,13.2654152 L87.4246938,9.6475586 C91.1202574,11.1975696 94.5166272,13.1248227 97.4902988,15.4921914 L95.1454556,18.910948 C92.5918725,16.7942007 89.606894,14.896638 86.1183309,13.2654152 Z M72.6259148,8.98651173 L73.7705043,5.69175611 C77.2242776,6.33621126 80.5832483,7.17802003 83.771748,8.26171777 L82.5167001,11.7407283 C79.5708605,10.6351994 76.2788606,9.71392527 72.6259148,8.98651173 L72.6259148,8.98651173 Z M58.5759894,7.34393658 L58.5759894,4.02560327 C62.3533094,4.19064686 66.1428057,4.51549422 69.8601128,5.04730074 L68.7250904,8.3167323 C65.5983429,7.85216563 62.2280655,7.5203323 58.5759894,7.34393658 L58.5759894,7.34393658 Z M52.2833554,3.88850377 C53.0756968,3.88850377 53.8723869,3.89461654 54.6716862,3.90771528 L54.6716862,7.21469645 C51.6058211,7.15968192 48.3477412,7.21294985 44.9096235,7.36576789 L44.9096235,4.06664587 C47.3249164,3.95923683 49.7845666,3.88850377 52.2833554,3.88850377 Z M29.2915409,8.66341075 L29.2915409,5.38000726 C32.8775158,4.94076467 36.8253066,4.55129724 41.0053201,4.27797142 L41.0053201,7.57360023 C37.319324,7.81461602 33.4089325,8.18137917 29.2915409,8.66341075 Z M21.6873254,6.44100073 C22.8406124,6.25849246 24.0904417,6.07423758 25.3872375,5.8917293 L25.3872375,9.13758317 C22.4901035,9.52006486 19.4520703,9.97851874 16.3383689,10.4823814 C17.3220551,8.37174683 19.2798601,6.82086263 21.6873254,6.44100073 Z M20.6331896,97.4532777 C19.7608313,99.2975725 16.2540033,99.9507602 15.0206994,100.040704 C14.0857191,100.148114 11.0494253,100.100958 9.45082658,98.6330326 C8.62717444,97.874182 8.2366572,96.7887379 8.26535886,95.3103329 C8.35755214,90.1608036 9.609121,81.5113059 10.3484075,76.8132446 C10.7432737,74.3017902 9.11075489,71.997295 6.46758763,71.3301353 C5.72917079,71.1441341 4.95422438,69.8403782 4.39236642,67.8432657 C2.10579637,59.7325605 8.72632572,54.9139911 11.6782539,53.2190214 L12.5740953,52.7029332 L15.5451578,14.5787766 C25.8673389,12.8654686 34.9336024,11.8167007 42.8970242,11.3425283 C42.9178982,11.3425283 42.9361631,11.3547538 42.9570371,11.3547538 C42.9926967,11.3547538 43.0213984,11.3364157 43.057058,11.3346691 C53.5949369,10.715538 62.2124099,11.091907 69.3173894,12.2210135 C69.353919,12.2367318 69.3774022,12.2664222 69.4165409,12.279521 C69.6296293,12.3537468 69.8461968,12.3895498 70.0584158,12.3895498 C70.1210377,12.3895498 70.1793107,12.3677187 70.2419326,12.3598593 C75.0081571,13.1754709 79.0568388,14.3438734 82.5514901,15.7725034 C82.6993475,15.8816591 82.8463351,15.9978007 83.0298522,16.0650405 C83.1603146,16.1121959 83.2933862,16.1156889 83.4264577,16.1331538 C87.7264967,17.997533 91.1315641,20.2784507 93.899975,22.8248347 C94.0365258,23.0405264 94.2165638,23.2326405 94.4392196,23.3872051 C94.4835766,23.4186417 94.5322826,23.4291209 94.5792491,23.4561913 C98.9097292,27.6565028 101.626825,32.5100018 103.833378,37.3538952 C105.557221,41.1350486 100.583126,43.9573784 100.01518,44.2630145 L63.0108396,59.7107292 L62.7707889,60.6651868 C62.5116036,61.7043489 62.5037759,62.8255963 62.7455662,63.9075477 C63.2665457,66.2242682 63.3822223,68.1724792 63.1152095,69.7032787 L63.0699825,69.9250832 C62.7246922,71.5851231 61.8984306,72.5570454 60.8947404,73.1080634 C59.9093146,73.625898 58.8003848,73.735927 58.0350057,73.7376734 C57.8514886,73.7350538 57.6679715,73.7376734 57.489673,73.7237015 C57.1461221,73.700124 56.8364914,73.6337571 56.5486045,73.5333341 C56.5216422,73.5237283 56.4946801,73.5141225 56.4668482,73.5036436 C56.1841798,73.3962343 55.9241248,73.2547687 55.6919018,73.0687674 L55.5553512,72.9587383 C55.4440233,72.8574418 55.3326955,72.7570188 55.233544,72.633891 C54.0993913,71.2323318 53.8671685,68.5313832 54.1324419,66.618102 L54.6012364,63.2229231 L22.8432217,76.4814112 C19.2059313,77.9004353 17.0637397,79.8276884 16.296621,82.3731992 C15.4825359,85.0802608 16.3496758,88.2064798 18.9519648,91.9256329 C20.1235165,93.5970251 21.3611694,95.9102527 20.6331896,97.4532777 L20.6331896,97.4532777 Z M20.0374116,83.5110383 C20.4279288,82.2133954 21.8490986,81.0781761 24.3035303,80.1219721 L50.1794327,69.3199241 C50.2803234,70.7031451 50.5890843,72.3125366 51.3405475,73.7673639 L20.3444329,86.3840164 C19.9226045,85.2592761 19.8017095,84.2908468 20.0374116,83.5110383 L20.0374116,83.5110383 Z M108.815301,46.8504413 C106.586134,51.4996009 102.070397,53.1212179 101.926019,53.1762325 L67.1377985,67.33591 C67.0873532,66.0146893 66.9073151,64.5956652 66.5576759,63.0491472 C66.5167979,62.8683853 66.491575,62.6884968 66.4820079,62.5121011 L106.062545,45.9902942 C107.566341,45.3624308 108.838784,44.400114 109.89118,43.2535426 C109.693747,44.5337207 109.348457,45.7414192 108.815301,46.8504413 L108.815301,46.8504413 Z" id="Shape"></path>
            <path d="M28.0235593,67 C36.2824019,67 43,61.7543238 43,55.3051973 C43,51.385023 41.0427673,49.6387404 39.3988313,48.8620456 C37.5703984,48 35.5148255,48 33.8839435,48 C30.8110275,48 15,51.8757917 15,59.1374601 C15,67 21.035308,67 28.0235593,67 Z M33.8996082,51.8322626 L33.9231055,51.8322626 C35.1571456,51.8322626 36.6844656,51.8356766 37.7044198,52.3170566 C38.1204077,52.5142176 39.0933672,52.9716993 39.0933672,55.3077579 C39.0933672,59.5701901 34.0240566,63.1702978 28.0235593,63.1702978 C18.9066328,63.1702978 18.9066328,62.3176406 18.9066328,59.1391672 C18.9066328,55.7285386 30.8850002,51.8322626 33.8996082,51.8322626 L33.8996082,51.8322626 Z" id="Shape"></path>
            <path d="M33.0231548,35 C41.2817405,35 48,29.7540881 48,23.3055255 C48,19.3851751 46.0428283,17.6379603 44.3980732,16.8620844 C42.5775291,16.003414 40.4680652,16 38.9051129,16 C38.8972805,16 38.891189,16 38.8833567,16 C35.8105361,16 20,19.8759658 20,27.137107 C20,35 26.0359907,35 33.0231548,35 Z M38.8990211,19.8315813 L38.9225174,19.8315813 C40.1573893,19.8315813 41.6846621,19.835849 42.7045844,20.3163971 C43.1205594,20.513567 44.0926186,20.9719227 44.0926186,23.3072327 C44.0926186,27.5698562 39.0243358,31.1701259 33.0231548,31.1701259 C23.9065114,31.1701259 23.9065114,30.3174304 23.9065114,27.138814 C23.9065114,23.7288858 35.8853769,19.8315813 38.8990211,19.8315813 Z" id="Shape"></path>
            <path d="M64,37.1388143 C64,45.0000006 70.0342503,45.0000006 77.0231545,45.0000006 C85.2817405,45.0000006 92,39.7557951 92,33.3072331 C92,29.3851761 90.0402176,27.6379615 88.398073,26.8637926 C86.5757887,26.0034153 84.4663249,26.0000006 82.9051126,26.0000006 C82.8972805,26.0000006 82.8911888,26.0000006 82.8833567,26.0000006 C79.8087957,25.9982941 64,29.8759668 64,37.1388143 L64,37.1388143 Z M82.8946697,29.8298751 L82.9181663,29.8298751 C84.1530381,29.8298751 85.6820513,29.8341427 86.7037142,30.3146908 C87.1196892,30.5118607 88.0926184,30.9719234 88.0926184,33.3072331 C88.0926184,37.5681492 83.0234654,41.1684185 77.0231545,41.1684185 C67.9065114,41.1684185 67.9065114,40.3157231 67.9065114,37.1388143 C67.9065114,33.7271794 79.8845065,29.8298751 82.8946697,29.8298751 L82.8946697,29.8298751 Z" id="Shape"></path>
        </g>
    </g>
</svg>