<?xml version="1.0" encoding="UTF-8"?>
<svg width="235px" height="152px" viewBox="0 0 235 152" version="1.1" xmlns="http://www.w3.org/2000/svg" xmlns:xlink="http://www.w3.org/1999/xlink">
    <title>quesadillas</title>
    <g id="quesadillas" stroke="none" stroke-width="1" fill="none" fill-rule="evenodd">
        <g id="135359" transform="translate(117.500000, 84.011719) rotate(22.000000) translate(-117.500000, -84.011719) translate(45.000000, 8.011719)" fill="#424141" fill-rule="nonzero">
            <path d="M143.501289,39.9114373 C143.210356,39.6203583 142.905514,39.3478342 142.608786,39.0590748 C144.062292,37.7613963 145,35.8919976 145,33.7918228 C145,29.284159 141.333781,25.6161011 136.828376,25.6161011 C136.816785,25.6161011 136.808671,25.6207398 136.801716,25.6207398 C136.804034,25.2067353 136.739125,24.7927307 136.542079,24.3984406 C135.869803,23.050896 134.235478,22.5116463 132.88745,23.1796202 L128.72282,25.264719 C127.320314,24.0656133 125.895785,22.9256509 124.449234,21.841353 C124.885054,21.5746275 125.306965,21.2719519 125.682512,20.8962166 C127.126745,19.44894 127.921885,17.5273552 127.921885,15.4816856 C127.921885,13.4348558 127.126745,11.5132714 125.680193,10.0694739 C122.215656,6.60551914 116.577815,6.60551914 113.112119,10.0694739 C112.090956,11.0911491 111.328271,12.2705403 110.821746,13.5322687 C108.640328,12.4862404 106.431092,11.5596585 104.20331,10.7444056 L105.880521,4.20498799 C106.25375,2.7472743 105.376315,1.26172838 103.919331,0.885993087 C102.454234,0.512577004 100.977546,1.39277178 100.604318,2.84816626 L99.0117202,9.05591618 C98.1829667,8.82398082 97.3553725,8.60596158 96.524301,8.40765677 C95.3895463,3.59499813 91.0916195,0 85.9487121,0 C84.5102745,0 83.3616106,1.12604626 83.2630872,2.54201158 C81.806104,1.63746366 80.1033926,1.09009621 78.267385,1.09009621 C74.4110737,1.09009621 71.0983784,3.40365153 69.6008268,6.70873031 C68.6503683,6.3898194 67.5654548,6.581166 66.8085654,7.33843489 L65.801311,8.34735387 C63.2060957,8.98401637 60.6317443,9.7691175 58.0979613,10.7444056 L54.9220392,2.80409839 C54.3610369,1.4055283 52.7846668,0.721319128 51.3821609,1.28376231 C49.9842916,1.84156678 49.3062204,3.42800467 49.8649047,4.82541516 L53.1057362,12.9327158 C50.9730002,13.965988 48.8738778,15.1210261 46.8083695,16.4094271 C45.3003858,15.3529614 43.4748104,14.715139 41.497393,14.715139 C35.488641,14.715139 30.6030527,19.6031769 30.6030527,25.6149415 C30.6030527,26.6424153 31.1941916,27.5005759 32.0298996,27.9667661 C30.1394144,29.8338459 28.3451346,31.7577495 26.715446,33.7906629 L16.9836787,33.7906629 C15.4803317,33.7906629 14.259804,35.0083237 14.259804,36.5159036 C14.259804,38.0223238 15.4803317,39.2411442 16.9836787,39.2411442 L22.837112,39.2411442 C21.5621065,41.2195527 20.3693971,43.2745001 19.2856429,45.4303393 C18.1578426,44.9583508 16.9210877,44.691625 15.6217412,44.691625 C10.3652426,44.691625 6.08933844,48.969673 6.08933844,54.2288071 C6.08933844,58.52425 8.95925932,62.1215677 12.8677299,63.3125558 C11.680816,68.1576854 10.7384712,73.3681133 10.0488093,79.0493701 L7.30870709,77.6786322 C5.96067904,77.0083389 4.326354,77.5510676 3.65291949,78.8974523 C2.980644,80.2438373 3.52541882,81.881301 4.87112882,82.5539136 L9.45187491,84.8465946 C9.34639742,86.0399019 9.24787407,87.2610418 9.15746475,88.4926185 C5.89461037,87.8629139 2.48223271,89.413402 0.929044514,92.5259743 C-1.24425965,96.8747625 0.526838539,102.180284 4.87112882,104.358157 C5.26058496,104.551823 5.67670038,104.643438 6.08586108,104.643438 C7.0850017,104.643438 8.04589193,104.093751 8.52343935,103.137017 C9.1991922,101.792952 8.65094002,100.153169 7.30870709,99.4793968 C5.64656404,98.6479083 4.97197021,96.6207932 5.80188271,94.9612959 C6.33043034,93.9013511 7.62166307,93.4595143 8.6833947,93.9964448 C8.7842358,94.0451511 8.83059963,94.1170512 8.90130469,94.178514 C8.95925932,94.5136605 9.06821446,94.8186556 9.23396522,95.1050955 C9.23396522,95.2396183 9.22353313,95.3729809 9.22353313,95.5063438 C9.21194233,95.530697 9.22005577,95.5492518 9.20614692,95.5736052 C8.79582691,96.3946561 8.88275916,97.2992043 9.28264709,98.0506749 C9.4460795,103.363154 10.1322641,108.58054 11.3203374,113.652967 L5.22465322,115.68588 C3.79664735,116.160188 3.02584851,117.702558 3.50339622,119.13244 C3.88473862,120.274721 4.94647026,120.9972 6.08817942,120.9972 C6.37099876,120.9972 6.66309087,120.950813 6.94822826,120.855719 L12.7413886,118.922538 C13.5724601,121.612988 14.5588506,124.247774 15.6750598,126.825736 C14.8451473,127.291926 14.259804,128.147767 14.259804,129.169442 C14.259804,130.677022 15.4791724,131.894683 16.9836787,131.894683 C17.4565898,131.894683 17.8819779,132.05008 18.2714341,132.26578 C18.7176858,133.113503 19.1952333,133.946151 19.6739397,134.77764 C19.5928032,135.603329 18.9170503,136.255068 18.0720696,136.255068 C17.6524769,136.255068 17.3093845,135.911804 17.3093845,135.492 C17.3093845,133.984421 16.0888569,132.76676 14.5855099,132.76676 C13.0821628,132.76676 11.8616349,133.984421 11.8616349,135.492 C11.8616349,138.920005 14.6481009,141.704389 18.0720696,141.704389 C19.9138726,141.704389 21.5771749,140.979591 22.838271,139.824553 C23.3992733,140.644445 23.966071,141.462017 24.5572097,142.263353 L23.2277272,143.593503 C22.1625182,144.659246 22.1625182,146.381366 23.2277272,147.447109 C23.7585928,147.978241 24.4563686,148.244966 25.152985,148.244966 C25.8507608,148.244966 26.5473772,147.978241 27.0794019,147.447109 L27.9858148,146.539082 C29.3477523,148.135957 30.761849,149.700361 32.2628777,151.202142 C32.7937437,151.733274 33.4915194,152 34.1881358,152 C34.8859113,152 35.5825277,151.733274 36.1145527,151.202142 L141.156439,46.1087502 L142.780332,45.0708394 C143.414357,44.6637927 143.853654,44.0108949 143.989269,43.2721806 C144.003178,43.1933228 143.976519,43.1133049 143.984632,43.0356068 C144.493475,42.0162508 144.352065,40.7591611 143.501289,39.9114373 L143.501289,39.9114373 Z M134.164774,28.6358995 C134.316615,29.9973603 135.428188,31.0689016 136.828376,31.0689016 C138.329405,31.0689016 139.55225,32.2900413 139.55225,33.794142 C139.55225,34.4099305 139.198726,34.9271465 138.69452,35.2054689 C136.864308,33.0936972 134.9773,31.0909353 133.032337,29.2018218 L134.164774,28.6358995 Z M116.964953,13.9172814 C117.63491,13.2469883 118.516982,12.9118418 119.396736,12.9118418 C120.276489,12.9118418 121.158561,13.2469883 121.828518,13.9172814 C122.245793,14.3336054 122.474135,14.8879311 122.474135,15.475887 C122.474135,16.0673224 122.245793,16.6204881 121.828518,17.0379718 C121.35213,17.5122795 120.575536,17.5122795 120.102625,17.0379718 C119.189258,16.125306 117.811093,16.0429689 116.759793,16.6970269 C116.412064,16.4906043 116.063177,16.2888207 115.710812,16.0870368 C115.934517,15.2961373 116.340201,14.5435069 116.964953,13.9172814 L116.964953,13.9172814 Z M110.234085,19.226282 C110.288562,19.5370754 110.38129,19.8362719 110.462426,20.1412669 C107.784916,19.3434093 105.058723,18.6974694 102.294279,18.1872116 L102.852963,16.0162966 C105.317201,16.9173654 107.782597,17.980789 110.234085,19.226282 L110.234085,19.226282 Z M96.9589617,17.0565266 C96.9288253,17.1701751 96.9554846,17.2803442 96.9415754,17.3939926 C96.0931174,17.2965798 95.240023,17.2142427 94.3822922,17.1458216 C95.2098864,16.2435932 95.8497072,15.1836485 96.2693,14.0088959 C96.7294609,14.123704 97.1896218,14.2280748 97.65326,14.3533199 L96.9589617,17.0565266 Z M68.3177078,13.5357478 C68.6040045,13.4731251 68.8903009,13.4105027 69.1789159,13.3501995 C69.7862821,15.3703567 71.0207189,17.108712 72.6874986,18.3240533 C68.2933669,19.1798949 64.0093493,20.4219086 59.8586274,22.0025482 L68.3177078,13.5357478 Z M87.5830369,14.715139 C87.3465813,14.715139 87.1344671,14.6420793 86.9188751,14.5817764 C87.2248764,13.9172814 87.4694456,13.2226349 87.6131735,12.4897192 C88.6783822,12.5987289 89.7435912,12.7378901 90.8134366,12.903724 C90.1411611,13.9880219 88.9507697,14.715139 87.5830369,14.715139 L87.5830369,14.715139 Z M79.9573467,14.3394038 C79.4392308,14.5759778 78.8735921,14.715139 78.268544,14.715139 C76.6944923,14.715139 75.3406685,13.811751 74.6591203,12.5024757 C76.2992404,12.3262048 77.9579064,12.2171953 79.6327999,12.1731275 C79.6327999,12.185884 79.6304815,12.1974809 79.6304815,12.2079179 C79.6304815,12.9524303 79.7660957,13.6586734 79.9573467,14.3394038 Z M55.309177,18.4516179 C55.345109,18.544392 55.4100184,18.6116531 55.4540639,18.6963095 L53.1903501,20.9634777 C52.1251411,22.0292208 52.1251411,23.7513408 53.1903501,24.8170839 C53.212373,24.8391178 53.2413503,24.8437565 53.2645322,24.8657901 C52.2827781,25.3482157 51.3114561,25.8422382 50.3517249,26.3652525 C50.5916578,25.6079833 50.7585675,24.8147647 50.7585675,23.9786374 C50.7585675,22.8421542 50.5244301,21.7624953 50.1477241,20.7570554 C51.7519125,19.7782882 53.4221692,18.8714207 55.1492219,18.0434117 L55.309177,18.4516179 Z M36.0276204,36.4045746 C35.9731432,35.1184931 35.0284801,34.1072549 33.7952023,33.8869162 C35.0864351,32.4999427 36.4669178,31.163995 37.9099918,29.8593587 C38.9207232,30.8833534 40.2328198,31.6000335 41.715303,31.8377674 C39.7575905,33.2653294 37.8647873,34.7891449 36.0276204,36.4045746 Z M45.3084996,23.958923 C45.3084996,23.9670408 45.3108179,23.9728391 45.3108179,23.9809569 C45.3108179,25.3632917 44.1864949,26.4881781 42.8048529,26.4881781 C42.5683974,26.4881781 42.3528057,26.4174379 42.1569184,26.3188654 C43.1780819,25.5210078 44.2154723,24.730108 45.3084996,23.958923 Z M36.6361459,23.1610654 C37.4880813,21.4737355 39.2047019,20.3268152 41.1902327,20.2096879 C40.2258651,20.9101327 39.2997476,21.6268129 38.3875395,22.348132 C37.7036729,22.4107544 37.0800796,22.6867576 36.6361459,23.1610654 Z M32.9641308,39.2411442 C32.7323117,39.467281 32.4923788,39.6795019 32.264037,39.9091181 C29.2028651,42.9718245 26.4407404,46.2537097 23.9591166,49.7002692 C23.8177068,49.4439807 23.7029563,49.1691374 23.5395238,48.926765 C25.2178944,45.4384571 27.187198,42.244707 29.3987525,39.2388247 L32.9641308,39.2388247 L32.9641308,39.2411442 Z M11.5359291,54.229967 C11.5359291,51.9755553 13.3696186,50.1421063 15.6217412,50.1421063 C16.1097204,50.1421063 16.5721997,50.242998 17.0080197,50.400714 C16.0030839,52.8348757 15.1117391,55.4070388 14.3003722,58.080094 C12.6996611,57.5269283 11.5359291,56.020508 11.5359291,54.229967 Z M34.2252269,145.389842 C30.6876669,141.586102 27.6172223,137.455333 24.9999844,133.085671 C24.6673239,131.350794 23.7794567,129.818861 22.5345878,128.660344 C17.4600671,118.659291 14.7535787,107.548428 14.6817146,96.0189211 C14.7744422,95.3926954 14.7964651,94.7571928 14.7072148,94.1251687 C15.0688527,75.0983514 22.6273155,57.2590429 36.115712,43.7650434 C49.9437232,29.9289393 68.3292989,22.3098627 87.8832427,22.3098627 C104.168537,22.3098627 119.642464,27.5968291 132.344994,37.3555096 C133.091451,38.8955604 134.445275,40.0645146 136.099304,40.575932 C136.496874,41.0583576 136.890967,41.5465815 137.286218,42.0452426 L136.856194,42.4488102 C136.586125,42.7016199 136.38676,43.0019759 136.243032,43.3208871 L34.2252269,145.389842 Z" id="Shape"></path>
            <path d="M99.7444375,37.1133125 C96.7891875,34.2955625 92.1419375,34.2955625 89.1866875,37.1133125 C86.2709375,40.0293125 86.2711875,44.7568125 89.1869375,47.6725625 C92.1029375,50.5883125 96.8304375,50.5883125 99.7461875,47.6725625 C102.662188,44.7568125 102.662188,40.0293125 99.7464375,37.1133125 L99.7444375,37.1133125 L99.7444375,37.1133125 Z M96.7276875,44.6568125 C95.4776875,45.9058125 93.4519375,45.9055625 92.2026875,44.6558125 C90.9534375,43.4063125 90.9534375,41.3803125 92.2026875,40.1308125 C93.4519375,38.8813125 95.4776875,38.8808125 96.7276875,40.1298125 C97.3281875,40.7300625 97.6656875,41.5443125 97.6656875,42.3933125 C97.6656875,43.2423125 97.3284375,44.0565625 96.7276875,44.6568125 Z" id="Shape"></path>
            <path d="M87.7444375,68.1133125 C84.7891875,65.2955625 80.1419375,65.2955625 77.1866875,68.1133125 C74.2709375,71.0293125 74.2711875,75.7568125 77.1869375,78.6725625 C80.1029375,81.5883125 84.8304375,81.5883125 87.7461875,78.6725625 C90.6621875,75.7568125 90.6621875,71.0293125 87.7464375,68.1133125 L87.7444375,68.1133125 L87.7444375,68.1133125 Z M84.7276875,75.6568125 C83.4776875,76.9058125 81.4519375,76.9055625 80.2026875,75.6558125 C78.9534375,74.4063125 78.9534375,72.3803125 80.2026875,71.1308125 C81.4519375,69.8813125 83.4776875,69.8808125 84.7276875,71.1298125 C85.3281875,71.7300625 85.6656875,72.5443125 85.6656875,73.3933125 C85.6656875,74.2423125 85.3284375,75.0565625 84.7276875,75.6568125 Z" id="Shape-Copy"></path>
            <path d="M58.7444375,39.1133125 C55.7891875,36.2955625 51.1419375,36.2955625 48.1866875,39.1133125 C45.2709375,42.0293125 45.2711875,46.7568125 48.1869375,49.6725625 C51.1029375,52.5883125 55.8304375,52.5883125 58.7461875,49.6725625 C61.6621875,46.7568125 61.6621875,42.0293125 58.7464375,39.1133125 L58.7444375,39.1133125 L58.7444375,39.1133125 Z M55.7276875,46.6568125 C54.4776875,47.9058125 52.4519375,47.9055625 51.2026875,46.6558125 C49.9534375,45.4063125 49.9534375,43.3803125 51.2026875,42.1308125 C52.4519375,40.8813125 54.4776875,40.8808125 55.7276875,42.1298125 C56.3281875,42.7300625 56.6656875,43.5443125 56.6656875,44.3933125 C56.6656875,45.2423125 56.3284375,46.0565625 55.7276875,46.6568125 Z" id="Shape-Copy-4"></path>
            <path d="M54.7444375,105.113312 C51.7891875,102.295563 47.1419375,102.295563 44.1866875,105.113312 C41.2709375,108.029313 41.2711875,112.756812 44.1869375,115.672562 C47.1029375,118.588313 51.8304375,118.588313 54.7461875,115.672562 C57.6621875,112.756812 57.6621875,108.029313 54.7464375,105.113313 L54.7444375,105.113313 L54.7444375,105.113312 Z M51.7276875,112.656813 C50.4776875,113.905812 48.4519375,113.905563 47.2026875,112.655812 C45.9534375,111.406312 45.9534375,109.380313 47.2026875,108.130813 C48.4519375,106.881313 50.4776875,106.880813 51.7276875,108.129812 C52.3281875,108.730063 52.6656875,109.544313 52.6656875,110.393312 C52.6656875,111.242312 52.3284375,112.056562 51.7276875,112.656813 Z" id="Shape-Copy-3"></path>
            <path d="M45.7444375,66.1133125 C42.7891875,63.2955625 38.1419375,63.2955625 35.1866875,66.1133125 C32.2709375,69.0293125 32.2711875,73.7568125 35.1869375,76.6725625 C38.1029375,79.5883125 42.8304375,79.5883125 45.7461875,76.6725625 C48.6621875,73.7568125 48.6621875,69.0293125 45.7464375,66.1133125 L45.7444375,66.1133125 L45.7444375,66.1133125 Z M42.7276875,73.6568125 C41.4776875,74.9058125 39.4519375,74.9055625 38.2026875,73.6558125 C36.9534375,72.4063125 36.9534375,70.3803125 38.2026875,69.1308125 C39.4519375,67.8813125 41.4776875,67.8808125 42.7276875,69.1298125 C43.3281875,69.7300625 43.6656875,70.5443125 43.6656875,71.3933125 C43.6656875,72.2423125 43.3284375,73.0565625 42.7276875,73.6568125 Z" id="Shape-Copy-2"></path>
            <path d="M66,63.5 C66,64.8808511 64.8808509,66 63.5,66 C62.1191491,66 61,64.8808511 61,63.5 C61,62.1202127 62.1191491,61 63.5,61 C64.8808509,61 66,62.1202127 66,63.5 Z" id="Path"></path>
            <path d="M36,96.5 C36,97.8808511 34.8808511,99 33.5,99 C32.1191489,99 31,97.8808511 31,96.5 C31,95.1191489 32.1191489,94 33.5,94 C34.8808511,94 36,95.1191489 36,96.5 Z" id="Path"></path>
            <path d="M120,44.5 C120,45.8808511 118.880851,47 117.5,47 C116.119149,47 115,45.8808511 115,44.5 C115,43.1191489 116.119149,42 117.5,42 C118.880851,42 120,43.1191489 120,44.5 Z" id="Path"></path>
            <path d="M60,91.5 C60,92.8808511 58.8808513,94 57.5,94 C56.1202128,94 55,92.8808511 55,91.5 C55,90.1191489 56.1202128,89 57.5,89 C58.8808513,89 60,90.1191489 60,91.5 Z" id="Path"></path>
            <path d="M33,120.5 C33,121.880851 31.8808511,123 30.5,123 C29.1191489,123 28,121.880851 28,120.5 C28,119.119149 29.1191489,118 30.5,118 C31.8808511,118 33,119.119149 33,120.5 Z" id="Path"></path>
        </g>
    </g>
</svg>