<?xml version="1.0" encoding="UTF-8"?>
<svg width="140px" height="140px" viewBox="0 0 140 140" version="1.1" xmlns="http://www.w3.org/2000/svg" xmlns:xlink="http://www.w3.org/1999/xlink">
    <title>quinoa and black beans</title>
    <defs>
        <polygon id="path-1" points="0 0.738910744 12.2788142 0.738910744 12.2788142 13.98808 0 13.98808"></polygon>
        <polygon id="path-3" points="0.86638462 0.4579 13.175 0.4579 13.175 12.6769 0.86638462 12.6769"></polygon>
    </defs>
    <g id="quinoa-and-black-beans" stroke="none" stroke-width="1" fill="none" fill-rule="evenodd">
        <g id="Group-10-Copy" transform="translate(7.000000, 5.000000)">
            <path d="M43.4193,61.6477 C42.1143,62.8987 42.9403,64.8637 41.8943,66.2017 C41.3573,67.7507 41.0833,69.4317 39.6963,70.5517 C38.8283,72.1817 37.6193,73.3087 35.6293,72.9367 C33.3793,72.5147 30.8473,70.1807 30.7823,68.3767 C30.7183,66.5817 30.7993,64.7237 33.0723,64.1237 C33.5463,63.8727 33.6803,64.1727 33.7683,64.5497 C33.6553,65.2217 33.1253,65.6637 32.8323,66.2357 C32.2763,67.3197 31.9123,68.4237 33.3133,69.1447 C34.5313,69.7707 36.7483,69.0517 37.1343,67.9237 C37.4903,66.8807 37.2973,65.9667 36.1093,65.5847 C35.4963,65.3857 34.8133,65.3657 34.4713,64.6887 C34.9003,64.0877 34.9183,63.2437 35.5923,62.7837 C36.9723,62.3827 38.1263,62.7627 39.1403,63.7517 C39.5113,64.1147 39.8303,64.8137 40.5233,64.3767 C41.0523,64.0417 41.1513,63.4177 41.0393,62.8507 C40.7553,61.4187 41.0323,59.9247 40.5193,58.5257 C40.3693,58.0937 40.1833,57.6637 40.4353,57.2067 C40.9733,56.8057 41.7263,57.0237 42.2483,56.5977 C43.0023,55.9847 43.3223,55.1727 43.0863,54.2277 C42.8693,53.3597 42.1833,53.1307 41.3833,53.2667 C39.8193,53.5347 38.6533,52.3537 37.2183,52.1687 C36.8723,52.0377 36.6503,51.7957 36.5783,51.4287 C37.4853,50.4507 36.6803,48.7957 37.9473,47.9597 C38.3583,47.7467 38.5723,48.0017 38.7723,48.2997 C40.5633,50.7547 42.3723,50.8087 44.0753,48.4537 C46.2753,45.4107 46.2753,45.4107 44.6583,43.1227 C44.3803,42.6867 43.8033,42.4037 43.9313,41.7517 C46.0773,41.5087 47.4023,42.5957 47.8093,44.5607 C48.1033,45.9867 48.7873,46.6737 50.2223,46.8937 C50.4413,45.9647 50.6603,45.0427 50.8793,44.1217 C51.3063,44.0787 51.4853,44.3617 51.6313,44.6897 C51.6723,47.2357 53.3973,48.6107 55.2543,49.8927 C55.3183,50.1187 55.2933,50.3337 55.1803,50.5387 C54.8823,50.6737 54.5593,50.6867 54.1983,50.7407 C55.1133,50.7717 55.8943,50.2797 56.7633,50.2867 C57.2273,50.2257 57.6913,50.1527 58.1543,50.3037 C58.5903,50.5817 58.8433,50.9597 58.8073,51.4957 C58.7103,51.8647 58.4743,52.1037 58.1213,52.2347 C55.4593,51.8817 54.9423,54.1317 53.8883,55.7277 C52.5123,56.2537 53.8593,57.6547 53.0433,58.3597 C52.7713,59.3347 52.2123,60.0217 51.1723,60.2277 C50.7003,60.0617 50.2293,59.8947 49.7573,59.7277 C49.5163,59.5057 49.3233,59.2507 49.1933,58.9497 C48.6633,57.7167 47.7853,56.8847 46.3933,57.1277 C44.9483,57.3797 44.2543,58.4597 44.0393,59.8637 C43.9423,60.4967 43.9563,61.1687 43.4193,61.6477" id="Fill-1" fill="#424141"></path>
            <path d="M67.8548,82.3001 C68.2248,81.6021 69.0388,81.9521 69.5238,81.6111 C70.5788,80.8661 70.8668,81.0421 70.4548,82.2761 C71.6328,82.4141 70.9918,83.8131 71.7928,84.2111 C72.7238,84.0101 72.5838,84.9491 73.0408,85.4641 C72.7668,83.6291 72.8998,82.0731 74.6368,81.1601 C75.3118,81.5881 75.2138,82.3681 75.4608,82.9801 C75.5108,83.1031 75.5818,83.2271 75.6618,83.3201 C75.8038,82.8401 75.5538,82.3821 75.6428,81.9221 C75.6478,81.7021 75.6738,81.4861 75.7138,81.2701 C75.7558,81.0531 75.8238,80.8441 75.9038,80.6391 C76.4908,79.4701 77.0138,78.2671 77.7598,77.1841 C78.2578,76.2251 79.2348,75.6611 79.7718,74.7351 C79.8748,74.3021 79.8998,73.8201 80.4528,73.6781 C81.7928,73.7911 82.4178,74.5441 82.4158,75.8631 C82.3288,76.2351 82.0998,76.5041 81.7988,76.7211 C79.6098,77.8611 79.0008,79.8421 78.9848,82.1321 C79.7628,80.6501 79.4288,78.6551 81.0198,77.5411 C81.4438,77.2151 81.8228,76.7531 82.4138,76.7821 C83.4238,76.8331 82.3288,76.3071 82.5938,76.1611 C81.8088,74.3491 82.8058,72.7911 83.2878,71.1611 C83.5378,70.5811 83.9088,70.0621 84.1458,69.4721 C84.3248,69.1911 84.5358,68.9691 84.9138,69.0571 C85.0438,69.1681 85.0808,69.3061 85.0228,69.4671 C85.3648,70.8111 85.3718,72.1541 85.0178,73.4951 C84.9658,74.2201 84.9698,74.9191 85.2128,75.6391 C85.4938,76.4671 85.2658,77.5511 84.5498,77.7841 C82.1498,78.5651 81.9348,80.7781 81.0148,82.5611 C80.0008,84.5251 78.4558,85.5241 76.1638,86.0071 C74.3688,86.3861 72.4208,87.3091 71.3018,89.1231 C71.1228,89.2881 70.9108,89.3671 70.6678,89.3611 C70.4288,89.3021 70.2628,89.1561 70.1588,88.9371 C71.2008,86.0971 69.9098,84.0671 67.8548,82.3001" id="Fill-3" fill="#424141"></path>
            <path d="M96.9622,44.9944 C97.4002,45.9354 97.8382,46.1374 98.0872,44.9214 C98.5442,42.6784 100.0812,41.4794 102.0682,40.7324 C102.8062,40.4554 103.4012,40.5694 103.0672,41.6174 C102.0062,42.9154 100.7682,44.1024 100.9782,46.0394 C101.0382,46.6034 100.5062,47.0534 100.0282,47.3734 C99.1832,47.9374 98.9512,48.7364 99.0602,49.6874 C99.0532,49.9084 99.0062,50.1224 98.9252,50.3254 C98.8082,50.5004 98.6472,50.6274 98.4492,50.7024 C98.0012,50.8274 97.5032,50.6404 97.0792,50.9204 C96.8042,51.2014 96.6992,51.5724 96.5272,51.9134 C96.4162,52.1044 96.2772,52.2674 96.1132,52.4164 C94.7622,53.3024 93.2032,52.9354 91.7422,53.1554 C91.0012,52.9324 90.2372,52.8904 89.4692,52.8954 C88.6752,51.1674 86.6762,50.2194 86.3972,48.1564 C86.3412,47.0754 86.0262,45.9914 86.4162,44.9134 C86.4462,43.6404 87.5462,43.5074 88.3702,43.0794 C88.8572,42.7804 89.2662,42.8014 89.5442,43.3614 C89.5052,44.3864 88.7332,45.0984 88.4112,46.0074 C88.0282,47.0834 88.0342,48.0674 88.8952,48.9204 C90.1682,50.1814 93.9902,50.0814 95.2022,48.7634 C95.8822,48.0234 96.0912,47.2444 95.4462,46.3664 C95.0672,45.8504 94.5922,45.3814 94.5442,44.6834 C94.7002,43.7974 95.2742,43.9154 95.8872,44.1254 C96.3392,44.2984 96.4732,44.8644 96.9622,44.9944" id="Fill-5" fill="#424141"></path>
            <g id="Group-9" transform="translate(21.000000, 79.494900)">
                <mask id="mask-2" fill="white">
                    <use xlink:href="#path-1"></use>
                </mask>
                <g id="Clip-8"></g>
                <path d="M8.2162,0.7788 C8.3792,0.7198 8.5382,0.7258 8.6952,0.7998 C8.9872,1.0948 8.9892,1.4328 8.8402,1.7928 C7.9642,2.6158 6.8452,2.3418 5.8182,2.4228 C4.2282,2.5478 3.2932,3.4248 2.7962,4.8588 C2.1842,6.6218 2.6462,7.1888 4.5212,6.9208 C5.2692,6.8128 6.0492,6.6038 6.4422,7.4478 C6.8512,8.3268 6.3092,8.9858 5.7122,9.5948 C5.2452,10.0728 4.2202,10.4018 4.8412,11.2988 C5.3612,12.0498 6.2862,11.9418 7.0962,11.7378 C8.6662,11.3418 9.4762,9.9448 9.2042,8.1308 C9.0632,7.1868 8.4842,6.2778 8.9992,5.2828 C9.1732,5.0848 9.3902,4.9828 9.6532,4.9698 C10.6182,5.0498 11.4042,5.4438 11.9442,6.2718 C12.2902,7.0298 12.2832,7.8368 12.2772,8.6438 C12.2272,9.6098 12.2172,10.5948 11.1412,11.0808 C10.3292,11.8788 9.5362,12.6868 8.4952,13.2148 C5.5222,14.7198 3.1372,14.0588 1.9832,10.9608 C1.0852,8.5498 -1.2718,6.2268 0.8812,3.2998 C1.8752,1.9488 2.8682,0.6978 4.7572,0.7568 C5.9092,0.8388 7.0632,0.8118 8.2162,0.7788" id="Fill-7" fill="#2A2E33" mask="url(#mask-2)"></path>
            </g>
            <path d="M47.9027,95.2718 C47.7307,95.4978 47.5587,95.7228 47.3867,95.9498 C46.3287,93.1978 47.0817,91.7668 49.9877,91.0068 C50.8057,90.5428 51.8297,91.2258 52.6087,90.5388 C51.9047,89.2658 51.6227,88.0198 52.9047,86.9178 C53.4467,86.4518 53.2197,85.9268 53.0847,85.3988 C54.0287,84.8478 53.6567,85.7608 53.6597,85.9948 C53.6697,86.9938 54.2677,87.1788 55.0747,87.1518 C55.5087,88.0178 52.9567,88.7468 54.9647,89.6778 C55.7947,90.0938 56.8217,89.8228 57.5877,90.4398 C57.7197,90.6438 57.7547,90.8638 57.6917,91.0988 C57.0467,91.8748 56.0387,91.8088 55.0317,92.1388 C56.5337,92.5438 57.9457,92.2138 59.2477,92.6148 C60.4687,92.9908 62.0447,93.0808 61.9797,94.9878 C61.6427,95.5108 61.3067,96.0348 60.9697,96.5578 C59.8997,96.5028 59.3887,95.4808 58.4787,95.1228 C57.1617,94.6038 56.2037,94.6228 56.1637,96.3728 C56.1217,98.2148 55.1067,99.1828 53.3887,99.5468 C52.3897,98.3928 53.1787,100.3378 52.6397,99.9828 C52.4767,99.4828 52.3137,98.9828 51.9777,97.9508 C51.4247,99.5678 51.9507,100.8968 51.2657,101.9448 C51.0567,100.4648 51.6097,98.8948 50.7387,97.4938 C51.8027,96.7328 53.6207,96.5598 52.7637,94.4078 C52.4487,93.6158 52.7367,92.5338 51.5177,92.3758 C50.4027,92.2328 49.4237,92.5848 48.7377,93.5298 C48.3557,94.0558 48.3987,94.7938 47.9027,95.2718" id="Fill-10" fill="#424141"></path>
            <path d="M37.0287,77.8284 C38.7587,78.3824 40.3157,77.1974 42.0557,77.3354 C42.9177,77.4024 44.1297,78.0654 44.8737,76.8694 C44.9777,76.4894 45.2087,76.2564 45.6167,76.2274 C46.2847,76.3874 46.6187,76.8494 46.7677,77.4844 C46.8797,78.2524 46.6687,78.9124 46.1117,79.4574 C45.1127,80.0044 44.3407,80.8754 43.3357,81.4194 C42.9477,81.3924 42.7207,81.1624 42.5817,80.8224 C42.2847,78.9904 40.7597,79.4684 39.7137,79.5074 C38.7327,79.5434 38.3527,80.5664 38.2397,81.4954 C38.0977,82.6494 38.7207,83.3304 39.7767,83.6544 C41.1467,84.0754 42.3137,84.7424 42.9297,86.1214 C43.0977,86.6104 43.6497,86.9864 43.3857,87.6084 C42.7817,89.4914 42.1177,91.3594 41.6007,93.2664 C41.3987,94.0124 41.1817,94.6234 40.4667,94.9714 C39.7577,93.4584 39.8867,91.9964 40.6837,90.5504 C41.4077,89.2374 41.4927,87.9164 40.5967,86.6334 C39.5937,85.2524 38.1377,86.6554 37.0097,86.0534 C36.6817,85.9114 36.4507,85.6814 36.3427,85.3354 C36.3077,84.0574 35.8727,82.8074 36.0657,81.5114 C36.0727,81.4604 36.0407,81.3604 36.0147,81.3564 C35.9387,81.3454 35.8567,81.3694 35.7717,81.3794 C35.4257,81.2154 35.2997,80.9224 35.2717,80.5654 C35.6077,79.3404 35.4697,77.8704 36.9847,77.2574 C37.2477,77.4284 37.2617,77.6184 37.0287,77.8284" id="Fill-12" fill="#424141"></path>
            <g id="Group-16" transform="translate(112.000000, 46.494900)">
                <mask id="mask-4" fill="white">
                    <use xlink:href="#path-3"></use>
                </mask>
                <g id="Clip-15"></g>
                <path d="M6.7708,0.9429 C4.8338,1.5339 3.2338,5.1579 3.9848,7.2519 C4.7588,9.4059 7.3348,10.4829 9.5638,9.8869 C11.1738,9.4569 10.8598,7.2279 12.5708,7.0769 C12.4898,6.5889 12.0988,5.9719 13.0558,5.9199 C13.5028,9.8969 12.7648,11.3839 9.7028,12.6769 C9.5578,12.5529 9.4308,12.4139 9.3168,12.2639 C8.9758,11.8269 8.4818,11.8719 8.0048,11.8569 C7.2248,11.8519 6.4688,11.7409 5.7638,11.3879 C5.3648,11.1959 4.9988,10.9479 4.6368,10.6909 C4.2788,10.4459 3.9168,10.2019 3.6068,9.8929 C3.0998,9.4789 3.0078,8.5329 2.0568,8.7039 C1.8128,8.8449 1.5698,8.9859 1.2798,8.9979 C-0.2142,5.1189 2.5078,0.8789 6.7628,0.4579 C6.9198,0.5629 6.9728,0.6699 6.9228,0.7789 C6.8738,0.8879 6.8228,0.9429 6.7708,0.9429" id="Fill-14" fill="#2B2F34" mask="url(#mask-4)"></path>
            </g>
            <path d="M64.5023,42.2259 C66.6243,42.1049 67.0373,40.8059 66.9313,38.9549 C66.8903,38.2309 66.0113,37.4749 66.8943,36.7379 C68.1743,37.8779 67.9213,39.3459 67.6583,40.7519 C67.3363,42.4799 67.7943,44.0519 68.3683,45.6259 C68.5833,46.1629 68.6543,46.6999 68.3723,47.2379 C68.0343,47.5669 67.6803,47.8159 67.2113,47.4559 C66.8183,46.9149 66.7433,46.2629 66.5843,45.6469 C66.5663,45.5769 66.5653,45.4929 66.5353,45.4199 C66.4293,45.1679 66.4133,45.1969 66.3083,45.3939 C65.4903,46.9149 64.2673,48.0469 62.8213,48.9499 C62.7573,49.0249 62.6843,49.0959 62.6193,49.1689 C62.5563,49.2399 62.4853,49.3089 62.4213,49.3779 C62.2883,49.4999 62.1463,49.6209 62.0063,49.7359 C61.8453,49.9609 61.7623,50.1899 61.9913,50.4269 C60.4773,51.3359 62.7923,52.0309 62.1293,52.8919 C61.3343,52.7979 60.9163,53.3329 60.4973,53.8689 C60.2683,53.8959 60.0393,53.9229 59.8103,53.9519 C58.6873,53.7479 57.9843,53.1679 58.0133,51.9379 L58.5643,51.4459 C58.8363,50.5929 58.4133,49.6159 59.0233,48.8209 C59.3483,48.2099 59.7963,47.6939 60.2673,47.1959 C61.4553,45.5539 63.5513,44.8449 64.5493,43.0189 C64.4803,42.7579 64.3393,42.4979 64.5023,42.2259" id="Fill-17" fill="#424141"></path>
            <path d="M89.5052,104.8128 C88.6582,107.9248 86.0212,108.6318 83.3972,109.1928 C81.5482,109.5868 79.9512,108.8408 79.1162,107.1118 C78.0182,104.8338 77.5782,102.4898 79.2742,100.2168 C80.7752,98.2048 82.9512,97.7248 85.4842,98.9038 C85.6392,99.3338 85.3752,99.5468 85.0592,99.7338 C83.1622,99.9748 81.3692,100.3658 80.7612,102.5708 C80.3472,104.0728 80.3962,105.4728 81.7312,106.5128 C83.0352,107.5308 84.3952,107.4528 85.7712,106.5828 C86.6632,106.0178 87.3032,105.1508 88.2092,104.6068 C88.4302,104.5088 88.6602,104.4638 88.9012,104.4648 C89.1432,104.5108 89.3442,104.6268 89.5052,104.8128" id="Fill-19" fill="#424141"></path>
            <path d="M83.9906,85.9729 C85.1526,86.8129 86.1646,87.7459 86.9616,89.0019 C88.0826,90.7679 89.7696,89.6589 91.1276,89.3379 C92.9976,88.8959 93.7266,87.4009 93.8676,85.5149 C93.9296,84.6879 93.0326,83.9019 93.8106,83.0849 C95.2196,84.6829 95.7256,86.5119 94.6766,88.4199 C93.3846,90.7689 91.1786,92.1139 88.5926,92.3269 C86.1866,92.5249 83.2806,88.2599 83.9906,85.9729" id="Fill-21" fill="#424141"></path>
            <path d="M70.7894,99.8401 L71.5014,100.4441 C71.2224,101.7981 71.2314,102.9791 72.8824,103.5131 C74.2254,103.9461 74.4544,105.4641 75.2814,106.3911 C76.4184,105.9421 76.2654,104.8921 76.6234,104.1331 C76.8184,103.7101 76.9704,103.2321 77.5924,103.3171 C78.1704,107.1721 77.9084,107.5961 74.2824,109.2241 C72.5734,109.9901 71.7244,111.9731 69.8124,112.4871 C69.6544,112.3281 69.5534,112.1401 69.5114,111.9171 C69.4894,111.6961 69.4894,111.4751 69.4964,111.2531 C69.2354,109.7881 68.8224,108.2611 71.2064,108.2761 C71.8414,108.2781 72.1674,107.7461 72.2154,107.1161 C72.2684,106.4101 71.9234,105.8901 71.3914,105.4681 C70.6614,104.8911 69.7274,104.9121 68.8994,104.6221 C68.3934,104.3411 67.7764,104.1481 67.8844,103.3701 C69.3744,102.6231 69.4204,100.6871 70.7894,99.8401" id="Fill-23" fill="#424141"></path>
            <path d="M104.5492,69.4466 C102.2642,69.8146 100.3322,69.3026 99.2462,67.0786 C98.4002,65.3456 99.1132,62.0646 100.5092,60.7406 C101.7042,59.6046 105.5702,58.8886 106.9372,59.6126 C108.1482,60.2536 108.8942,61.2546 108.9322,62.6846 C108.7532,62.8456 108.5452,62.9396 108.3042,62.9566 C108.0702,62.9256 107.8552,62.8476 107.6562,62.7206 C106.8592,61.9536 106.0762,61.2936 105.0502,62.4596 C104.6562,62.9076 104.0962,63.0626 103.5312,62.6866 C102.9552,62.3036 102.4282,61.5856 101.6912,62.4096 C100.9422,63.2466 100.6572,64.2246 101.0402,65.3056 C101.4582,66.4866 102.3962,67.2686 103.3042,68.0586 C103.7202,68.5196 104.6192,68.5516 104.5492,69.4466" id="Fill-25" fill="#424141"></path>
            <path d="M97.3177,62.0491 C97.2487,62.4881 97.1717,62.9251 96.7227,63.1601 C96.3457,62.8131 96.2297,62.3551 96.1697,61.8701 C96.0337,60.7821 96.1917,59.4931 94.7997,59.0881 C93.4037,58.6821 92.1047,58.9091 91.1207,60.1221 C90.8677,60.4341 90.5747,60.7051 90.1797,60.8421 C89.7427,60.8571 89.5517,60.5531 89.3827,60.2241 C90.0017,58.7831 90.6967,57.4781 89.1817,55.9711 C88.4527,55.2451 88.4507,53.8421 89.4687,52.8961 C90.0617,52.1481 90.6617,51.5311 91.3577,52.7971 C91.3657,53.4341 90.5417,53.8581 90.9087,54.5811 C91.0497,54.8641 91.1707,55.1541 91.2797,55.4491 C92.8147,56.8411 94.6307,56.2691 96.2437,55.9061 C98.1097,55.4871 99.9957,55.1011 101.8457,54.5831 C102.0877,54.6031 102.2967,54.6941 102.4667,54.8651 C102.3027,56.7131 100.6557,56.5401 99.5857,56.6571 C97.3917,56.8981 96.7327,57.7421 97.6877,59.7521 C97.1947,60.4581 97.7107,61.3271 97.3177,62.0491" id="Fill-27" fill="#424141"></path>
            <path d="M40.4652,57.3499 C40.6292,57.6199 40.7932,57.8899 40.9582,58.1599 C40.3332,59.1049 39.3542,59.6009 38.3232,59.5349 C36.2612,59.4019 35.5442,60.3069 35.7782,62.2329 C35.8182,62.5529 35.7542,62.8679 35.5972,63.1569 L34.5922,64.5539 C34.2872,64.8869 33.9582,64.8839 33.6112,64.6269 C33.4312,64.4589 33.2512,64.2909 33.0722,64.1229 C33.9002,63.6939 35.2362,63.5259 34.1152,62.0949 C33.6282,61.9249 33.3102,61.6209 33.2972,61.0719 C33.3272,60.3299 33.6082,59.6739 33.9552,59.0279 C34.4242,58.1559 35.8662,57.7029 34.8402,56.2019 C33.8672,54.7789 32.7742,54.2889 31.1662,54.7789 C30.8602,54.8709 30.5272,54.8009 30.2122,54.7129 C29.8722,54.5549 29.6112,54.3489 29.7162,53.9159 C30.7032,53.1749 31.9512,52.7519 33.0272,53.0029 C34.7672,53.4109 35.6692,52.5629 36.5782,51.4289 C36.7232,51.5539 36.8672,51.6789 37.0122,51.8039 C37.2772,52.0549 37.2462,52.3609 37.1942,52.6839 C36.7202,55.5679 36.9332,55.9359 39.6382,56.8989 C39.9412,57.0059 40.2422,57.1009 40.4652,57.3499" id="Fill-29" fill="#424141"></path>
            <path d="M60.5121,47.7796 C60.1741,48.2126 59.8361,48.6436 59.4981,49.0766 C58.7101,49.2196 58.7031,50.2366 57.9721,50.4446 C57.6781,50.6056 57.3831,50.7656 57.0891,50.9256 C56.5431,50.3656 55.6821,50.9996 55.1441,50.4126 C55.1441,50.2636 55.1451,50.1156 55.1441,49.9676 C56.2151,49.1546 57.2941,48.3526 58.3551,47.5256 C59.7221,46.4596 59.6371,45.1196 58.7641,43.8826 C58.1541,43.0166 57.2021,42.4596 56.6721,44.0506 C56.4881,44.6026 56.4981,45.2636 55.6691,45.0286 C54.8871,44.8056 55.0631,44.1646 55.2441,43.6296 C55.4371,43.0606 55.4371,42.5226 55.2431,41.9686 L55.1551,41.7576 L55.3541,41.8716 C58.3971,42.7286 57.7711,40.0006 58.5281,38.6236 C58.8371,38.6686 58.8711,38.9376 58.9671,39.1576 C58.8001,40.4476 58.8251,41.6526 60.0331,42.5356 C60.6831,43.0096 60.5841,43.7866 60.5781,44.4936 C60.8901,44.8556 61.3291,45.1496 61.2481,45.7266 C61.1501,46.4636 60.7341,47.0866 60.5121,47.7796" id="Fill-31" fill="#424141"></path>
            <path d="M88.43,35.2649 C89.565,36.8739 89.205,38.4619 88.164,39.8859 C87.483,40.8189 87.045,41.9719 85.993,42.6169 C85.516,42.9619 85.136,42.8609 84.843,42.3649 C84.821,41.5609 84.225,41.1119 83.785,40.5359 C82.978,39.4759 83.534,38.1019 84.714,38.4029 C87.41,39.0879 87.322,37.3139 87.583,35.6909 C87.776,35.3689 87.996,35.1029 88.43,35.2649" id="Fill-33" fill="#424141"></path>
            <path d="M68.2669,47.22 C68.2089,46.683 67.9499,46.133 68.3689,45.626 C68.6459,45.146 68.8109,44.512 69.2209,44.216 C70.2059,43.507 70.2139,43.018 69.5519,41.928 C68.3479,39.946 68.2609,37.84 70.2609,36.123 C70.4549,36.258 70.5869,36.44 70.6669,36.661 C70.4269,38.793 70.1859,40.926 72.2999,42.393 C72.4259,42.602 72.4779,42.828 72.4609,43.073 C72.3579,43.429 72.1549,43.722 71.8969,43.981 C69.8279,44.868 70.3009,47.205 69.2319,48.664 C68.0559,48.752 67.9229,48.145 68.2669,47.22" id="Fill-35" fill="#424141"></path>
            <path d="M30.596,79.055 C30.864,76.983 32.13,75.572 33.808,74.558 C34.936,73.877 36.204,73.561 36.965,75.198 C36.914,75.412 36.79,75.563 36.582,75.642 C35.902,75.768 35.158,75.637 34.57,76.139 C34.418,76.282 34.266,76.418 34.122,76.566 C33.427,77.232 33.871,78.105 33.689,78.843 C33.371,80.124 33.189,81.596 31.517,81.978 C30.674,81.627 30.633,80.952 30.833,80.207 C30.95,79.77 31.292,79.314 30.596,79.055" id="Fill-37" fill="#424141"></path>
            <path d="M98.6761,50.0462 C100.3931,50.8742 101.7181,50.4902 102.6911,48.8162 C102.9411,48.3872 103.1131,47.6972 103.8971,47.9312 C104.1871,47.6942 104.5151,47.6332 104.8751,47.7162 C105.4531,47.9622 105.7891,48.4112 105.9481,49.0082 C105.8101,50.0682 104.9181,50.2342 104.1441,50.5942 C103.4051,50.9372 102.3681,50.8622 102.0821,51.9202 C102.0151,52.2772 101.8061,52.5002 101.4511,52.5852 C100.8751,52.6042 100.3621,52.3762 99.8371,52.1832 C99.3111,51.9502 98.7101,51.8182 98.4511,51.2062 C98.3601,50.8242 98.4991,50.5052 98.7231,50.2092 L98.6761,50.0462 Z" id="Fill-39" fill="#424141"></path>
            <path d="M88.9066,104.7718 L88.6766,104.7708 L88.4456,104.7728 C87.8566,104.3368 87.9156,103.6348 87.7306,103.0348 C87.5006,102.2778 87.0396,101.9678 86.2726,102.2998 C85.3136,102.7148 84.2196,103.9738 83.3816,102.5058 C82.6356,101.1978 83.9856,100.3608 84.7866,99.4958 C85.0196,99.2978 85.2526,99.1008 85.4846,98.9038 C87.5186,99.4778 89.4586,100.1468 89.3946,102.8168 C88.8326,103.3688 89.6256,104.2588 88.9066,104.7718" id="Fill-41" fill="#424141"></path>
            <path d="M71.7806,43.5237 C71.9726,43.3557 72.1656,43.1877 72.3566,43.0197 C73.0056,42.4257 73.8846,42.5027 74.6406,42.2227 C77.3156,42.0637 77.9516,40.1187 78.3606,37.9727 C78.4386,37.8927 78.5176,37.8127 78.5976,37.7337 C79.8796,38.5367 80.0836,39.9877 78.6496,41.8267 C77.6536,43.1037 77.5856,44.2127 78.0636,45.5657 C77.9056,45.9277 77.7486,46.2917 77.5906,46.6537 C76.1096,44.7627 73.8046,44.4047 71.7806,43.5237" id="Fill-43" fill="#424141"></path>
            <path d="M95.7679,44.5667 C95.4019,44.4747 94.9909,44.0707 94.7309,44.7157 C93.4839,45.9297 92.2949,46.8557 91.2869,44.4457 C90.9739,43.7017 89.8499,44.2487 89.4029,43.5467 C89.1599,43.1697 88.7759,43.1007 88.3709,43.0797 C88.6909,42.9157 89.0109,42.7527 89.3309,42.5887 C90.1399,41.3747 89.2249,39.9157 89.8839,38.6797 L89.8809,38.6847 C90.5499,38.5307 90.6809,39.0377 90.8639,39.4797 C91.3129,41.3667 92.8859,42.5587 95.0549,42.6317 C95.5169,42.6477 95.9969,42.2967 96.4399,42.7097 C96.8429,43.5567 96.5049,44.1337 95.7679,44.5667" id="Fill-45" fill="#424141"></path>
            <path d="M69.8285,111.6517 C69.8085,111.8417 69.7895,112.0317 69.7695,112.2217 C68.8595,112.7267 67.8055,112.1307 66.8905,112.6007 C64.4235,112.2557 63.3935,110.5337 62.9125,108.3547 C62.5955,106.9137 63.0625,105.8117 64.5625,105.3137 C65.0345,105.2857 65.1375,105.5977 65.1755,105.9717 C64.2945,109.2727 64.9635,110.3567 68.3145,111.0257 C68.8645,111.1357 69.4535,111.1287 69.8285,111.6517" id="Fill-47" fill="#424141"></path>
            <path d="M79.6078,68.1106 C80.8568,67.5066 82.1928,67.5016 83.5348,67.5386 C84.1288,67.9216 84.8078,68.2286 84.9138,69.0566 C84.7488,69.2696 84.5838,69.4836 84.4188,69.6976 C83.4088,69.6136 82.3658,68.9856 81.4148,69.8866 C80.2198,70.0486 79.0108,69.9206 77.8178,70.1196 C76.9828,69.9266 75.7388,70.1716 76.1878,68.6036 C76.4238,68.5696 76.6618,68.5346 76.8978,68.5006 C77.7648,68.1176 78.7498,68.5486 79.6078,68.1106" id="Fill-49" fill="#424141"></path>
            <path d="M88.43,35.2649 C88.253,35.4569 88.076,35.6499 87.898,35.8429 C87.372,35.9889 86.962,35.7069 86.555,35.4599 C84.909,34.4609 83.662,35.0489 82.589,36.4189 C82.201,36.9149 82.005,37.5839 81.34,37.83991 C80.921,37.8419 80.749,37.5449 80.597,37.2269 C80.97,35.2849 81.966,33.7519 83.95,33.3309 C85.776,32.9439 87.411,33.5199 88.43,35.2649" id="Fill-51" fill="#424141"></path>
            <path d="M36.5023,90.5823 C36.3653,92.4653 36.5073,94.2883 37.6323,95.9023 C37.4253,96.3923 36.8783,96.1713 36.5563,96.4203 C34.9343,95.9843 33.5933,95.2053 33.0023,93.5103 C32.9053,93.2883 32.9363,93.0813 33.0753,92.8873 C33.2733,92.7753 33.4863,92.7143 33.7133,92.7083 C33.9323,92.7333 34.1373,92.8083 34.3273,92.9193 C34.6773,92.8523 34.8693,94.2043 35.3393,93.0193 C35.6363,92.1573 35.0893,90.8983 36.5023,90.5823" id="Fill-53" fill="#424141"></path>
            <path d="M71.6878,34.7288 C74.0178,33.2748 77.9748,34.4398 78.9838,36.9158 C79.0608,37.1038 78.7358,37.4578 78.5978,37.7338 L78.6588,37.7058 C77.6618,37.9888 77.2848,37.0578 76.6828,36.6328 C75.3648,35.7038 73.9188,35.4228 72.3608,35.4658 C72.0128,35.3328 71.7758,35.0988 71.6878,34.7288" id="Fill-55" fill="#424141"></path>
            <path d="M29.7162,53.9163 C29.9132,54.0833 30.1122,54.2503 30.3092,54.4183 C29.4362,56.2233 28.4482,58.0203 29.8712,60.0073 C29.8142,60.3903 29.5802,60.6043 29.2172,60.6953 C26.5132,57.9493 26.6992,55.4093 29.7162,53.9163" id="Fill-57" fill="#424141"></path>
            <path d="M38.4974,48.4583 C38.3134,48.2923 38.1314,48.1263 37.9474,47.9603 C38.7684,46.9113 38.8294,45.6383 39.1074,44.4043 C39.2944,43.5793 40.0184,42.9293 40.8754,42.5703 C41.3544,42.3073 41.5034,42.6113 41.6054,42.9953 C41.2454,44.1413 40.7804,45.2263 40.7044,46.4893 C40.6374,47.6233 39.9984,48.6633 38.4974,48.4583" id="Fill-59" fill="#424141"></path>
            <path d="M43.0501,72.3792 C42.8441,72.5552 42.6391,72.7312 42.4331,72.9072315 C40.8271,72.9142 40.2511,71.7532 39.7321,70.5272 C40.2481,69.5062 40.8721,68.5812 41.9461,68.0592 C42.2941,68.0742 42.6441,68.0892 42.9921,68.1052 C43.8071,69.3862 41.7061,69.9572 42.2551,71.1672 C42.5561,71.5492 43.0561,71.8012 43.0501,72.3792" id="Fill-61" fill="#424141"></path>
            <path d="M91.4867,82.3343 C90.5257,82.8103 89.7567,83.4413 89.6927,84.7923 C88.5937,82.3563 86.9157,82.3553 84.9757,83.2633 C84.8897,82.5873 85.0567,82.1253 85.8677,82.2053 C86.7307,81.9413 87.5917,81.8723 88.4457,82.2463 C89.3467,82.5633 89.9987,81.5843 90.8767,81.7803 C91.0967,81.9453 91.4197,81.9993 91.4867,82.3343" id="Fill-63" fill="#424141"></path>
            <path d="M79.1644,18.8733 C78.2304,19.8723 77.3134,20.8463 76.0794,19.1963 C75.7284,18.7283 75.1664,19.0593 74.7004,19.0303 C74.4484,18.9233 74.1374,18.8903 74.0794,18.5373 C75.8774,17.0843 77.4494,19.0593 79.1644,18.8733" id="Fill-65" fill="#424141"></path>
            <path d="M125.055,52.4143 C124.894,52.8003 124.733,53.1853 124.571,53.5713 C124.169,52.6193 123.887,51.6643 122.57,51.4523 C120.927,51.1883 122.644,49.5413 121.683,48.9103 C122.99,49.9023 124.403,50.7923 125.055,52.4143" id="Fill-67" fill="#424141"></path>
            <path d="M77.5921,103.3167 L77.0501,104.4947 C76.1091,104.5117 75.3151,104.0937 74.5501,103.6187 C73.9851,103.2667 73.8301,102.7137 74.1021,102.1337 C74.3591,101.5847 74.5801,100.8127 75.4881,101.3517 C75.4881,101.3517 75.4651,101.3127 75.4641,101.3117 C76.1731,101.9797 76.8821,102.6487 77.5921,103.3167" id="Fill-69" fill="#424141"></path>
            <path d="M90.4271,39.7698 C90.3731,39.3438 90.3221,38.9168 89.8811,38.6848 C91.3421,36.4628 92.0711,36.2988 94.3081,37.6928 C94.5061,38.1208 94.2361,38.2998 93.9101,38.4518 C92.4471,38.0888 91.6361,39.4578 90.4271,39.7698" id="Fill-71" fill="#424141"></path>
            <path d="M85.0033,42.1673 C85.2263,42.5543 85.6123,42.5773 85.9933,42.6163 C83.8903,43.6883 82.2343,43.2973 81.1233,41.1253 C81.2463,40.7903 81.4263,40.5203 81.8223,40.4823 C82.9393,40.9363 84.0523,41.3973 85.0033,42.1673" id="Fill-73" fill="#424141"></path>
            <path d="M95.7679,44.5667 C96.1289,43.8907 96.3799,43.1967 96.1479,42.4167 C95.7079,41.8887 95.7099,41.2957 95.8839,40.6737 C96.0509,40.3257 96.2659,40.0517 96.7169,40.1707 C97.6069,41.7377 97.0159,43.3797 96.9619,44.9947 C96.5639,44.8517 96.1649,44.7097 95.7679,44.5667" id="Fill-75" fill="#424141"></path>
            <path d="M104.5492,69.4466 C104.0642,69.1756 103.5782,68.9056 103.0932,68.6346 C104.1382,67.6996 105.4982,67.4316 106.7382,66.9076 C107.1432,66.9386 107.3602,67.1766 107.4492,67.5536 C107.1132,69.1526 105.8742,69.3646 104.5492,69.4466" id="Fill-77" fill="#424141"></path>
            <path d="M107.4496,67.554 C107.2936,67.519 107.1576,67.446 107.0426,67.333 C106.6886,65.621 107.1816,64.098 108.0796,62.664 C108.2326,62.667 108.3866,62.672 108.5406,62.679 C109.0116,63.434 108.4176,64.37 108.9566,65.114 C108.9226,66.216 108.3736,67.001 107.4496,67.554" id="Fill-79" fill="#424141"></path>
            <path d="M72.2347,21.0569 L72.1587,24.3819 L72.0487,24.4899 L71.8927,24.4769 C70.7187,23.0539 71.1967,21.5979 71.8047,20.1399 C72.1687,20.3419 71.9987,20.7939 72.2347,21.0569" id="Fill-81" fill="#424141"></path>
            <path d="M64.9408,105.7737 L64.5628,105.3137 C65.2688,103.9807 66.4398,103.4427 67.8838,103.3707 C68.2048,103.6757 68.5258,103.9817 68.8468,104.2887 C67.6288,105.0047 66.4278,105.7637 64.9408,105.7737" id="Fill-83" fill="#424141"></path>
            <path d="M45.3431,76.4417 C45.1871,76.5847 45.0301,76.7267 44.8731,76.8697 C43.6431,75.8817 43.6121,74.3787 43.2241,73.0297 C43.5881,73.1667 43.9511,73.3037 44.3161,73.4407 C45.1501,74.2727 45.7541,75.1827 45.3431,76.4417" id="Fill-85" fill="#424141"></path>
            <path d="M107.0345,47.4641 C107.7055,46.1641 107.2015,44.5891 108.0085,43.3211 C108.7515,44.9531 108.6795,46.3931 107.0345,47.4641" id="Fill-87" fill="#424141"></path>
            <path d="M29.2162,80.2737 C28.0592,80.9907 26.9042,81.0697 25.7572,80.2517 C26.9132,79.7397 28.0682,79.5957 29.2162,80.2737" id="Fill-89" fill="#424141"></path>
            <path d="M96.7171,40.1702 C96.5351,40.3762 96.3531,40.5822 96.1711,40.7882 C94.7561,40.5132 93.8681,39.7332 93.7291,38.2362 C93.9211,38.0552 94.1141,37.8732 94.3081,37.6922 C95.2871,38.3472 96.2931,38.9762 96.7171,40.1702" id="Fill-91" fill="#424141"></path>
            <path d="M81.6331,40.554 L81.1231,41.125 C80.0881,39.942 80.0751,38.62 80.5971,37.227 C80.7881,37.435 80.9811,37.644 81.1721,37.852 C81.7601,38.679 82.1221,39.543 81.6331,40.554" id="Fill-93" fill="#424141"></path>
            <path d="M59.0628,104.7571 C57.9358,104.2421 56.5528,105.9101 55.5488,104.3441 C55.7228,104.2001 55.8958,104.0571 56.0698,103.9131 L58.1118,103.8581 C58.4288,104.1571 58.7468,104.4571 59.0628,104.7571" id="Fill-95" fill="#424141"></path>
            <path d="M115.9251,56.3216 C116.3211,56.2736 116.6271,56.4086 116.8231,56.7636 C116.7571,57.4206 117.3051,57.4316 117.7051,57.6036 C117.8851,57.7236 117.9791,57.8886 117.9911,58.1036 C117.9011,58.4486 117.6341,58.5936 117.3291,58.6976 C116.2591,58.3876 115.2231,58.0036 114.3211,57.3276 C114.5281,56.7996 114.8831,56.4006 115.3741,56.1216 C115.6061,56.0556 115.7871,56.1306 115.9251,56.3216" id="Fill-97" fill="#424141"></path>
            <path d="M117.3294,58.6976 C117.5124,58.5316 117.6944,58.3656 117.8784,58.2006 C118.3394,57.9206 118.8224,58.0346 119.3054,58.1166 C120.0784,58.4456 121.0724,58.0006 121.7124,58.7996 C121.7064,58.9236 121.7024,59.0476 121.7024,59.1726 C120.1884,59.5276 118.7224,59.4506 117.3294,58.6976" id="Fill-99" fill="#424141"></path>
            <path d="M65.4798,36.262 C64.2448,36.033 62.8988,36.635 61.7488,35.766 C63.0788,35.283 64.4298,34.636 65.4798,36.262" id="Fill-101" fill="#424141"></path>
            <path d="M41.4359,43.0452 C41.2489,42.8872 41.0619,42.7292 40.8749,42.5702 C41.6509,41.3912 42.9229,42.0642 43.9309,41.7522 C44.2459,42.0242 44.5609,42.2952 44.8749,42.5662 C43.8319,43.4632 42.6699,43.5192 41.4359,43.0452" id="Fill-103" fill="#424141"></path>
            <path d="M115.2816,56.431 C115.2896,57.081 114.8306,57.232 114.3206,57.327 C113.4766,56.997 113.3326,56.271 113.2796,55.493 L113.8276,54.857 C114.4936,55.214 115.0196,55.702 115.2816,56.431" id="Fill-105" fill="#424141"></path>
            <path d="M60.9828,36.26 C61.4128,37.603 59.9328,37.438 59.5188,38.114 C59.3298,38.053 59.2028,37.928 59.1388,37.739 C59.3298,36.719 60.0228,36.323 60.9828,36.26" id="Fill-107" fill="#424141"></path>
            <path d="M101.6419,52.3811 C101.7879,52.2281 101.9359,52.0731 102.0819,51.9201 C102.8629,52.8171 103.5699,53.7231 102.4669,54.8651 L102.3159,54.9021 L102.1649,54.8601 C101.4739,54.1431 101.2169,53.3341 101.6419,52.3811" id="Fill-109" fill="#424141"></path>
            <path d="M54.7835,102.261 C54.5685,102.46 54.3545,102.658 54.1405,102.858 C53.5175,102.291 52.9005,101.721 52.8015,100.812 C53.0425,100.478 52.8085,99.879 53.3995,99.74 C54.3885,100.291 54.7325,101.197 54.7835,102.261" id="Fill-111" fill="#424141"></path>
            <path d="M118.7708,47.4378 C118.7738,47.2758 118.7718,47.1148 118.7628,46.9528 C120.1728,46.8068 121.4218,46.9418 121.7368,48.6808 C120.7488,48.2668 119.7588,47.8528 118.7708,47.4378" id="Fill-113" fill="#424141"></path>
            <path d="M72.2347,21.0569 C72.0907,20.7509 71.9487,20.4459 71.8047,20.1399 C71.7987,19.4369 72.1727,19.1389 72.8467,19.1599 C73.1297,19.1099 73.2497,19.2269 73.2087,19.5099 C72.8837,20.0259 72.5587,20.5409 72.2347,21.0569" id="Fill-115" fill="#424141"></path>
            <path d="M29.2171,60.6956 C29.3741,60.5416 29.5321,60.3866 29.6911,60.2316 C30.6231,59.9706 31.0131,60.5606 31.3241,61.2746 C31.3071,61.6956 31.0781,61.9306 30.6751,62.0126 C29.8201,61.9826 29.6151,61.2316 29.2171,60.6956" id="Fill-117" fill="#424141"></path>
            <path d="M30.6751,62.013 C30.8341,61.771 30.9931,61.528 31.1531,61.284 C31.9711,60.875 32.7941,60.855 33.6221,61.253 C33.7871,61.534 33.9511,61.815 34.1151,62.095 C32.9671,62.158 31.8121,62.468 30.6751,62.013" id="Fill-119" fill="#424141"></path>
            <path d="M85.0247,83.2073 C84.6847,84.1253 84.3437,85.0433 84.0037,85.9613 C83.7067,84.8073 83.0457,83.5173 85.0247,83.2073" id="Fill-121" fill="#424141"></path>
            <path d="M36.556,96.4202 C36.795,95.9972 37.225,95.9742 37.632,95.9022 C38.301,95.9802 38.916,95.8292 39.484,95.4712 C38.993,97.2842 37.728,96.7082 36.556,96.4202" id="Fill-123" fill="#424141"></path>
            <path d="M89.8841,38.68 C89.6491,39.976 90.4631,41.42 89.3311,42.589 C89.7731,41.323 88.8631,39.865 89.8841,38.68" id="Fill-125" fill="#424141"></path>
            <path d="M55.3539,41.8714 L55.2429,41.9694 C54.5149,41.9714 53.6629,42.7154 53.1179,41.6144 C53.9089,41.3024 54.7649,40.4184 55.3539,41.8714" id="Fill-127" fill="#424141"></path>
            <path d="M66.891,112.6009 C67.76,111.7919 68.807,112.3149 69.77,112.2209 C69.776,112.3119 69.79,112.4009 69.813,112.4879 C68.853,112.8769 67.884,113.0569 66.891,112.6009" id="Fill-129" fill="#424141"></path>
            <path d="M89.3831,60.2239 C89.5731,60.4239 89.7641,60.6229 89.9541,60.8239 C90.1671,61.0829 90.1681,61.3419 89.9491,61.5989 C89.7841,61.9529 89.6201,62.3069 89.4551,62.6609 C88.9601,61.8629 88.8761,61.0519 89.3831,60.2239" id="Fill-131" fill="#424141"></path>
            <path d="M85.0179,73.4954 C85.0189,72.1524 85.0209,70.8094 85.0229,69.4674 C85.6309,70.8104 85.6519,72.1534 85.0179,73.4954" id="Fill-133" fill="#424141"></path>
            <path d="M71.6878,34.7288 C71.8808,34.8958 72.0748,35.0638 72.2678,35.2308 C72.0028,36.2088 71.4588,36.8568 70.3588,36.8478 C70.3268,36.6068 70.2928,36.3648 70.2608,36.1238 C70.6038,35.5228 71.0528,35.0308 71.6878,34.7288" id="Fill-135" fill="#424141"></path>
            <path d="M51.6927,42.4905 C52.5217,42.8695 52.5217,42.8695 51.3007,44.6915 C51.1607,44.5025 51.0197,44.3115 50.8797,44.1215 C51.1497,43.5775 51.4217,43.0335 51.6927,42.4905" id="Fill-137" fill="#424141"></path>
            <path d="M86.4164,44.9134 C86.2814,45.9934 86.9964,47.0794 86.3964,48.1564 C85.7744,47.0714 85.7664,45.9904 86.4164,44.9134" id="Fill-139" fill="#424141"></path>
            <path d="M36.804,75.387 C36.922,75.372 36.976,75.309 36.966,75.198 C38.205,76.045 37.952,76.928 37.029,77.828 C37.008,77.627 36.988,77.426 36.967,77.225 C36.565,76.643 35.819,76.092 36.804,75.387" id="Fill-141" fill="#424141"></path>
            <path d="M43.3861,87.6087 C43.0701,87.2787 42.7521,86.9497 42.4361,86.6197 C42.9911,86.1577 43.5811,85.8177 44.3411,86.0887 C44.5381,86.2907 44.7371,86.4927 44.9341,86.6937 C44.5731,87.2587 43.9741,87.4237 43.3861,87.6087" id="Fill-143" fill="#424141"></path>
            <path d="M73.2083,19.51 C73.0883,19.394 72.9673,19.277 72.8473,19.159 C72.9383,18.322 73.6743,18.756 74.0793,18.537 C74.2863,18.701 74.4933,18.866 74.7003,19.031 C74.2053,19.196 73.8163,19.697 73.2083,19.51" id="Fill-145" fill="#424141"></path>
            <path d="M91.4867,82.3343 C91.2827,82.1493 91.0797,81.9653 90.8767,81.7803 C91.7157,81.3583 92.5067,81.1363 92.9687,82.2823 C92.4747,82.3003 91.9807,82.3163 91.4867,82.3343" id="Fill-147" fill="#424141"></path>
            <path d="M52.6087,90.5384 C51.9167,91.7094 50.8517,90.7944 49.9887,91.0074 C50.7927,90.4664 51.7317,90.6774 52.6087,90.5384" id="Fill-149" fill="#424141"></path>
            <path d="M88.9066,104.7718 C89.0536,104.1168 88.7266,103.3418 89.3946,102.8168 C89.6056,103.4718 89.9696,104.1198 89.5056,104.8128 C89.3056,104.7988 89.1066,104.7858 88.9066,104.7718" id="Fill-151" fill="#424141"></path>
            <path d="M59.139,37.7395 C59.266,37.8645 59.393,37.9895 59.519,38.1145 C59.335,38.4625 59.152,38.8095 58.967,39.1575 C58.821,38.9795 58.674,38.8015 58.528,38.6235 C58.567,38.2155 58.746,37.9035 59.139,37.7395" id="Fill-153" fill="#424141"></path>
            <path d="M97.3177,62.0491 C97.3887,61.2761 96.9787,60.4241 97.6877,59.7521 C97.8147,59.8581 97.8437,59.9851 97.7727,60.1341 C97.5307,60.7511 97.9787,61.5311 97.3177,62.0491" id="Fill-155" fill="#424141"></path>
            <path d="M108.9564,65.1136 C108.2424,64.4006 108.7174,63.4846 108.5404,62.6786 C108.6714,62.6856 108.8014,62.6876 108.9324,62.6846 C109.1654,63.4916 109.1404,64.3016 108.9564,65.1136" id="Fill-157" fill="#424141"></path>
            <path d="M53.2845,99.7366 C53.1235,100.0946 52.9625,100.4536 52.8015,100.8116 L52.6395,99.9826 C52.8695,99.6716 52.4965,99.1426 53.0155,98.9596 C53.0305,98.9546 53.1765,99.3216 53.2615,99.5146 L53.2845,99.7366 Z" id="Fill-159" fill="#424141"></path>
            <path d="M46.7699,86.6819 C47.5899,86.7099 48.4379,86.4619 49.2189,86.9109 C48.3669,87.2199 47.5429,87.2139 46.7699,86.6819" id="Fill-161" fill="#424141"></path>
            <path d="M88.4456,82.2464 L85.8676,82.2054 C86.7376,81.5394 87.5956,81.5984 88.4456,82.2464" id="Fill-163" fill="#424141"></path>
            <path d="M30.6859,79.7571 C30.4969,80.4221 30.3059,81.0871 30.1169,81.7521 C30.0099,81.9241 29.8669,81.9651 29.6859,81.8741 C29.5979,81.7771 29.5609,81.6721 29.5759,81.5631 C29.5899,81.4501 29.6099,81.3941 29.6349,81.3941 C29.6549,81.0281 29.6749,80.6601 29.6949,80.2941 C30.0259,80.1151 30.3559,79.9361 30.6859,79.7571" id="Fill-165" fill="#424141"></path>
            <path d="M59.8773,71.8567 C58.3353,72.7177 58.3233,71.6777 57.9683,70.7877 C57.8273,70.4337 57.5713,70.0017 57.1003,70.0777 C56.4103,70.1897 56.6383,70.8027 56.5983,71.2427 C56.5683,71.5637 56.6163,71.8907 56.5993,72.2137 C56.5553,73.0427 57.8893,74.3777 56.3253,74.5657 C55.2083,74.6997 53.6733,74.0537 53.3163,72.4517 C53.2133,71.9827 53.2383,71.4847 53.2243,71.2677 C53.3573,68.2007 54.5213,66.3617 56.3433,66.0857 C58.3923,65.7757 60.4183,67.0627 61.1263,69.0187 C61.6363,70.4267 61.1803,71.1297 59.8773,71.8567 M74.6233,72.6177 C74.9473,72.0477 75.1943,71.4737 74.7433,70.8497 C74.2213,70.4487 73.6043,70.3947 72.9783,70.3747 C71.3943,70.5367 69.9153,70.1007 68.4403,69.6197 C67.9143,69.4487 67.1793,69.4437 67.4393,68.6027 C67.6463,67.9337 68.2633,67.8977 68.8613,68.0047 C69.6283,68.1427 70.5543,68.7367 71.0633,67.7697 C71.9613,66.0617 72.7183,66.7797 73.5973,67.7277 C73.9243,68.0797 74.3513,68.3757 74.8763,68.0087 C74.7703,65.8727 74.1503,63.7567 74.6053,61.5987 C74.5083,61.3727 74.3623,61.1827 74.1653,61.0337 C73.8013,60.8987 73.4563,60.9267 73.1333,61.1537 C72.6913,63.7087 70.6403,63.0547 68.9763,63.3477 C67.8483,63.5457 67.0223,63.5787 66.7313,62.3027 C66.4413,61.0337 67.2933,60.6277 68.3003,60.2727 C69.6013,59.8117 71.0783,60.1647 72.2883,59.3537 C72.3123,57.9957 71.1703,58.2917 70.4213,58.0597 C69.8983,57.8977 69.3363,58.2147 68.7933,57.9807 C68.4963,57.8517 68.6873,57.8617 68.9863,57.9847 C69.1293,58.0437 69.2923,57.9317 69.4073,57.8127 C68.4483,56.3917 66.7993,55.6107 65.9393,54.0957 C65.6653,53.9087 65.3733,53.7547 65.0623,53.6357 C63.2333,52.9577 64.5183,51.4377 64.1703,50.3587 C64.0873,50.0037 63.8683,49.7657 63.5413,49.6197 C63.2083,49.5097 62.8703,49.4917 62.5273,49.5597 C62.3073,49.6217 62.1003,49.7117 61.9113,49.8427 C61.7383,49.9897 61.5853,50.1547 61.4543,50.3397 C60.6993,51.1227 61.0763,51.9607 61.3483,52.7957 C61.1763,53.4007 60.6383,53.5177 60.1403,53.6887 C59.9463,53.8137 59.8153,53.9877 59.7413,54.2037 C60.3343,56.2467 58.6243,56.2347 57.5063,56.9817 C56.2323,57.8337 56.0233,56.6537 55.4323,56.2917 C54.8203,55.9167 54.3493,55.3157 53.5203,55.5507 C52.2693,56.3137 52.7963,57.4267 52.9533,58.4637 C54.1813,60.6717 56.5003,60.5047 58.5523,60.9177 C56.2873,61.0027 56.2873,61.0027 55.4333,61.6877 C53.0563,63.5937 52.5163,63.4077 51.5473,60.3507 C51.0813,59.4927 50.2583,59.5927 49.4803,59.5807 C48.5093,60.5657 46.5283,59.2207 46.0563,60.7227 C45.4443,62.6657 44.3743,61.8307 43.3053,61.6027 C41.3953,62.6667 42.1843,64.8077 41.4243,66.3267 C41.3413,66.9757 41.3883,67.5987 41.7923,68.1507 C42.0933,68.4127 42.4473,68.5507 42.8383,68.6097 C44.2793,68.9147 45.4123,67.8827 46.7413,67.7037 C47.0853,67.6367 47.4173,67.5437 47.7333,67.3937 C48.4223,66.8517 49.2253,66.6317 50.0733,66.5337 C50.7043,66.4337 51.3133,66.3977 51.6053,67.1557 C51.5303,68.2697 50.5373,68.4447 49.7973,68.8317 C48.3033,69.6127 46.6483,69.9867 45.0793,70.5837 C44.7813,70.7207 44.5113,70.8977 44.2633,71.1127 C43.8183,71.5467 43.2953,71.8617 42.7513,72.1447 C42.4953,72.3367 42.2823,72.5447 42.4333,72.9077 C42.6963,72.9477 42.9603,72.9887 43.2243,73.0297 C43.6503,73.1727 43.8843,73.7247 44.4363,73.6017 C45.9183,72.2757 47.7043,73.0047 49.3393,72.7527 C50.9033,72.5097 50.8373,73.2377 51.2013,74.1287 C51.7183,75.3957 50.2793,75.8727 50.2373,76.8777 C51.2363,77.9827 51.7923,79.3117 52.1913,80.7197 C52.3783,81.3747 52.4673,82.3377 51.8733,82.4667 C50.1793,82.8337 49.5433,84.6727 47.8963,85.0327 C46.3813,85.3627 45.3043,84.3327 44.0263,83.9327 C43.7913,83.9397 43.5713,84.0027 43.3723,84.1287 C43.0653,85.0487 43.7183,85.6887 44.0483,86.4197 C44.2853,86.7027 44.5283,86.9587 44.9343,86.6937 C45.5453,86.6897 46.1573,86.6857 46.7703,86.6817 C47.5543,87.1067 48.4053,86.8007 49.2193,86.9117 C50.7093,86.9227 51.8703,86.0947 53.0843,85.3987 C53.8693,85.9217 52.9493,88.1757 55.0653,87.3497 C55.2573,87.1857 55.4043,86.9707 55.3793,86.7287 C55.0863,83.9317 55.0823,83.9327 57.8513,84.4147 C58.0913,84.4567 58.3333,84.4477 58.5703,84.3997 C59.7963,84.1327 59.2973,82.6607 60.1523,82.1387 C60.1033,81.4817 59.5973,81.1717 59.1203,80.8917 C57.6143,80.0047 57.5193,78.5227 57.6023,77.0717 C57.6933,75.4467 59.3593,74.4017 61.7883,74.1097 C63.1413,73.9467 63.4903,74.6797 63.5893,75.7807 C63.7613,76.6917 64.0663,77.6107 63.4643,78.4837 C62.5383,79.4937 62.1563,80.8427 61.3463,81.9277 C61.3573,82.7607 60.1673,83.7947 61.7613,84.3527 C63.4843,82.6697 65.8263,83.2057 67.8623,82.6417 C69.2563,81.9597 70.3643,82.0267 70.9573,83.7207 C71.1203,84.1867 71.4943,84.5657 72.0453,84.0577 C73.3153,80.5627 75.9303,77.3457 74.2763,73.2357 C74.2213,73.0967 74.5053,72.8277 74.6233,72.6177" id="Fill-167" fill="#424141"></path>
            <path d="M51.769909,67.1028 C50.5359,68.3378 48.7939,68.3538 47.2969,68.9588 C46.8949,68.6258 46.5739,68.2448 46.5329,67.6928 C46.5459,67.4858 46.6139,67.2978 46.7329,67.1278 C47.1439,67.0898 47.5549,67.0518 47.9659,67.0128 C48.6299,66.2418 49.5759,66.4158 50.4289,66.2778 C51.0249,66.3108 51.7729,66.0968 51.769909,67.1028" id="Fill-169" fill="#424141"></path>
            <path d="M76.098,74.47 C75.189,74.086 74.612,73.384 74.216,72.508 C74.382,72.002 74.549,71.495 74.715,70.989 C74.393,70.606 74.52,70.196 74.641,69.785 C74.742,69.353 73.754,68.858 74.716,68.474 C75.181,68.803 75.688,68.666 76.188,68.604 C76.419,69.914 77.511,69.392 78.27,69.58 C78.325,69.802 78.286,70.001 78.136,70.176 C77.566,70.652 76.706,70.442 76.179,71.008 C75.417,72.282 77.069,73.015 76.879,74.156 C76.715,74.503 76.499,74.719 76.098,74.47" id="Fill-171" fill="#424141"></path>
            <path d="M65.9251,49.9046 C65.0061,48.8816 64.6891,50.5946 63.9401,50.3416 C63.7491,50.1966 63.5581,50.0516 63.3671,49.9076 C64.8161,48.6596 66.5031,47.6106 66.9951,45.5626 C67.5871,46.1676 67.2991,46.9646 67.4551,47.6646 C67.7141,48.9366 67.4711,49.8656 65.9251,49.9046" id="Fill-173" fill="#424141"></path>
            <path d="M62.4212,60.7044 C62.3992,62.3114 62.7942,63.9184 62.4242,65.5264 C61.2172,65.3624 61.7312,64.1514 61.2262,63.5604 C60.6602,62.5024 61.4912,61.3674 61.0482,60.3024 C61.9002,59.0854 61.9262,60.6984 62.4212,60.7044" id="Fill-175" fill="#424141"></path>
            <path d="M42.5501,71.3968 C42.3651,69.6858 43.8281,69.5568 44.8491,69.0018 C45.2571,69.2208 45.1201,69.6458 45.2201,69.9818 C45.1091,70.3068 44.9971,70.6318 44.8861,70.9568 C44.7031,71.1378 44.5221,71.3188 44.3401,71.5008 C43.7111,72.0198 43.1291,71.7238 42.5501,71.3968" id="Fill-177" fill="#424141"></path>
            <path d="M43.348,84.2249 C42.218,83.1749 42.048,81.9889 42.841,80.6639 C43.009,80.8639 43.178,81.0629 43.346,81.2619 C42.81,82.4029 43.777,83.1899 44.026,84.1459 C43.8,84.1719 43.575,84.1989 43.348,84.2249" id="Fill-179" fill="#424141"></path>
            <path d="M74.6917,61.7122 L74.4837,61.6912 L74.2777,61.7192 C74.2267,61.5482 74.1767,61.3772 74.1277,61.2062 C74.1917,60.8612 74.2567,60.5182 74.3217,60.1732 C74.5927,59.8632 74.3527,59.1272 75.1117,59.2252 C76.2617,60.2722 74.6007,60.8442 74.6917,61.7122" id="Fill-181" fill="#424141"></path>
            <path d="M63.9466,78.8313 C63.5796,77.8473 63.6076,76.8723 64.0236,75.9073 C64.6446,76.8993 64.7136,77.8763 63.9466,78.8313" id="Fill-183" fill="#424141"></path>
            <path d="M64.8558,53.7493 C64.8808,53.0793 65.0568,52.4653 65.5248,51.9613 C65.8668,51.9183 66.1278,51.9463 65.9118,52.3973 C65.4928,52.9843 65.2728,53.6153 65.4788,54.3413 C65.2708,54.1443 65.0638,53.9463 64.8558,53.7493" id="Fill-185" fill="#424141"></path>
            <path d="M74.641,69.7854 C74.665,70.1864 74.691,70.5874 74.715,70.9884 C74.063,70.9914 73.411,70.9934 72.758,70.9964 C73.209,70.3174 74.397,70.7844 74.641,69.7854" id="Fill-187" fill="#424141"></path>
            <path d="M61.9915,50.427 C61.6555,50.397 61.5235,50.189 61.5125,49.876 C61.6005,49.834 61.6905,49.791 61.7805,49.748 C61.8535,49.815 61.9265,49.883 61.9985,49.95 C61.9765,50.11 61.9745,50.268 61.9915,50.427" id="Fill-189" fill="#424141"></path>
            <path d="M62.4974,49.4768 C62.5824,49.5838 62.6074,49.7048 62.5724,49.8358 L61.9984,49.9508 L62.0194,49.9668 C61.8924,49.8488 61.8524,49.7358 61.9024,49.6258 C61.9504,49.5188 61.9974,49.4648 62.0434,49.4648 L62.0074,49.5038 C62.1604,49.3168 62.3244,49.3078 62.4974,49.4768" id="Fill-191" fill="#424141"></path>
            <path d="M83.89,56.3919 C81.549,57.1929 78.277,56.1759 77.388,54.3479 C76.563,52.6519 77.9,49.2619 79.954,48.0639 C81.519,47.1509 82.91,47.8859 83.784,49.0989 C84.84,50.5639 83.361,51.1049 82.287,51.4819 C82.657,52.3859 83.279,52.3129 83.823,52.4089 C84.841,52.5859 85.855,52.9769 85.816,54.1389 C85.779,55.2439 84.994,56.0149 83.89,56.3919 M85.551,61.0499 C84.919,63.4739 82.683,65.2139 80.148,65.2009724 C78.259,65.1439 77.245,63.9059 76.53,62.3799 C75.836,60.9019 75.761,59.3909 76.795,57.9919 C77.143,57.5219 77.765,56.9269 78.18,57.1639 C80.102,58.2619 82.161,57.8979 84.187,58.1149 C85.477,58.2519 85.917,59.6469 85.551,61.0499 M86.26,58.1439 C85.962,57.4899 85.599,57.0759 86.113,56.2269 C87.606,53.7609 85.195,47.5809 82.488,46.6549 C81.706,46.3869 80.787,46.1839 80.103,46.6279 C78.648,47.5749 78.297,46.7689 78.064,45.5659 C77.426,45.5029 77.311,45.9909 77.157,46.4349 C77.026,47.5769 76.794,48.6759 75.975,49.5569 C75.568,49.9949 74.984,50.5099 74.543,49.9759 C73.014,48.1259 70.942,49.1119 69.134,48.7719 C68.479,49.0659 68.411,49.6119 68.514,50.2289 C69.22,50.8539 69.009,51.5029 68.572,52.1579 C69.132,53.7669 69.858,54.3159 70.943,52.5269 C71.321,51.9019 71.83,51.5379 72.563,51.8329 C73.355,52.1529 73.581,52.8479 73.535,53.6329 C73.453,54.9729 72.713,55.8859 71.585,56.5389 C70.89,56.9419 70.014,57.0209 69.479,57.7109 C69.094,57.7619 68.709,57.8129 68.221,57.8759 C69.389,59.0479 71.246,58.0369 72.231,59.3689 C72.093,60.2749 72.396,60.9209 73.313,61.2059 L74.127,61.2059 C74.487,61.0309 74.529,60.6609 74.653,60.3399 C74.288,58.5499 74.674,56.9629 75.956,55.3389 C76.005,56.9519 74.655,57.8209 74.766,59.1689 C75.024,60.2229 74.278,61.1889 74.499,62.2369 C75.16,66.6329 77.647,68.1959 81.595,66.6869 C85.879,65.9819 88.043,62.0499 86.26,58.1439" id="Fill-193" fill="#424141"></path>
            <path d="M65.93,50.5081 L68.839,50.4381 C70.1,50.8801 69.276,51.3751 68.875,51.8601 C67.701,51.0091 66.835,51.8671 65.911,52.3981 L65.525,51.9611 C65.66,51.4771 65.795,50.9921 65.93,50.5081" id="Fill-195" fill="#424141"></path>
            <path d="M74.6956,96.4768 C74.1316,96.4288 73.5666,96.3378 73.0026,96.3438 C71.8776,96.3548 70.5856,96.6538 70.2846,95.0708 C69.9376,93.2468 70.5776,91.7438 72.0406,90.5848 C73.1156,89.7348 74.2466,89.3558 75.5646,90.0088 C76.0426,90.2458 76.5226,90.7538 76.3926,91.1048 C75.8176,92.6578 75.7566,94.0158 76.5536,95.6048 C76.8726,96.2398 75.5546,96.6118 74.6956,96.4768 M78.0076,95.1398 C77.9746,93.5678 77.6476,92.0228 77.9436,90.4128 C78.0466,89.8528 77.4206,89.0178 76.7546,89.0658 C75.1036,89.1848 73.3366,88.4058 71.8096,89.6118 C70.4886,90.1788 69.2926,91.7268 67.6926,90.1428 C67.3916,89.9668 67.0746,89.8678 66.7206,89.9358 C65.2306,90.6178 64.1356,89.9778 62.9776,89.0288 C61.3106,87.6638 61.7586,85.7928 61.5036,84.0778 C60.5366,83.5188 62.3526,82.7368 61.3506,82.1808 C60.9396,81.8688 60.5366,81.8488 60.1406,82.2078 C58.8956,82.3268 59.3316,83.7508 58.5616,84.2388 C58.4316,84.6358 58.6736,84.8318 58.9746,84.9938 C60.1676,85.2848 59.9106,86.2338 59.9246,87.0658 C59.9926,88.1048 59.1216,88.7808 58.9076,89.7098 C58.9726,90.0808 59.2136,90.2808 59.5616,90.3738 C60.1206,90.4518 60.6946,90.3598 61.2346,90.6118 C64.0706,91.9318 64.1576,92.7718 61.6456,94.6788 C61.0616,95.1308 60.7236,95.7378 60.5466,96.4448 C60.4836,98.6228 60.1916,100.6958 58.0226,101.9028 C57.5096,102.4968 56.9166,102.7768 56.1506,102.3988 C55.6296,102.2128 55.1166,101.9778 54.5356,102.0878 C54.2046,102.2418 53.9366,102.4278 54.1406,102.8578 C54.5996,103.5448 55.3356,103.7298 56.0696,103.9138 C56.7646,104.4168 57.4456,104.4108 58.1116,103.8578 C59.8016,103.2678 61.0356,101.2988 63.2756,102.3008 C63.9366,102.5958 64.2746,101.6438 64.7466,101.2428 C64.5446,101.0068 63.9946,100.8408 64.1066,100.6178 C65.1326,98.5808 65.4586,96.1658 67.3116,94.4238 C67.6956,95.9328 65.9836,97.0428 66.8726,98.4558 C68.2126,98.2138 68.0006,96.5768 69.2366,95.8938 C69.2576,97.4848 71.5446,97.9558 70.7896,99.8398 C70.5856,100.2608 70.8486,100.4518 71.1736,100.6108 C72.4156,100.7118 73.7706,100.1228 74.8446,101.2178 C75.0356,101.3498 75.2426,101.3778 75.4636,101.3118 C77.2976,99.9938 75.1806,99.4958 74.8696,98.5078 C76.2426,97.7088 78.0436,96.9618 78.0076,95.1398" id="Fill-197" fill="#424141"></path>
            <path d="M60.4984,87.431 C60.1404,86.451 60.2554,85.202 58.9804,84.74 C59.6324,84.499 60.4194,83.928 60.5064,85.26 C60.5534,85.981 60.5044,86.707 60.4984,87.431" id="Fill-199" fill="#424141"></path>
            <path d="M59.6673,90.1409 C59.1693,90.8949 58.1883,90.4949 57.5903,91.0099 C57.5913,90.8689 57.5933,90.7279 57.5943,90.5859 C57.4153,90.4849 57.3603,90.3929 57.4283,90.3079 C57.4903,90.2279 57.5553,90.1879 57.6213,90.1879 C58.1023,89.9979 58.5833,89.8099 59.0633,89.6199 C59.2653,89.7939 59.4663,89.9669 59.6673,90.1409" id="Fill-201" fill="#424141"></path>
            <path d="M56.1283,102.9339 C56.8773,103.0999 57.5433,102.9639 58.0913,102.3969 C57.7673,103.7829 56.9743,103.4539 56.1283,102.9339" id="Fill-203" fill="#424141"></path>
            <path d="M76.6703,73.9544 C77.8133,74.6844 78.9693,73.9704 80.1193,73.9874 C80.2843,74.2744 80.4503,74.5624 80.6163,74.8504 C79.6083,75.4054 78.6013,75.9594 77.9043,76.9244 C77.7133,77.0384 77.5073,77.0864 77.2853,77.0694 C76.9473,76.9554 76.7353,76.7294 76.6653,76.3774 C77.4463,75.4534 76.7183,74.9774 76.0983,74.4704 C76.2883,74.2984 76.4803,74.1264 76.6703,73.9544" id="Fill-205" fill="#424141"></path>
            <path d="M76.6654,76.3772 C76.8434,76.5702 77.0204,76.7632 77.1984,76.9562 C77.5024,78.4692 76.0314,79.5422 76.1914,81.0202 L76.2034,81.0102 C76.0804,81.3892 75.8134,81.5422 75.4264,81.5072 C75.0474,81.4132 74.9464,81.0512 74.7374,80.7942 C74.8664,79.0982 75.5794,77.6562 76.6654,76.3772" id="Fill-207" fill="#424141"></path>
            <path d="M81.5882,77.8558 C81.5812,77.3648 81.5742,76.8748 81.5672,76.3838 C81.7552,76.1768 81.9432,75.9688 82.1312,75.7608 C82.4842,75.8928 82.4852,76.5428 83.0392,76.3788 C83.3142,76.5148 83.7522,76.5908 83.8282,76.7988 C83.9802,77.2148 83.5312,77.4258 83.2502,77.3068 C82.4902,76.9838 82.0482,77.3958 81.5882,77.8558" id="Fill-209" fill="#424141"></path>
            <path d="M74.7376,80.7942 L75.2916,81.3832 C75.8246,82.1862 75.7956,82.9672 75.1996,83.7262 C74.3986,83.0142 74.9896,82.0172 74.6816,81.2032 C74.6096,81.0542 74.6286,80.9182 74.7376,80.7942" id="Fill-211" fill="#424141"></path>
            <path d="M88.0941,27.8792 C86.7771,28.6842 85.4611,30.0902 83.6591,29.3022 C81.5541,28.3812 82.5101,26.1022 81.8061,24.8812 C81.8481,22.6142 81.9751,20.7012 84.1961,19.8212 C85.4761,19.3142 86.5471,19.6042 87.6151,20.3822 C88.7051,21.1762 88.3171,22.0292 87.8801,22.9512 C87.6281,23.4832 87.0871,23.9602 88.0931,24.5032 C89.6231,25.3292 89.6601,26.9222 88.0941,27.8792 M90.4731,24.4552 C90.1241,24.0052 89.9041,23.5252 89.8241,22.9222 C89.4161,19.7982 87.0501,17.8282 84.1371,18.6732 C82.3881,19.1812 80.8891,19.2212 79.2641,18.6572 C79.3321,19.5242 79.4101,20.3682 79.6501,21.2302 C80.3741,23.8372 78.9431,25.4502 76.2231,25.2532 C74.8951,25.1562 73.7791,24.5202 72.6491,23.9112 C72.2131,23.8542 71.9991,24.0932 71.8921,24.4772 C72.9191,27.9912 75.3991,29.4492 77.8211,27.7122 C79.3371,26.6242 79.7941,27.0332 80.6571,28.4022 C81.7381,30.1192 83.5221,31.3412 85.6131,30.7092 C87.8771,30.0252 89.8041,28.5862 90.8161,26.2902 C91.0821,25.6882 90.9071,25.0152 90.4731,24.4552" id="Fill-213" fill="#424141"></path>
            <path d="M100.181,51.9358 C98.871,51.9328 97.561,51.9298 96.251,51.9268 C96.263,51.7128 96.275,51.4988 96.287,51.2848 C97.079,50.7978 97.857,50.7828 98.616,51.3568 C99.167,51.4678 99.811,51.3318 100.181,51.9358" id="Fill-215" fill="#424141"></path>
            <path d="M30.4974,84.2483 C30.5204,84.4023 30.5414,84.5583 30.5594,84.7143 C30.3794,84.7233 30.1974,84.7323 30.0174,84.7423 C29.3134,83.8183 29.2384,82.8183 29.6574,81.7603 C29.8104,81.7543 29.9634,81.7523 30.1164,81.7523 C30.3274,82.5713 29.8604,83.4933 30.4974,84.2483" id="Fill-217" fill="#424141"></path>
            <path d="M49.7894,99.4944 C49.5174,100.1654 48.8504,99.9494 48.2974,99.9354 C47.8484,99.9254 47.2744,99.6404 47.0434,100.2624 C46.8754,100.7134 47.2354,101.1344 47.6014,101.2044 C49.5764,101.5824 49.6954,102.8454 48.7094,104.0924 C47.6524,105.4284 46.0534,106.0814 44.3794,105.1334 C42.7544,104.2124 41.9334,102.7544 42.4474,100.8234 C42.9154,99.0684 45.1314,97.5824 47.5154,97.5714 C47.8134,97.6874 48.4474,97.8534 48.9934,98.1704 C49.4584,98.4404 50.0664,98.8104 49.7894,99.4944 M51.3374,97.6754 C50.4854,96.5904 49.4094,95.8164 48.1364,95.3074 C47.6854,95.2894 47.5394,95.6214 47.3874,95.9494 C44.2494,96.4834 42.0284,98.1104 40.8714,101.1704 C39.8264,103.9294 40.6114,105.7124 43.4364,106.6094 C46.5634,107.6044 50.5284,105.2424 51.2664,101.9444 C51.5984,100.5264 51.5504,99.1014 51.3374,97.6754" id="Fill-219" fill="#424141"></path>
            <path d="M63.1322,43.5794 C62.4142,44.2174 61.6962,44.8534 60.9792,45.4914 C60.8452,45.1584 60.7112,44.8254 60.5782,44.4934 C61.6792,44.8884 61.9262,42.8914 63.1322,43.5794" id="Fill-221" fill="#424141"></path>
            <path d="M64.9544,42.6292 C64.5054,42.9212 64.0554,43.2132 63.6054,43.5052 C62.9894,42.4372 63.9624,42.4832 64.5024,42.2262 C64.6524,42.3602 64.8044,42.4952 64.9544,42.6292" id="Fill-223" fill="#424141"></path>
            <path d="M57.6214,90.1878 C57.6194,90.3218 57.6104,90.4548 57.5944,90.5858 C56.6034,90.4978 55.5384,90.9188 54.6454,90.1598 C55.6374,90.1688 56.6294,90.1778 57.6214,90.1878" id="Fill-225" fill="#424141"></path>
            <path d="M95.0472,70.2561 C93.9292,69.7481 93.9712,70.3781 93.8312,70.9431 C93.4262,72.5921 92.1592,73.1531 90.7122,72.1261 C89.0082,70.9161 88.4632,69.1301 89.0442,67.1681 C89.5912,65.3181 90.7852,64.0541 92.4212,64.1351 C95.0002,64.1691 96.9232,66.3061 96.7742,68.3721 C96.6912,69.5161 95.6672,70.5381 95.0472,70.2561 M98.0162,60.5431 C98.0142,60.4051 97.8582,60.2711 97.7732,60.1341 C97.1592,60.5271 97.1752,61.2411 96.9162,61.8181 C96.8872,61.8931 96.8412,61.9551 96.8062,62.0271 C96.7902,62.3801 96.7652,62.7511 96.7232,63.1601 C96.3192,63.4981 96.0202,64.0841 95.3252,63.6541 C94.0652,62.8731 92.7132,62.5071 91.2162,62.7751 C90.3182,62.9351 90.2942,62.0901 89.9572,61.6111 C89.5182,61.8061 89.6282,62.3151 89.4552,62.6601 C89.7412,63.7161 88.8222,64.2521 88.4282,65.0091 C86.8992,67.9431 87.9282,71.8291 90.2822,73.2051 C93.4322,75.0461 94.5012,71.5861 96.6682,71.0101 C97.2682,70.8511 97.6472,70.4711 97.8332,69.8951 C97.9082,69.6631 98.0162,69.4061 97.9802,69.1821 C97.5132,66.2981 98.0742,63.4221 98.0162,60.5431" id="Fill-227" fill="#424141"></path>
            <path d="M33.5414,88.1233 C34.3114,86.9103 34.9394,85.5523 36.5544,85.2143 C36.7634,85.3983 36.9714,85.5843 37.1804,85.7693 C37.2134,86.8443 36.2704,87.3603 35.8214,88.1613 C34.5134,89.5233 35.2334,91.6493 33.9894,93.0343 C33.8564,93.0303 33.7244,93.0263 33.5914,93.0203 C33.0624,92.1093 33.6504,91.0513 33.2104,90.1283 C33.3204,89.4593 33.4314,88.7913 33.5414,88.1233" id="Fill-229" fill="#424141"></path>
            <path d="M46.3363,77.3587 C47.1763,77.6667 48.0263,78.0177 48.6773,77.0237 C49.1503,76.2997 49.7203,76.5957 50.2903,76.8567 C49.9913,77.1237 49.5013,77.3437 49.4233,77.6657 C48.9073,79.7897 47.6543,80.1087 45.8493,79.2587 C46.2153,78.6777 46.3873,78.0467 46.3363,77.3587" id="Fill-231" fill="#424141"></path>
            <path d="M36.014,81.2552 C35.695,81.9212 35.357,82.5692 34.574,82.8052 C34.587,81.9752 34.969,81.3242 35.561,80.7762 C35.711,80.9362 35.863,81.0952 36.014,81.2552" id="Fill-233" fill="#424141"></path>
            <path d="M62.0433,49.4651 C62.0353,49.6321 62.0273,49.8001 62.0203,49.9671 C61.8513,49.9371 61.6813,49.9061 61.5123,49.8761 C61.6893,49.7391 61.8653,49.6021 62.0433,49.4651" id="Fill-235" fill="#424141"></path>
            <path d="M62.4974,49.4768 C62.3344,49.4858 62.1704,49.4948 62.0074,49.5028 C62.0174,49.2558 62.0264,49.0088 62.0354,48.7608 C62.3954,48.8668 62.6584,49.0348 62.4974,49.4768" id="Fill-237" fill="#424141"></path>
            <path d="M35.5843,88.1829 C36.8133,87.4919 37.8633,86.4519 39.3203,86.2089 C39.9463,86.1059 40.7143,85.9509 40.3133,87.0749 C38.0273,87.1409 37.3223,88.9239 36.5023,90.5819 C35.5633,91.3699 36.5273,92.7029 35.6623,93.5109 C34.1713,91.9859 34.1513,90.6669 35.5843,88.1829" id="Fill-239" fill="#424141"></path>
            <path d="M59.846,108.7054 C59.034,110.8664 57.53,112.1894 54.781,112.180446 C53.575,111.9884 51.917,111.9554 51.337,110.1264 C50.823,108.5064 51.192,107.0084 52.582,105.9924 C53.631,105.2274 54.895,104.3284 55.376,106.6534 C55.54,107.4464 56.208,108.1944 56.751,106.9694 C57.187,105.9874 57.582,105.2964 58.642,105.8474 C59.74,106.4184 60.316,107.4554 59.846,108.7054 M59.063,104.7574 C57.961,104.0254 56.69,104.7414 55.549,104.3444 C51.901,104.0464 49.514,106.3374 50.022,109.5304 C50.423,112.0544 52.115,113.0654 54.341,113.4424 C56.637,113.8314 59.762,112.0024 60.692,109.8094 C61.598,107.6744 60.832,106.0464 59.063,104.7574" id="Fill-241" fill="#424141"></path>
            <path d="M104.0785,42.055 C106.6905,43.072 107.0255,45.083 105.0665,47.994 C104.6775,47.973 104.2875,47.951 103.8965,47.931 C104.8175,45.998 104.1295,44.017 104.0785,42.055" id="Fill-243" fill="#424141"></path>
            <path d="M90.307,54.8138 C92.669,53.3628 95.431,53.5228 98.007,52.9428 C98.729,52.7798 99.056,53.2618 98.475,53.9468 C97.6,54.2678 96.639,53.9018 95.772,54.2848 C94.134,54.6028 92.496,54.9218 90.86,55.2408 C90.675,55.0988 90.491,54.9568 90.307,54.8138" id="Fill-245" fill="#424141"></path>
            <path d="M79.6078,68.1106 C78.7958,68.8766 77.8138,68.4476 76.8988,68.5006 C77.7478,67.9966 78.6888,68.1286 79.6078,68.1106" id="Fill-247" fill="#424141"></path>
            <path d="M72.2699,42.5921 C73.0909,42.1181 73.9049,42.2981 74.7159,42.6211 C74.0369,43.3821 73.1359,42.8501 72.3569,43.0211 C72.3059,42.8821 72.2769,42.7391 72.2699,42.5921" id="Fill-249" fill="#424141"></path>
            <path d="M33.2103,90.1282 C33.9153,91.0162 33.3613,92.0692 33.5913,93.0212 L33.3703,93.0282 L33.1503,93.0172 C32.9273,92.0492 33.0133,91.0872 33.2103,90.1282" id="Fill-251" fill="#424141"></path>
            <path d="M45.2201,69.9817 C45.0971,69.6557 44.9731,69.3297 44.8491,69.0027 C45.4971,68.4917 46.1471,67.9807 46.7951,67.4697 C46.9631,67.9667 47.1301,68.4627 47.2971,68.9597 C46.4941,69.0757 45.7801,69.3717 45.2201,69.9817" id="Fill-253" fill="#424141"></path>
            <path d="M78.0736,70.014 C77.4076,70.858 76.4826,70.185 75.7136,70.416 C76.4026,69.712 77.2796,70.108 78.0736,70.014" id="Fill-255" fill="#424141"></path>
            <path d="M95.7718,54.2845 C96.5978,53.5765 97.5598,53.9485 98.4738,53.9465 C97.6358,54.5555 96.6888,54.3025 95.7718,54.2845" id="Fill-257" fill="#424141"></path>
            <path d="M34.0921,75.8685 C35.5101,76.7175 34.0711,77.1735 33.9051,77.9835 C33.1411,77.0065 34.4661,76.5425 34.1451,75.8125 C34.1461,75.8105 34.0921,75.8685 34.0921,75.8685" id="Fill-259" fill="#424141"></path>
            <g id="Group-7" transform="translate(99.000000, 65.000000)" fill="#424141">
                <path d="M19.1312171,0.124221541 C19.1312171,0.124221541 19.2162251,0.112629541 19.3810891,0.0894455408 C19.5472411,0.0752775408 19.7893851,0.0121655407 20.1152491,0.0128095407 C20.7560291,-0.0238984593 21.7497211,-0.0110184593 22.9108531,0.459745541 C24.0867971,0.886717542 25.3310051,1.89972954 26.2596531,3.36032154 C27.1915211,4.82026955 27.7762731,6.71427355 27.9256811,8.78280155 C28.0956971,10.8693616 27.5315531,13.0654016 26.9030091,15.2788296 C26.2648051,17.5070696 25.2962291,19.7636456 23.9071211,21.9081656 C23.2006531,22.9752736 22.3621651,23.9850656 21.4096891,24.9072736 C20.4630091,25.8320576 19.3727171,26.6544456 18.1407451,27.2166576 C17.5179971,27.4832736 16.8894531,27.7292816 16.2473851,27.9353616 C15.6098251,28.1472376 14.9819251,28.3816536 14.3366371,28.5709896 C13.0512131,28.9573896 11.7310131,29.2871176 10.3670211,29.4139856 C9.0062491,29.5376336 7.6074811,29.4880456 6.2505731,29.1402856 C5.5711531,28.9812176 4.9013931,28.7468016 4.2606131,28.4351056 C3.6185451,28.1292056 3.0041691,27.7325016 2.4657851,27.2321136 C1.8958451,26.7053216 1.4547051,26.1147736 1.1249771,25.5280896 L0.857717095,25.0856616 L0.623301095,24.6084576 L0.392749095,24.1261016 C0.331569095,23.9535096 0.275541095,23.7751216 0.220801095,23.5980216 C-0.0161909056,22.8992816 -0.0567629057,22.0826896 0.0720370945,21.3150416 C0.186669095,20.9505376 0.254933095,20.5531896 0.444269095,20.2382736 L0.695429095,19.7481896 C0.790097095,19.5994256 0.892493095,19.4583896 0.996177096,19.3173536 C1.8320891,18.2051656 2.8335091,17.4542616 3.7570051,16.6898336 C4.6837211,15.9292696 5.5331571,15.1480976 6.3568331,14.3875336 C8.0003211,12.8490176 9.4300011,11.3143656 10.5331731,9.74493755 C11.6530891,8.18323755 12.4935091,6.63828155 13.2650211,5.24337755 C14.0371771,3.85298154 14.8144851,2.60233354 15.7135091,1.75032154 C16.6144651,0.889937542 17.5662971,0.564717541 18.1903331,0.343181541 C18.7886091,0.203433541 19.1080331,0.128729541 19.1080331,0.128729541 L19.1312171,0.124221541 Z M19.2728971,0.832621542 C19.2728971,0.832621542 18.9534731,0.905393542 18.3551971,1.04320954 C17.8406411,1.23447754 17.0259811,1.53651354 16.3188691,2.34924154 C15.5898611,3.13170154 15.0205651,4.36045355 14.3237571,5.79786155 C13.6205091,7.23333755 12.7214851,8.86265755 11.4817851,10.4514056 C10.2556091,12.0568976 8.6662171,13.5529096 7.0240171,15.0933576 C6.2100011,15.8790376 5.3431771,16.6518376 4.5620051,17.5283216 C3.7937131,18.4080256 3.0447411,19.3559936 2.5321171,20.3046056 C2.4715811,20.4237456 2.4046051,20.5396656 2.3395611,20.6542976 L2.1991691,21.0046336 C2.0819611,21.2351856 2.0632851,21.4663816 1.9872931,21.6943576 C1.9319091,22.1541736 1.8797451,22.6249376 2.0162731,23.1401376 L2.0948411,23.5278256 L2.2371651,23.9225976 C2.2867531,24.0539736 2.3253931,24.1892136 2.3846411,24.3205896 L2.5875011,24.7127856 C2.8347971,25.2685576 3.1799811,25.7174256 3.5528571,26.0690496 C3.9495611,26.4580256 4.4280531,26.7864656 4.9529131,27.0492176 C5.4739091,27.3177656 6.0361211,27.5341496 6.6240931,27.6861336 C7.7961731,28.0029816 9.0455331,28.1169696 10.2987571,28.1195572 C12.8006971,28.1227656 15.4204891,27.4555816 17.3917731,25.8977456 C18.4073611,25.1899896 19.3965451,24.4912496 20.3187531,23.7120096 C21.2383851,22.9314816 22.0466051,22.0408296 22.7485651,21.0947936 C24.1408931,19.1885536 25.1777331,17.0639976 25.7508931,14.9542536 C26.3324251,12.8303416 26.2538571,10.7341216 26.1636971,8.89485755 C26.0587251,7.04271355 25.6781211,5.37668555 25.0450691,4.04424955 C24.3939851,2.72726954 23.4666251,1.78058954 22.5244531,1.31562154 C21.5861451,0.831333542 20.7135251,0.754053542 20.1403651,0.774017542 C19.8499211,0.759205542 19.6277411,0.810081542 19.4776891,0.815233542 C19.3276371,0.829401542 19.2497131,0.837129542 19.2497131,0.837129542 L19.2728971,0.832621542 L19.2728971,0.832621542 Z" id="Fill-181-Copy"></path>
                <path d="M14.0518971,8.00254953 C14.0499651,8.00061753 13.9965131,7.94458953 13.8979811,7.85829353 C13.7923651,7.77070953 13.6545491,7.72369753 13.5148011,7.79968953 C13.3589531,7.88276553 13.1348411,8.12877353 12.9216771,8.48876953 C12.6988531,8.86486553 12.4470491,9.28861754 12.1727051,9.75100954 C11.8861251,10.2166215 11.3322851,10.5862775 10.9581211,11.1826215 C10.5736531,11.7738135 10.1949811,12.4107295 9.76736507,13.0379855 C9.54904907,13.3425975 9.32751307,13.6530055 9.10275707,13.9666335 C8.89538907,14.2873455 8.65388907,14.5777895 8.33961707,14.7819375 C8.17346507,14.8824015 8.00731307,14.9712735 7.86627707,15.0813975 C7.73296907,15.1870135 7.64474107,15.3312695 7.61576107,15.4336655 C7.58227307,15.4961335 7.62348907,15.5012855 7.60481307,15.5296215 C7.63508107,15.5160975 7.61704907,15.5244695 7.62413307,15.4838975 C7.62735307,15.4703735 7.59579707,15.4536295 7.60481307,15.4620015 L7.74134107,15.5212495 L7.80960507,15.5508735 L7.84373707,15.5650415 L7.85210907,15.5689055 C7.82377307,15.5521615 7.92938907,15.6126975 7.78964107,15.5321975 L7.80123307,15.5321975 L7.88752907,15.5367055 C8.32673707,15.5560255 8.99070107,15.4046855 9.58640107,15.0865495 C9.88972507,14.9332775 10.1647131,14.7175375 10.4055691,14.4657335 C10.6535091,14.2255215 10.9149731,14.0194415 11.2279571,13.8719655 C11.5306371,13.7128975 11.8977171,13.6156535 12.1926691,13.4353335 C12.4979251,13.2666055 12.7078691,13.0077175 12.9197451,12.7694375 C13.3299731,12.2767775 13.6004531,11.7300215 13.8026691,11.2341415 C14.0055291,10.7363295 14.1433451,10.2881055 14.2405891,9.89526554 C14.3455611,9.50435754 14.4028771,9.15466554 14.3854891,8.85778153 C14.3462051,8.55252553 14.2901771,8.38122153 14.1916451,8.22022153 C14.1182291,8.10623353 14.0718611,8.03410553 14.0518971,8.00254953 Z M14.6855931,7.65350153 C14.7100651,7.69342953 14.7480611,7.75396553 14.7995811,7.83575353 C14.8923171,7.98516153 15.0687731,8.30522953 15.2027251,8.66136153 C15.3341011,9.03037354 15.4616131,9.52045754 15.4223291,10.0730095 C15.3817571,10.6236295 15.1808291,11.2083815 14.8620491,11.7596455 C14.5419811,12.3147735 14.1117891,12.8351255 13.6732251,13.3831695 C13.4607051,13.6652415 13.2134091,13.9254175 13.0182771,14.2525695 C12.8212131,14.5784335 12.6511971,14.9616135 12.3948851,15.2765295 C11.9022251,15.9469335 11.0180131,16.1465735 10.2606691,16.5200935 C9.86396507,16.6868895 9.44343307,16.8401615 8.97782107,16.9232375 C8.51800507,16.9966535 7.97768907,17.0121095 7.45926907,16.7603055 L7.27122107,16.6617735 L7.24803707,16.6488935 C7.10249307,16.5664615 7.20424507,16.6224895 7.16946907,16.6025255 L7.16302907,16.5960855 L7.13533707,16.5716135 L6.96982907,16.4234935 C6.90864907,16.3668215 6.82170907,16.2663575 6.76181707,16.1787735 C6.61305307,16.0042495 6.59566507,15.7975255 6.56217707,15.6017495 C6.57312507,15.4407495 6.59566507,15.2404655 6.64525307,15.1258335 C6.73798907,14.8572855 6.85777307,14.6685935 6.93505307,14.4509215 L7.16109707,13.8275295 C7.33111307,13.4340455 7.59644107,13.1532615 7.88237707,12.9046775 C8.16058507,12.6502975 8.41432107,12.3888335 8.66354907,12.1331655 C9.16973307,11.6308455 9.62439707,11.1182215 9.93609307,10.5605175 C10.0977371,10.2964775 10.1969131,9.94936154 10.2941571,9.64603754 C10.3978411,9.32210554 10.5266411,9.02071354 10.7005211,8.76633353 C11.0624491,8.26336953 11.4707451,7.83704153 11.9157491,7.50860153 C12.3601091,7.18917753 12.8334491,6.92127353 13.3583091,6.87490553 C13.6223491,6.86073753 13.8728651,6.91676553 14.0454571,7.01787353 C14.2244891,7.11576153 14.3333251,7.21751353 14.4202651,7.30380953 C14.5735371,7.47897753 14.6366491,7.57686553 14.6366491,7.57686553 L14.6855931,7.65350153 L14.6855931,7.65350153 Z" id="Fill-182-Copy"></path>
            </g>
            <g id="Group-7" transform="translate(14.000000, 62.000000) scale(-1, 1) translate(-14.000000, -62.000000) translate(0.000000, 47.000000)" fill="#424141">
                <path d="M19.1312171,0.124221541 C19.1312171,0.124221541 19.2162251,0.112629541 19.3810891,0.0894455408 C19.5472411,0.0752775408 19.7893851,0.0121655407 20.1152491,0.0128095407 C20.7560291,-0.0238984593 21.7497211,-0.0110184593 22.9108531,0.459745541 C24.0867971,0.886717542 25.3310051,1.89972954 26.2596531,3.36032154 C27.1915211,4.82026955 27.7762731,6.71427355 27.9256811,8.78280155 C28.0956971,10.8693616 27.5315531,13.0654016 26.9030091,15.2788296 C26.2648051,17.5070696 25.2962291,19.7636456 23.9071211,21.9081656 C23.2006531,22.9752736 22.3621651,23.9850656 21.4096891,24.9072736 C20.4630091,25.8320576 19.3727171,26.6544456 18.1407451,27.2166576 C17.5179971,27.4832736 16.8894531,27.7292816 16.2473851,27.9353616 C15.6098251,28.1472376 14.9819251,28.3816536 14.3366371,28.5709896 C13.0512131,28.9573896 11.7310131,29.2871176 10.3670211,29.4139856 C9.0062491,29.5376336 7.6074811,29.4880456 6.2505731,29.1402856 C5.5711531,28.9812176 4.9013931,28.7468016 4.2606131,28.4351056 C3.6185451,28.1292056 3.0041691,27.7325016 2.4657851,27.2321136 C1.8958451,26.7053216 1.4547051,26.1147736 1.1249771,25.5280896 L0.857717095,25.0856616 L0.623301095,24.6084576 L0.392749095,24.1261016 C0.331569095,23.9535096 0.275541095,23.7751216 0.220801095,23.5980216 C-0.0161909056,22.8992816 -0.0567629057,22.0826896 0.0720370945,21.3150416 C0.186669095,20.9505376 0.254933095,20.5531896 0.444269095,20.2382736 L0.695429095,19.7481896 C0.790097095,19.5994256 0.892493095,19.4583896 0.996177096,19.3173536 C1.8320891,18.2051656 2.8335091,17.4542616 3.7570051,16.6898336 C4.6837211,15.9292696 5.5331571,15.1480976 6.3568331,14.3875336 C8.0003211,12.8490176 9.4300011,11.3143656 10.5331731,9.74493755 C11.6530891,8.18323755 12.4935091,6.63828155 13.2650211,5.24337755 C14.0371771,3.85298154 14.8144851,2.60233354 15.7135091,1.75032154 C16.6144651,0.889937542 17.5662971,0.564717541 18.1903331,0.343181541 C18.7886091,0.203433541 19.1080331,0.128729541 19.1080331,0.128729541 L19.1312171,0.124221541 Z M19.2728971,0.832621542 C19.2728971,0.832621542 18.9534731,0.905393542 18.3551971,1.04320954 C17.8406411,1.23447754 17.0259811,1.53651354 16.3188691,2.34924154 C15.5898611,3.13170154 15.0205651,4.36045355 14.3237571,5.79786155 C13.6205091,7.23333755 12.7214851,8.86265755 11.4817851,10.4514056 C10.2556091,12.0568976 8.6662171,13.5529096 7.0240171,15.0933576 C6.2100011,15.8790376 5.3431771,16.6518376 4.5620051,17.5283216 C3.7937131,18.4080256 3.0447411,19.3559936 2.5321171,20.3046056 C2.4715811,20.4237456 2.4046051,20.5396656 2.3395611,20.6542976 L2.1991691,21.0046336 C2.0819611,21.2351856 2.0632851,21.4663816 1.9872931,21.6943576 C1.9319091,22.1541736 1.8797451,22.6249376 2.0162731,23.1401376 L2.0948411,23.5278256 L2.2371651,23.9225976 C2.2867531,24.0539736 2.3253931,24.1892136 2.3846411,24.3205896 L2.5875011,24.7127856 C2.8347971,25.2685576 3.1799811,25.7174256 3.5528571,26.0690496 C3.9495611,26.4580256 4.4280531,26.7864656 4.9529131,27.0492176 C5.4739091,27.3177656 6.0361211,27.5341496 6.6240931,27.6861336 C7.7961731,28.0029816 9.0455331,28.1169696 10.2987571,28.1195572 C12.8006971,28.1227656 15.4204891,27.4555816 17.3917731,25.8977456 C18.4073611,25.1899896 19.3965451,24.4912496 20.3187531,23.7120096 C21.2383851,22.9314816 22.0466051,22.0408296 22.7485651,21.0947936 C24.1408931,19.1885536 25.1777331,17.0639976 25.7508931,14.9542536 C26.3324251,12.8303416 26.2538571,10.7341216 26.1636971,8.89485755 C26.0587251,7.04271355 25.6781211,5.37668555 25.0450691,4.04424955 C24.3939851,2.72726954 23.4666251,1.78058954 22.5244531,1.31562154 C21.5861451,0.831333542 20.7135251,0.754053542 20.1403651,0.774017542 C19.8499211,0.759205542 19.6277411,0.810081542 19.4776891,0.815233542 C19.3276371,0.829401542 19.2497131,0.837129542 19.2497131,0.837129542 L19.2728971,0.832621542 L19.2728971,0.832621542 Z" id="Fill-181-Copy"></path>
                <path d="M14.0518971,8.00254953 C14.0499651,8.00061753 13.9965131,7.94458953 13.8979811,7.85829353 C13.7923651,7.77070953 13.6545491,7.72369753 13.5148011,7.79968953 C13.3589531,7.88276553 13.1348411,8.12877353 12.9216771,8.48876953 C12.6988531,8.86486553 12.4470491,9.28861754 12.1727051,9.75100954 C11.8861251,10.2166215 11.3322851,10.5862775 10.9581211,11.1826215 C10.5736531,11.7738135 10.1949811,12.4107295 9.76736507,13.0379855 C9.54904907,13.3425975 9.32751307,13.6530055 9.10275707,13.9666335 C8.89538907,14.2873455 8.65388907,14.5777895 8.33961707,14.7819375 C8.17346507,14.8824015 8.00731307,14.9712735 7.86627707,15.0813975 C7.73296907,15.1870135 7.64474107,15.3312695 7.61576107,15.4336655 C7.58227307,15.4961335 7.62348907,15.5012855 7.60481307,15.5296215 C7.63508107,15.5160975 7.61704907,15.5244695 7.62413307,15.4838975 C7.62735307,15.4703735 7.59579707,15.4536295 7.60481307,15.4620015 L7.74134107,15.5212495 L7.80960507,15.5508735 L7.84373707,15.5650415 L7.85210907,15.5689055 C7.82377307,15.5521615 7.92938907,15.6126975 7.78964107,15.5321975 L7.80123307,15.5321975 L7.88752907,15.5367055 C8.32673707,15.5560255 8.99070107,15.4046855 9.58640107,15.0865495 C9.88972507,14.9332775 10.1647131,14.7175375 10.4055691,14.4657335 C10.6535091,14.2255215 10.9149731,14.0194415 11.2279571,13.8719655 C11.5306371,13.7128975 11.8977171,13.6156535 12.1926691,13.4353335 C12.4979251,13.2666055 12.7078691,13.0077175 12.9197451,12.7694375 C13.3299731,12.2767775 13.6004531,11.7300215 13.8026691,11.2341415 C14.0055291,10.7363295 14.1433451,10.2881055 14.2405891,9.89526554 C14.3455611,9.50435754 14.4028771,9.15466554 14.3854891,8.85778153 C14.3462051,8.55252553 14.2901771,8.38122153 14.1916451,8.22022153 C14.1182291,8.10623353 14.0718611,8.03410553 14.0518971,8.00254953 Z M14.6855931,7.65350153 C14.7100651,7.69342953 14.7480611,7.75396553 14.7995811,7.83575353 C14.8923171,7.98516153 15.0687731,8.30522953 15.2027251,8.66136153 C15.3341011,9.03037354 15.4616131,9.52045754 15.4223291,10.0730095 C15.3817571,10.6236295 15.1808291,11.2083815 14.8620491,11.7596455 C14.5419811,12.3147735 14.1117891,12.8351255 13.6732251,13.3831695 C13.4607051,13.6652415 13.2134091,13.9254175 13.0182771,14.2525695 C12.8212131,14.5784335 12.6511971,14.9616135 12.3948851,15.2765295 C11.9022251,15.9469335 11.0180131,16.1465735 10.2606691,16.5200935 C9.86396507,16.6868895 9.44343307,16.8401615 8.97782107,16.9232375 C8.51800507,16.9966535 7.97768907,17.0121095 7.45926907,16.7603055 L7.27122107,16.6617735 L7.24803707,16.6488935 C7.10249307,16.5664615 7.20424507,16.6224895 7.16946907,16.6025255 L7.16302907,16.5960855 L7.13533707,16.5716135 L6.96982907,16.4234935 C6.90864907,16.3668215 6.82170907,16.2663575 6.76181707,16.1787735 C6.61305307,16.0042495 6.59566507,15.7975255 6.56217707,15.6017495 C6.57312507,15.4407495 6.59566507,15.2404655 6.64525307,15.1258335 C6.73798907,14.8572855 6.85777307,14.6685935 6.93505307,14.4509215 L7.16109707,13.8275295 C7.33111307,13.4340455 7.59644107,13.1532615 7.88237707,12.9046775 C8.16058507,12.6502975 8.41432107,12.3888335 8.66354907,12.1331655 C9.16973307,11.6308455 9.62439707,11.1182215 9.93609307,10.5605175 C10.0977371,10.2964775 10.1969131,9.94936154 10.2941571,9.64603754 C10.3978411,9.32210554 10.5266411,9.02071354 10.7005211,8.76633353 C11.0624491,8.26336953 11.4707451,7.83704153 11.9157491,7.50860153 C12.3601091,7.18917753 12.8334491,6.92127353 13.3583091,6.87490553 C13.6223491,6.86073753 13.8728651,6.91676553 14.0454571,7.01787353 C14.2244891,7.11576153 14.3333251,7.21751353 14.4202651,7.30380953 C14.5735371,7.47897753 14.6366491,7.57686553 14.6366491,7.57686553 L14.6855931,7.65350153 L14.6855931,7.65350153 Z" id="Fill-182-Copy"></path>
            </g>
            <g id="Group-8" transform="translate(49.000000, 0.000000)" fill="#424141">
                <path d="M1.48972404,26.0058556 C1.48972404,26.0058556 1.52385604,26.0721876 1.59083204,26.2009876 C1.66296004,26.3265676 1.74474804,26.5281396 1.89673204,26.7625556 C2.17558404,27.2423356 2.66438004,27.9204676 3.47453204,28.5361316 C4.29370004,29.1266796 5.45096804,29.6341516 6.83878804,29.6483196 C8.21115205,29.6695716 9.77993605,29.2599876 11.167756,28.3500156 C12.5079201,27.4439076 13.9266521,26.1140476 13.8010721,24.0210476 C13.7933441,22.8921156 13.9794601,21.7129516 14.3697241,20.5659876 C14.7593441,19.4158036 15.4065641,18.3480516 16.1407241,17.3801196 C16.8729521,16.4051036 17.6914761,15.5125196 18.4662081,14.6044796 L19.0477401,13.9211956 L19.3439801,13.5747236 L19.6022241,13.2559436 L19.8611121,12.9378076 C19.9371041,12.8238196 20.0124521,12.7085436 20.0942401,12.5964876 C20.2603921,12.3749516 20.4098001,12.1392476 20.5559881,11.8971036 C20.8721921,11.4256955 21.1214201,10.9001915 21.3339401,10.3534355 C21.4395561,10.0790915 21.4955841,9.78929155 21.5638481,9.50271155 C21.6198761,9.21355555 21.6372641,8.91731555 21.6733281,8.62365155 C21.7448121,7.44255555 21.5297161,6.24535954 21.1001681,5.17825154 C20.6796361,4.10083954 20.0272641,3.18378354 19.1630161,2.53334354 C18.3064961,1.88225954 17.2104081,1.60018754 16.1329961,1.59310354 C15.0433481,1.57635954 13.9620721,1.92733954 12.9980041,2.44575954 C12.0223441,2.95065554 11.119456,3.58692754 10.230092,4.24702754 C10.008556,4.41317954 9.78830805,4.58126354 9.55711205,4.73839954 L8.91375605,5.27163154 C8.47197205,5.61810354 8.08750405,6.00514754 7.69659605,6.38897154 C7.30375605,6.75991554 6.96694404,7.22423955 6.62884404,7.65571955 L6.38219204,7.98544755 L6.26820404,8.13678755 L6.15550404,8.30422755 C6.00545204,8.52769555 5.85668804,8.74923155 5.70921204,8.96947955 C4.55130004,10.7501395 3.66451204,12.5591356 2.97221204,14.2625156 C2.27926804,15.9678276 1.77566004,17.5720316 1.43047604,19.0107276 C1.08014004,20.4481356 0.889516038,21.7303396 0.890804038,22.7877876 C0.855384038,23.8548956 1.05824404,24.6611836 1.18704404,25.1834676 C1.38926004,25.7321556 1.49745204,26.0251756 1.49745204,26.0251756 L1.48972404,26.0058556 Z M0.819964038,26.2763356 C0.819964038,26.2763356 0.712416038,25.9826716 0.511488038,25.4314076 C0.354996037,24.8215396 0.110920037,23.9482756 0.040080037,22.8199876 C-0.0365559631,21.6929876 -0.0236759631,20.3070996 0.261616037,18.7634316 C0.546908038,17.2210516 1.09237604,15.5331276 1.88642804,13.7949716 C2.67854804,12.0542396 3.71152404,10.2658515 4.89390804,8.44139955 C5.04138404,8.21277955 5.18950404,7.98222755 5.33891204,7.75103155 L5.45032404,7.57650755 L5.57848004,7.39618755 L5.81804804,7.06066354 C6.14069204,6.60986354 6.42340804,6.14167554 6.78340404,5.67091154 C7.11957204,5.19177554 7.44672405,4.68559154 7.83376805,4.23092754 C8.02181605,3.99522354 8.21115205,3.75887554 8.40113205,3.52123954 C8.60721205,3.29519554 8.82617205,3.07816754 9.04448805,2.85791954 C9.46759605,2.40454354 9.99632005,2.04454754 10.500572,1.65879154 C11.050548,1.32455554 11.608252,0.998047538 12.2271361,0.761699538 C13.4468721,0.275479537 14.7818841,-0.020760463 16.1581121,0.001135537 C17.5240361,0.039131537 18.9498521,0.442919537 20.0665481,1.33421554 L20.4767761,1.67360354 L20.5276521,1.71610754 L20.5836801,1.77149154 L20.6036441,1.79338754 L20.6828561,1.87903954 L20.8419241,2.05034354 C21.0473601,2.25127154 21.2817761,2.57842354 21.4859241,2.87981554 C21.8536481,3.48517554 22.1434481,4.10148354 22.3257001,4.75578754 C22.7017961,6.05666754 22.7745681,7.38974755 22.6889161,8.69320355 L22.5820121,9.66757555 C22.5176121,9.98699955 22.4937841,10.3160835 22.4229441,10.6361515 C22.3121761,11.2840155 22.1582601,11.9344556 21.9199801,12.5610676 C21.8001961,12.8746956 21.6675321,13.1844596 21.4878561,13.4703956 C21.3345841,13.7724316 21.1317241,14.0416236 20.9224241,14.3063076 C20.8174521,14.4370396 20.7221401,14.5806516 20.6087961,14.7004356 L20.2990321,15.0340276 C20.0968161,15.2568516 19.8759241,15.4770996 19.6614721,15.6954156 C18.8075281,16.5667476 17.9754801,17.3981516 17.2496921,18.2604676 C16.5232601,19.1202076 15.9082401,20.0192316 15.5347201,20.9987556 C15.1380161,21.9692636 15.0034201,23.0080356 14.9976241,24.0249116 C14.9982681,24.2986116 14.9989121,24.5703796 14.9995561,24.8402156 C14.9860321,25.1132716 14.9654241,25.4777756 14.8984481,25.7514756 C14.8031361,26.3400916 14.5964121,26.8971516 14.3336601,27.4091316 C13.8139521,28.4459716 13.0083081,29.2567676 12.1331121,29.8286396 C10.357604,30.9498436 8.37988005,31.2789276 6.72351204,31.0380716 C5.04911204,30.8242636 3.73406404,30.0482436 2.87561204,29.2593436 C2.00814404,28.4620716 1.52900804,27.6751036 1.23598804,27.1399396 C1.08078404,26.8746116 1.00028404,26.6537196 0.928156038,26.5133276 C0.861824038,26.3703596 0.827692038,26.2962996 0.827692038,26.2962996 L0.819964038,26.2763356 L0.819964038,26.2763356 Z" id="Fill-189-Copy"></path>
                <path d="M16.2347481,13.9385836 C15.1148321,13.8348996 13.9891201,14.7042996 13.2285561,15.4159196 C12.2310001,16.3490756 11.576696,17.6138916 11.481384,18.9778836 C11.3938,20.2298196 12.1930041,22.1618196 13.5911281,22.2719436 C13.9182801,22.2977036 14.0915161,21.9557396 14.0425721,21.6794636 C13.8757761,20.7463076 12.9754641,20.2143636 12.8898121,19.1961996 C12.8118881,18.2720596 13.3090561,17.3749676 13.8809281,16.6891076 C14.3703681,16.1024236 14.9841001,15.6496916 15.6718921,15.3251156 C16.2733881,15.0417556 16.4395401,15.2562076 16.9573161,15.4764556 C17.1189601,15.5460076 17.2651481,15.5157396 17.3688321,15.3689076 C17.9200961,14.5883796 16.8716641,13.9978316 16.2347481,13.9385836" id="Fill-193-Copy"></path>
            </g>
            <g id="Group-8" transform="translate(33.500000, 114.000000) scale(-1, 1) translate(-33.500000, -114.000000) translate(22.000000, 98.000000)" fill="#424141">
                <path d="M1.48972404,26.0058556 C1.48972404,26.0058556 1.52385604,26.0721876 1.59083204,26.2009876 C1.66296004,26.3265676 1.74474804,26.5281396 1.89673204,26.7625556 C2.17558404,27.2423356 2.66438004,27.9204676 3.47453204,28.5361316 C4.29370004,29.1266796 5.45096804,29.6341516 6.83878804,29.6483196 C8.21115205,29.6695716 9.77993605,29.2599876 11.167756,28.3500156 C12.5079201,27.4439076 13.9266521,26.1140476 13.8010721,24.0210476 C13.7933441,22.8921156 13.9794601,21.7129516 14.3697241,20.5659876 C14.7593441,19.4158036 15.4065641,18.3480516 16.1407241,17.3801196 C16.8729521,16.4051036 17.6914761,15.5125196 18.4662081,14.6044796 L19.0477401,13.9211956 L19.3439801,13.5747236 L19.6022241,13.2559436 L19.8611121,12.9378076 C19.9371041,12.8238196 20.0124521,12.7085436 20.0942401,12.5964876 C20.2603921,12.3749516 20.4098001,12.1392476 20.5559881,11.8971036 C20.8721921,11.4256955 21.1214201,10.9001915 21.3339401,10.3534355 C21.4395561,10.0790915 21.4955841,9.78929155 21.5638481,9.50271155 C21.6198761,9.21355555 21.6372641,8.91731555 21.6733281,8.62365155 C21.7448121,7.44255555 21.5297161,6.24535954 21.1001681,5.17825154 C20.6796361,4.10083954 20.0272641,3.18378354 19.1630161,2.53334354 C18.3064961,1.88225954 17.2104081,1.60018754 16.1329961,1.59310354 C15.0433481,1.57635954 13.9620721,1.92733954 12.9980041,2.44575954 C12.0223441,2.95065554 11.119456,3.58692754 10.230092,4.24702754 C10.008556,4.41317954 9.78830805,4.58126354 9.55711205,4.73839954 L8.91375605,5.27163154 C8.47197205,5.61810354 8.08750405,6.00514754 7.69659605,6.38897154 C7.30375605,6.75991554 6.96694404,7.22423955 6.62884404,7.65571955 L6.38219204,7.98544755 L6.26820404,8.13678755 L6.15550404,8.30422755 C6.00545204,8.52769555 5.85668804,8.74923155 5.70921204,8.96947955 C4.55130004,10.7501395 3.66451204,12.5591356 2.97221204,14.2625156 C2.27926804,15.9678276 1.77566004,17.5720316 1.43047604,19.0107276 C1.08014004,20.4481356 0.889516038,21.7303396 0.890804038,22.7877876 C0.855384038,23.8548956 1.05824404,24.6611836 1.18704404,25.1834676 C1.38926004,25.7321556 1.49745204,26.0251756 1.49745204,26.0251756 L1.48972404,26.0058556 Z M0.819964038,26.2763356 C0.819964038,26.2763356 0.712416038,25.9826716 0.511488038,25.4314076 C0.354996037,24.8215396 0.110920037,23.9482756 0.040080037,22.8199876 C-0.0365559631,21.6929876 -0.0236759631,20.3070996 0.261616037,18.7634316 C0.546908038,17.2210516 1.09237604,15.5331276 1.88642804,13.7949716 C2.67854804,12.0542396 3.71152404,10.2658515 4.89390804,8.44139955 C5.04138404,8.21277955 5.18950404,7.98222755 5.33891204,7.75103155 L5.45032404,7.57650755 L5.57848004,7.39618755 L5.81804804,7.06066354 C6.14069204,6.60986354 6.42340804,6.14167554 6.78340404,5.67091154 C7.11957204,5.19177554 7.44672405,4.68559154 7.83376805,4.23092754 C8.02181605,3.99522354 8.21115205,3.75887554 8.40113205,3.52123954 C8.60721205,3.29519554 8.82617205,3.07816754 9.04448805,2.85791954 C9.46759605,2.40454354 9.99632005,2.04454754 10.500572,1.65879154 C11.050548,1.32455554 11.608252,0.998047538 12.2271361,0.761699538 C13.4468721,0.275479537 14.7818841,-0.020760463 16.1581121,0.001135537 C17.5240361,0.039131537 18.9498521,0.442919537 20.0665481,1.33421554 L20.4767761,1.67360354 L20.5276521,1.71610754 L20.5836801,1.77149154 L20.6036441,1.79338754 L20.6828561,1.87903954 L20.8419241,2.05034354 C21.0473601,2.25127154 21.2817761,2.57842354 21.4859241,2.87981554 C21.8536481,3.48517554 22.1434481,4.10148354 22.3257001,4.75578754 C22.7017961,6.05666754 22.7745681,7.38974755 22.6889161,8.69320355 L22.5820121,9.66757555 C22.5176121,9.98699955 22.4937841,10.3160835 22.4229441,10.6361515 C22.3121761,11.2840155 22.1582601,11.9344556 21.9199801,12.5610676 C21.8001961,12.8746956 21.6675321,13.1844596 21.4878561,13.4703956 C21.3345841,13.7724316 21.1317241,14.0416236 20.9224241,14.3063076 C20.8174521,14.4370396 20.7221401,14.5806516 20.6087961,14.7004356 L20.2990321,15.0340276 C20.0968161,15.2568516 19.8759241,15.4770996 19.6614721,15.6954156 C18.8075281,16.5667476 17.9754801,17.3981516 17.2496921,18.2604676 C16.5232601,19.1202076 15.9082401,20.0192316 15.5347201,20.9987556 C15.1380161,21.9692636 15.0034201,23.0080356 14.9976241,24.0249116 C14.9982681,24.2986116 14.9989121,24.5703796 14.9995561,24.8402156 C14.9860321,25.1132716 14.9654241,25.4777756 14.8984481,25.7514756 C14.8031361,26.3400916 14.5964121,26.8971516 14.3336601,27.4091316 C13.8139521,28.4459716 13.0083081,29.2567676 12.1331121,29.8286396 C10.357604,30.9498436 8.37988005,31.2789276 6.72351204,31.0380716 C5.04911204,30.8242636 3.73406404,30.0482436 2.87561204,29.2593436 C2.00814404,28.4620716 1.52900804,27.6751036 1.23598804,27.1399396 C1.08078404,26.8746116 1.00028404,26.6537196 0.928156038,26.5133276 C0.861824038,26.3703596 0.827692038,26.2962996 0.827692038,26.2962996 L0.819964038,26.2763356 L0.819964038,26.2763356 Z" id="Fill-189-Copy"></path>
                <path d="M16.2347481,13.9385836 C15.1148321,13.8348996 13.9891201,14.7042996 13.2285561,15.4159196 C12.2310001,16.3490756 11.576696,17.6138916 11.481384,18.9778836 C11.3938,20.2298196 12.1930041,22.1618196 13.5911281,22.2719436 C13.9182801,22.2977036 14.0915161,21.9557396 14.0425721,21.6794636 C13.8757761,20.7463076 12.9754641,20.2143636 12.8898121,19.1961996 C12.8118881,18.2720596 13.3090561,17.3749676 13.8809281,16.6891076 C14.3703681,16.1024236 14.9841001,15.6496916 15.6718921,15.3251156 C16.2733881,15.0417556 16.4395401,15.2562076 16.9573161,15.4764556 C17.1189601,15.5460076 17.2651481,15.5157396 17.3688321,15.3689076 C17.9200961,14.5883796 16.8716641,13.9978316 16.2347481,13.9385836" id="Fill-193-Copy"></path>
            </g>
        </g>
    </g>
</svg>