<?xml version="1.0" encoding="UTF-8"?>
<svg width="235px" height="152px" viewBox="0 0 235 152" version="1.1" xmlns="http://www.w3.org/2000/svg" xmlns:xlink="http://www.w3.org/1999/xlink">
    <title>quinoa and beans</title>
    <g id="quinoa-and-beans" stroke="none" stroke-width="1" fill="none" fill-rule="evenodd">
        <g id="Group-3-Copy" transform="translate(61.000000, 100.000000) scale(1, -1) rotate(17.000000) translate(-61.000000, -100.000000) translate(13.000000, 51.000000)" fill="#424141" fill-rule="nonzero">
            <path d="M53.798468,74.1943425 C55.171218,69.9025925 58.116713,64.2842234 61.271963,61.0672234 C64.900963,57.5284734 69.383963,54.9892234 74.285213,53.6964734 C82.536713,51.6337234 89.456713,46.0339734 93.195213,38.3939734 C95.544713,33.1197234 95.643213,27.1154734 93.467963,21.7669734 C90.347713,13.8527234 84.339463,7.4182234 76.657213,3.7637234 C62.722213,-2.5252766 46.240213,1.9312234 27.667463,17.0074734 C23.832463,20.1227234 20.329463,23.6257234 17.214213,27.4607234 C5.33146305,42.0997234 -0.52898508,53.9853073 1.3429922,66.9887083 C3.21496949,79.9921093 5.21906359,88.4761316 14.3051525,93.3869185 C18.5125084,95.6608812 23.7565377,97.79375 31.2727432,96.9081895 C38.8917898,96.0105122 46.3910919,91.5125278 48.9125873,88.2884648 C53.294299,82.6858711 52.425718,78.4860925 53.798468,74.1943425 Z M5.67767901,68.133381 C3.81390866,56.0360308 6.56246305,47.3604734 20.539963,30.1444734 C23.465463,26.5452234 26.753963,23.2567234 30.353213,20.3312234 C42.688213,10.3087234 53.875463,5.28578957 63.765463,5.28578957 C67.603713,5.2684734 71.400963,6.0759734 74.899213,7.6549734 C81.557963,10.8179734 86.766963,16.3919734 89.471963,23.2497234 C91.217463,27.5372234 91.162213,32.3472234 89.318463,36.5934734 C86.107713,43.0907234 80.193463,47.8402234 73.156213,49.5727234 C61.669713,52.4867234 52.798957,60.920991 49.889207,72.408491 C49.2811625,78.0302914 47.850299,82.2704736 45.5966164,85.1290378 C42.2160925,89.4168839 35.1176256,92.9668791 27.0050651,92.8252739 C18.8925046,92.6836686 13.4686736,89.3909866 9.57642666,82.726107 C7.84724035,79.765139 6.54765781,74.900897 5.67767901,68.133381 Z" id="Shape" transform="translate(48.015612, 49.056621) rotate(-181.000000) translate(-48.015612, -49.056621) "></path>
            <path d="M38.9404415,67.4903878 C37.7144415,67.5626378 36.4989415,67.7613878 35.3136915,68.0833878 C29.4406915,69.6791378 26.0486915,72.5421378 25.2294415,76.5911378 C24.7939415,78.9148878 25.2706915,81.3171378 26.5606915,83.2983878 C27.4959415,84.7736378 28.9934415,85.8023878 30.7056915,86.1463878 C31.1724415,86.2358878 31.6469415,86.2808878 32.1221915,86.2808878 C34.0371915,86.2601378 35.8866915,85.5823878 37.3616915,84.3608878 C38.6939415,83.2201378 40.5509415,82.9173878 42.1766915,83.5758878 C44.4201915,84.4541378 46.9366915,84.2978878 49.0544415,83.1491378 C50.5694415,82.2778878 51.6636915,80.8263878 52.0836915,79.1298878 C52.6726915,76.8413878 52.3571915,74.4141378 51.2026915,72.3523878 C49.1441915,68.7726378 45.0161915,67.1298878 38.9404415,67.4903878 Z M47.9624415,78.0098878 L47.9624415,78.0078878 C47.8356915,78.6016378 47.4719415,79.1178878 46.9554415,79.4371378 C45.9316915,79.9638878 44.7281915,80.0146378 43.6636915,79.5758878 C40.6221915,78.3901378 37.1764415,78.9523878 34.6694415,81.0436378 C33.8001915,81.7981378 32.6431915,82.1318878 31.5056915,81.9566378 C30.9139415,81.8188878 30.4044415,81.4451378 30.0954415,80.9218878 C29.4454415,79.8848878 29.1994415,78.6448878 29.4041915,77.4381378 C29.8776915,75.0913878 32.2394415,73.3378878 36.4249415,72.2008878 C37.3314415,71.9553878 38.2606915,71.8046378 39.1981915,71.7508878 C39.6631915,71.7223878 40.1111915,71.7081378 40.5421915,71.7081378 C44.1111915,71.7081378 46.4536915,72.6403878 47.5181915,74.4813878 C48.0946915,75.5631378 48.2526915,76.8191378 47.9624415,78.0098878 Z" id="Shape" transform="translate(38.722898, 76.861286) rotate(-181.000000) translate(-38.722898, -76.861286) "></path>
        </g>
        <g id="Group-3-Copy-2" transform="translate(188.998047, 65.593750) scale(-1, 1) rotate(-29.000000) translate(-188.998047, -65.593750) translate(140.998047, 16.593750)" fill="#424141" fill-rule="nonzero">
            <path d="M53.798468,74.1943425 C55.171218,69.9025925 58.116713,64.2842234 61.271963,61.0672234 C64.900963,57.5284734 69.383963,54.9892234 74.285213,53.6964734 C82.536713,51.6337234 89.456713,46.0339734 93.195213,38.3939734 C95.544713,33.1197234 95.643213,27.1154734 93.467963,21.7669734 C90.347713,13.8527234 84.339463,7.4182234 76.657213,3.7637234 C62.722213,-2.5252766 46.240213,1.9312234 27.667463,17.0074734 C23.832463,20.1227234 20.329463,23.6257234 17.214213,27.4607234 C5.33146305,42.0997234 -0.52898508,53.9853073 1.3429922,66.9887083 C3.21496949,79.9921093 5.21906359,88.4761316 14.3051525,93.3869185 C18.5125084,95.6608812 23.7565377,97.79375 31.2727432,96.9081895 C38.8917898,96.0105122 46.3910919,91.5125278 48.9125873,88.2884648 C53.294299,82.6858711 52.425718,78.4860925 53.798468,74.1943425 Z M5.67767901,68.133381 C3.81390866,56.0360308 6.56246305,47.3604734 20.539963,30.1444734 C23.465463,26.5452234 26.753963,23.2567234 30.353213,20.3312234 C42.688213,10.3087234 53.875463,5.28578957 63.765463,5.28578957 C67.603713,5.2684734 71.400963,6.0759734 74.899213,7.6549734 C81.557963,10.8179734 86.766963,16.3919734 89.471963,23.2497234 C91.217463,27.5372234 91.162213,32.3472234 89.318463,36.5934734 C86.107713,43.0907234 80.193463,47.8402234 73.156213,49.5727234 C61.669713,52.4867234 52.798957,60.920991 49.889207,72.408491 C49.2811625,78.0302914 47.850299,82.2704736 45.5966164,85.1290378 C42.2160925,89.4168839 35.1176256,92.9668791 27.0050651,92.8252739 C18.8925046,92.6836686 13.4686736,89.3909866 9.57642666,82.726107 C7.84724035,79.765139 6.54765781,74.900897 5.67767901,68.133381 Z" id="Shape" transform="translate(48.015612, 49.056621) rotate(-181.000000) translate(-48.015612, -49.056621) "></path>
            <path d="M38.9404415,67.4903878 C37.7144415,67.5626378 36.4989415,67.7613878 35.3136915,68.0833878 C29.4406915,69.6791378 26.0486915,72.5421378 25.2294415,76.5911378 C24.7939415,78.9148878 25.2706915,81.3171378 26.5606915,83.2983878 C27.4959415,84.7736378 28.9934415,85.8023878 30.7056915,86.1463878 C31.1724415,86.2358878 31.6469415,86.2808878 32.1221915,86.2808878 C34.0371915,86.2601378 35.8866915,85.5823878 37.3616915,84.3608878 C38.6939415,83.2201378 40.5509415,82.9173878 42.1766915,83.5758878 C44.4201915,84.4541378 46.9366915,84.2978878 49.0544415,83.1491378 C50.5694415,82.2778878 51.6636915,80.8263878 52.0836915,79.1298878 C52.6726915,76.8413878 52.3571915,74.4141378 51.2026915,72.3523878 C49.1441915,68.7726378 45.0161915,67.1298878 38.9404415,67.4903878 Z M47.9624415,78.0098878 L47.9624415,78.0078878 C47.8356915,78.6016378 47.4719415,79.1178878 46.9554415,79.4371378 C45.9316915,79.9638878 44.7281915,80.0146378 43.6636915,79.5758878 C40.6221915,78.3901378 37.1764415,78.9523878 34.6694415,81.0436378 C33.8001915,81.7981378 32.6431915,82.1318878 31.5056915,81.9566378 C30.9139415,81.8188878 30.4044415,81.4451378 30.0954415,80.9218878 C29.4454415,79.8848878 29.1994415,78.6448878 29.4041915,77.4381378 C29.8776915,75.0913878 32.2394415,73.3378878 36.4249415,72.2008878 C37.3314415,71.9553878 38.2606915,71.8046378 39.1981915,71.7508878 C39.6631915,71.7223878 40.1111915,71.7081378 40.5421915,71.7081378 C44.1111915,71.7081378 46.4536915,72.6403878 47.5181915,74.4813878 C48.0946915,75.5631378 48.2526915,76.8191378 47.9624415,78.0098878 Z" id="Shape" transform="translate(38.722898, 76.861286) rotate(-181.000000) translate(-38.722898, -76.861286) "></path>
            <path d="M67.2529882,56.7843812 C64.2977382,53.9666312 59.6504882,53.9666312 56.6952382,56.7843812 C53.7794882,59.7003812 53.7797382,64.4278812 56.6954882,67.3436312 C59.6114882,70.2593812 64.3389882,70.2593812 67.2547382,67.3436312 C70.1707382,64.4278812 70.1707382,59.7003812 67.2549882,56.7843812 L67.2529882,56.7843812 L67.2529882,56.7843812 Z M64.2362382,64.3278812 C62.9862382,65.5768812 60.9604882,65.5766312 59.7112382,64.3268812 C58.4619882,63.0773812 58.4619882,61.0513812 59.7112382,59.8018812 C60.9604882,58.5523812 62.9862382,58.5518812 64.2362382,59.8008812 C64.8367382,60.4011312 65.1742382,61.2153812 65.1742382,62.0643812 C65.1742382,62.9133812 64.8369882,63.7276312 64.2362382,64.3278812 Z" id="Shape"></path>
        </g>
        <path d="M122.38977,65.7085736 C121.16377,65.7808236 121.285622,65.7294057 120.100372,66.0514057 C114.227372,67.6471557 111.817767,71.5274558 110.998517,75.5764558 C110.563017,77.9002058 111.039767,80.3024558 112.329767,82.2837058 C113.265017,83.7589558 114.762517,84.7877058 116.474767,85.1317058 C116.941517,85.2212058 117.416017,85.2662058 117.891267,85.2662058 C119.806267,85.2454558 121.388598,83.6890745 122.863598,82.4675745 C123.256292,81.0585813 124.842044,81.4183487 125.292723,81.9680952 C127.536223,82.8463452 129.706224,83.2308486 131.823974,82.0820986 C133.338974,81.2108486 134.433224,79.7593486 134.853224,78.0628486 C135.442224,75.7743486 135.126724,73.3470986 133.972224,71.2853486 C131.913724,67.7055986 128.46552,65.3480736 122.38977,65.7085736 Z M130.731974,76.9428486 C130.605224,77.5345986 130.241474,78.0508486 129.724974,78.3700986 C128.701224,78.8968486 126.769205,78.7386746 125.704705,78.2999246 C122.663205,77.1141746 122.655896,77.5328901 120.9134,79.9953344 C120.04415,80.7498344 118.412267,81.1172058 117.274767,80.9419558 C116.683017,80.8042058 116.173517,80.4304558 115.864517,79.9072058 C115.214517,78.8702058 114.968517,77.6302058 115.173267,76.4234558 C115.646767,74.0767058 116.427847,71.1499431 120.613347,70.0129431 C121.519847,69.7674431 122.898176,69.6412509 123.329176,69.6412509 C126.898176,69.6412509 129.223224,71.5733486 130.287724,73.4143486 C130.864224,74.4960986 131.022224,75.7520986 130.731974,76.9428486 Z" id="Shape" fill="#424141" fill-rule="nonzero" transform="translate(122.992202, 75.469235) rotate(-181.000000) translate(-122.992202, -75.469235) "></path>
        <path d="M141.548554,91.0363093 C140.322554,91.1085593 140.444406,91.0571415 139.259156,91.3791415 C133.386156,92.9748915 130.976551,96.8551916 130.157301,100.904192 C129.721801,103.227942 130.198551,105.630192 131.488551,107.611442 C132.423801,109.086692 133.921301,110.115442 135.633551,110.459442 C136.100301,110.548942 136.574801,110.593942 137.050051,110.593942 C138.965051,110.573192 140.547382,109.01681 142.022382,107.79531 C142.415076,106.386317 144.000828,106.746084 144.451508,107.295831 C146.695008,108.174081 148.865008,108.558584 150.982758,107.409834 C152.497758,106.538584 153.592008,105.087084 154.012008,103.390584 C154.601008,101.102084 154.285508,98.6748344 153.131008,96.6130844 C151.072508,93.0333344 147.624304,90.6758093 141.548554,91.0363093 Z M149.890758,102.270584 C149.764008,102.862334 149.400258,103.378584 148.883758,103.697834 C147.860008,104.224584 145.927989,104.06641 144.863489,103.62766 C141.821989,102.44191 141.81468,102.860626 140.072184,105.32307 C139.202934,106.07757 137.571051,106.444942 136.433551,106.269692 C135.841801,106.131942 135.332301,105.758192 135.023301,105.234942 C134.373301,104.197942 134.127301,102.957942 134.332051,101.751192 C134.805551,99.4044416 135.586631,96.4776788 139.772131,95.3406788 C140.678631,95.0951788 142.05696,94.9689867 142.48796,94.9689867 C146.05696,94.9689867 148.382008,96.9010844 149.446508,98.7420844 C150.023008,99.8238344 150.181008,101.079834 149.890758,102.270584 Z" id="Shape-Copy-7" fill="#424141" fill-rule="nonzero" transform="translate(142.150986, 100.796971) rotate(-61.000000) translate(-142.150986, -100.796971) "></path>
        <path d="M112.548554,32.0363093 C111.322554,32.1085593 111.444406,32.0571415 110.259156,32.3791415 C104.386156,33.9748915 101.976551,37.8551916 101.157301,41.9041916 C100.721801,44.2279416 101.198551,46.6301916 102.488551,48.6114416 C103.423801,50.0866916 104.921301,51.1154416 106.633551,51.4594416 C107.100301,51.5489416 107.574801,51.5939416 108.050051,51.5939416 C109.965051,51.5731916 111.547382,50.0168103 113.022382,48.7953103 C113.415076,47.3863171 115.000828,47.7460845 115.451508,48.295831 C117.695008,49.174081 119.865008,49.5585844 121.982758,48.4098344 C123.497758,47.5385844 124.592008,46.0870844 125.012008,44.3905844 C125.601008,42.1020844 125.285508,39.6748344 124.131008,37.6130844 C122.072508,34.0333344 118.624304,31.6758093 112.548554,32.0363093 Z M120.890758,43.2705844 C120.764008,43.8623344 120.400258,44.3785844 119.883758,44.6978344 C118.860008,45.2245844 116.927989,45.0664103 115.863489,44.6276603 C112.821989,43.4419103 112.81468,43.8606259 111.072184,46.3230702 C110.202934,47.0775702 108.571051,47.4449416 107.433551,47.2696916 C106.841801,47.1319416 106.332301,46.7581916 106.023301,46.2349416 C105.373301,45.1979416 105.127301,43.9579416 105.332051,42.7511916 C105.805551,40.4044416 106.586631,37.4776788 110.772131,36.3406788 C111.678631,36.0951788 113.05696,35.9689867 113.48796,35.9689867 C117.05696,35.9689867 119.382008,37.9010844 120.446508,39.7420844 C121.023008,40.8238344 121.181008,42.0798344 120.890758,43.2705844 Z" id="Shape-Copy-6" fill="#424141" fill-rule="nonzero" transform="translate(113.150986, 41.796971) rotate(-181.000000) translate(-113.150986, -41.796971) "></path>
        <path d="M122.957486,49.2468811 C121.731486,49.3191311 121.853338,49.2677133 120.668088,49.5897133 C114.795088,51.1854633 112.385484,55.0657634 111.566234,59.1147634 C111.130734,61.4385134 111.607484,63.8407634 112.897484,65.8220134 C113.832734,67.2972634 115.330234,68.3260134 117.042484,68.6700134 C117.509234,68.7595134 117.983734,68.8045134 118.458984,68.8045134 C120.373984,68.7837634 121.956314,67.2273821 123.431314,66.0058821 C123.824009,64.5968889 125.409761,64.9566563 125.86044,65.5064028 C128.10394,66.3846528 130.273941,66.7691562 132.391691,65.6204062 C133.906691,64.7491562 135.000941,63.2976562 135.420941,61.6011562 C136.009941,59.3126562 135.694441,56.8854062 134.539941,54.8236562 C132.481441,51.2439062 129.033236,48.8863811 122.957486,49.2468811 Z M131.299691,60.4811562 C131.172941,61.0729062 130.809191,61.5891562 130.292691,61.9084062 C129.268941,62.4351562 127.336922,62.2769821 126.272422,61.8382321 C123.230922,60.6524821 123.223613,61.0711977 121.481117,63.533642 C120.611867,64.288142 118.979984,64.6555134 117.842484,64.4802634 C117.250734,64.3425134 116.741234,63.9687634 116.432234,63.4455134 C115.782234,62.4085134 115.536234,61.1685134 115.740984,59.9617634 C116.214484,57.6150134 116.995564,54.6882507 121.181064,53.5512507 C122.087564,53.3057507 123.465893,53.1795585 123.896893,53.1795585 C127.465893,53.1795585 129.790941,55.1116562 130.855441,56.9526562 C131.431941,58.0344062 131.589941,59.2904062 131.299691,60.4811562 Z" id="Shape-Copy" fill="#424141" fill-rule="nonzero" transform="translate(123.559919, 59.007543) rotate(-240.000000) translate(-123.559919, -59.007543) "></path>
        <path d="M93.9574864,36.2468811 C92.7314864,36.3191311 92.8533383,36.2677133 91.6680883,36.5897133 C85.7950883,38.1854633 83.3854836,42.0657634 82.5662336,46.1147634 C82.1307336,48.4385134 82.6074836,50.8407634 83.8974836,52.8220134 C84.8327336,54.2972634 86.3302336,55.3260134 88.0424836,55.6700134 C88.5092336,55.7595134 88.9837336,55.8045134 89.4589836,55.8045134 C91.3739836,55.7837634 92.9563143,54.2273821 94.4313143,53.0058821 C94.824009,51.5968889 96.4097607,51.9566563 96.86044,52.5064028 C99.10394,53.3846528 101.273941,53.7691562 103.391691,52.6204062 C104.906691,51.7491562 106.000941,50.2976562 106.420941,48.6011562 C107.009941,46.3126562 106.694441,43.8854062 105.539941,41.8236562 C103.481441,38.2439062 100.033236,35.8863811 93.9574864,36.2468811 Z M102.299691,47.4811562 C102.172941,48.0729062 101.809191,48.5891562 101.292691,48.9084062 C100.268941,49.4351562 98.3369216,49.2769821 97.2724216,48.8382321 C94.2309216,47.6524821 94.2236129,48.0711977 92.4811165,50.533642 C91.6118665,51.288142 89.9799836,51.6555134 88.8424836,51.4802634 C88.2507336,51.3425134 87.7412336,50.9687634 87.4322336,50.4455134 C86.7822336,49.4085134 86.5362336,48.1685134 86.7409836,46.9617634 C87.2144836,44.6150134 87.9955638,41.6882507 92.1810638,40.5512507 C93.0875638,40.3057507 94.4658929,40.1795585 94.8968929,40.1795585 C98.4658929,40.1795585 100.790941,42.1116562 101.855441,43.9526562 C102.431941,45.0344062 102.589941,46.2904062 102.299691,47.4811562 Z" id="Shape-Copy-5" fill="#424141" fill-rule="nonzero" transform="translate(94.559919, 46.007543) rotate(-240.000000) translate(-94.559919, -46.007543) "></path>
        <path d="M71.7902855,11.6355469 C70.5642855,11.7077969 70.6861374,11.6563791 69.5008874,11.9783791 C63.6278874,13.5741291 61.2182827,17.4544292 60.3990327,21.5034292 C59.9635327,23.8271792 60.4402827,26.2294292 61.7302827,28.2106792 C62.6655327,29.6859292 64.1630327,30.7146792 65.8752827,31.0586792 C66.3420327,31.1481792 66.8165327,31.1931792 67.2917827,31.1931792 C69.2067827,31.1724292 70.7891134,29.6160479 72.2641134,28.3945479 C72.6568081,26.9855547 74.2425598,27.3453221 74.6932392,27.8950686 C76.9367392,28.7733186 79.1067396,29.157822 81.2244896,28.009072 C82.7394896,27.137822 83.8337396,25.686322 84.2537396,23.989822 C84.8427396,21.701322 84.5272396,19.274072 83.3727396,17.212322 C81.3142396,13.632572 77.8660355,11.2750469 71.7902855,11.6355469 Z M80.1324896,22.869822 C80.0057396,23.461572 79.6419896,23.977822 79.1254896,24.297072 C78.1017396,24.823822 76.1697207,24.6656479 75.1052207,24.2268979 C72.0637207,23.0411479 72.056412,23.4598635 70.3139156,25.9223078 C69.4446656,26.6768078 67.8127827,27.0441792 66.6752827,26.8689292 C66.0835327,26.7311792 65.5740327,26.3574292 65.2650327,25.8341792 C64.6150327,24.7971792 64.3690327,23.5571792 64.5737827,22.3504292 C65.0472827,20.0036792 65.8283629,17.0769165 70.0138629,15.9399165 C70.9203629,15.6944165 72.298692,15.5682243 72.729692,15.5682243 C76.298692,15.5682243 78.6237396,17.500322 79.6882396,19.341322 C80.2647396,20.423072 80.4227396,21.679072 80.1324896,22.869822 Z" id="Shape-Copy-2" fill="#424141" fill-rule="nonzero" transform="translate(72.392718, 21.396208) rotate(-82.000000) translate(-72.392718, -21.396208) "></path>
        <path d="M159.986437,121.307425 C158.760437,121.379675 158.882289,121.328257 157.697039,121.650257 C151.824039,123.246007 149.414434,127.126307 148.595184,131.175307 C148.159684,133.499057 148.636434,135.901307 149.926434,137.882557 C150.861684,139.357807 152.359184,140.386557 154.071434,140.730557 C154.538184,140.820057 155.012684,140.865057 155.487934,140.865057 C157.402934,140.844307 158.985265,139.287926 160.460265,138.066426 C160.85296,136.657433 162.438711,137.0172 162.889391,137.566947 C165.132891,138.445197 167.302891,138.8297 169.420641,137.68095 C170.935641,136.8097 172.029891,135.3582 172.449891,133.6617 C173.038891,131.3732 172.723391,128.94595 171.568891,126.8842 C169.510391,123.30445 166.062187,120.946925 159.986437,121.307425 Z M168.328641,132.5417 C168.201891,133.13345 167.838141,133.6497 167.321641,133.96895 C166.297891,134.4957 164.365872,134.337526 163.301372,133.898776 C160.259872,132.713026 160.252563,133.131741 158.510067,135.594186 C157.640817,136.348686 156.008934,136.716057 154.871434,136.540807 C154.279684,136.403057 153.770184,136.029307 153.461184,135.506057 C152.811184,134.469057 152.565184,133.229057 152.769934,132.022307 C153.243434,129.675557 154.024514,126.748794 158.210014,125.611794 C159.116514,125.366294 160.494844,125.240102 160.925844,125.240102 C164.494844,125.240102 166.819891,127.1722 167.884391,129.0132 C168.460891,130.09495 168.618891,131.35095 168.328641,132.5417 Z" id="Shape-Copy-8" fill="#424141" fill-rule="nonzero" transform="translate(160.588869, 131.068086) rotate(-144.000000) translate(-160.588869, -131.068086) "></path>
        <path d="M32.986437,26.3074249 C31.760437,26.3796749 31.8822889,26.328257 30.6970389,26.650257 C24.8240389,28.246007 22.4144342,32.1263071 21.5951842,36.1753071 C21.1596842,38.4990571 21.6364342,40.9013071 22.9264342,42.8825571 C23.8616842,44.3578071 25.3591842,45.3865571 27.0714342,45.7305571 C27.5381842,45.8200571 28.0126842,45.8650571 28.4879342,45.8650571 C30.4029342,45.8443071 31.9852648,44.2879258 33.4602648,43.0664258 C33.8529596,41.6574326 35.4387113,42.0172 35.8893906,42.5669465 C38.1328906,43.4451965 40.3028911,43.8296999 42.4206411,42.6809499 C43.9356411,41.8096999 45.0298911,40.3581999 45.4498911,38.6616999 C46.0388911,36.3731999 45.7233911,33.9459499 44.5688911,31.8841999 C42.5103911,28.3044499 39.062187,25.9469249 32.986437,26.3074249 Z M41.3286411,37.5416999 C41.2018911,38.1334499 40.8381411,38.6496999 40.3216411,38.9689499 C39.2978911,39.4956999 37.3658722,39.3375259 36.3013722,38.8987759 C33.2598722,37.7130259 33.2525635,38.1317414 31.5100671,40.5941857 C30.6408171,41.3486857 29.0089342,41.7160571 27.8714342,41.5408071 C27.2796842,41.4030571 26.7701842,41.0293071 26.4611842,40.5060571 C25.8111842,39.4690571 25.5651842,38.2290571 25.7699342,37.0223071 C26.2434342,34.6755571 27.0245143,31.7487944 31.2100143,30.6117944 C32.1165143,30.3662944 33.4948435,30.2401022 33.9258435,30.2401022 C37.4948435,30.2401022 39.8198911,32.1721999 40.8843911,34.0131999 C41.4608911,35.0949499 41.6188911,36.3509499 41.3286411,37.5416999 Z" id="Shape-Copy-10" fill="#424141" fill-rule="nonzero" transform="translate(33.588869, 36.068086) rotate(-144.000000) translate(-33.588869, -36.068086) "></path>
        <path d="M103.957486,51.2468811 C102.731486,51.3191311 102.853338,51.2677133 101.668088,51.5897133 C95.7950883,53.1854633 93.3854836,57.0657634 92.5662336,61.1147634 C92.1307336,63.4385134 92.6074836,65.8407634 93.8974836,67.8220134 C94.8327336,69.2972634 96.3302336,70.3260134 98.0424836,70.6700134 C98.5092336,70.7595134 98.9837336,70.8045134 99.4589836,70.8045134 C101.373984,70.7837634 102.956314,69.2273821 104.431314,68.0058821 C104.824009,66.5968889 106.409761,66.9566563 106.86044,67.5064028 C109.10394,68.3846528 111.273941,68.7691562 113.391691,67.6204062 C114.906691,66.7491562 116.000941,65.2976562 116.420941,63.6011562 C117.009941,61.3126562 116.694441,58.8854062 115.539941,56.8236562 C113.481441,53.2439062 110.033236,50.8863811 103.957486,51.2468811 Z M112.299691,62.4811562 C112.172941,63.0729062 111.809191,63.5891562 111.292691,63.9084062 C110.268941,64.4351562 108.336922,64.2769821 107.272422,63.8382321 C104.230922,62.6524821 104.223613,63.0711977 102.481117,65.533642 C101.611867,66.288142 99.9799836,66.6555134 98.8424836,66.4802634 C98.2507336,66.3425134 97.7412336,65.9687634 97.4322336,65.4455134 C96.7822336,64.4085134 96.5362336,63.1685134 96.7409836,61.9617634 C97.2144836,59.6150134 97.9955638,56.6882507 102.181064,55.5512507 C103.087564,55.3057507 104.465893,55.1795585 104.896893,55.1795585 C108.465893,55.1795585 110.790941,57.1116562 111.855441,58.9526562 C112.431941,60.0344062 112.589941,61.2904062 112.299691,62.4811562 Z" id="Shape-Copy-4" fill="#424141" fill-rule="nonzero" transform="translate(104.559919, 61.007543) rotate(-63.000000) translate(-104.559919, -61.007543) "></path>
        <path d="M109.548554,11.0363093 C108.322554,11.1085593 108.444406,11.0571415 107.259156,11.3791415 C101.386156,12.9748915 98.9765511,16.8551916 98.1573011,20.9041916 C97.7218011,23.2279416 98.1985511,25.6301916 99.4885511,27.6114416 C100.423801,29.0866916 101.921301,30.1154416 103.633551,30.4594416 C104.100301,30.5489416 104.574801,30.5939416 105.050051,30.5939416 C106.965051,30.5731916 108.547382,29.0168103 110.022382,27.7953103 C110.415076,26.3863171 112.000828,26.7460845 112.451508,27.295831 C114.695008,28.174081 116.865008,28.5585844 118.982758,27.4098344 C120.497758,26.5385844 121.592008,25.0870844 122.012008,23.3905844 C122.601008,21.1020844 122.285508,18.6748344 121.131008,16.6130844 C119.072508,13.0333344 115.624304,10.6758093 109.548554,11.0363093 Z M117.890758,22.2705844 C117.764008,22.8623344 117.400258,23.3785844 116.883758,23.6978344 C115.860008,24.2245844 113.927989,24.0664103 112.863489,23.6276603 C109.821989,22.4419103 109.81468,22.8606259 108.072184,25.3230702 C107.202934,26.0775702 105.571051,26.4449416 104.433551,26.2696916 C103.841801,26.1319416 103.332301,25.7581916 103.023301,25.2349416 C102.373301,24.1979416 102.127301,22.9579416 102.332051,21.7511916 C102.805551,19.4044416 103.586631,16.4776788 107.772131,15.3406788 C108.678631,15.0951788 110.05696,14.9689867 110.48796,14.9689867 C114.05696,14.9689867 116.382008,16.9010844 117.446508,18.7420844 C118.023008,19.8238344 118.181008,21.0798344 117.890758,22.2705844 Z" id="Shape-Copy-9" fill="#424141" fill-rule="nonzero" transform="translate(110.150986, 20.796971) scale(-1, 1) rotate(-63.000000) translate(-110.150986, -20.796971) "></path>
        <path d="M134.957486,31.2468811 C133.731486,31.3191311 133.853338,31.2677133 132.668088,31.5897133 C126.795088,33.1854633 124.385484,37.0657634 123.566234,41.1147634 C123.130734,43.4385134 123.607484,45.8407634 124.897484,47.8220134 C125.832734,49.2972634 127.330234,50.3260134 129.042484,50.6700134 C129.509234,50.7595134 129.983734,50.8045134 130.458984,50.8045134 C132.373984,50.7837634 133.956314,49.2273821 135.431314,48.0058821 C135.824009,46.5968889 137.409761,46.9566563 137.86044,47.5064028 C140.10394,48.3846528 142.273941,48.7691562 144.391691,47.6204062 C145.906691,46.7491562 147.000941,45.2976562 147.420941,43.6011562 C148.009941,41.3126562 147.694441,38.8854062 146.539941,36.8236562 C144.481441,33.2439062 141.033236,30.8863811 134.957486,31.2468811 Z M143.299691,42.4811562 C143.172941,43.0729062 142.809191,43.5891562 142.292691,43.9084062 C141.268941,44.4351562 139.336922,44.2769821 138.272422,43.8382321 C135.230922,42.6524821 135.223613,43.0711977 133.481117,45.533642 C132.611867,46.288142 130.979984,46.6555134 129.842484,46.4802634 C129.250734,46.3425134 128.741234,45.9687634 128.432234,45.4455134 C127.782234,44.4085134 127.536234,43.1685134 127.740984,41.9617634 C128.214484,39.6150134 128.995564,36.6882507 133.181064,35.5512507 C134.087564,35.3057507 135.465893,35.1795585 135.896893,35.1795585 C139.465893,35.1795585 141.790941,37.1116562 142.855441,38.9526562 C143.431941,40.0344062 143.589941,41.2904062 143.299691,42.4811562 Z" id="Shape-Copy-3" fill="#424141" fill-rule="nonzero" transform="translate(135.559919, 41.007543) rotate(-82.000000) translate(-135.559919, -41.007543) "></path>
        <path d="M73.2823909,24.7731908 C73.6120449,24.9370481 73.965938,25.0155832 74.3120746,25.0155832 C75.1604487,25.0155832 75.9758574,24.5492199 76.3821074,23.7376896 L77.2851486,21.7655599 C77.855256,20.6234058 77.3937405,19.234981 76.2515867,18.6639041 C75.1055543,18.097675 73.7219773,18.5562817 73.1509004,19.697466 L72.2488287,21.6695959 C71.6758126,22.813689 72.1412064,24.2001746 73.2823909,24.7731908 Z" id="Path" fill="#424141" fill-rule="nonzero" transform="translate(74.766438, 21.718543) rotate(62.000000) translate(-74.766438, -21.718543) "></path>
        <path d="M119.687873,60.5622593 C120.017527,60.7261167 120.37142,60.8046518 120.717557,60.8046518 C121.565931,60.8046518 122.38134,60.3382885 122.78759,59.5267581 L123.690631,57.5546285 C124.260738,56.4124744 123.799223,55.0240496 122.657069,54.4529727 C121.511036,53.8867436 120.127459,54.3453503 119.556383,55.4865346 L118.654311,57.4586645 C118.081295,58.6027576 118.546689,59.9892432 119.687873,60.5622593 Z" id="Path-Copy" fill="#424141" fill-rule="nonzero" transform="translate(121.171920, 57.507612) rotate(62.000000) translate(-121.171920, -57.507612) "></path>
        <path d="M120.687873,76.5622593 C121.017527,76.7261167 121.37142,76.8046518 121.717557,76.8046518 C122.565931,76.8046518 123.38134,76.3382885 123.78759,75.5267581 L124.690631,73.5546285 C125.260738,72.4124744 124.799223,71.0240496 123.657069,70.4529727 C122.511036,69.8867436 121.127459,70.3453503 120.556383,71.4865346 L119.654311,73.4586645 C119.081295,74.6027576 119.546689,75.9892432 120.687873,76.5622593 Z" id="Path-Copy-2" fill="#424141" fill-rule="nonzero" transform="translate(122.171920, 73.507612) rotate(-31.000000) translate(-122.171920, -73.507612) "></path>
        <path d="M160.716824,132.622803 C161.046478,132.78666 161.400371,132.865196 161.746507,132.865196 C162.594881,132.865196 163.41029,132.398832 163.81654,131.587302 L164.719581,129.615172 C165.289689,128.473018 164.828173,127.084593 163.686019,126.513516 C162.539987,125.947287 161.15641,126.405894 160.585333,127.547078 L159.683261,129.519208 C159.110245,130.663301 159.575639,132.049787 160.716824,132.622803 Z" id="Path-Copy-3" fill="#424141" fill-rule="nonzero" transform="translate(162.200870, 129.568156) rotate(-7.000000) translate(-162.200870, -129.568156) "></path>
        <path d="M33.7168236,37.6228031 C34.0464776,37.7866604 34.4003707,37.8651955 34.7465073,37.8651955 C35.5948815,37.8651955 36.4102901,37.3988322 36.8165402,36.5873019 L37.7195813,34.6151722 C38.2896887,33.4730182 37.8281732,32.0845933 36.6860194,31.5135164 C35.5399871,30.9472873 34.15641,31.405894 33.5853331,32.5470784 L32.6832615,34.5192082 C32.1102453,35.6633013 32.5756391,37.0497869 33.7168236,37.6228031 Z" id="Path-Copy-4" fill="#424141" fill-rule="nonzero" transform="translate(35.200870, 34.568156) rotate(-7.000000) translate(-35.200870, -34.568156) "></path>
    </g>
</svg>