<?xml version="1.0" encoding="UTF-8"?>
<svg width="235px" height="152px" viewBox="0 0 235 152" version="1.1" xmlns="http://www.w3.org/2000/svg" xmlns:xlink="http://www.w3.org/1999/xlink">
    <title>refried-beans</title>
    <g id="refried-beans" stroke="none" stroke-width="1" fill="none" fill-rule="evenodd">
        <path d="M149.162316,112 L149.163613,48.9610661 C147.644401,50.0343861 145.816523,51.0037875 143.732766,51.8558875 L143.732766,51.8558875 L142.948971,52.1662574 L142.142347,52.465737 C140.642976,53.004708 139.03152,53.4880112 137.324534,53.9114503 L137.324534,53.9114503 L136.384075,54.136455 C136.225787,54.1729578 136.066733,54.2089597 135.906927,54.2444573 L135.906927,54.2444573 L134.939166,54.4513673 C134.613636,54.5183037 134.285197,54.583198 133.953948,54.6460251 L133.953948,54.6460251 L132.951872,54.8282793 L131.933533,54.9979787 C131.591443,55.0524358 131.246742,55.1047752 130.899529,55.1549717 L130.899529,55.1549717 L129.850457,55.2991072 C129.498321,55.3449926 129.143774,55.3887099 128.786914,55.4302338 L128.786914,55.4302338 L127.709496,55.5482 L126.618802,55.6528547 C126.25309,55.6855042 125.885265,55.7159098 125.515426,55.7440465 L125.515426,55.7440465 L124.399968,55.8216239 C124.026201,55.8451972 123.650519,55.8664762 123.273022,55.8854357 L123.273022,55.8854357 L122.135188,55.9353306 C121.754161,55.9496259 121.371419,55.9615765 120.98706,55.9711571 L120.98706,55.9711571 L119.829237,55.9927641 L118.662316,56 L117.495394,55.9927641 C117.301649,55.9903563 117.108282,55.9873497 116.915308,55.9837475 L116.915308,55.9837475 L115.762258,55.9550119 L115.762258,55.9550119 L115.189444,55.9353306 L114.051609,55.8854357 C113.674112,55.8664762 113.298431,55.8451972 112.924664,55.8216239 L112.924664,55.8216239 L111.809205,55.7440465 C111.439366,55.7159098 111.071541,55.6855042 110.70583,55.6528547 L110.70583,55.6528547 L109.615135,55.5482 L108.537717,55.4302338 C108.002427,55.3679479 107.47234,55.300727 106.947792,55.2286561 L106.947792,55.2286561 L105.906179,55.0780729 C105.733841,55.0519064 105.562144,55.0252072 105.391098,54.9979787 L105.391098,54.9979787 L104.37276,54.8282793 C104.204375,54.7989457 104.036668,54.7690889 103.869651,54.7387121 L103.869651,54.7387121 L102.87593,54.5502372 C102.547516,54.4853492 102.221961,54.4184065 101.899366,54.3494344 L101.899366,54.3494344 L100.940556,54.136455 L100.000098,53.9114503 C98.2931108,53.4880112 96.6816553,53.004708 95.1822839,52.465737 L95.1822839,52.465737 L94.3756602,52.1662574 L93.591865,51.8558875 C91.508562,51.0039729 89.681026,50.0348078 88.1620101,48.9617665 L88.1623156,112 L88.1447718,112 C88.1447718,114.159149 90.8268978,116.374363 95.2941626,118.169308 L95.9775287,118.435338 L96.6869992,118.694707 C97.0481484,118.822667 97.4188345,118.947994 97.798679,119.070489 L98.5704671,119.311642 C98.7010962,119.351185 98.832715,119.390398 98.9653093,119.429274 L99.7724698,119.658425 L100.602371,119.879129 L101.45434,120.091028 L102.327704,120.293764 L103.221791,120.486982 L104.135927,120.670323 L105.06944,120.84343 L106.021657,121.005946 L106.991906,121.157514 L107.979514,121.297777 L108.983807,121.426376 L110.004114,121.542956 C110.175462,121.561364 110.34745,121.579257 110.520062,121.596626 L111.563127,121.694506 L112.620524,121.779472 C112.797914,121.792537 112.975872,121.80505 113.154386,121.817001 L114.232019,121.881928 C114.593375,121.901289 114.95684,121.918349 115.3223,121.933049 L116.424559,121.970006 C116.609229,121.974965 116.794371,121.979319 116.979969,121.983061 L118.098932,121.998103 C118.286302,121.999365 118.474101,122 118.662316,122 L119.2257,121.998103 L120.344662,121.983061 C120.53026,121.979319 120.715402,121.974965 120.900072,121.970006 L122.002331,121.933049 C122.367792,121.918349 122.731256,121.901289 123.092613,121.881928 L124.170245,121.817001 C124.348759,121.80505 124.526718,121.792537 124.704107,121.779472 L125.761504,121.694506 L126.804569,121.596626 C126.977182,121.579257 127.149169,121.561364 127.320517,121.542956 L128.340824,121.426376 L129.345118,121.297777 L130.332725,121.157514 L131.302974,121.005946 L132.255191,120.84343 L133.188705,120.670323 L134.102841,120.486982 L134.996927,120.293764 L135.870291,120.091028 L136.72226,119.879129 L137.552162,119.658425 L138.359322,119.429274 C138.491916,119.390398 138.623535,119.351185 138.754164,119.311642 L139.525952,119.070489 C139.905797,118.947994 140.276483,118.822667 140.637632,118.694707 L141.347103,118.435338 L142.030469,118.169308 C146.386052,116.419237 149.044637,114.269647 149.174845,112.162034 L149.17986,112 L149.162316,112 Z M119.2257,31.001897 L118.098932,31.001897 L116.979969,31.0169388 C116.794371,31.0206806 116.609229,31.0250349 116.424559,31.0299943 L116.424559,31.0299943 L115.3223,31.0669512 C114.95684,31.0816507 114.593375,31.0987107 114.232019,31.1180717 L114.232019,31.1180717 L113.154386,31.1829986 C112.975872,31.1949504 112.797914,31.2074626 112.620524,31.2205277 L112.620524,31.2205277 L111.563127,31.3054941 L110.520062,31.4033737 C110.34745,31.4207432 110.175462,31.4386359 110.004114,31.4570443 L110.004114,31.4570443 L108.983807,31.5736238 L107.979514,31.7022234 L106.991906,31.8424857 L106.021657,31.9940536 L105.06944,32.1565698 L104.135927,32.329677 L103.221791,32.5130181 L102.327704,32.7062356 L101.45434,32.9089725 L100.602371,33.1208714 L99.7724698,33.3415751 L98.9653093,33.5707263 C98.832715,33.6096023 98.7010962,33.6488154 98.5704671,33.6883581 L98.5704671,33.6883581 L97.798679,33.9295109 C97.4188345,34.0520056 97.0481484,34.1773332 96.6869992,34.3052928 L96.6869992,34.3052928 L95.9775287,34.5646617 L95.2941626,34.8306919 C90.8268978,36.6256368 88.1447718,38.8408509 88.1447718,41 L88.1447718,41 L88.1623156,41 L88.1620752,41.301476 C88.3980344,43.3642274 91.0345973,45.4578167 95.2941626,47.1693081 L95.2941626,47.1693081 L95.9775287,47.4353383 L96.6869992,47.6947072 C97.0481484,47.8226668 97.4188345,47.9479944 97.798679,48.0704891 L97.798679,48.0704891 L98.5704671,48.3116419 C98.7010962,48.3511846 98.832715,48.3903977 98.9653093,48.4292737 L98.9653093,48.4292737 L99.7724698,48.6584249 L100.602371,48.8791286 L101.45434,49.0910275 L102.327704,49.2937644 L103.221791,49.4869819 L104.135927,49.670323 L105.06944,49.8434302 L106.021657,50.0059464 L106.991906,50.1575143 L107.979514,50.2977766 L108.983807,50.4263762 L110.004114,50.5429557 C110.175462,50.5613641 110.34745,50.5792568 110.520062,50.5966263 L110.520062,50.5966263 L111.563127,50.6945059 L112.620524,50.7794723 C112.797914,50.7925374 112.975872,50.8050496 113.154386,50.8170014 L113.154386,50.8170014 L114.232019,50.8819283 C114.593375,50.9012893 114.95684,50.9183493 115.3223,50.9330488 L115.3223,50.9330488 L116.424559,50.9700057 C116.609229,50.9749651 116.794371,50.9793194 116.979969,50.9830612 L116.979969,50.9830612 L118.098932,50.998103 L118.662316,51 C118.85053,51 119.038329,50.9993652 119.2257,50.998103 L119.2257,50.998103 L120.344662,50.9830612 C120.53026,50.9793194 120.715402,50.9749651 120.900072,50.9700057 L120.900072,50.9700057 L122.002331,50.9330488 C122.367792,50.9183493 122.731256,50.9012893 123.092613,50.8819283 L123.092613,50.8819283 L124.170245,50.8170014 C124.348759,50.8050496 124.526718,50.7925374 124.704107,50.7794723 L124.704107,50.7794723 L125.761504,50.6945059 L126.804569,50.5966263 C126.977182,50.5792568 127.149169,50.5613641 127.320517,50.5429557 L127.320517,50.5429557 L128.340824,50.4263762 L129.345118,50.2977766 L130.332725,50.1575143 L131.302974,50.0059464 L132.255191,49.8434302 L133.188705,49.670323 L134.102841,49.4869819 L134.996927,49.2937644 L135.870291,49.0910275 L136.72226,48.8791286 L137.552162,48.6584249 L138.359322,48.4292737 C138.491916,48.3903977 138.623535,48.3511846 138.754164,48.3116419 L138.754164,48.3116419 L139.525952,48.0704891 C139.905797,47.9479944 140.276483,47.8226668 140.637632,47.6947072 L140.637632,47.6947072 L141.347103,47.4353383 L142.030469,47.1693081 C146.296934,45.4550442 148.935135,43.3574434 149.163684,41.2914515 L149.162316,41 L149.17986,41 C149.17986,38.8408509 146.497734,36.6256368 142.030469,34.8306919 L142.030469,34.8306919 L141.347103,34.5646617 L140.637632,34.3052928 C140.276483,34.1773332 139.905797,34.0520056 139.525952,33.9295109 L139.525952,33.9295109 L138.754164,33.6883581 C138.623535,33.6488154 138.491916,33.6096023 138.359322,33.5707263 L138.359322,33.5707263 L137.552162,33.3415751 L136.72226,33.1208714 L135.870291,32.9089725 L134.996927,32.7062356 L134.102841,32.5130181 L133.188705,32.329677 L132.255191,32.1565698 L131.302974,31.9940536 L130.332725,31.8424857 L129.345118,31.7022234 L128.340824,31.5736238 L127.320517,31.4570443 C127.149169,31.4386359 126.977182,31.4207432 126.804569,31.4033737 L126.804569,31.4033737 L125.761504,31.3054941 L124.704107,31.2205277 C124.526718,31.2074626 124.348759,31.1949504 124.170245,31.1829986 L124.170245,31.1829986 L123.092613,31.1180717 C122.731256,31.0987107 122.367792,31.0816507 122.002331,31.0669512 L122.002331,31.0669512 L120.900072,31.0299943 C120.715402,31.0250349 120.53026,31.0206806 120.344662,31.0169388 L120.344662,31.0169388 L119.2257,31.001897 Z M143.732766,122.855888 L142.948971,123.166257 L142.142347,123.465737 C140.642976,124.004708 139.03152,124.488011 137.324534,124.91145 L136.384075,125.136455 L135.425266,125.349434 C135.10267,125.418406 134.777116,125.485349 134.448702,125.550237 L133.45498,125.738712 C133.287963,125.769089 133.120256,125.798946 132.951872,125.828279 L131.933533,125.997979 C131.762488,126.025207 131.59079,126.051906 131.418452,126.078073 L130.376839,126.228656 C129.852291,126.300727 129.322204,126.367948 128.786914,126.430234 L127.709496,126.5482 L126.618802,126.652855 C126.25309,126.685504 125.885265,126.71591 125.515426,126.744046 L124.399968,126.821624 C124.026201,126.845197 123.650519,126.866476 123.273022,126.885436 L122.135188,126.935331 L121.562373,126.955012 L121.562373,126.955012 L120.409324,126.983748 C120.216349,126.98735 120.022983,126.990356 119.829237,126.992764 L118.662316,127 L117.495394,126.992764 L116.337571,126.971157 C115.953213,126.961576 115.57047,126.949626 115.189444,126.935331 L114.051609,126.885436 C113.674112,126.866476 113.298431,126.845197 112.924664,126.821624 L111.809205,126.744046 C111.439366,126.71591 111.071541,126.685504 110.70583,126.652855 L109.615135,126.5482 L108.537717,126.430234 C108.180857,126.38871 107.82631,126.344993 107.474174,126.299107 L106.425102,126.154972 C106.07789,126.104775 105.733189,126.052436 105.391098,125.997979 L104.37276,125.828279 L103.370683,125.646025 C103.039434,125.583198 102.710995,125.518304 102.385466,125.451367 L101.417704,125.244457 C101.257898,125.20896 101.098845,125.172958 100.940556,125.136455 L100.000098,124.91145 C98.2931108,124.488011 96.6816553,124.004708 95.1822839,123.465737 L94.3756602,123.166257 L93.591865,122.855888 C87.2857122,120.277144 83.3230797,116.624069 83.1670969,112.267598 L83.1623156,112 L83.1623156,41 L83.1667366,40.7426614 C83.3168604,36.3816663 87.2807623,32.72488 93.591865,30.1441125 L93.591865,30.1441125 L94.3756602,29.8337426 L95.1822839,29.534263 C96.6816553,28.995292 98.2931108,28.5119888 100.000098,28.0885497 L100.000098,28.0885497 L100.940556,27.863545 C101.098845,27.8270422 101.257898,27.7910403 101.417704,27.7555427 L101.417704,27.7555427 L102.385466,27.5486327 C102.710995,27.4816963 103.039434,27.416802 103.370683,27.3539749 L103.370683,27.3539749 L104.37276,27.1717207 L105.391098,27.0020213 C105.733189,26.9475642 106.07789,26.8952248 106.425102,26.8450283 L106.425102,26.8450283 L107.474174,26.7008928 C107.82631,26.6550074 108.180857,26.6112901 108.537717,26.5697662 L108.537717,26.5697662 L109.615135,26.4518 L110.70583,26.3471453 C111.071541,26.3144958 111.439366,26.2840902 111.809205,26.2559535 L111.809205,26.2559535 L112.924664,26.1783761 C113.298431,26.1548028 113.674112,26.1335238 114.051609,26.1145643 L114.051609,26.1145643 L115.189444,26.0646694 C115.57047,26.0503741 115.953213,26.0384235 116.337571,26.0288429 L116.337571,26.0288429 L117.495394,26.0072359 C117.882885,26.0024204 118.271892,26 118.662316,26 L118.662316,26 L119.246877,26.0018121 C119.635859,26.0042262 120.023374,26.0090481 120.409324,26.0162525 L120.409324,26.0162525 L121.562373,26.0449881 L121.562373,26.0449881 L122.135188,26.0646694 L123.273022,26.1145643 C123.650519,26.1335238 124.026201,26.1548028 124.399968,26.1783761 L124.399968,26.1783761 L125.515426,26.2559535 C125.885265,26.2840902 126.25309,26.3144958 126.618802,26.3471453 L126.618802,26.3471453 L127.709496,26.4518 L128.786914,26.5697662 C129.322204,26.6320521 129.852291,26.699273 130.376839,26.7713439 L130.376839,26.7713439 L131.418452,26.9219271 C131.59079,26.9480936 131.762488,26.9747928 131.933533,27.0020213 L131.933533,27.0020213 L132.951872,27.1717207 C133.120256,27.2010543 133.287963,27.2309111 133.45498,27.2612879 L133.45498,27.2612879 L134.448702,27.4497628 C134.777116,27.5146508 135.10267,27.5815935 135.425266,27.6505656 L135.425266,27.6505656 L136.384075,27.863545 L137.324534,28.0885497 C139.03152,28.5119888 140.642976,28.995292 142.142347,29.534263 L142.142347,29.534263 L142.948971,29.8337426 L143.732766,30.1441125 C150.167616,32.7754833 154.162316,36.5254833 154.162316,41 L154.162316,41 L154.162316,112 C154.162316,116.474517 150.167616,120.224517 143.732766,122.855888 Z" id="Combined-Shape" fill="#424141" fill-rule="nonzero"></path>
        <path d="M62.0306167,97.0487044 C60.8046167,97.1209544 59.5891167,97.3197044 58.4038667,97.6417044 C52.5308667,99.2374544 49.1388667,102.100454 48.3196167,106.149454 C47.8841167,108.473204 48.3608667,110.875454 49.6508667,112.856704 C50.5861167,114.331954 52.0836167,115.360704 53.7958667,115.704704 C54.2626167,115.794204 54.7371167,115.839204 55.2123667,115.839204 C57.1273667,115.818454 58.9768667,115.140704 60.4518667,113.919204 C61.7841167,112.778454 63.6411167,112.475704 65.2668667,113.134204 C67.5103667,114.012454 70.0268667,113.856204 72.1446167,112.707454 C73.6596167,111.836204 74.7538667,110.384704 75.1738667,108.688204 C75.7628667,106.399704 75.4473667,103.972454 74.2928667,101.910704 C72.2343667,98.3309544 68.1063667,96.6882044 62.0306167,97.0487044 Z M71.0526167,107.568204 L71.0526167,107.566204 C70.9258667,108.159954 70.5621167,108.676204 70.0456167,108.995454 C69.0218667,109.522204 67.8183667,109.572954 66.7538667,109.134204 C63.7123667,107.948454 60.2666167,108.510704 57.7596167,110.601954 C56.8903667,111.356454 55.7333667,111.690204 54.5958667,111.514954 C54.0041167,111.377204 53.4946167,111.003454 53.1856167,110.480204 C52.5356167,109.443204 52.2896167,108.203204 52.4943667,106.996454 C52.9678667,104.649704 55.3296167,102.896204 59.5151167,101.759204 C60.4216167,101.513704 61.3508667,101.362954 62.2883667,101.309204 C62.7533667,101.280704 63.2013667,101.266454 63.6323667,101.266454 C67.2013667,101.266454 69.5438667,102.198704 70.6083667,104.039704 C71.1848667,105.121454 71.3428667,106.377454 71.0526167,107.568204 Z" id="Shape" fill="#424141" fill-rule="nonzero" transform="translate(61.813073, 106.419602) rotate(-181.000000) translate(-61.813073, -106.419602) "></path>
        <path d="M177.030617,100.048704 C175.804617,100.120954 174.589117,100.319704 173.403867,100.641704 C167.530867,102.237454 164.138867,105.100454 163.319617,109.149454 C162.884117,111.473204 163.360867,113.875454 164.650867,115.856704 C165.586117,117.331954 167.083617,118.360704 168.795867,118.704704 C169.262617,118.794204 169.737117,118.839204 170.212367,118.839204 C172.127367,118.818454 173.976867,118.140704 175.451867,116.919204 C176.784117,115.778454 178.641117,115.475704 180.266867,116.134204 C182.510367,117.012454 185.026867,116.856204 187.144617,115.707454 C188.659617,114.836204 189.753867,113.384704 190.173867,111.688204 C190.762867,109.399704 190.447367,106.972454 189.292867,104.910704 C187.234367,101.330954 183.106367,99.6882044 177.030617,100.048704 Z M186.052617,110.568204 L186.052617,110.566204 C185.925867,111.159954 185.562117,111.676204 185.045617,111.995454 C184.021867,112.522204 182.818367,112.572954 181.753867,112.134204 C178.712367,110.948454 175.266617,111.510704 172.759617,113.601954 C171.890367,114.356454 170.733367,114.690204 169.595867,114.514954 C169.004117,114.377204 168.494617,114.003454 168.185617,113.480204 C167.535617,112.443204 167.289617,111.203204 167.494367,109.996454 C167.967867,107.649704 170.329617,105.896204 174.515117,104.759204 C175.421617,104.513704 176.350867,104.362954 177.288367,104.309204 C177.753367,104.280704 178.201367,104.266454 178.632367,104.266454 C182.201367,104.266454 184.543867,105.198704 185.608367,107.039704 C186.184867,108.121454 186.342867,109.377454 186.052617,110.568204 Z" id="Shape-Copy" fill="#424141" fill-rule="nonzero" transform="translate(176.813073, 109.419602) scale(-1, 1) rotate(-181.000000) translate(-176.813073, -109.419602) "></path>
        <path d="M205.030617,112.048704 C203.804617,112.120954 202.589117,112.319704 201.403867,112.641704 C195.530867,114.237454 192.138867,117.100454 191.319617,121.149454 C190.884117,123.473204 191.360867,125.875454 192.650867,127.856704 C193.586117,129.331954 195.083617,130.360704 196.795867,130.704704 C197.262617,130.794204 197.737117,130.839204 198.212367,130.839204 C200.127367,130.818454 201.976867,130.140704 203.451867,128.919204 C204.784117,127.778454 206.641117,127.475704 208.266867,128.134204 C210.510367,129.012454 213.026867,128.856204 215.144617,127.707454 C216.659617,126.836204 217.753867,125.384704 218.173867,123.688204 C218.762867,121.399704 218.447367,118.972454 217.292867,116.910704 C215.234367,113.330954 211.106367,111.688204 205.030617,112.048704 Z M214.052617,122.568204 L214.052617,122.566204 C213.925867,123.159954 213.562117,123.676204 213.045617,123.995454 C212.021867,124.522204 210.818367,124.572954 209.753867,124.134204 C206.712367,122.948454 203.266617,123.510704 200.759617,125.601954 C199.890367,126.356454 198.733367,126.690204 197.595867,126.514954 C197.004117,126.377204 196.494617,126.003454 196.185617,125.480204 C195.535617,124.443204 195.289617,123.203204 195.494367,121.996454 C195.967867,119.649704 198.329617,117.896204 202.515117,116.759204 C203.421617,116.513704 204.350867,116.362954 205.288367,116.309204 C205.753367,116.280704 206.201367,116.266454 206.632367,116.266454 C210.201367,116.266454 212.543867,117.198704 213.608367,119.039704 C214.184867,120.121454 214.342867,121.377454 214.052617,122.568204 Z" id="Shape-Copy-2" fill="#424141" fill-rule="nonzero" transform="translate(204.813073, 121.419602) scale(-1, -1) rotate(-181.000000) translate(-204.813073, -121.419602) "></path>
        <path d="M198.030617,84.0487044 C196.804617,84.1209544 195.589117,84.3197044 194.403867,84.6417044 C188.530867,86.2374544 185.138867,89.1004544 184.319617,93.1494544 C183.884117,95.4732044 184.360867,97.8754544 185.650867,99.8567044 C186.586117,101.331954 188.083617,102.360704 189.795867,102.704704 C190.262617,102.794204 190.737117,102.839204 191.212367,102.839204 C193.127367,102.818454 194.976867,102.140704 196.451867,100.919204 C197.784117,99.7784544 199.641117,99.4757044 201.266867,100.134204 C203.510367,101.012454 206.026867,100.856204 208.144617,99.7074544 C209.659617,98.8362044 210.753867,97.3847044 211.173867,95.6882044 C211.762867,93.3997044 211.447367,90.9724544 210.292867,88.9107044 C208.234367,85.3309544 204.106367,83.6882044 198.030617,84.0487044 Z M207.052617,94.5682044 L207.052617,94.5662044 C206.925867,95.1599544 206.562117,95.6762044 206.045617,95.9954544 C205.021867,96.5222044 203.818367,96.5729544 202.753867,96.1342044 C199.712367,94.9484544 196.266617,95.5107044 193.759617,97.6019544 C192.890367,98.3564544 191.733367,98.6902044 190.595867,98.5149544 C190.004117,98.3772044 189.494617,98.0034544 189.185617,97.4802044 C188.535617,96.4432044 188.289617,95.2032044 188.494367,93.9964544 C188.967867,91.6497044 191.329617,89.8962044 195.515117,88.7592044 C196.421617,88.5137044 197.350867,88.3629544 198.288367,88.3092044 C198.753367,88.2807044 199.201367,88.2664544 199.632367,88.2664544 C203.201367,88.2664544 205.543867,89.1987044 206.608367,91.0397044 C207.184867,92.1214544 207.342867,93.3774544 207.052617,94.5682044 Z" id="Shape-Copy-4" fill="#424141" fill-rule="nonzero" transform="translate(197.813073, 93.419602) scale(-1, -1) rotate(-141.000000) translate(-197.813073, -93.419602) "></path>
        <path d="M42.0306167,83.0487044 C40.8046167,83.1209544 39.5891167,83.3197044 38.4038667,83.6417044 C32.5308667,85.2374544 29.1388667,88.1004544 28.3196167,92.1494544 C27.8841167,94.4732044 28.3608667,96.8754544 29.6508667,98.8567044 C30.5861167,100.331954 32.0836167,101.360704 33.7958667,101.704704 C34.2626167,101.794204 34.7371167,101.839204 35.2123667,101.839204 C37.1273667,101.818454 38.9768667,101.140704 40.4518667,99.9192044 C41.7841167,98.7784544 43.6411167,98.4757044 45.2668667,99.1342044 C47.5103667,100.012454 50.0268667,99.8562044 52.1446167,98.7074544 C53.6596167,97.8362044 54.7538667,96.3847044 55.1738667,94.6882044 C55.7628667,92.3997044 55.4473667,89.9724544 54.2928667,87.9107044 C52.2343667,84.3309544 48.1063667,82.6882044 42.0306167,83.0487044 Z M51.0526167,93.5682044 L51.0526167,93.5662044 C50.9258667,94.1599544 50.5621167,94.6762044 50.0456167,94.9954544 C49.0218667,95.5222044 47.8183667,95.5729544 46.7538667,95.1342044 C43.7123667,93.9484544 40.2666167,94.5107044 37.7596167,96.6019544 C36.8903667,97.3564544 35.7333667,97.6902044 34.5958667,97.5149544 C34.0041167,97.3772044 33.4946167,97.0034544 33.1856167,96.4802044 C32.5356167,95.4432044 32.2896167,94.2032044 32.4943667,92.9964544 C32.9678667,90.6497044 35.3296167,88.8962044 39.5151167,87.7592044 C40.4216167,87.5137044 41.3508667,87.3629544 42.2883667,87.3092044 C42.7533667,87.2807044 43.2013667,87.2664544 43.6323667,87.2664544 C47.2013667,87.2664544 49.5438667,88.1987044 50.6083667,90.0397044 C51.1848667,91.1214544 51.3428667,92.3774544 51.0526167,93.5682044 Z" id="Shape-Copy-5" fill="#424141" fill-rule="nonzero" transform="translate(41.813073, 92.419602) scale(1, -1) rotate(-141.000000) translate(-41.813073, -92.419602) "></path>
        <path d="M31.0306167,106.048704 C29.8046167,106.120954 28.5891167,106.319704 27.4038667,106.641704 C21.5308667,108.237454 18.1388667,111.100454 17.3196167,115.149454 C16.8841167,117.473204 17.3608667,119.875454 18.6508667,121.856704 C19.5861167,123.331954 21.0836167,124.360704 22.7958667,124.704704 C23.2626167,124.794204 23.7371167,124.839204 24.2123667,124.839204 C26.1273667,124.818454 27.9768667,124.140704 29.4518667,122.919204 C30.7841167,121.778454 32.6411167,121.475704 34.2668667,122.134204 C36.5103667,123.012454 39.0268667,122.856204 41.1446167,121.707454 C42.6596167,120.836204 43.7538667,119.384704 44.1738667,117.688204 C44.7628667,115.399704 44.4473667,112.972454 43.2928667,110.910704 C41.2343667,107.330954 37.1063667,105.688204 31.0306167,106.048704 Z M40.0526167,116.568204 L40.0526167,116.566204 C39.9258667,117.159954 39.5621167,117.676204 39.0456167,117.995454 C38.0218667,118.522204 36.8183667,118.572954 35.7538667,118.134204 C32.7123667,116.948454 29.2666167,117.510704 26.7596167,119.601954 C25.8903667,120.356454 24.7333667,120.690204 23.5958667,120.514954 C23.0041167,120.377204 22.4946167,120.003454 22.1856167,119.480204 C21.5356167,118.443204 21.2896167,117.203204 21.4943667,115.996454 C21.9678667,113.649704 24.3296167,111.896204 28.5151167,110.759204 C29.4216167,110.513704 30.3508667,110.362954 31.2883667,110.309204 C31.7533667,110.280704 32.2013667,110.266454 32.6323667,110.266454 C36.2013667,110.266454 38.5438667,111.198704 39.6083667,113.039704 C40.1848667,114.121454 40.3428667,115.377454 40.0526167,116.568204 Z" id="Shape-Copy-3" fill="#424141" fill-rule="nonzero" transform="translate(30.813073, 115.419602) scale(1, -1) rotate(-181.000000) translate(-30.813073, -115.419602) "></path>
        <path d="M99.88,83.24 C100.168,83.24 100.336,83.112 100.384,82.856 C100.432,82.664 100.456,82.432 100.456,82.16 L100.456,82.16 L100.456,82.112 L99.76,80 C99.344,78.768 99.056,77.888 98.896,77.36 C98.672,76.608 98.468,75.792 98.284,74.912 C98.1,74.032 98,73.304 97.984,72.728 L97.984,72.728 L98.224,72.104 L98.512,71.432 C98.544,71.336 98.616,71.128 98.728,70.808 C98.84,70.488 98.912,70.248 98.944,70.088 C98.96,70.008 98.988,69.824 99.028,69.536 C99.068,69.248 99.088,68.984 99.088,68.744 C99.088,68.328 99.056,67.96 98.992,67.64 C98.848,66.856 98.528,66.184 98.032,65.624 C97.792,65.352 97.504,65.14 97.168,64.988 C96.832,64.836 96.464,64.76 96.064,64.76 C95.808,64.76 95.64,64.796 95.56,64.868 C95.48,64.94 95.44,65.072 95.44,65.264 L95.44,65.264 L95.44,68.216 C95.44,70.824 95.424,73.168 95.392,75.248 L95.392,75.248 L95.344,82.304 L95.344,82.496 C95.344,82.688 95.4,82.844 95.512,82.964 C95.624,83.084 95.776,83.144 95.968,83.144 C96.224,83.144 96.396,83.084 96.484,82.964 C96.572,82.844 96.616,82.656 96.616,82.4 L96.616,82.4 L96.616,72.944 C96.856,73.824 97.152,74.816 97.504,75.92 C97.968,77.392 98.32,78.648 98.56,79.688 C98.8,80.728 98.944,81.672 98.992,82.52 L98.992,82.52 L98.992,82.592 C99.28,83.024 99.576,83.24 99.88,83.24 Z M96.568,71.864 C96.552,71.688 96.544,71.32 96.544,70.76 L96.5448889,70.5537778 C96.5496296,69.9801481 96.5733333,69.2168889 96.616,68.264 L96.616,68.264 L96.664,65.864 C96.824,65.88 96.98,65.988 97.132,66.188 C97.284,66.388 97.408,66.632 97.504,66.92 C97.68,67.528 97.768,68.064 97.768,68.528 C97.768,68.672 97.76,68.784 97.744,68.864 L97.744,68.864 L97.384,70.928 C97.064,71.328 96.792,71.64 96.568,71.864 Z M104.488,83.144 L105.28,83.12 C105.52,83.088 105.768,83.012 106.024,82.892 C106.28,82.772 106.456,82.616 106.552,82.424 L106.552,82.424 L106.552,82.328 C106.552,81.912 106.096,81.704 105.184,81.704 L105.184,81.704 L103.84,81.776 L103.84,74.36 C103.936,74.248 104.104,74.192 104.344,74.192 L104.344,74.192 L104.656,74.192 L104.944,74.216 C105.12,74.216 105.268,74.14 105.388,73.988 C105.508,73.836 105.568,73.664 105.568,73.472 C105.568,73.296 105.496,73.14 105.352,73.004 C105.208,72.868 105.048,72.8 104.872,72.8 C104.664,72.8 104.4,72.848 104.08,72.944 L104.08,72.944 L103.744,73.016 L103.792,71.672 C103.84,71.048 103.864,70.584 103.864,70.28 L103.864,70.28 L103.816,68.96 L103.768,68.288 C103.704,67.52 103.672,66.864 103.672,66.32 C103.704,66.304 103.792,66.296 103.936,66.296 C104.064,66.296 104.176,66.304 104.272,66.32 L104.272,66.32 L104.608,66.32 C105.344,66.32 105.712,66.08 105.712,65.6 C105.712,65.392 105.592,65.212 105.352,65.06 C105.112,64.908 104.864,64.832 104.608,64.832 C104.352,64.832 104.056,64.864 103.72,64.928 C103.352,64.992 103.056,65.024 102.832,65.024 C102.704,65.152 102.504,65.44 102.232,65.888 L102.232,65.888 L102.232,65.96 C102.232,66.28 102.288,66.688 102.4,67.184 C102.496,67.728 102.544,68.136 102.544,68.408 L102.544,68.408 L102.544,82.352 C102.544,82.72 102.68,82.944 102.952,83.024 C103.176,83.104 103.44,83.144 103.744,83.144 L103.744,83.144 L104.488,83.144 Z M110.32,83.024 C110.56,83.024 110.752,82.964 110.896,82.844 C111.04,82.724 111.112,82.56 111.112,82.352 C111.112,82.208 111.104,82.104 111.088,82.04 L111.088,82.04 L111.112,81.992 L111.136,81.896 C111.136,81.016 111.064,79.712 110.92,77.984 C110.76,76.336 110.68,75.032 110.68,74.072 L110.68,74.072 L110.944,74.072 C111.28,74.04 111.52,74.016 111.664,74 C111.856,73.984 112.012,73.948 112.132,73.892 C112.252,73.836 112.328,73.8 112.36,73.784 C112.568,73.688 112.672,73.528 112.672,73.304 C112.672,73.112 112.608,72.94 112.48,72.788 C112.352,72.636 112.2,72.56 112.024,72.56 C111.864,72.56 111.628,72.596 111.316,72.668 C111.004,72.74 110.792,72.792 110.68,72.824 C110.648,71.816 110.584,70.752 110.488,69.632 C110.376,68.288 110.32,67.2 110.32,66.368 C110.32,66.192 110.544,66.104 110.992,66.104 L110.992,66.104 L111.328,66.104 L111.568,66.128 C111.76,66.128 111.92,66.084 112.048,65.996 C112.176,65.908 112.24,65.776 112.24,65.6 C112.24,65.296 112.16,65.084 112,64.964 C111.84,64.844 111.576,64.784 111.208,64.784 C110.904,64.784 110.704,64.792 110.608,64.808 C110.416,64.808 110.204,64.836 109.972,64.892 C109.74,64.948 109.56,65.016 109.432,65.096 C109.08,65.336 108.904,65.68 108.904,66.128 C109.048,66.352 109.204,68.504 109.372,72.584 C109.54,76.664 109.624,79.632 109.624,81.488 C109.624,82.512 109.856,83.024 110.32,83.024 Z M119.848,83.24 C120.136,83.24 120.304,83.112 120.352,82.856 C120.4,82.664 120.424,82.432 120.424,82.16 L120.424,82.16 L120.424,82.112 L119.728,80 C119.312,78.768 119.024,77.888 118.864,77.36 C118.64,76.608 118.436,75.792 118.252,74.912 C118.068,74.032 117.968,73.304 117.952,72.728 L117.952,72.728 L118.192,72.104 L118.48,71.432 C118.512,71.336 118.584,71.128 118.696,70.808 C118.808,70.488 118.88,70.248 118.912,70.088 C118.928,70.008 118.956,69.824 118.996,69.536 C119.036,69.248 119.056,68.984 119.056,68.744 C119.056,68.328 119.024,67.96 118.96,67.64 C118.816,66.856 118.496,66.184 118,65.624 C117.76,65.352 117.472,65.14 117.136,64.988 C116.8,64.836 116.432,64.76 116.032,64.76 C115.776,64.76 115.608,64.796 115.528,64.868 C115.448,64.94 115.408,65.072 115.408,65.264 L115.408,65.264 L115.408,68.216 C115.408,70.824 115.392,73.168 115.36,75.248 L115.36,75.248 L115.312,82.304 L115.312,82.496 C115.312,82.688 115.368,82.844 115.48,82.964 C115.592,83.084 115.744,83.144 115.936,83.144 C116.192,83.144 116.364,83.084 116.452,82.964 C116.54,82.844 116.584,82.656 116.584,82.4 L116.584,82.4 L116.584,72.944 C116.824,73.824 117.12,74.816 117.472,75.92 C117.936,77.392 118.288,78.648 118.528,79.688 C118.768,80.728 118.912,81.672 118.96,82.52 L118.96,82.52 L118.96,82.592 C119.248,83.024 119.544,83.24 119.848,83.24 Z M116.536,71.864 C116.52,71.688 116.512,71.32 116.512,70.76 L116.512889,70.5537778 C116.51763,69.9801481 116.541333,69.2168889 116.584,68.264 L116.584,68.264 L116.632,65.864 C116.792,65.88 116.948,65.988 117.1,66.188 C117.252,66.388 117.376,66.632 117.472,66.92 C117.648,67.528 117.736,68.064 117.736,68.528 C117.736,68.672 117.728,68.784 117.712,68.864 L117.712,68.864 L117.352,70.928 C117.032,71.328 116.76,71.64 116.536,71.864 Z M123.856,82.976 C123.984,82.976 124.32,82.96 124.864,82.928 C125.104,82.928 125.264,82.924 125.344,82.916 C125.424,82.908 125.472,82.904 125.488,82.904 L125.488,82.904 L126.088,82.496 L126.088,82.352 C126.088,81.792 125.752,81.512 125.08,81.512 C124.872,81.512 124.712,81.52 124.6,81.536 L124.6,81.536 L124.6,80.624 C124.6,79.056 124.504,76.712 124.312,73.592 C124.104,70.616 124,68.28 124,66.584 C124,66.392 124.036,66.26 124.108,66.188 C124.18,66.116 124.296,66.08 124.456,66.08 L124.456,66.08 L124.648,66.08 C124.712,66.096 124.792,66.104 124.888,66.104 C125.048,66.104 125.18,66.04 125.284,65.912 C125.388,65.784 125.44,65.632 125.44,65.456 C125.44,65.28 125.372,65.128 125.236,65 C125.1,64.872 124.936,64.808 124.744,64.808 C124.28,64.808 123.712,64.864 123.04,64.976 C122.672,65.04 122.372,65.144 122.14,65.288 C121.908,65.432 121.792,65.6 121.792,65.792 C121.792,66.176 121.976,66.368 122.344,66.368 C122.536,66.368 122.72,66.336 122.896,66.272 C122.944,66.624 122.968,67.064 122.968,67.592 L122.968,67.592 L122.944,68.816 C122.928,69.184 122.92,69.592 122.92,70.04 C122.92,71.288 122.992,73.136 123.136,75.584 C123.296,77.936 123.376,79.792 123.376,81.152 C123.376,81.36 123.348,81.504 123.292,81.584 C123.236,81.664 123.144,81.704 123.016,81.704 C122.936,81.704 122.864,81.696 122.8,81.68 L122.8,81.68 L122.512,81.68 C122.032,81.68 121.792,81.872 121.792,82.256 C121.792,82.736 122.48,82.976 123.856,82.976 Z M130.624,83.144 L131.416,83.12 C131.656,83.088 131.904,83.012 132.16,82.892 C132.416,82.772 132.592,82.616 132.688,82.424 L132.688,82.424 L132.688,82.328 C132.688,81.912 132.232,81.704 131.32,81.704 L131.32,81.704 L129.976,81.776 L129.976,74.36 C130.072,74.248 130.24,74.192 130.48,74.192 L130.48,74.192 L130.792,74.192 L131.08,74.216 C131.256,74.216 131.404,74.14 131.524,73.988 C131.644,73.836 131.704,73.664 131.704,73.472 C131.704,73.296 131.632,73.14 131.488,73.004 C131.344,72.868 131.184,72.8 131.008,72.8 C130.8,72.8 130.536,72.848 130.216,72.944 L130.216,72.944 L129.88,73.016 L129.928,71.672 C129.976,71.048 130,70.584 130,70.28 L130,70.28 L129.952,68.96 L129.904,68.288 C129.84,67.52 129.808,66.864 129.808,66.32 C129.84,66.304 129.928,66.296 130.072,66.296 C130.2,66.296 130.312,66.304 130.408,66.32 L130.408,66.32 L130.744,66.32 C131.48,66.32 131.848,66.08 131.848,65.6 C131.848,65.392 131.728,65.212 131.488,65.06 C131.248,64.908 131,64.832 130.744,64.832 C130.488,64.832 130.192,64.864 129.856,64.928 C129.488,64.992 129.192,65.024 128.968,65.024 C128.84,65.152 128.64,65.44 128.368,65.888 L128.368,65.888 L128.368,65.96 C128.368,66.28 128.424,66.688 128.536,67.184 C128.632,67.728 128.68,68.136 128.68,68.408 L128.68,68.408 L128.68,82.352 C128.68,82.72 128.816,82.944 129.088,83.024 C129.312,83.104 129.576,83.144 129.88,83.144 L129.88,83.144 L130.624,83.144 Z M136.408,83.048 C136.984,83.048 137.536,82.84 138.064,82.424 C138.96,81.688 139.768,80.44 140.488,78.68 C140.776,77.944 140.996,77.22 141.148,76.508 C141.3,75.796 141.376,75.184 141.376,74.672 C141.376,74.576 141.368,74.496 141.352,74.432 C141.336,74.368 141.328,74.272 141.328,74.144 C141.328,74.08 141.344,74.016 141.376,73.952 L141.376,73.952 L141.376,72.056 C141.376,71.544 141.328,70.84 141.232,69.944 C141.056,68.92 140.848,68.12 140.608,67.544 C140.256,66.696 139.824,66.048 139.312,65.6 C138.672,65.072 137.92,64.808 137.056,64.808 L137.056,64.808 L136.696,64.808 C135.464,64.808 134.848,65.088 134.848,65.648 C134.848,65.936 134.944,66.44 135.136,67.16 C135.296,67.848 135.376,68.416 135.376,68.864 C135.376,69.36 135.368,69.8 135.352,70.184 L135.352,70.184 L135.304,71.504 C135.304,72.464 135.384,73.776 135.544,75.44 C135.688,77.184 135.76,78.512 135.76,79.424 C135.76,80.944 135.584,81.88 135.232,82.232 C135.232,82.488 135.348,82.688 135.58,82.832 C135.812,82.976 136.088,83.048 136.408,83.048 Z M136.912,81.656 L136.912,79.376 C136.912,77.888 136.816,75.696 136.624,72.8 C136.432,69.888 136.336,67.712 136.336,66.272 L136.336,66.248 C136.864,66.248 137.336,66.356 137.752,66.572 C138.168,66.788 138.512,67.088 138.784,67.472 C139.36,68.272 139.736,69.168 139.912,70.16 C140.072,71.184 140.152,72.128 140.152,72.992 C140.152,74.592 139.936,76.176 139.504,77.744 C139.264,78.592 138.92,79.364 138.472,80.06 C138.024,80.756 137.504,81.288 136.912,81.656 L136.912,81.656 Z" id="REFRIED" stroke="#424141" fill="#424141" fill-rule="nonzero"></path>
        <path d="M101.664,109.192 C102.24,109.192 102.768,109.072 103.248,108.832 C104.048,108.4 104.68,107.688 105.144,106.696 C105.528,105.864 105.72,105.168 105.72,104.608 C105.72,103.424 105.5,102.34 105.06,101.356 C104.62,100.372 103.936,99.568 103.008,98.944 C103.536,98.56 103.992,97.976 104.376,97.192 C104.76,96.408 104.952,95.656 104.952,94.936 C104.952,93.752 104.624,92.8 103.968,92.08 C103.312,91.36 102.424,91 101.304,91 C100.888,91 100.632,91.216 100.536,91.648 C100.456,92 100.416,92.384 100.416,92.8 L100.416,92.8 L100.41632,93.1687467 C100.419307,94.2509156 100.4432,95.8 100.488,97.816 C100.536,99.992 100.56,101.616 100.56,102.688 L100.56,102.688 L100.464,108.592 C100.464,108.992 100.832,109.192 101.568,109.192 L101.568,109.192 L101.664,109.192 Z M101.808,98.584 L101.76,95.92 C101.728,95.088 101.712,94.144 101.712,93.088 C101.712,92.592 101.824,92.344 102.048,92.344 C102.496,92.344 102.896,92.568 103.248,93.016 C103.6,93.464 103.776,93.928 103.776,94.408 L103.776,94.408 L103.776,95.248 C103.664,95.52 103.584,95.744 103.536,95.92 C103.328,96.56 103.104,97.104 102.864,97.552 C102.576,98.144 102.224,98.488 101.808,98.584 L101.808,98.584 Z M101.904,107.944 C101.904,104.488 101.864,101.84 101.784,100 L101.784,100 L102.648,100 L102.84,100.072 C102.968,100.136 103.12,100.272 103.296,100.48 C103.472,100.688 103.648,100.944 103.824,101.248 C104.016,101.568 104.172,102.036 104.292,102.652 C104.412,103.268 104.472,103.944 104.472,104.68 C104.472,105.528 104.24,106.256 103.776,106.864 C103.312,107.472 102.688,107.832 101.904,107.944 Z M110.088,109.144 L110.88,109.12 C111.12,109.088 111.368,109.012 111.624,108.892 C111.88,108.772 112.056,108.616 112.152,108.424 L112.152,108.424 L112.152,108.328 C112.152,107.912 111.696,107.704 110.784,107.704 L110.784,107.704 L109.44,107.776 L109.44,100.36 C109.536,100.248 109.704,100.192 109.944,100.192 L109.944,100.192 L110.256,100.192 L110.544,100.216 C110.72,100.216 110.868,100.14 110.988,99.988 C111.108,99.836 111.168,99.664 111.168,99.472 C111.168,99.296 111.096,99.14 110.952,99.004 C110.808,98.868 110.648,98.8 110.472,98.8 C110.264,98.8 110,98.848 109.68,98.944 L109.68,98.944 L109.344,99.016 L109.392,97.672 C109.44,97.048 109.464,96.584 109.464,96.28 L109.464,96.28 L109.416,94.96 L109.368,94.288 C109.304,93.52 109.272,92.864 109.272,92.32 C109.304,92.304 109.392,92.296 109.536,92.296 C109.664,92.296 109.776,92.304 109.872,92.32 L109.872,92.32 L110.208,92.32 C110.944,92.32 111.312,92.08 111.312,91.6 C111.312,91.392 111.192,91.212 110.952,91.06 C110.712,90.908 110.464,90.832 110.208,90.832 C109.952,90.832 109.656,90.864 109.32,90.928 C108.952,90.992 108.656,91.024 108.432,91.024 C108.304,91.152 108.104,91.44 107.832,91.888 L107.832,91.888 L107.832,91.96 C107.832,92.28 107.888,92.688 108,93.184 C108.096,93.728 108.144,94.136 108.144,94.408 L108.144,94.408 L108.144,108.352 C108.144,108.72 108.28,108.944 108.552,109.024 C108.776,109.104 109.04,109.144 109.344,109.144 L109.344,109.144 L110.088,109.144 Z M119.4,109 C119.928,109 120.192,108.728 120.192,108.184 C120.192,107.224 120.112,105.936 119.952,104.32 C119.776,102.736 119.688,101.52 119.688,100.672 C119.688,99.792 119.528,98.152 119.208,95.752 C118.904,93.304 118.752,91.76 118.752,91.12 C118.576,90.992 118.32,90.928 117.984,90.928 C117.648,90.928 117.296,91.48 116.928,92.584 C116.592,93.576 116.276,94.808 115.98,96.28 C115.684,97.752 115.36,99.528 115.008,101.608 L115.008,101.608 L114.216,106 C113.992,107.248 113.792,108 113.616,108.256 C113.712,108.576 114.064,108.736 114.672,108.736 C114.768,108.576 114.864,108.356 114.96,108.076 C115.056,107.796 115.144,107.464 115.224,107.08 C115.304,106.696 115.352,106.448 115.368,106.336 L115.368,106.336 L115.464,105.856 C115.544,105.376 115.672,104.968 115.848,104.632 C116.36,104.664 116.904,104.736 117.48,104.848 C118.056,104.96 118.448,105.088 118.656,105.232 L118.656,105.232 L118.656,108.376 C118.656,108.6 118.716,108.76 118.836,108.856 C118.956,108.952 119.144,109 119.4,109 Z M118.152,103.84 C117.4,103.84 116.688,103.744 116.016,103.552 C116.032,103.072 116.16,102.096 116.4,100.624 C116.64,99.152 116.9,97.772 117.18,96.484 C117.46,95.196 117.68,94.472 117.84,94.312 L117.84,94.312 L117.840704,94.5967857 C117.848214,95.1202143 117.915806,96.1007857 118.04348,97.5385 L118.094173,98.0990714 C118.174439,98.9720714 118.273714,99.9897143 118.392,101.152 C118.504,102.192 118.584,103.064 118.632,103.768 C118.44,103.816 118.28,103.84 118.152,103.84 Z M128.976,109.36 C129.168,109.36 129.332,109.244 129.468,109.012 C129.604,108.78 129.672,108.536 129.672,108.28 L129.672,108.28 L129.67232,100.754987 C129.675307,99.7673956 129.6992,98.3477333 129.744,96.496 C129.792,94.528 129.816,93.056 129.816,92.08 C129.816,91.808 129.864,91.576 129.96,91.384 L129.96,91.384 L129.96,91.24 C129.96,90.616 129.744,90.304 129.312,90.304 C128.864,90.304 128.608,90.504 128.544,90.904 L128.544,90.904 L128.544,98.008 L128.496,102.184 C128.464,103.416 128.448,104.808 128.448,106.36 L128.448,106.36 L128.424,106.24 C128.152,105.072 128.024,104.52 128.04,104.584 C127.416,101.864 126.872,99.64 126.408,97.912 C125.592,94.936 124.92,92.872 124.392,91.72 C124.072,91.016 123.808,90.664 123.6,90.664 C123.248,90.664 123.072,91.064 123.072,91.864 L123.072,91.864 L123.072,92.008 C123.072,92.632 123.04,93.368 122.976,94.216 C122.928,95.192 122.904,95.928 122.904,96.424 L122.904444,99.5694815 C122.909481,100.024494 122.957333,101.136 123.048,102.904 C123.144,104.744 123.192,106.088 123.192,106.936 C123.192,107.096 123.176,107.432 123.144,107.944 L123.144,107.944 L123.096,108.64 C123.096,108.896 123.264,109.024 123.6,109.024 C123.824,109.024 124.024,108.972 124.2,108.868 C124.376,108.764 124.464,108.64 124.464,108.496 C124.464,107.984 124.408,106.848 124.296,105.088 C124.168,103.472 124.104,102.328 124.104,101.656 L124.104,93.784 C124.92,97.016 125.888,100.56 127.008,104.416 C128,107.712 128.656,109.36 128.976,109.36 Z M134.304,109.528 C134.832,109.528 135.312,109.388 135.744,109.108 C136.176,108.828 136.528,108.448 136.8,107.968 C137.312,107.04 137.568,106.048 137.568,104.992 C137.568,104.272 137.488,103.552 137.328,102.832 C137.168,102.112 136.952,101.464 136.68,100.888 L136.68,100.888 L135,97.528 C134.728,96.968 134.508,96.372 134.34,95.74 C134.172,95.108 134.088,94.488 134.088,93.88 C134.088,93.576 134.136,93.272 134.232,92.968 C134.344,92.648 134.508,92.364 134.724,92.116 C134.94,91.868 135.192,91.728 135.48,91.696 C135.688,91.856 136,91.936 136.416,91.936 L136.416,91.936 L136.824,91.432 C136.712,91.176 136.52,90.964 136.248,90.796 C135.976,90.628 135.696,90.544 135.408,90.544 C134.816,90.544 134.32,90.736 133.92,91.12 C133.52,91.472 133.22,91.904 133.02,92.416 C132.82,92.928 132.72,93.472 132.72,94.048 C132.72,94.768 132.84,95.512 133.08,96.28 C133.24,96.824 133.428,97.328 133.644,97.792 C133.86,98.256 134.168,98.888 134.568,99.688 L134.952,100.456 C135.32,101.176 135.612,101.916 135.828,102.676 C136.044,103.436 136.152,104.16 136.152,104.848 C136.152,105.488 136.008,106.208 135.72,107.008 C135.576,107.44 135.38,107.788 135.132,108.052 C134.884,108.316 134.608,108.448 134.304,108.448 C134.224,108.448 134.016,108.384 133.68,108.256 C133.376,108.128 133.144,108.064 132.984,108.064 C132.808,108.064 132.672,108.124 132.576,108.244 C132.48,108.364 132.432,108.52 132.432,108.712 C132.432,108.904 132.56,109.072 132.816,109.216 C133.232,109.424 133.728,109.528 134.304,109.528 Z" id="BEANS" stroke="#424141" fill="#424141" fill-rule="nonzero"></path>
    </g>
</svg>