<?xml version="1.0" encoding="UTF-8"?>
<svg width="235px" height="152px" viewBox="0 0 235 152" version="1.1" xmlns="http://www.w3.org/2000/svg" xmlns:xlink="http://www.w3.org/1999/xlink">
    <title>soup</title>
    <g id="soup" stroke="none" stroke-width="1" fill="none" fill-rule="evenodd">
        <g id="Group-4-Copy" transform="translate(16.000000, 9.000000)" fill="#424141" fill-rule="nonzero">
            <path d="M175.876954,20.9968556 C169.489879,20.9968556 161.903504,24.4287182 157.080312,29.093395 C152.278986,33.7369251 149.901368,39.3364024 149.901368,46.2468556 C149.901368,53.0818223 152.207766,58.2261947 157.010491,63.3576624 C162.010032,68.6994185 166.474678,71.4968556 172.170899,71.4968556 C178.72316,71.4968556 185.885332,68.3106198 191.148135,63.4618898 L192.923011,61.8213431 L193.788392,61.0030738 L194.177432,60.6274952 C199.608276,55.364188 202.454103,50.9882997 202.454103,45.9968556 C202.454103,42.8640241 201.510979,40.626262 199.202184,37.1264653 L197.937112,35.2328669 L197.591136,34.6989945 L197.293591,34.2218324 L197.107262,33.9114494 C193.946759,28.5669096 190.615649,24.8259433 186.525796,23.0039305 C183.551155,21.67874 179.712611,20.9968556 175.876954,20.9968556 Z M175.876954,24.9968556 C179.189079,24.9968556 182.483489,25.5820792 184.898034,26.6577495 C187.94094,28.0133515 190.706578,31.0527636 193.395573,35.498269 L193.874408,36.2978199 L194.090465,36.6473399 L194.446695,37.2041332 L195.032391,38.0888647 L195.844468,39.3006272 L196.250544,39.9255152 C197.860345,42.4487094 198.454103,44.0031284 198.454103,45.9968556 C198.454103,49.4819177 196.218281,53.0091908 191.750975,57.4061588 L190.932068,58.2001271 L189.388921,59.6431088 L188.437805,60.5201027 C183.871462,64.72717 177.645631,67.4968556 172.170899,67.4968556 C167.857717,67.4968556 164.243888,65.2325199 159.930918,60.62433 C155.783302,56.1928136 153.901368,51.9951981 153.901368,46.2468556 C153.901368,40.4211541 155.838491,35.859078 159.861096,31.9686756 C163.975434,27.9895559 170.591011,24.9968556 175.876954,24.9968556 Z" id="Oval"></path>
            <path d="M187.899673,39.3225753 C188.930602,39.7191329 189.444862,40.8763399 189.048305,41.9072695 L188.62005,43.0272277 L188.359243,43.6771388 C187.838593,44.9183241 187.302871,45.7639737 186.431662,46.5916708 C186.059706,46.9450503 185.63357,47.2868301 185.111989,47.6458939 L184.702262,47.9188838 L184.252875,48.201063 L183.759959,48.4951393 C183.673964,48.5452939 183.585994,48.5960571 183.495969,48.6474851 L182.930505,48.9644844 L182.311841,49.3001504 L181.636108,49.657191 C180.657106,50.1686875 179.448818,49.7896994 178.937322,48.8106972 C178.425825,47.8316951 178.804814,46.6234073 179.783816,46.1119108 L180.609346,45.6740046 L181.326078,45.2793817 L181.942864,44.9228591 L182.302899,44.7037846 C182.359676,44.668406 182.414876,44.633573 182.468553,44.5992536 L182.772775,44.3992443 L183.043066,44.2100256 L183.282048,44.0300616 C183.319415,44.0007535 183.355587,43.9717671 183.390618,43.9430702 L183.587556,43.7741089 C183.618243,43.7464426 183.647899,43.719002 183.676578,43.691755 C184.058789,43.3286333 184.297039,42.9765712 184.575912,42.3494619 L184.721325,42.0074702 L185.099044,41.0366097 L185.314979,40.4712073 C185.711536,39.4402777 186.868743,38.9260176 187.899673,39.3225753 Z" id="Path-2"></path>
            <path d="M102.066665,56.1301925 C103.097595,56.5267501 103.611855,57.6839571 103.215297,58.7148867 L102.787043,59.8348449 L102.587707,60.336472 C102.567054,60.3868706 102.546647,60.4360965 102.526235,60.4847559 C102.005586,61.7259413 101.469863,62.5715908 100.598655,63.399288 C100.087215,63.8851848 99.473341,64.349151 98.6497603,64.8662727 L98.1790922,65.154062 L97.6629609,65.4551023 L97.0974975,65.7721016 L96.4788336,66.1077676 L95.8031005,66.4648082 C94.8240984,66.9763047 93.6158105,66.5973165 93.1043141,65.6183144 C92.5928176,64.6393123 92.9718057,63.4310245 93.9508078,62.919528 L94.7763381,62.4816218 L95.265702,62.2140505 L95.7093338,61.9641806 L96.1098559,61.7304762 L96.469891,61.5114017 C96.5266686,61.4760232 96.5818685,61.4411902 96.6355454,61.4068708 L96.939767,61.2068615 C96.9875702,61.1744685 97.0339596,61.1425251 97.0789899,61.1109993 L97.3332987,60.9265999 C97.3731109,60.8966166 97.4116732,60.8669869 97.4490403,60.8376788 L97.659337,60.6654339 L97.8435705,60.4993722 C98.2257811,60.1362505 98.4640311,59.7841884 98.7429043,59.1570791 L98.8883177,58.8150873 L99.2660365,57.8442269 L99.4819707,57.2788245 C99.8785283,56.2478949 101.035735,55.7336348 102.066665,56.1301925 Z" id="Path-2" transform="translate(98.112859, 61.344447) rotate(112.000000) translate(-98.112859, -61.344447) "></path>
            <path d="M48.8838652,28.8644024 L48.572317,28.6437685 L46.6371347,27.3130944 L45.6857304,26.6427938 L45.1411624,26.2500665 L44.8347946,26.0230897 L43.795824,25.2140956 C38.3160813,20.9939971 34.40085,19.3445119 28.0917979,19.3445119 C24.4793451,19.3445119 21.1286178,20.4620716 16.7176603,22.8658548 L15.9036908,23.3171171 C15.7659839,23.3947022 15.62723,23.4734778 15.487392,23.5534486 L14.6350629,24.0476531 L13.7549535,24.5707673 L12.8452983,25.1230165 L11.6951095,25.8336318 L11.2283781,26.1141664 L10.4268402,26.5817859 L9.22274542,27.266101 L4.22820979,30.0388341 L3.54621464,30.4288503 L3.35781932,30.5416182 L3.22449573,30.6263106 C1.00473149,32.1145549 0,33.823488 0,36.4587697 C0,37.2531643 0.00725501542,38.0188854 0.0227800128,38.7588588 L0.0523968663,39.8498741 C0.304908438,47.3569268 1.52513556,52.1866052 4.88802891,57.7261303 C9.06436371,64.6055964 16.5897859,69.6214843 24.7156493,71.4481596 C32.6853507,73.2397301 40.5983333,70.9217998 44.9365864,65.2466328 C47.7448438,61.5729585 49.4952355,56.7337595 50.8960646,49.9404835 L51.112444,48.8620892 L51.2912749,47.9280048 L51.4720442,46.9460718 L52.0067958,43.8689896 L52.5335807,40.7801127 L52.7131336,39.769123 C53.6874298,34.3868907 52.4978089,31.5326874 48.8838652,28.8644024 Z M46.3222305,31.9497125 L46.312805,31.9405688 C46.4487765,32.0377912 46.5792321,32.1336054 46.7042722,32.2284633 L47.0632459,32.5106198 C48.9493466,34.0516717 49.3883463,35.4553876 48.8305455,38.7516858 L48.4059531,41.1795403 L47.8144037,44.6572139 L47.6271542,45.7252833 L47.4483139,46.7143493 L47.1870963,48.0928933 L47.0999078,48.5342394 C45.7877836,55.105278 44.1906163,59.6360709 41.7587281,62.8173909 C38.4347103,67.165767 32.1252174,69.013991 25.5929466,67.5455516 C18.4822282,65.9470785 11.891193,61.5539836 8.30728567,55.6503935 C5.34897222,50.7773126 4.27422275,46.5495642 4.04803016,39.6632103 L4.02086619,38.636089 C4.0173084,38.4616111 4.01422536,38.2854558 4.01160207,38.1075751 L4.00125908,37.0192031 C4,36.8342292 4,36.647434 4,36.4587697 C4,35.2888803 4.26277855,34.780351 5.27607834,34.0692392 L5.49427841,33.92139 L5.78993521,33.7468052 L7.06718232,33.0348405 L10.0582953,31.3844393 L11.627446,30.5041922 L12.6185995,29.9362185 L13.2249727,29.580955 L13.772224,29.2520972 L14.9125531,28.5477884 L15.7737974,28.0253184 L16.6047344,27.5319705 L17.4068663,27.0674928 L18.1816956,26.6316335 L18.9307247,26.2241408 L19.6554562,25.8447628 C22.9831786,24.139542 25.566255,23.3445119 28.0917979,23.3445119 C33.358187,23.3445119 36.50691,24.6531383 41.3113861,28.3492391 L42.1055998,28.9697046 C42.1892434,29.035979 42.2865508,29.1108209 42.3948032,29.1924318 L42.9466401,29.599302 L43.8170983,30.2209981 L45.2493134,31.2189716 L46.3222305,31.9497125 Z" id="Oval"></path>
            <path d="M14.7231745,46.3741551 C15.7768548,46.0427463 16.8996912,46.628263 17.2311,47.6819432 L17.326426,47.9810126 L17.5181623,48.5576303 C17.5502814,48.6513758 17.582496,48.7439537 17.6148276,48.8353811 L17.8103889,49.3702723 C19.0928616,52.75907 20.6176735,54.4490667 23.6442505,55.4409091 L24.1218958,55.5881271 C24.3668124,55.659117 24.6209974,55.7262794 24.885024,55.7900699 L25.4263691,55.9132897 L25.9949777,56.0283273 C26.189171,56.0653994 26.388078,56.1012428 26.5918686,56.1359923 L27.2180612,56.2370945 L27.8745744,56.3324436 C27.9865767,56.3479006 28.0998847,56.3631517 28.2145198,56.3782137 L28.9184249,56.4664512 L29.6551985,56.5509599 L33.3040633,56.9272833 L33.6064889,56.9600811 C34.8908572,57.1006532 36.0326881,57.2430783 37.17038,57.4095235 C38.2633149,57.5694208 39.0196913,58.5850419 38.8597941,59.6779768 C38.6998968,60.7709116 37.6842757,61.5272881 36.5913408,61.3673908 C35.6869609,61.2350793 34.7756386,61.1181557 33.779661,61.0043464 L29.1046255,60.5155948 L27.8395975,60.3699259 L27.062546,60.2701972 L26.3341027,60.166939 L25.6504685,60.0589198 L25.0078442,59.944908 C24.9039466,59.9253382 24.8015994,59.9054674 24.7007235,59.88527 L24.1124908,59.7599603 C22.4922678,59.3926468 21.2515042,58.9160999 20.0013464,58.2042713 C16.9591674,56.4720818 14.8833139,53.5492053 13.4153864,48.8820805 C13.0839776,47.8284003 13.6694943,46.7055638 14.7231745,46.3741551 Z" id="Path-3"></path>
            <path d="M68.7270808,9.08606912 C69.780761,8.75466033 70.9035975,9.34017701 71.2350063,10.3938572 L71.3303322,10.6929267 L71.5220686,11.2695444 C71.5541876,11.3632898 71.5864023,11.4558678 71.6187338,11.5472951 L71.8142952,12.0821863 C71.880063,12.2559708 71.9464682,12.4252877 72.0136805,12.590272 L72.2179088,13.0723619 C73.4943439,15.9667598 75.1051636,17.4244993 78.1258021,18.3000412 L78.628163,18.4370526 C78.714006,18.4590823 78.8009214,18.4807205 78.8889303,18.5019839 L79.4302754,18.6252038 L79.9988839,18.7402414 C80.1930772,18.7773135 80.3919842,18.8131568 80.5957749,18.8479064 L81.2219674,18.9490086 L81.8784807,19.0443576 C81.9904829,19.0598147 82.103791,19.0750658 82.2184261,19.0901278 L82.9223312,19.1783653 L83.6591047,19.262874 L87.3079696,19.6391973 L87.6103951,19.6719952 C88.8947635,19.8125673 90.0365943,19.9549923 91.1742863,20.1214376 C92.2672211,20.2813348 93.0235976,21.2969559 92.8637003,22.3898908 C92.7038031,23.4828257 91.688182,24.2392021 90.5952471,24.0793049 C89.6908671,23.9469934 88.7795449,23.8300698 87.7835672,23.7162605 L83.1085317,23.2275089 L82.2514447,23.1307655 L81.4486646,23.0323398 L80.6963921,22.9310004 L79.9908282,22.8255156 L79.3281738,22.714654 L78.7046298,22.5971841 L78.1163971,22.4718744 C76.496174,22.1045608 75.2554104,21.628014 74.0052527,20.9161853 C70.9630737,19.1839959 68.8872202,16.2611194 67.4192927,11.5939946 C67.0878839,10.5403144 67.6734006,9.41747791 68.7270808,9.08606912 Z" id="Path-3" transform="translate(80.105822, 16.547012) rotate(164.000000) translate(-80.105822, -16.547012) "></path>
            <path d="M60.2768855,96.0889988 C61.3305657,95.75759 62.4534022,96.3431067 62.784811,97.3967869 L62.9757819,97.9877183 C63.0077309,98.0838157 63.0397543,98.1787286 63.0718733,98.2724741 L63.2659049,98.8210717 L63.4632508,99.3424589 C63.5629222,99.5964849 63.6642187,99.8406106 63.7677134,100.075292 L63.9778038,100.532195 C65.2224105,103.125582 66.818246,104.474756 69.6756067,105.302971 L70.1779677,105.439982 C70.2638107,105.462012 70.3507261,105.48365 70.4387349,105.504914 L70.9800801,105.628133 L71.5486886,105.743171 C71.6457852,105.761707 71.7440603,105.779936 71.8435351,105.797875 L72.4549495,105.902157 C72.5593078,105.919002 72.6649083,105.93559 72.7717721,105.951938 L73.4282854,106.047287 C73.5402876,106.062744 73.6535956,106.077995 73.7682307,106.093057 L74.4721358,106.181295 C74.5921641,106.195668 74.7135619,106.209886 74.8363504,106.223965 L75.5899403,106.306913 L78.8577743,106.642127 L79.1601998,106.674925 C80.4445682,106.815497 81.586399,106.957922 82.7240909,107.124367 C83.8170258,107.284265 84.5734023,108.299886 84.413505,109.392821 C84.2536078,110.485755 83.2379866,111.242132 82.1450518,111.082235 C81.2406718,110.949923 80.3293496,110.832999 79.3333719,110.71919 L77.810756,110.553786 L75.1084321,110.278564 L74.2227671,110.1822 L73.3933084,110.08477 L72.616257,109.985041 C72.4909046,109.96816 72.3675776,109.951131 72.2461968,109.93393 L71.5406329,109.828445 L70.8779785,109.717584 L70.2544345,109.600114 C68.3377931,109.216363 66.9522925,108.714688 65.5550574,107.919115 C62.5128784,106.186926 60.4370249,103.264049 58.9690974,98.5969243 C58.6376886,97.5432441 59.2232053,96.4204076 60.2768855,96.0889988 Z" id="Path-3" transform="translate(71.655627, 103.549942) rotate(147.000000) translate(-71.655627, -103.549942) "></path>
            <path d="M134.276885,103.088999 C135.330566,102.75759 136.453402,103.343107 136.784811,104.396787 L136.975782,104.987718 C137.007731,105.083816 137.039754,105.178729 137.071873,105.272474 L137.265905,105.821072 L137.463251,106.342459 C137.562922,106.596485 137.664219,106.840611 137.767713,107.075292 L137.977804,107.532195 C139.222411,110.125582 140.818246,111.474756 143.675607,112.302971 L144.177968,112.439982 C144.263811,112.462012 144.350726,112.48365 144.438735,112.504914 L144.98008,112.628133 L145.548689,112.743171 C145.645785,112.761707 145.74406,112.779936 145.843535,112.797875 L146.454949,112.902157 C146.559308,112.919002 146.664908,112.93559 146.771772,112.951938 L147.428285,113.047287 C147.540288,113.062744 147.653596,113.077995 147.768231,113.093057 L148.472136,113.181295 C148.592164,113.195668 148.713562,113.209886 148.83635,113.223965 L149.58994,113.306913 L152.857774,113.642127 L153.1602,113.674925 C154.444568,113.815497 155.586399,113.957922 156.724091,114.124367 C157.817026,114.284265 158.573402,115.299886 158.413505,116.392821 C158.253608,117.485755 157.237987,118.242132 156.145052,118.082235 C155.240672,117.949923 154.32935,117.832999 153.333372,117.71919 L151.810756,117.553786 L149.108432,117.278564 L148.222767,117.1822 L147.393308,117.08477 L146.616257,116.985041 C146.490905,116.96816 146.367578,116.951131 146.246197,116.93393 L145.540633,116.828445 L144.877978,116.717584 L144.254434,116.600114 C142.337793,116.216363 140.952293,115.714688 139.555057,114.919115 C136.512878,113.186926 134.437025,110.264049 132.969097,105.596924 C132.637689,104.543244 133.223205,103.420408 134.276885,103.088999 Z" id="Path-3"></path>
            <path d="M113.655103,52.4997124 C114.708783,52.1683036 115.83162,52.7538203 116.163028,53.8075005 L116.259939,54.1112995 L116.455233,54.6967833 C116.487988,54.7919416 116.52086,54.8859004 116.55387,54.9786771 L116.753754,55.5212907 C118.234188,59.3984723 120.063374,61.0544575 124.035261,61.9723695 L124.590332,62.0931038 C124.685113,62.1125101 124.781043,62.1315701 124.878144,62.150301 L125.474953,62.2588777 L126.100852,62.3603941 L126.756852,62.4556858 C126.86875,62.4710955 126.981944,62.4862806 127.096455,62.5012586 L128.163196,62.6309382 L128.915562,62.7125703 C130.014199,62.8268969 130.81214,63.8101982 130.697814,64.9088351 C130.583487,66.0074721 129.600186,66.8054133 128.501549,66.6910867 L127.69135,66.6023338 L126.909133,66.5072038 C126.781059,66.4907798 126.654123,66.4740619 126.528311,66.4570359 L125.786825,66.3510715 L125.071665,66.2370381 L124.38217,66.1142592 C117.613331,64.8404859 114.594824,62.1533629 112.347315,55.0076379 C112.015906,53.9539577 112.601423,52.8311212 113.655103,52.4997124 Z" id="Path" transform="translate(121.481675, 59.554511) scale(1, -1) rotate(-52.000000) translate(-121.481675, -59.554511) "></path>
            <path d="M126.078843,91.4178011 L125.848818,91.9843197 L125.645849,92.5019355 L125.424356,93.0984207 L125.253599,93.5857992 L125.007517,94.3260125 L124.461923,96.0557104 L124.227954,96.8108556 L124.060875,96.9595598 C118.386551,102.055332 116.212693,109.703407 118.114134,116.141477 C120.252477,123.38167 127.275071,130.9578 135.448135,133.024682 C138.332855,133.754198 140.783113,133.708958 143.446445,132.997566 L143.595164,132.956023 L143.955205,132.845977 L144.387563,132.704469 L145.14241,132.444992 L146.277036,132.039149 L148.314437,131.285162 L150.227629,130.556891 L150.519475,130.440504 C152.233758,129.824735 153.851716,129.334613 155.61734,128.921897 C156.453378,128.726473 157.19745,128.656992 158.349401,128.668471 L158.911853,128.679354 L159.543149,128.700752 L159.888026,128.715087 C160.110994,128.724804 160.32843,128.73284 160.540584,128.739007 L161.161442,128.751721 C165.198146,128.796639 167.220982,128.020063 169.218701,124.935661 C170.498223,122.960128 170.050411,121.142913 168.213616,118.410281 L167.875126,117.918331 C167.816331,117.834683 167.756351,117.750188 167.695196,117.664819 L167.314225,117.141902 L166.90545,116.596702 L165.599726,114.883167 L165.31794,114.504105 L164.95147,113.998978 L164.647826,113.56267 L164.477731,113.30595 L164.331705,113.073698 L164.208206,112.863464 L164.105692,112.672803 C164.090269,112.642521 164.075657,112.612953 164.061822,112.584047 L163.987896,112.418155 L163.9311,112.265716 C163.906728,112.192451 163.888202,112.123314 163.874655,112.056928 C163.564316,110.536145 163.519189,109.18624 163.70532,107.23184 L163.775882,106.556921 L163.863295,105.830842 L163.967279,105.047223 L164.138366,103.818851 L164.237311,103.064537 L164.32171,102.364189 L164.391046,101.713097 L164.444797,101.106552 C164.620312,98.8608247 164.440872,97.49317 163.774729,95.8097771 C161.585908,90.2784706 155.1026,85.8421852 145.69177,82.5667871 L144.634144,82.2076347 C144.277632,82.0895118 143.917175,81.9729848 143.55284,81.8580569 C135.289656,79.2514691 129.933641,82.820552 126.508638,90.4188449 L126.219772,91.0799445 C126.172408,91.1917557 126.125433,91.3043766 126.078843,91.4178011 Z M142.349506,85.6727637 C151.864535,88.674241 158.273176,92.7779056 160.055352,97.2815903 C160.404281,98.1633611 160.538663,98.9899133 160.481212,100.294417 L160.454988,100.747685 L160.414741,101.240745 L160.360658,101.777985 L160.254,102.676283 L160.117263,103.69867 L159.999886,104.536236 L159.883129,105.42062 C159.865214,105.562889 159.848078,105.702697 159.831733,105.840194 L159.743252,106.638678 C159.506844,108.95828 159.534245,110.628132 159.89262,112.536316 L159.986813,113.003627 L160.056787,113.288867 C160.107015,113.475927 160.164902,113.657754 160.233476,113.840141 L160.344729,114.114864 C160.364733,114.160963 160.385499,114.207278 160.407075,114.253899 L160.546628,114.538029 L160.707883,114.83386 L160.893111,115.145738 C160.926106,115.199297 160.960195,115.253705 160.995424,115.309053 L161.220867,115.653148 L161.475956,116.024152 L161.762961,116.42641 L162.258276,117.097902 L163.051586,118.143166 L163.722972,119.019879 L164.097133,119.51893 L164.429491,119.975651 L164.722403,120.39425 L164.97823,120.778936 C165.255979,121.209589 165.462829,121.579594 165.615639,121.91902 C165.722842,122.157142 165.787869,122.336094 165.825381,122.466736 L165.858128,122.601014 L165.87009,122.693084 C165.871813,122.729263 165.867854,122.751178 165.861379,122.761176 C164.803715,124.394169 163.914615,124.792349 161.234435,124.755106 L160.673937,124.742088 L159.277733,124.688447 C159.153877,124.684362 159.03328,124.680793 158.915668,124.677774 L158.243594,124.666527 C156.855461,124.657622 155.878445,124.753038 154.706881,125.026892 C153.056714,125.412619 151.525702,125.860097 149.956046,126.398865 L149.104735,126.70125 L146.067378,127.854145 L144.52779,128.419896 L143.660957,128.728279 L143.099806,128.92022 L142.644987,129.066387 L142.41421,129.133049 C140.394783,129.67245 138.635953,129.704924 136.42882,129.146763 C129.718606,127.44982 123.71045,120.968088 121.950321,115.008484 C120.431969,109.867514 122.33743,103.555444 127.243752,99.4957637 L127.704313,99.1146772 L128.756939,95.7328327 L129.057821,94.8263831 L129.284571,94.1914174 L129.3846,93.9257795 L129.569925,93.4524062 L129.778869,92.9376074 C132.482499,86.3555176 136.102971,83.7023195 142.349506,85.6727637 Z" id="Path-4"></path>
            <path d="M56.9846809,89.5424245 C55.1515301,90.8034146 53.7689364,92.4765857 52.1224951,95.2017918 L51.6865338,95.9370006 L51.2357837,96.722463 L49.6951827,99.4891841 L49.3178408,100.146587 C48.4035632,101.713242 47.6985768,102.714263 47.0051898,103.391896 L46.3325312,104.021085 C46.2455146,104.103555 46.1594966,104.185771 46.0744778,104.267738 L45.5763612,104.756582 C44.6851493,105.647439 43.9150004,106.509193 43.2667728,107.34775 L42.9252907,107.802879 C39.5216923,112.482842 39.9963196,116.459948 44.5028652,120.79153 L44.9515743,121.211857 C45.0284587,121.282108 45.1063932,121.35246 45.1853785,121.422918 L45.6719056,121.846964 C46.0046704,122.130553 46.3542689,122.415973 46.7207426,122.703507 L47.0948014,122.992971 L48.7804758,124.244345 L51.0858002,125.937629 L51.4355722,126.199836 L52.0940323,126.701518 L52.7013438,127.176301 C52.8957402,127.330533 53.0823379,127.480965 53.2618629,127.628278 L53.779946,128.061543 C53.8629988,128.132422 53.944465,128.202692 54.0244352,128.272438 L54.487032,128.685312 L54.7849642,128.962814 C56.1453711,130.254572 58.5206581,131.352468 61.9789481,132.336992 L62.8297663,132.571142 L63.722381,132.801186 L64.6570016,133.027371 C65.2941305,133.17693 65.9594027,133.32408 66.6530975,133.469153 C74.3363949,135.255401 81.8842564,134.711108 87.0989171,130.92481 C89.7028111,129.034157 91.2623866,126.414576 92.0767862,123.005438 L92.1853681,122.532402 L92.2838573,122.063062 C92.2994672,121.984867 92.3146836,121.906616 92.32952,121.828205 L92.4140876,121.354971 L92.4901854,120.872849 L92.5584628,120.376805 L92.6195687,119.861806 L92.6741525,119.322817 L92.745219,118.458344 L92.7863373,117.837361 L92.8232055,117.174771 L92.8719588,116.091863 L92.9010417,115.303234 L93.0366587,110.856575 L93.0768144,109.967497 L93.1400269,108.669401 C93.1479653,108.487917 93.1553835,108.308592 93.1622851,108.131113 L93.1857004,107.474493 C93.3858559,101.274912 92.9195783,96.7291738 91.3858767,93.0909882 C89.4070516,88.3968983 85.6915054,85.633797 80.1330592,85.1783408 C70.6996891,84.4053753 63.2050871,85.2635234 56.9846809,89.5424245 Z M79.806396,89.1649798 C85.2067962,89.6074858 87.9226723,92.6907395 88.850097,98.9632554 L88.938281,99.6121541 L89.0143438,100.283169 L89.0784948,100.97643 C89.0882057,101.093834 89.0974289,101.212171 89.1061689,101.331442 L89.152845,102.05831 L89.1881329,102.807744 L89.212242,103.579871 C89.2184385,103.841044 89.2228068,104.10602 89.2253818,104.374821 L89.2277617,105.19272 C89.2272733,105.330956 89.2263453,105.470154 89.2249821,105.610316 L89.2116148,106.462881 C89.2054413,106.75094 89.1975618,107.042878 89.1880111,107.338716 L89.1650649,107.982154 L89.119243,109.029011 L89.0478047,110.50099 L88.9887803,112.228441 L88.9286474,114.338751 L88.8803286,115.617382 L88.8418732,116.421499 L88.7978326,117.18843 L88.7477006,117.919426 L88.6909707,118.615736 C88.6809378,118.728966 88.6706088,118.840804 88.6599733,118.951274 L88.5923971,119.597897 L88.5169572,120.212958 C88.4904436,120.412857 88.462535,120.607704 88.433147,120.797707 L88.3404603,121.353392 C87.8702068,123.970981 87.071159,125.613935 85.6860237,126.917153 L85.3909968,127.182145 C85.3404038,127.225572 85.2890927,127.268647 85.2370531,127.311396 L84.9159886,127.564188 C84.8609927,127.605737 84.8052471,127.647013 84.7487413,127.688041 C80.6576014,130.658565 74.2234881,131.122543 67.5152703,129.563428 L67.0564611,129.466136 L66.168867,129.270123 L65.3214391,129.072398 C65.1835572,129.039315 65.0473556,129.00617 64.9128377,128.972969 L64.1259604,128.773123 L63.3796512,128.572158 C63.2586559,128.538583 63.1393576,128.504972 63.0217598,128.471329 L62.3366039,128.269129 L61.6924178,128.066402 C61.4845353,127.998764 61.2835079,127.931078 61.0893623,127.863383 L60.527598,127.66031 L60.0072858,127.457419 C58.8417095,126.984402 58.0159705,126.514804 57.5392567,126.062147 L57.1864405,125.7335 C56.2692394,124.894727 55.2149769,124.040341 53.8850387,123.037102 L52.9369794,122.333505 L49.9276649,120.11816 L49.4387396,119.749935 L48.9367433,119.357891 L48.4628653,118.975815 C48.3862286,118.912928 48.3107635,118.850427 48.2364698,118.788298 L47.8047642,118.41987 L47.4011701,118.059668 C44.0900877,115.030944 43.8253101,112.81832 46.5994558,109.496608 L46.9398458,109.100585 C47.2351871,108.766109 47.5597348,108.420246 47.913482,108.061184 L48.3519938,107.623857 C48.427415,107.549874 48.5040039,107.475335 48.5817607,107.400224 L49.0623148,106.942583 L49.5708936,106.470528 C50.6639281,105.467633 51.5851875,104.193484 52.7345792,102.228232 L53.2329801,101.358804 L54.6967094,98.7285182 L55.0854187,98.0501033 C55.1488667,97.9409466 55.2116724,97.8337188 55.2738749,97.7283787 L55.6401653,97.1186627 L55.9938599,96.5522811 C57.1539376,94.7343748 58.135419,93.6058395 59.2516494,92.8380055 C64.4913848,89.2336894 71.2293337,88.4621798 79.806396,89.1649798 Z" id="Path-5"></path>
            <path d="M122.924512,49.1482051 L123.629769,49.8169974 C126.980256,52.9934307 128.145894,54.8975338 128.6014,59.2094077 L128.692778,60.1287531 C128.706793,60.2796569 128.720193,60.4294039 128.73297,60.5779992 L128.802079,61.4557911 L128.855777,62.3061868 C129.176678,68.1636422 128.3318,72.0254854 125.625237,74.2697962 C124.826833,74.9318413 123.998075,75.575076 123.147631,76.1953181 L122.413572,76.7212257 L121.670104,77.2352864 L120.918442,77.7369148 C119.533626,78.6448128 118.113613,79.4870807 116.692049,80.2474889 L115.916698,80.6540411 C115.787515,80.7204143 115.658369,80.7860865 115.529287,80.8510456 L114.75575,81.2321455 C113.983373,81.6044931 113.215085,81.9502909 112.456345,82.2669052 L111.70099,82.5736941 C106.939796,84.4538454 102.634597,85.128199 100.17243,83.9276797 C99.9827434,83.8351912 99.7980927,83.7431519 99.618332,83.651348 L99.0935741,83.3764291 C99.0085109,83.3306558 98.9246337,83.2848879 98.8419244,83.2390988 L98.3595377,82.9638956 L97.9043062,82.6869007 C94.9580053,80.8314473 93.7638054,78.7710941 93.1567135,74.7968044 L93.0699074,74.1860929 C93.056125,74.081844 93.0426732,73.9763454 93.0295338,73.8695706 L92.9542993,73.2133921 L92.8856872,72.5253001 L92.8228235,71.8040129 L92.7648346,71.0482485 L92.5670378,68.25049 L92.4910927,67.3230428 L92.394193,66.3273758 L92.313751,65.5958401 L90.277414,59.384987 L90.2321171,59.2608442 L90.065574,58.8438827 L89.7503168,58.0333713 L89.4585966,57.2536591 C89.4119222,57.1262459 89.3662168,57.0000952 89.3214745,56.8751965 L89.06453,56.1407458 C89.0236163,56.0208137 88.9836539,55.9021128 88.9446369,55.7846328 L88.7218326,55.094319 C88.6865736,54.9816806 88.6522483,54.8702422 88.6188507,54.7599933 L88.4295511,54.1126919 C87.5085366,50.8411943 87.4677736,48.6928696 88.1319571,47.3575051 C88.6260108,46.3641926 89.5787172,45.6343295 91.4379486,44.9315036 L91.9438239,44.7486156 C92.0316619,44.7181847 92.1212872,44.687766 92.2127366,44.6573402 L92.7836165,44.4745434 C92.9814025,44.4134787 93.1867793,44.3522299 93.4000414,44.2906415 L94.0637783,44.104702 L94.7765939,43.9157921 L96.0267791,43.6026596 L98.351205,43.0370198 L98.8502844,42.8979671 L99.1781429,42.7929288 L99.8273439,42.5662684 L101.640413,41.8968647 L103.338704,41.2632711 L104.234546,40.938562 L105.039117,40.6597628 L105.524951,40.4994083 L105.970459,40.3594673 L106.375738,40.2399436 C106.504137,40.2035057 106.625847,40.1704712 106.740884,40.1408408 L107.065991,40.0621626 C107.116845,40.0507518 107.166034,40.0401922 107.213561,40.0304838 L107.478792,39.9824492 L107.704225,39.9548483 C107.772748,39.949054 107.834653,39.946666 107.889957,39.9474562 C111.791472,40.0206207 117.521042,42.4780002 119.629847,45.4675567 C120.528354,46.7413288 121.454803,47.7464612 122.924512,49.1482051 Z M126.683263,47.2022571 L125.394933,45.9749213 L124.865129,45.4536892 C124.11735,44.7033219 123.569215,44.080433 123.065098,43.3935066 L122.898475,43.1618967 C119.974714,39.0170145 113.041235,36.0432853 107.964175,35.9483734 C107.119962,35.9328218 106.13935,36.1201019 104.79988,36.5296007 L104.244425,36.7052978 L103.647529,36.9049739 L103.006027,37.1289048 L102.316755,37.3773662 L98.8659879,38.6590104 L98.0923195,38.9350373 L97.6496125,39.0788787 L97.287968,39.1794033 L94.1728453,39.9416155 L93.534791,40.1073361 L92.9232854,40.2756631 L92.3317361,40.4485862 L91.7600977,40.626442 C91.292016,40.7768037 90.8446278,40.932654 90.4178151,41.0948687 L89.9155086,41.2926374 L89.4329094,41.4968523 L88.969972,41.70785 C84.5142779,43.817111 82.9038198,46.9589329 83.9448727,52.5726239 L84.0598755,53.152085 L84.193114,53.748925 C84.2405611,53.9508055 84.2910399,54.1556386 84.344543,54.3634802 L84.5141172,54.9960871 C84.5736611,55.2100021 84.6362216,55.4269817 84.7017913,55.647082 L84.90752,56.3168013 L85.1312582,57.0055814 C85.1700461,57.1219852 85.2095826,57.2391972 85.2498666,57.3572244 L85.5005339,58.0752265 L85.7690974,58.8131303 L86.0555118,59.5712722 L86.3597318,60.3499887 L86.4969542,60.6948556 L88.3839542,66.4498556 L88.507974,67.6923641 L88.6122884,69.0059555 L88.7778334,71.3775115 L88.873265,72.6305434 L88.9399757,73.3948332 C88.9513838,73.5178019 88.9629535,73.638629 88.9747098,73.757412 L89.0476888,74.4463601 L89.1263531,75.090925 L89.2119077,75.6957828 C89.4354114,77.1621896 89.7348096,78.3001767 90.1948353,79.4385122 L90.3876131,79.8946443 C90.4212375,79.9709292 90.455626,80.0474104 90.4908038,80.1241855 C91.8969366,83.1930566 94.394962,85.5608162 98.4193694,87.5230628 C103.377418,89.9405404 111.831094,87.6696797 119.801732,83.1332827 L120.597038,82.672181 C120.993739,82.437944 121.388901,82.198245 121.782026,81.9533869 L122.565413,81.4568817 L123.342486,80.9471574 C123.471423,80.8611316 123.60006,80.7745775 123.728378,80.6875063 L124.494321,80.1589627 C124.621293,80.0698677 124.747909,79.980278 124.874151,79.8902048 L125.626975,79.3440533 L126.369947,78.7868362 C126.738823,78.5055511 127.103673,78.2203182 127.464,77.9314405 L128.178476,77.348915 C132.032313,74.1532713 133.181959,69.5416279 132.893964,62.859922 L132.849486,61.9956426 L132.789975,61.1085703 L132.716015,60.1984027 L132.628193,59.2648375 C132.612433,59.1072767 132.59612,58.9487284 132.579266,58.7891863 C132.022147,53.5154299 130.444179,50.8258862 126.683263,47.2022571 Z" id="Path-6"></path>
            <path d="M57.9076943,11.7427224 L57.7455923,12.431232 C57.5384091,13.3589141 57.3671162,14.3247501 57.2326613,15.3224671 L57.1387421,16.0766345 L57.0587261,16.842169 L56.9927021,17.6184827 L56.940759,18.4049875 C56.8360551,20.2515972 56.8470707,22.1766308 56.9788858,24.1464679 L57.0427886,24.9933289 C58.1250707,37.881602 63.9515932,48.3440807 73.4050213,50.9477791 C83.5912144,53.7532984 94.9498765,45.9201727 100.420364,33.8600714 C106.265219,20.9746509 103.470866,7.78199219 91.1459894,0.895692478 L90.9101293,0.763909978 L88.144225,0.084204972 L87.2667018,0.109295363 L86.3471863,0.124599393 L85.3790856,0.129059176 L83.9514843,0.118956146 L82.7322656,0.0999563843 L79.4902244,0.0325473097 L77.8447528,0.00767957824 L76.8204088,-2.13162821e-14 L75.8486245,-2.13162821e-14 L74.9246429,0.00831564223 C74.7743652,0.0104097092 74.6258811,0.0128683555 74.4790914,0.0157023098 L73.6178942,0.0372955619 C73.477486,0.0416736634 73.338574,0.0464485305 73.2010591,0.0516308919 L72.3919429,0.087700823 C72.2596202,0.0945560769 72.1284964,0.101840283 71.9984724,0.109564169 L71.2307338,0.161269487 C71.1047127,0.170795012 70.9795932,0.180781675 70.8552762,0.191240204 L70.1182117,0.259739618 C69.9967083,0.272128531 69.8758093,0.285010768 69.7554154,0.298397059 L69.0383216,0.384849275 C68.919552,0.400294695 68.8010895,0.416265625 68.6828348,0.432772795 L67.9750082,0.538336523 C67.7393689,0.575726611 67.5037683,0.615347488 67.2674135,0.657284985 L66.5552935,0.790133162 C62.3399443,1.61422158 59.3706434,5.83933819 57.9076943,11.7427224 Z M83.1046491,4.10705787 L84.3102659,4.12321794 L85.3973739,4.12914761 L86.4026813,4.12430872 L87.3628962,4.10816309 L87.7179542,4.09885561 L89.4249542,4.51785561 L89.1949483,4.38760291 C99.5193227,10.1561584 101.830581,21.068042 96.777605,32.207708 C92.0327874,42.6680149 82.4359383,49.2861645 74.4671664,47.0913756 C66.9797632,45.0291671 61.9864162,36.062792 61.0287594,24.6586103 C60.1583938,14.2939284 63.0814305,5.54498468 67.3227535,4.71581848 L67.9685853,4.59553292 L68.613012,4.4877526 C68.7205471,4.47080665 68.8282095,4.45436325 68.9360921,4.43841315 L69.5867731,4.34855817 L70.2471985,4.2700984 L70.9218279,4.20258981 C71.1495672,4.18186281 71.3804172,4.16288701 71.6151211,4.1455884 L72.3315378,4.09865015 C72.4531153,4.09164103 72.5758422,4.08503272 72.6998112,4.07881595 L73.4592753,4.04613991 L74.2530123,4.02241699 C74.3884057,4.0191846 74.5254129,4.01630675 74.6641268,4.0137742 L75.5176353,4.00264844 L76.416566,3.99936576 L77.3653788,4.00348215 L78.3685335,4.0145536 C78.5405022,4.01695376 78.7149209,4.01962522 78.8918826,4.02255872 L83.1046491,4.10705787 Z" id="Path-7"></path>
        </g>
    </g>
</svg>