<?xml version="1.0" encoding="UTF-8"?>
<svg width="235px" height="152px" viewBox="0 0 235 152" version="1.1" xmlns="http://www.w3.org/2000/svg" xmlns:xlink="http://www.w3.org/1999/xlink">
    <title>tofu mince</title>
    <g id="tofu-mince" stroke="none" stroke-width="1" fill="none" fill-rule="evenodd">
        <path d="M149.325028,53.1161557 L149.920147,53.4917162 C155.459469,56.8579935 159.914819,59.0559996 165.645715,61.0365535 C169.218583,62.2713091 173.516466,60.5845336 178.640734,57.2288637 L179.441139,56.6995699 L180.328101,56.1191854 L181.260781,55.5178381 L183.298021,54.2267359 L186.161689,52.4282494 L187.697572,51.4513173 L188.527035,50.9150839 C193.346646,47.7779428 197.067728,44.920956 201.033391,41.1204977 C202.746126,39.4791131 202.043745,37.5339314 200.266366,36.3676918 C199.632042,35.9514754 198.85319,35.5855671 197.792218,35.1813678 L197.1847,34.9565656 L196.516262,34.7209733 L193.687047,33.7552272 L193.326759,33.6250213 L193.105784,33.5360333 L192.777707,33.3717472 C192.54525,33.2508928 192.309763,33.126186 192.070417,32.9971936 L191.339969,32.5969264 C191.216021,32.5279281 191.090901,32.45775 190.964504,32.3863381 L190.189977,31.9426277 L189.379836,31.4667063 L188.529099,30.9559749 L187.632784,30.4078347 L186.685909,29.8196865 L185.050033,28.7871787 L180.238438,25.7194286 L178.503656,24.6327589 L177.277779,23.8845562 L176.5528,23.4549522 L175.874225,23.0643903 L175.218553,22.6988852 L174.254861,22.1818731 C170.835995,20.3846454 168.381502,19.6325548 166.3828,20.1705632 L166.137789,20.2426626 L165.862027,20.335223 L165.555985,20.4479485 L165.220139,20.5805436 L164.854962,20.7327125 L164.460928,20.9041594 L163.816804,21.1968294 L162.861393,21.6517694 L161.799077,22.178499 L160.633647,22.7746524 L159.36889,23.4378641 L157.65404,24.3575753 L155.797315,25.373748 L153.806116,26.4817618 L150.80661,28.1784768 L148.988596,29.2199031 L146.627983,30.5853009 L144.995793,31.5379943 L143.402639,32.4747191 L141.1211,33.8286635 L138.502886,35.4038461 L136.525942,36.6145406 L135.559525,37.2169621 L134.923077,37.6197829 L134.203239,38.0849242 L133.643057,38.4602601 L133.335899,38.6778577 C133.307399,38.6988415 133.280811,38.7187393 133.25617,38.7375295 C131.50087,40.0760422 131.286704,42.1487218 132.901368,43.6718031 L133.068752,43.8222931 C133.995446,44.6175243 135.467395,45.2968108 137.563132,45.9641988 L137.742172,46.0199961 L138.368821,46.3879738 L139.854067,47.2768613 L141.938579,48.544723 L149.325028,53.1161557 Z M152.715337,50.5066489 L151.799503,49.9465485 L146.938647,46.9239047 L143.748217,44.9628242 L141.388443,43.5317498 L140.251708,42.8546015 L139.351276,42.3309299 L138.842112,42.1733789 C137.979238,41.899975 137.273541,41.6351663 136.736907,41.3946983 L136.564172,41.3149961 L137.405941,40.7779692 L138.644358,40.0056816 L140.446983,38.9028091 L143.277416,37.2006915 L146.040112,35.5638892 L148.958157,33.8576142 L151.83803,32.196449 L153.908745,31.0169192 L155.880688,29.9067873 L158.100841,28.6749423 L160.464963,27.3896076 L161.988413,26.5805171 L162.831013,26.1416337 L163.86607,25.6135592 L164.344094,25.3748855 L165.009727,25.0496924 L165.797518,24.6794393 L166.310428,24.4509843 L166.613911,24.3228682 L166.88579,24.2145639 C166.928429,24.1981861 166.969722,24.1826503 167.009653,24.1679648 L167.23278,24.09012 C167.267205,24.0788684 167.300237,24.0684834 167.331864,24.0589734 L167.422507,24.0330765 C167.587835,23.988574 167.777228,23.9710957 167.995106,23.9827268 L168.188938,23.9998737 C168.22244,24.0039359 168.256549,24.0086043 168.291279,24.013885 L168.507197,24.0529654 L168.738613,24.1070329 C168.778508,24.1173092 168.819075,24.1282222 168.860326,24.1397779 L169.116147,24.216873 L169.389012,24.3096847 L169.679538,24.4185045 L169.988344,24.5436245 L170.487181,24.7625052 L170.844392,24.9296517 L171.418734,25.21294 L171.828215,25.4239367 L172.259685,25.6529841 L172.949473,26.0310385 L173.692217,26.4513482 L174.490002,26.9148979 L175.642943,27.6019283 L176.902393,28.3699148 L178.273298,29.2211914 L180.151198,30.40597 L183.289291,32.4074011 L184.569007,33.2136059 L185.548691,33.822059 L186.478072,34.3902536 C186.629078,34.4817533 186.778213,34.5716922 186.925592,34.6601285 L187.789675,35.1731824 C187.930476,35.2558418 188.069744,35.3371153 188.207594,35.4170611 L189.018568,35.881271 C189.283819,36.031008 189.544298,36.175901 189.800907,36.3164162 L190.560028,36.7252954 C190.684915,36.7914085 190.809059,36.8565439 190.932575,36.9207597 C191.216169,37.0682004 191.542737,37.211918 191.938973,37.3665279 L192.449606,37.5582236 L193.360164,37.8765636 L195.215663,38.5036188 L195.496163,38.6014366 C196.028341,38.7888223 196.483595,38.9599587 196.867232,39.1178984 L197.181172,39.2519961 L197.141226,39.2899939 C193.978826,42.2060941 190.892482,44.5613607 187.070395,47.0869784 L186.077934,47.7361002 L184.349762,48.8414901 L180.120016,51.5021439 L179.100157,52.1515743 L178.146528,52.7664579 L177.237495,53.3613121 L176.792942,53.6557647 C172.587785,56.4526706 168.932664,57.9403655 166.952262,57.2559535 C161.765016,55.4632809 157.695542,53.4904799 152.715337,50.5066489 Z" id="Path-8" fill="#424141" fill-rule="nonzero"></path>
        <path d="M131.774957,41.3249117 L135.774192,41.4031422 L135.665195,45.9320676 L135.242784,59.9733811 L135.147923,63.5266344 L135.076103,66.6853373 L135.03393,69.0475505 L135.007893,71.1911001 L134.998053,73.1411358 L135.001883,74.5787351 L135.00976,75.4248903 L135.022053,76.2196548 L135.04883,77.3144141 L135.085698,78.2908956 L135.115927,78.8753886 L135.150711,79.4061366 L135.200096,79.987691 L135.227172,80.2469961 L135.384154,80.2682882 C137.978916,80.6436219 141.262353,81.8648733 145.325511,83.8469608 L146.315686,84.3372263 L147.336082,84.8564465 C147.508682,84.9453816 147.682553,85.0355123 147.8577,85.126833 L148.923952,85.6889953 L149.421663,85.9554255 C149.833848,86.1770723 150.251946,86.40441 150.677306,86.638087 L151.976523,87.3587838 L153.839427,88.4144869 L156.183197,89.7739608 L162.975807,93.7451454 L163.611353,94.1063369 L164.451922,94.5733298 L164.998172,94.8659961 L165.047298,94.3470246 L165.104735,93.6479693 L165.159426,92.8827368 L165.235725,91.6186764 L165.280125,90.7507912 L165.311465,90.0635427 L165.367506,88.6296632 L165.41447,87.1253525 C165.421526,86.8693478 165.428192,86.6108457 165.434464,86.3500648 L165.467305,84.7597833 L165.490395,83.1253056 C165.496436,82.5742796 165.500807,82.0176366 165.503462,81.4571255 L165.506238,79.7657371 L165.498452,78.0616343 C165.496259,77.7771407 165.493615,77.4925545 165.490514,77.2080945 L165.471862,76.0724868 L165.440301,74.8827047 L165.388194,73.4264054 L165.257429,70.622808 L164.991848,65.5500172 L164.911829,63.7880658 L164.874957,62.7601431 L164.850066,61.6841711 L164.843663,61.0023186 L164.845934,60.1324021 L168.845793,60.1659643 L168.846011,61.3097363 L168.859876,62.1368374 L168.887134,63.0546313 L168.940134,64.3584491 L169.167166,68.8081704 L169.3045,71.4618783 L169.373389,72.9820027 L169.417259,74.1232636 L169.456347,75.3816071 L169.482304,76.5824136 C169.485521,76.7783311 169.488181,76.9722845 169.490276,77.1644906 L169.499581,78.1497559 L169.5092,80.0856034 L169.504265,82.4307882 L169.492202,83.7925178 L169.465431,85.5487005 L169.437295,86.817175 L169.402216,88.0404503 L169.344589,89.5957475 L169.293185,90.7013481 L169.234729,91.751284 L169.16919,92.7424154 L169.096535,93.6716028 L169.016731,94.5357063 L168.95954,95.0740673 L168.867749,95.822721 L168.802537,96.2812082 L168.7341,96.7061181 L168.662427,97.0965201 C168.637996,97.2207995 168.613024,97.3391725 168.58751,97.4514842 L168.509338,97.77008 L168.427903,98.0513773 C168.330986,98.3574382 168.227386,98.5854486 168.117034,98.728761 C167.389641,99.673407 166.554139,99.7176219 165.589598,99.474247 C165.213381,99.3793194 164.795034,99.2170961 164.290419,98.9836935 L163.932764,98.8133707 L163.332522,98.5100388 L162.885955,98.2741133 L162.139808,97.8665735 L161.294084,97.3909372 L160.018848,96.6520817 L152.047522,91.9983905 L151.349234,91.5980177 L150.680046,91.2187118 L149.383211,90.4927441 L148.135292,89.8071791 L147.072292,89.2348432 L146.179716,88.7637936 L145.310479,88.3142769 L144.464851,87.8865057 L143.643104,87.4806928 L142.845512,87.0970506 L142.072346,86.7357919 L141.323878,86.3971292 L140.600381,86.0812753 C140.481894,86.0305455 140.364459,85.980775 140.248081,85.9319681 L139.562551,85.6507259 C139.11405,85.4709876 138.682651,85.3068095 138.268715,85.158475 L137.660954,84.9478916 C137.462763,84.8816817 137.268984,84.8194682 137.079661,84.7612864 L136.525108,84.598872 C135.442924,84.2983758 134.522813,84.1443003 133.774574,84.1443003 C132.892006,84.1443003 132.277063,83.682383 131.891288,83.0630107 C131.713204,82.777092 131.595485,82.4727865 131.500847,82.1209129 C131.404126,81.7612963 131.327818,81.3268722 131.265314,80.8043787 L131.207166,80.2520375 L131.18315,79.9774297 L131.13974,79.3846599 L131.102386,78.7337587 L131.07096,78.024655 L131.045333,77.2572778 L131.025377,76.431556 L131.010965,75.5474185 L131,74.2493537 L131,72.378059 L131.011809,70.7556958 L131.034045,69.0075815 L131.097969,65.6059531 L131.177976,62.2976586 L131.322084,57.1928579 L131.730589,43.406954 L131.774957,41.3249117 Z" id="Path-9" fill="#424141" fill-rule="nonzero"></path>
        <path d="M197.970227,39.1865476 L201.968288,39.062014 L202.057115,41.7643558 C202.072684,42.2145742 202.088644,42.6650527 202.105006,43.11631 L202.2081,45.8373503 L202.382098,50.0084357 L202.69099,56.6478213 L203.151242,66.0678386 L203.284276,69.1906001 L203.342378,70.8853502 L203.377126,72.2529124 L203.389988,73.0405471 L203.395503,73.7687329 L203.393504,74.4396873 L203.383825,75.0556276 L203.366299,75.6187714 L203.340759,76.1313359 C203.330891,76.2940073 203.31966,76.4486184 203.307038,76.5955387 C203.245042,77.3171773 203.148356,77.8865582 202.986983,78.3576756 C202.64087,79.3681224 201.963699,80.1462535 200.712563,80.1462535 C200.420618,80.1462535 200.108073,80.1775628 199.767436,80.243641 L199.468407,80.3088749 L199.154572,80.3916226 C199.100974,80.4069002 199.046715,80.4229278 198.991774,80.4397153 L198.653764,80.5496413 C198.596006,80.5695092 198.537521,80.5901573 198.478289,80.6115956 L198.113745,80.7497892 L197.730202,80.907433 C197.664637,80.9353548 197.598237,80.9641071 197.530979,80.9937001 L197.116973,81.181427 L196.681348,81.3898144 C196.606884,81.4262942 196.531475,81.4636551 196.4551,81.5019071 L195.985082,81.742193 L195.490824,82.0043497 L194.971279,82.2888614 L194.142256,82.7586035 C194.046719,82.8137125 193.95002,82.8698033 193.852136,82.9268861 L192.938605,83.4676871 L191.957567,84.0636883 L190.905484,84.7165239 L189.103585,85.8609275 L180.791787,91.1910413 L180.623781,91.2976538 C176.664584,93.8069217 172.944555,96.084667 169.01621,98.3789582 L167.532442,99.2405775 L165.532332,95.7765389 C169.473865,93.5007283 173.155637,91.2710401 177.022762,88.8404386 L179.949205,86.9836423 L188.023544,81.8043008 L189.270388,81.0215677 L190.435089,80.3048652 L191.168627,79.8628253 L191.869716,79.4487493 L192.539979,79.0620842 C192.649211,78.9998935 192.757226,78.9388219 192.864058,78.8788578 L193.491127,78.5322717 C193.695598,78.4211117 193.895609,78.3142897 194.091429,78.2117134 L194.666587,77.9166299 L195.218225,77.6464679 C195.758645,77.3885822 196.26622,77.1672491 196.748256,76.9799792 L197.22205,76.8039715 C197.843147,76.584188 198.423171,76.4234861 198.979439,76.3159655 L199.321172,76.2559961 L199.348246,75.8830929 L199.369182,75.4630787 L199.384021,74.9948818 L199.392805,74.4774305 L199.395576,73.9096529 L199.392374,73.2904775 L199.383242,72.6188323 L199.351564,71.2586522 L199.308327,69.9164043 L199.189542,67.0037349 L198.516121,53.0701989 L198.385867,50.1820609 L198.266724,47.3746095 L198.158119,44.6228621 L198.059478,41.9018357 C198.043836,41.4495035 198.028585,40.9974103 198.013714,40.5450358 L197.970227,39.1865476 Z" id="Path-10" fill="#424141" fill-rule="nonzero"></path>
        <path d="M191.990395,59.1462535 C191.990395,60.2509306 191.095072,61.1462535 189.990395,61.1462535 C188.885718,61.1462535 187.990395,60.2509306 187.990395,59.1462535 C187.990395,58.0415766 188.885718,57.1462535 189.990395,57.1462535 C191.095072,57.1462535 191.990395,58.0415766 191.990395,59.1462535 L191.990395,59.1462535 Z" id="Path" fill="#424141" fill-rule="nonzero"></path>
        <path d="M179.990395,76.1462535 C179.990395,77.2509306 179.094872,78.1462535 177.99084,78.1462535 C176.885917,78.1462535 175.990395,77.2509306 175.990395,76.1462535 C175.990395,75.0415766 176.885917,74.1462535 177.99084,74.1462535 C179.094872,74.1462535 179.990395,75.0415766 179.990395,76.1462535 L179.990395,76.1462535 Z" id="Path" fill="#424141" fill-rule="nonzero"></path>
        <path d="M143.990395,59.1462535 C143.990395,60.2509306 143.095072,61.1462535 141.990395,61.1462535 C140.885718,61.1462535 139.990395,60.2509306 139.990395,59.1462535 C139.990395,58.0415766 140.885718,57.1462535 141.990395,57.1462535 C143.095072,57.1462535 143.990395,58.0415766 143.990395,59.1462535 L143.990395,59.1462535 Z" id="Path" fill="#424141" fill-rule="nonzero"></path>
        <path d="M192.990395,70.6462535 C192.990395,71.4747613 192.318753,72.1462535 191.490729,72.1462535 C190.662037,72.1462535 189.990395,71.4747613 189.990395,70.6462535 C189.990395,69.8177458 190.662037,69.1462535 191.490729,69.1462535 C192.318753,69.1462535 192.990395,69.8177458 192.990395,70.6462535 L192.990395,70.6462535 Z" id="Path" fill="#424141" fill-rule="nonzero"></path>
        <path d="M175.990395,35.6462535 C175.990395,36.4747613 175.318753,37.1462535 174.490729,37.1462535 C173.662037,37.1462535 172.990395,36.4747613 172.990395,35.6462535 C172.990395,34.8177458 173.662037,34.1462535 174.490729,34.1462535 C175.318753,34.1462535 175.990395,34.8177458 175.990395,35.6462535 L175.990395,35.6462535 Z" id="Path-Copy-3" fill="#424141" fill-rule="nonzero"></path>
        <path d="M171.990395,45.1462535 C171.990395,46.2509306 171.094872,47.1462535 169.99084,47.1462535 C168.885917,47.1462535 167.990395,46.2509306 167.990395,45.1462535 C167.990395,44.0415766 168.885917,43.1462535 169.99084,43.1462535 C171.094872,43.1462535 171.990395,44.0415766 171.990395,45.1462535 L171.990395,45.1462535 Z" id="Path-Copy-2" fill="#424141" fill-rule="nonzero"></path>
        <path d="M156.990395,76.1462535 C156.990395,77.2509306 156.094872,78.1462535 154.99084,78.1462535 C153.885917,78.1462535 152.990395,77.2509306 152.990395,76.1462535 C152.990395,75.0415766 153.885917,74.1462535 154.99084,74.1462535 C156.094872,74.1462535 156.990395,75.0415766 156.990395,76.1462535 L156.990395,76.1462535 Z" id="Path-Copy" fill="#424141" fill-rule="nonzero"></path>
        <path d="M58,121.6904 C58,122.795077 57.1044777,123.6904 56.0004455,123.6904 C54.8955223,123.6904 54,122.795077 54,121.6904 C54,120.585723 54.8955223,119.6904 56.0004455,119.6904 C57.1044777,119.6904 58,120.585723 58,121.6904 L58,121.6904 Z" id="Path-Copy-8" fill="#424141" fill-rule="nonzero"></path>
        <path d="M29,73.6903996 C29,74.7950767 28.1044777,75.6903996 27.0004455,75.6903996 C25.8955223,75.6903996 25,74.7950767 25,73.6903996 C25,72.5857226 25.8955223,71.6903996 27.0004455,71.6903996 C28.1044777,71.6903996 29,72.5857226 29,73.6903996 L29,73.6903996 Z" id="Path-Copy-8" fill="#424141" fill-rule="nonzero"></path>
        <path d="M59,44.6903996 C59,45.7950767 58.1044777,46.6903996 57.0004455,46.6903996 C55.8955223,46.6903996 55,45.7950767 55,44.6903996 C55,43.5857226 55.8955223,42.6903996 57.0004455,42.6903996 C58.1044777,42.6903996 59,43.5857226 59,44.6903996 L59,44.6903996 Z" id="Path-Copy-8" fill="#424141" fill-rule="nonzero"></path>
        <path d="M154.990395,39.1462535 C154.990395,40.2509306 154.094872,41.1462535 152.989949,41.1462535 C151.885917,41.1462535 150.990395,40.2509306 150.990395,39.1462535 C150.990395,38.0415766 151.885917,37.1462535 152.989949,37.1462535 C154.094872,37.1462535 154.990395,38.0415766 154.990395,39.1462535 Z" id="Path" fill="#424141" fill-rule="nonzero"></path>
        <path d="M93.3897697,94.876342 C92.1637697,94.948592 92.2856216,94.8971741 91.1003716,95.2191741 C85.2273716,96.8149241 82.8177669,100.695224 81.9985169,104.744224 C81.5630169,107.067974 82.0397669,109.470224 83.3297669,111.451474 C84.2650169,112.926724 85.7625169,113.955474 87.4747669,114.299474 C87.9415169,114.388974 88.4160169,114.433974 88.8912669,114.433974 C90.8062669,114.413224 92.3885976,112.856843 93.8635976,111.635343 C94.2562923,110.22635 95.842044,110.586117 96.2927234,111.135864 C98.5362234,112.014114 100.706224,112.398617 102.823974,111.249867 C104.338974,110.378617 105.433224,108.927117 105.853224,107.230617 C106.442224,104.942117 106.126724,102.514867 104.972224,100.453117 C102.913724,96.873367 99.4655197,94.515842 93.3897697,94.876342 Z M101.731974,106.110617 C101.605224,106.702367 101.241474,107.218617 100.724974,107.537867 C99.7012238,108.064617 97.7692049,107.906443 96.7047049,107.467693 C93.6632049,106.281943 93.6558962,106.700658 91.9133999,109.163103 C91.0441499,109.917603 89.4122669,110.284974 88.2747669,110.109724 C87.6830169,109.971974 87.1735169,109.598224 86.8645169,109.074974 C86.2145169,108.037974 85.9685169,106.797974 86.1732669,105.591224 C86.6467669,103.244474 87.4278471,100.317711 91.6133471,99.1807115 C92.5198471,98.9352115 93.8981762,98.8090193 94.3291762,98.8090193 C97.8981762,98.8090193 100.223224,100.741117 101.287724,102.582117 C101.864224,103.663867 102.022224,104.919867 101.731974,106.110617 Z" id="Shape" fill="#424141" fill-rule="nonzero" transform="translate(93.992202, 104.637003) rotate(-181.000000) translate(-93.992202, -104.637003) "></path>
        <path d="M110.548554,99.7267089 C109.322554,99.7989589 109.444406,99.747541 108.259156,100.069541 C102.386156,101.665291 99.9765511,105.545591 99.1573011,109.594591 C98.7218011,111.918341 99.1985511,114.320591 100.488551,116.301841 C101.423801,117.777091 102.921301,118.805841 104.633551,119.149841 C105.100301,119.239341 105.574801,119.284341 106.050051,119.284341 C107.965051,119.263591 109.547382,117.70721 111.022382,116.48571 C111.415076,115.076717 113.000828,115.436484 113.451508,115.986231 C115.695008,116.864481 117.865008,117.248984 119.982758,116.100234 C121.497758,115.228984 122.592008,113.777484 123.012008,112.080984 C123.601008,109.792484 123.285508,107.365234 122.131008,105.303484 C120.072508,101.723734 116.624304,99.3662089 110.548554,99.7267089 Z M118.890758,110.960984 C118.764008,111.552734 118.400258,112.068984 117.883758,112.388234 C116.860008,112.914984 114.927989,112.75681 113.863489,112.31806 C110.821989,111.13231 110.81468,111.551025 109.072184,114.01347 C108.202934,114.76797 106.571051,115.135341 105.433551,114.960091 C104.841801,114.822341 104.332301,114.448591 104.023301,113.925341 C103.373301,112.888341 103.127301,111.648341 103.332051,110.441591 C103.805551,108.094841 104.586631,105.168078 108.772131,104.031078 C109.678631,103.785578 111.05696,103.659386 111.48796,103.659386 C115.05696,103.659386 117.382008,105.591484 118.446508,107.432484 C119.023008,108.514234 119.181008,109.770234 118.890758,110.960984 Z" id="Shape-Copy-7" fill="#424141" fill-rule="nonzero" transform="translate(111.150986, 109.487370) rotate(-61.000000) translate(-111.150986, -109.487370) "></path>
        <path d="M114.548554,77.7267089 C113.322554,77.7989589 113.444406,77.747541 112.259156,78.069541 C106.386156,79.665291 103.976551,83.5455911 103.157301,87.5945911 C102.721801,89.9183411 103.198551,92.3205911 104.488551,94.3018411 C105.423801,95.7770911 106.921301,96.8058411 108.633551,97.1498411 C109.100301,97.2393411 109.574801,97.2843411 110.050051,97.2843411 C111.965051,97.2635911 113.547382,95.7072098 115.022382,94.4857098 C115.415076,93.0767166 117.000828,93.436484 117.451508,93.9862305 C119.695008,94.8644805 121.865008,95.2489839 123.982758,94.1002339 C125.497758,93.2289839 126.592008,91.7774839 127.012008,90.0809839 C127.601008,87.7924839 127.285508,85.3652339 126.131008,83.3034839 C124.072508,79.7237339 120.624304,77.3662089 114.548554,77.7267089 Z M122.890758,88.9609839 C122.764008,89.5527339 122.400258,90.0689839 121.883758,90.3882339 C120.860008,90.9149839 118.927989,90.7568099 117.863489,90.3180599 C114.821989,89.1323099 114.81468,89.5510254 113.072184,92.0134697 C112.202934,92.7679697 110.571051,93.1353411 109.433551,92.9600911 C108.841801,92.8223411 108.332301,92.4485911 108.023301,91.9253411 C107.373301,90.8883411 107.127301,89.6483411 107.332051,88.4415911 C107.805551,86.0948411 108.586631,83.1680784 112.772131,82.0310784 C113.678631,81.7855784 115.05696,81.6593862 115.48796,81.6593862 C119.05696,81.6593862 121.382008,83.5914839 122.446508,85.4324839 C123.023008,86.5142339 123.181008,87.7702339 122.890758,88.9609839 Z" id="Shape-Copy-11" fill="#424141" fill-rule="nonzero" transform="translate(115.150986, 87.487370) rotate(-61.000000) translate(-115.150986, -87.487370) "></path>
        <path d="M83.5485539,61.2040777 C82.3225539,61.2763277 82.4444058,61.2249099 81.2591558,61.5469099 C75.3861558,63.1426599 72.9765511,67.02296 72.1573011,71.07196 C71.7218011,73.39571 72.1985511,75.79796 73.4885511,77.77921 C74.4238011,79.25446 75.9213011,80.28321 77.6335511,80.62721 C78.1003011,80.71671 78.5748011,80.76171 79.0500511,80.76171 C80.9650511,80.74096 82.5473818,79.1845787 84.0223818,77.9630787 C84.4150765,76.5540855 86.0008282,76.9138528 86.4515075,77.4635993 C88.6950075,78.3418493 90.865008,78.7263527 92.982758,77.5776027 C94.497758,76.7063527 95.592008,75.2548527 96.012008,73.5583527 C96.601008,71.2698527 96.285508,68.8426027 95.131008,66.7808527 C93.072508,63.2011027 89.6243039,60.8435777 83.5485539,61.2040777 Z M91.890758,72.4383527 C91.764008,73.0301027 91.400258,73.5463527 90.883758,73.8656027 C89.860008,74.3923527 87.9279891,74.2341787 86.8634891,73.7954287 C83.8219891,72.6096787 83.8146804,73.0283942 82.072184,75.4908385 C81.202934,76.2453385 79.5710511,76.61271 78.4335511,76.43746 C77.8418011,76.29971 77.3323011,75.92596 77.0233011,75.40271 C76.3733011,74.36571 76.1273011,73.12571 76.3320511,71.91896 C76.8055511,69.57221 77.5866312,66.6454472 81.7721312,65.5084472 C82.6786312,65.2629472 84.0569604,65.136755 84.4879604,65.136755 C88.0569604,65.136755 90.382008,67.0688527 91.446508,68.9098527 C92.023008,69.9916027 92.181008,71.2476027 91.890758,72.4383527 Z" id="Shape-Copy-6" fill="#424141" fill-rule="nonzero" transform="translate(84.150986, 70.964739) rotate(-181.000000) translate(-84.150986, -70.964739) "></path>
        <path d="M93.9574864,78.4146495 C92.7314864,78.4868995 92.8533383,78.4354817 91.6680883,78.7574817 C85.7950883,80.3532317 83.3854836,84.2335318 82.5662336,88.2825318 C82.1307336,90.6062818 82.6074836,93.0085318 83.8974836,94.9897818 C84.8327336,96.4650318 86.3302336,97.4937818 88.0424836,97.8377818 C88.5092336,97.9272818 88.9837336,97.9722818 89.4589836,97.9722818 C91.3739836,97.9515318 92.9563143,96.3951505 94.4313143,95.1736505 C94.824009,93.7646573 96.4097607,94.1244247 96.86044,94.6741712 C99.10394,95.5524212 101.273941,95.9369246 103.391691,94.7881746 C104.906691,93.9169246 106.000941,92.4654246 106.420941,90.7689246 C107.009941,88.4804246 106.694441,86.0531746 105.539941,83.9914246 C103.481441,80.4116746 100.033236,78.0541495 93.9574864,78.4146495 Z M102.299691,89.6489246 C102.172941,90.2406746 101.809191,90.7569246 101.292691,91.0761746 C100.268941,91.6029246 98.3369216,91.4447505 97.2724216,91.0060005 C94.2309216,89.8202505 94.2236129,90.2389661 92.4811165,92.7014104 C91.6118665,93.4559104 89.9799836,93.8232818 88.8424836,93.6480318 C88.2507336,93.5102818 87.7412336,93.1365318 87.4322336,92.6132818 C86.7822336,91.5762818 86.5362336,90.3362818 86.7409836,89.1295318 C87.2144836,86.7827818 87.9955638,83.856019 92.1810638,82.719019 C93.0875638,82.473519 94.4658929,82.3473269 94.8968929,82.3473269 C98.4658929,82.3473269 100.790941,84.2794246 101.855441,86.1204246 C102.431941,87.2021746 102.589941,88.4581746 102.299691,89.6489246 Z" id="Shape-Copy" fill="#424141" fill-rule="nonzero" transform="translate(94.559919, 88.175311) rotate(-240.000000) translate(-94.559919, -88.175311) "></path>
        <path d="M67.5485539,69.7267089 C66.3225539,69.7989589 66.4444058,69.747541 65.2591558,70.069541 C59.3861558,71.665291 56.9765511,75.5455911 56.1573011,79.5945911 C55.7218011,81.9183411 56.1985511,84.3205911 57.4885511,86.3018411 C58.4238011,87.7770911 59.9213011,88.8058411 61.6335511,89.1498411 C62.1003011,89.2393411 62.5748011,89.2843411 63.0500511,89.2843411 C64.9650511,89.2635911 66.5473818,87.7072098 68.0223818,86.4857098 C68.4150765,85.0767166 70.0008282,85.436484 70.4515075,85.9862305 C72.6950075,86.8644805 74.865008,87.2489839 76.982758,86.1002339 C78.497758,85.2289839 79.592008,83.7774839 80.012008,82.0809839 C80.601008,79.7924839 80.285508,77.3652339 79.131008,75.3034839 C77.072508,71.7237339 73.6243039,69.3662089 67.5485539,69.7267089 Z M75.890758,80.9609839 C75.764008,81.5527339 75.400258,82.0689839 74.883758,82.3882339 C73.860008,82.9149839 71.9279891,82.7568099 70.8634891,82.3180599 C67.8219891,81.1323099 67.8146804,81.5510254 66.072184,84.0134697 C65.202934,84.7679697 63.5710511,85.1353411 62.4335511,84.9600911 C61.8418011,84.8223411 61.3323011,84.4485911 61.0233011,83.9253411 C60.3733011,82.8883411 60.1273011,81.6483411 60.3320511,80.4415911 C60.8055511,78.0948411 61.5866312,75.1680784 65.7721312,74.0310784 C66.6786312,73.7855784 68.0569604,73.6593862 68.4879604,73.6593862 C72.0569604,73.6593862 74.382008,75.5914839 75.446508,77.4324839 C76.023008,78.5142339 76.181008,79.7702339 75.890758,80.9609839 Z" id="Shape-Copy-5" fill="#424141" fill-rule="nonzero" transform="translate(68.150986, 79.487370) rotate(-240.000000) translate(-68.150986, -79.487370) "></path>
        <path d="M55.5485539,53.7267089 C54.3225539,53.7989589 54.4444058,53.747541 53.2591558,54.069541 C47.3861558,55.665291 44.9765511,59.5455911 44.1573011,63.5945911 C43.7218011,65.9183411 44.1985511,68.3205911 45.4885511,70.3018411 C46.4238011,71.7770911 47.9213011,72.8058411 49.6335511,73.1498411 C50.1003011,73.2393411 50.5748011,73.2843411 51.0500511,73.2843411 C52.9650511,73.2635911 54.5473818,71.7072098 56.0223818,70.4857098 C56.4150765,69.0767166 58.0008282,69.436484 58.4515075,69.9862305 C60.6950075,70.8644805 62.865008,71.2489839 64.982758,70.1002339 C66.497758,69.2289839 67.592008,67.7774839 68.012008,66.0809839 C68.601008,63.7924839 68.285508,61.3652339 67.131008,59.3034839 C65.072508,55.7237339 61.6243039,53.3662089 55.5485539,53.7267089 Z M63.890758,64.9609839 C63.764008,65.5527339 63.400258,66.0689839 62.883758,66.3882339 C61.860008,66.9149839 59.9279891,66.7568099 58.8634891,66.3180599 C55.8219891,65.1323099 55.8146804,65.5510254 54.072184,68.0134697 C53.202934,68.7679697 51.5710511,69.1353411 50.4335511,68.9600911 C49.8418011,68.8223411 49.3323011,68.4485911 49.0233011,67.9253411 C48.3733011,66.8883411 48.1273011,65.6483411 48.3320511,64.4415911 C48.8055511,62.0948411 49.5866312,59.1680784 53.7721312,58.0310784 C54.6786312,57.7855784 56.0569604,57.6593862 56.4879604,57.6593862 C60.0569604,57.6593862 62.382008,59.5914839 63.446508,61.4324839 C64.023008,62.5142339 64.181008,63.7702339 63.890758,64.9609839 Z" id="Shape-Copy-2" fill="#424141" fill-rule="nonzero" transform="translate(56.150986, 63.487370) rotate(-82.000000) translate(-56.150986, -63.487370) "></path>
        <path d="M43.5485539,77.7267089 C42.3225539,77.7989589 42.4444058,77.747541 41.2591558,78.069541 C35.3861558,79.665291 32.9765511,83.5455911 32.1573011,87.5945911 C31.7218011,89.9183411 32.1985511,92.3205911 33.4885511,94.3018411 C34.4238011,95.7770911 35.9213011,96.8058411 37.6335511,97.1498411 C38.1003011,97.2393411 38.5748011,97.2843411 39.0500511,97.2843411 C40.9650511,97.2635911 42.5473818,95.7072098 44.0223818,94.4857098 C44.4150765,93.0767166 46.0008282,93.436484 46.4515075,93.9862305 C48.6950075,94.8644805 50.865008,95.2489839 52.982758,94.1002339 C54.497758,93.2289839 55.592008,91.7774839 56.012008,90.0809839 C56.601008,87.7924839 56.285508,85.3652339 55.131008,83.3034839 C53.072508,79.7237339 49.6243039,77.3662089 43.5485539,77.7267089 Z M51.890758,88.9609839 C51.764008,89.5527339 51.400258,90.0689839 50.883758,90.3882339 C49.860008,90.9149839 47.9279891,90.7568099 46.8634891,90.3180599 C43.8219891,89.1323099 43.8146804,89.5510254 42.072184,92.0134697 C41.202934,92.7679697 39.5710511,93.1353411 38.4335511,92.9600911 C37.8418011,92.8223411 37.3323011,92.4485911 37.0233011,91.9253411 C36.3733011,90.8883411 36.1273011,89.6483411 36.3320511,88.4415911 C36.8055511,86.0948411 37.5866312,83.1680784 41.7721312,82.0310784 C42.6786312,81.7855784 44.0569604,81.6593862 44.4879604,81.6593862 C48.0569604,81.6593862 50.382008,83.5914839 51.446508,85.4324839 C52.023008,86.5142339 52.181008,87.7702339 51.890758,88.9609839 Z" id="Shape-Copy-10" fill="#424141" fill-rule="nonzero" transform="translate(44.150986, 87.487370) rotate(-144.000000) translate(-44.150986, -87.487370) "></path>
        <path d="M80.5485539,78.7267089 C79.3225539,78.7989589 79.4444058,78.747541 78.2591558,79.069541 C72.3861558,80.665291 69.9765511,84.5455911 69.1573011,88.5945911 C68.7218011,90.9183411 69.1985511,93.3205911 70.4885511,95.3018411 C71.4238011,96.7770911 72.9213011,97.8058411 74.6335511,98.1498411 C75.1003011,98.2393411 75.5748011,98.2843411 76.0500511,98.2843411 C77.9650511,98.2635911 79.5473818,96.7072098 81.0223818,95.4857098 C81.4150765,94.0767166 83.0008282,94.436484 83.4515075,94.9862305 C85.6950075,95.8644805 87.865008,96.2489839 89.982758,95.1002339 C91.497758,94.2289839 92.592008,92.7774839 93.012008,91.0809839 C93.601008,88.7924839 93.285508,86.3652339 92.131008,84.3034839 C90.072508,80.7237339 86.6243039,78.3662089 80.5485539,78.7267089 Z M88.890758,89.9609839 C88.764008,90.5527339 88.400258,91.0689839 87.883758,91.3882339 C86.860008,91.9149839 84.9279891,91.7568099 83.8634891,91.3180599 C80.8219891,90.1323099 80.8146804,90.5510254 79.072184,93.0134697 C78.202934,93.7679697 76.5710511,94.1353411 75.4335511,93.9600911 C74.8418011,93.8223411 74.3323011,93.4485911 74.0233011,92.9253411 C73.3733011,91.8883411 73.1273011,90.6483411 73.3320511,89.4415911 C73.8055511,87.0948411 74.5866312,84.1680784 78.7721312,83.0310784 C79.6786312,82.7855784 81.0569604,82.6593862 81.4879604,82.6593862 C85.0569604,82.6593862 87.382008,84.5914839 88.446508,86.4324839 C89.023008,87.5142339 89.181008,88.7702339 88.890758,89.9609839 Z" id="Shape-Copy-4" fill="#424141" fill-rule="nonzero" transform="translate(81.150986, 88.487370) rotate(-63.000000) translate(-81.150986, -88.487370) "></path>
        <path d="M88.5485539,42.7267089 C87.3225539,42.7989589 87.4444058,42.747541 86.2591558,43.069541 C80.3861558,44.665291 77.9765511,48.5455911 77.1573011,52.5945911 C76.7218011,54.9183411 77.1985511,57.3205911 78.4885511,59.3018411 C79.4238011,60.7770911 80.9213011,61.8058411 82.6335511,62.1498411 C83.1003011,62.2393411 83.5748011,62.2843411 84.0500511,62.2843411 C85.9650511,62.2635911 87.5473818,60.7072098 89.0223818,59.4857098 C89.4150765,58.0767166 91.0008282,58.436484 91.4515075,58.9862305 C93.6950075,59.8644805 95.865008,60.2489839 97.982758,59.1002339 C99.497758,58.2289839 100.592008,56.7774839 101.012008,55.0809839 C101.601008,52.7924839 101.285508,50.3652339 100.131008,48.3034839 C98.072508,44.7237339 94.6243039,42.3662089 88.5485539,42.7267089 Z M96.890758,53.9609839 C96.764008,54.5527339 96.400258,55.0689839 95.883758,55.3882339 C94.860008,55.9149839 92.9279891,55.7568099 91.8634891,55.3180599 C88.8219891,54.1323099 88.8146804,54.5510254 87.072184,57.0134697 C86.202934,57.7679697 84.5710511,58.1353411 83.4335511,57.9600911 C82.8418011,57.8223411 82.3323011,57.4485911 82.0233011,56.9253411 C81.3733011,55.8883411 81.1273011,54.6483411 81.3320511,53.4415911 C81.8055511,51.0948411 82.5866312,48.1680784 86.7721312,47.0310784 C87.6786312,46.7855784 89.0569604,46.6593862 89.4879604,46.6593862 C93.0569604,46.6593862 95.382008,48.5914839 96.446508,50.4324839 C97.023008,51.5142339 97.181008,52.7702339 96.890758,53.9609839 Z" id="Shape-Copy-9" fill="#424141" fill-rule="nonzero" transform="translate(89.150986, 52.487370) scale(-1, 1) rotate(-63.000000) translate(-89.150986, -52.487370) "></path>
        <path d="M99.5485539,60.7267089 C98.3225539,60.7989589 98.4444058,60.747541 97.2591558,61.069541 C91.3861558,62.665291 88.9765511,66.5455911 88.1573011,70.5945911 C87.7218011,72.9183411 88.1985511,75.3205911 89.4885511,77.3018411 C90.4238011,78.7770911 91.9213011,79.8058411 93.6335511,80.1498411 C94.1003011,80.2393411 94.5748011,80.2843411 95.0500511,80.2843411 C96.9650511,80.2635911 98.5473818,78.7072098 100.022382,77.4857098 C100.415076,76.0767166 102.000828,76.436484 102.451508,76.9862305 C104.695008,77.8644805 106.865008,78.2489839 108.982758,77.1002339 C110.497758,76.2289839 111.592008,74.7774839 112.012008,73.0809839 C112.601008,70.7924839 112.285508,68.3652339 111.131008,66.3034839 C109.072508,62.7237339 105.624304,60.3662089 99.5485539,60.7267089 Z M107.890758,71.9609839 C107.764008,72.5527339 107.400258,73.0689839 106.883758,73.3882339 C105.860008,73.9149839 103.927989,73.7568099 102.863489,73.3180599 C99.8219891,72.1323099 99.8146804,72.5510254 98.072184,75.0134697 C97.202934,75.7679697 95.5710511,76.1353411 94.4335511,75.9600911 C93.8418011,75.8223411 93.3323011,75.4485911 93.0233011,74.9253411 C92.3733011,73.8883411 92.1273011,72.6483411 92.3320511,71.4415911 C92.8055511,69.0948411 93.5866312,66.1680784 97.7721312,65.0310784 C98.6786312,64.7855784 100.05696,64.6593862 100.48796,64.6593862 C104.05696,64.6593862 106.382008,66.5914839 107.446508,68.4324839 C108.023008,69.5142339 108.181008,70.7702339 107.890758,71.9609839 Z" id="Shape-Copy-3" fill="#424141" fill-rule="nonzero" transform="translate(100.150986, 70.487370) rotate(-82.000000) translate(-100.150986, -70.487370) "></path>
        <path d="M71.2789406,64.0420871 C71.6085945,64.2059444 71.9624876,64.2844796 72.3086242,64.2844796 C73.1569984,64.2844796 73.972407,63.8181162 74.3786571,63.0065859 L75.2816982,61.0344562 C75.8518056,59.8923022 75.3902901,58.5038773 74.2481363,57.9328004 C73.102104,57.3665713 71.7185269,57.8251781 71.14745,58.9663624 L70.2453784,60.9384923 C69.6723622,62.0825853 70.137756,63.4690709 71.2789406,64.0420871 Z" id="Path" fill="#424141" fill-rule="nonzero" transform="translate(72.762987, 60.987440) rotate(62.000000) translate(-72.762987, -60.987440) "></path>
        <path d="M74.2789406,44.0420871 C74.6085945,44.2059444 74.9624876,44.2844796 75.3086242,44.2844796 C76.1569984,44.2844796 76.972407,43.8181162 77.3786571,43.0065859 L78.2816982,41.0344562 C78.8518056,39.8923022 78.3902901,38.5038773 77.2481363,37.9328004 C76.102104,37.3665713 74.7185269,37.8251781 74.14745,38.9663624 L73.2453784,40.9384923 C72.6723622,42.0825853 73.137756,43.4690709 74.2789406,44.0420871 Z" id="Path-Copy-5" fill="#424141" fill-rule="nonzero" transform="translate(75.762987, 40.987440) rotate(62.000000) translate(-75.762987, -40.987440) "></path>
        <path d="M43.2789406,57.0420871 C43.6085945,57.2059444 43.9624876,57.2844796 44.3086242,57.2844796 C45.1569984,57.2844796 45.972407,56.8181162 46.3786571,56.0065859 L47.2816982,54.0344562 C47.8518056,52.8923022 47.3902901,51.5038773 46.2481363,50.9328004 C45.102104,50.3665713 43.7185269,50.8251781 43.14745,51.9663624 L42.2453784,53.9384923 C41.6723622,55.0825853 42.137756,56.4690709 43.2789406,57.0420871 Z" id="Path-Copy-6" fill="#424141" fill-rule="nonzero" transform="translate(44.762987, 53.987440) rotate(62.000000) translate(-44.762987, -53.987440) "></path>
        <path d="M90.6878731,89.7300277 C91.017527,89.8938851 91.3714201,89.9724202 91.7175567,89.9724202 C92.5659309,89.9724202 93.3813395,89.5060569 93.7875896,88.6945265 L94.6906307,86.7223969 C95.2607381,85.5802428 94.7992226,84.191818 93.6570688,83.6207411 C92.5110365,83.054512 91.1274594,83.5131187 90.5563825,84.654303 L89.6543109,86.6264329 C89.0812947,87.770526 89.5466885,89.1570115 90.6878731,89.7300277 Z" id="Path-Copy" fill="#424141" fill-rule="nonzero" transform="translate(92.171920, 86.675380) rotate(62.000000) translate(-92.171920, -86.675380) "></path>
        <path d="M91.6878731,105.730028 C92.017527,105.893885 92.3714201,105.97242 92.7175567,105.97242 C93.5659309,105.97242 94.3813395,105.506057 94.7875896,104.694527 L95.6906307,102.722397 C96.2607381,101.580243 95.7992226,100.191818 94.6570688,99.6207411 C93.5110365,99.054512 92.1274594,99.5131187 91.5563825,100.654303 L90.6543109,102.626433 C90.0812947,103.770526 90.5466885,105.157012 91.6878731,105.730028 Z" id="Path-Copy-2" fill="#424141" fill-rule="nonzero" transform="translate(93.171920, 102.675380) rotate(-31.000000) translate(-93.171920, -102.675380) "></path>
        <path d="M27.2789406,89.0420871 C27.6085945,89.2059444 27.9624876,89.2844796 28.3086242,89.2844796 C29.1569984,89.2844796 29.972407,88.8181162 30.3786571,88.0065859 L31.2816982,86.0344562 C31.8518056,84.8923022 31.3902901,83.5038773 30.2481363,82.9328004 C29.102104,82.3665713 27.7185269,82.8251781 27.14745,83.9663624 L26.2453784,85.9384923 C25.6723622,87.0825853 26.137756,88.4690709 27.2789406,89.0420871 Z" id="Path-Copy-4" fill="#424141" fill-rule="nonzero" transform="translate(28.762987, 85.987440) scale(-1, 1) rotate(-7.000000) translate(-28.762987, -85.987440) "></path>
        <path d="M63.986437,96.9978244 C62.760437,97.0700744 62.8822889,97.0186566 61.6970389,97.3406566 C55.8240389,98.9364066 53.4144342,102.816707 52.5951842,106.865707 C52.1596842,109.189457 52.6364342,111.591707 53.9264342,113.572957 C54.8616842,115.048207 56.3591842,116.076957 58.0714342,116.420957 C58.5381842,116.510457 59.0126842,116.555457 59.4879342,116.555457 C61.4029342,116.534707 62.9852648,114.978325 64.4602648,113.756825 C64.8529596,112.347832 66.4387113,112.7076 66.8893906,113.257346 C69.1328906,114.135596 71.3028911,114.520099 73.4206411,113.371349 C74.9356411,112.500099 76.0298911,111.048599 76.4498911,109.352099 C77.0388911,107.063599 76.7233911,104.636349 75.5688911,102.574599 C73.5103911,98.9948495 70.062187,96.6373244 63.986437,96.9978244 Z M72.3286411,108.232099 C72.2018911,108.823849 71.8381411,109.340099 71.3216411,109.659349 C70.2978911,110.186099 68.3658722,110.027925 67.3013722,109.589175 C64.2598722,108.403425 64.2525635,108.822141 62.5100671,111.284585 C61.6408171,112.039085 60.0089342,112.406457 58.8714342,112.231207 C58.2796842,112.093457 57.7701842,111.719707 57.4611842,111.196457 C56.8111842,110.159457 56.5651842,108.919457 56.7699342,107.712707 C57.2434342,105.365957 58.0245143,102.439194 62.2100143,101.302194 C63.1165143,101.056694 64.4948435,100.930502 64.9258435,100.930502 C68.4948435,100.930502 70.8198911,102.862599 71.8843911,104.703599 C72.4608911,105.785349 72.6188911,107.041349 72.3286411,108.232099 Z" id="Shape-Copy-8" fill="#424141" fill-rule="nonzero" transform="translate(64.588869, 106.758486) rotate(-144.000000) translate(-64.588869, -106.758486) "></path>
        <path d="M46.2789406,107.042087 C46.6085945,107.205944 46.9624876,107.28448 47.3086242,107.28448 C48.1569984,107.28448 48.972407,106.818116 49.3786571,106.006586 L50.2816982,104.034456 C50.8518056,102.892302 50.3902901,101.503877 49.2481363,100.9328 C48.102104,100.366571 46.7185269,100.825178 46.14745,101.966362 L45.2453784,103.938492 C44.6723622,105.082585 45.137756,106.469071 46.2789406,107.042087 Z" id="Path-Copy-3" fill="#424141" fill-rule="nonzero" transform="translate(47.762987, 103.987440) rotate(-7.000000) translate(-47.762987, -103.987440) "></path>
        <path d="M86.2789406,123.042087 C86.6085945,123.205944 86.9624876,123.28448 87.3086242,123.28448 C88.1569984,123.28448 88.972407,122.818116 89.3786571,122.006586 L90.2816982,120.034456 C90.8518056,118.892302 90.3902901,117.503877 89.2481363,116.9328 C88.102104,116.366571 86.7185269,116.825178 86.14745,117.966362 L85.2453784,119.938492 C84.6723622,121.082585 85.137756,122.469071 86.2789406,123.042087 Z" id="Path-Copy-7" fill="#424141" fill-rule="nonzero" transform="translate(87.762987, 119.987440) scale(-1, 1) rotate(-7.000000) translate(-87.762987, -119.987440) "></path>
    </g>
</svg>