<?xml version="1.0" encoding="UTF-8"?>
<svg width="235px" height="152px" viewBox="0 0 235 152" version="1.1" xmlns="http://www.w3.org/2000/svg" xmlns:xlink="http://www.w3.org/1999/xlink">
    <title>tofu</title>
    <g id="tofu" stroke="none" stroke-width="1" fill="none" fill-rule="evenodd">
        <path d="M141.326856,84.1111597 L141.921975,84.4867201 C147.461297,87.8529975 151.916647,90.0510035 157.647543,92.0315574 C161.220411,93.266313 165.518294,91.5795375 170.642562,88.2238676 L171.442966,87.6945739 L172.329928,87.1141893 L173.262609,86.5128421 L175.299849,85.2217399 L178.163517,83.4232533 L179.6994,82.4463212 L180.528863,81.9100878 C185.348474,78.7729468 189.069556,75.91596 193.035219,72.1155016 C194.747954,70.474117 194.045573,68.5289353 192.268194,67.3626957 C191.63387,66.9464794 190.855018,66.580571 189.794046,66.1763718 L189.186528,65.9515695 L188.51809,65.7159772 L185.688875,64.7502311 L185.328587,64.6200252 L185.107612,64.5310372 L184.779535,64.3667512 C184.547077,64.2458968 184.311591,64.1211899 184.072245,63.9921975 L183.341797,63.5919304 C183.217849,63.522932 183.092728,63.4527539 182.966332,63.3813421 L182.191805,62.9376316 L181.381664,62.4617102 L180.530927,61.9509789 L179.634612,61.4028386 L178.687737,60.8146904 L177.05186,59.7821827 L172.240266,56.7144325 L170.505484,55.6277629 L169.279607,54.8795602 L168.554628,54.4499562 L167.876053,54.0593942 L167.220381,53.6938891 L166.256689,53.176877 C162.837823,51.3796493 160.38333,50.6275587 158.384628,51.1655672 L158.139617,51.2376666 L157.863854,51.3302269 L157.557813,51.4429525 L157.221967,51.5755475 L156.85679,51.7277164 L156.462756,51.8991634 L155.818632,52.1918334 L154.863221,52.6467734 L153.800905,53.1735029 L152.635475,53.7696564 L151.370718,54.432868 L149.655868,55.3525792 L147.799143,56.3687519 L145.807943,57.4767658 L142.808437,59.1734808 L140.990424,60.2149071 L138.629811,61.5803048 L136.997621,62.5329982 L135.404467,63.469723 L133.122928,64.8236674 L130.504714,66.3988501 L128.52777,67.6095446 L127.561353,68.211966 L126.924905,68.6147869 L126.205067,69.0799281 L125.644884,69.4552641 L125.337727,69.6728616 C125.309227,69.6938455 125.282639,69.7137433 125.257997,69.7325334 C123.502698,71.0710462 123.288532,73.1437257 124.903196,74.6668071 L125.07058,74.817297 C125.997274,75.6125283 127.469223,76.2918148 129.56496,76.9592028 L129.744,77.015 L130.370649,77.3829778 L131.855895,78.2718653 L133.940406,79.539727 L141.326856,84.1111597 Z M144.717165,81.5016528 L143.801331,80.9415524 L138.940475,77.9189086 L135.750044,75.9578281 L133.390271,74.5267537 L132.253536,73.8496054 L131.353104,73.3259338 L130.84394,73.1683829 C129.981066,72.8949789 129.275369,72.6301703 128.738734,72.3897022 L128.566,72.31 L129.407769,71.7729731 L130.646186,71.0006855 L132.44881,69.8978131 L135.279244,68.1956954 L138.04194,66.5588932 L140.959985,64.8526182 L143.839858,63.1914529 L145.910573,62.0119231 L147.882516,60.9017912 L150.102669,59.6699462 L152.466791,58.3846116 L153.990241,57.5755211 L154.832841,57.1366377 L155.867898,56.6085632 L156.345922,56.3698894 L157.011555,56.0446964 L157.799345,55.6744432 L158.312256,55.4459882 L158.615739,55.3178722 L158.887618,55.2095678 C158.930257,55.1931901 158.97155,55.1776543 159.011481,55.1629687 L159.234608,55.085124 C159.269032,55.0738723 159.302065,55.0634873 159.333691,55.0539773 L159.424335,55.0280805 C159.589662,54.9835779 159.779056,54.9660997 159.996934,54.9777307 L160.190766,54.9948777 C160.224268,54.9989398 160.258377,55.0036082 160.293106,55.0088889 L160.509025,55.0479693 L160.740441,55.1020368 C160.780336,55.1123132 160.820903,55.1232262 160.862154,55.1347819 L161.117975,55.211877 L161.39084,55.3046886 L161.681366,55.4135085 L161.990172,55.5386284 L162.489009,55.7575091 L162.84622,55.9246556 L163.420562,56.2079439 L163.830042,56.4189407 L164.261513,56.6479881 L164.951301,57.0260425 L165.694045,57.4463521 L166.49183,57.9099018 L167.644771,58.5969323 L168.904221,59.3649187 L170.275125,60.2161954 L172.153025,61.4009739 L175.291119,63.4024051 L176.570835,64.2086098 L177.550519,64.817063 L178.4799,65.3852576 C178.630906,65.4767573 178.780041,65.5666961 178.92742,65.6551325 L179.791503,66.1681864 C179.932303,66.2508458 180.071572,66.3321192 180.209421,66.4120651 L181.020396,66.8762749 C181.285647,67.026012 181.546126,67.1709049 181.802735,67.3114202 L182.561856,67.7202993 C182.686743,67.7864125 182.810887,67.8515478 182.934403,67.9157637 C183.217997,68.0632044 183.544565,68.2069219 183.940801,68.3615319 L184.451434,68.5532276 L185.361992,68.8715675 L187.217491,69.4986227 L187.497991,69.5964405 C188.030169,69.7838262 188.485423,69.9549626 188.86906,70.1129024 L189.183,70.247 L189.143054,70.2849979 C185.980654,73.2010981 182.89431,75.5563646 179.072223,78.0819824 L178.079762,78.7311042 L176.35159,79.8364941 L172.121844,82.4971479 L171.101985,83.1465783 L170.148356,83.7614619 L169.239323,84.356316 L168.79477,84.6507686 C164.589613,87.4476745 160.934492,88.9353694 158.95409,88.2509574 C153.766844,86.4582848 149.69737,84.4854838 144.717165,81.5016528 Z" id="Path-8" fill="#424141" fill-rule="nonzero"></path>
        <path d="M57.3268556,56.1111597 L57.9219749,56.4867201 C63.4612971,59.8529975 67.9166469,62.0510035 73.6475432,64.0315574 C77.2204105,65.266313 81.5182936,63.5795375 86.6425619,60.2238676 L87.4429664,59.6945739 L88.3299284,59.1141893 L89.2626091,58.5128421 L91.2998492,57.2217399 L94.1635172,55.4232533 L95.6993999,54.4463212 L96.5288627,53.9100878 C101.348474,50.7729468 105.069556,47.91596 109.035219,44.1155016 C110.747954,42.474117 110.045573,40.5289353 108.268194,39.3626957 C107.63387,38.9464794 106.855018,38.580571 105.794046,38.1763718 L105.186528,37.9515695 L104.51809,37.7159772 L101.688875,36.7502311 L101.328587,36.6200252 L101.107612,36.5310372 L100.779535,36.3667512 C100.547077,36.2458968 100.311591,36.1211899 100.072245,35.9921975 L99.3417969,35.5919304 C99.2178489,35.522932 99.0927284,35.4527539 98.9663316,35.3813421 L98.1918046,34.9376316 L97.3816638,34.4617102 L96.5309271,33.9509789 L95.6346123,33.4028386 L94.6877372,32.8146904 L93.0518605,31.7821827 L88.2402662,28.7144325 L86.505484,27.6277629 L85.2796067,26.8795602 L84.5546283,26.4499562 L83.8760528,26.0593942 L83.2203806,25.6938891 L82.2566885,25.176877 C78.8378227,23.3796493 76.3833301,22.6275587 74.3846282,23.1655672 L74.1396173,23.2376666 L73.8638544,23.3302269 L73.5578132,23.4429525 L73.2219672,23.5755475 L72.8567901,23.7277164 L72.4627556,23.8991634 L71.8186323,24.1918334 L70.8632208,24.6467734 L69.8009052,25.1735029 L68.6354746,25.7696564 L67.3707182,26.432868 L65.6558683,27.3525792 L63.7991432,28.3687519 L61.8079434,29.4767658 L58.8084374,31.1734808 L56.9904241,32.2149071 L54.6298107,33.5803048 L52.9976212,34.5329982 L51.4044665,35.469723 L49.1229281,36.8236674 L46.504714,38.3988501 L44.52777,39.6095446 L43.561353,40.211966 L42.9249049,40.6147869 L42.2050666,41.0799281 L41.6448844,41.4552641 L41.3377268,41.6728616 C41.3092268,41.6938455 41.2826385,41.7137433 41.2579974,41.7325334 C39.5026981,43.0710462 39.2885323,45.1437257 40.9031956,46.6668071 L41.0705802,46.817297 C41.9972738,47.6125283 43.4692232,48.2918148 45.5649596,48.9592028 L45.744,49.015 L46.3706486,49.3829778 L47.8558946,50.2718653 L49.9404065,51.539727 L57.3268556,56.1111597 Z M60.7171652,53.5016528 L59.8013313,52.9415524 L54.9404754,49.9189086 L51.7500444,47.9578281 L49.3902709,46.5267537 L48.2535356,45.8496054 L47.3531038,45.3259338 L46.8439401,45.1683829 C45.9810657,44.8949789 45.2753691,44.6301703 44.7387344,44.3897022 L44.566,44.31 L45.4077686,43.7729731 L46.646186,43.0006855 L48.4488104,41.8978131 L51.2792439,40.1956954 L54.0419399,38.5588932 L56.9599848,36.8526182 L59.8398584,35.1914529 L61.9105727,34.0119231 L63.8825159,32.9017912 L66.1026693,31.6699462 L68.4667908,30.3846116 L69.9902406,29.5755211 L70.8328406,29.1366377 L71.8678983,28.6085632 L72.3459217,28.3698894 L73.011555,28.0446964 L73.7993455,27.6744432 L74.3122558,27.4459882 L74.6157386,27.3178722 L74.8876176,27.2095678 C74.9302572,27.1931901 74.9715501,27.1776543 75.0114813,27.1629687 L75.234608,27.085124 C75.2690324,27.0738723 75.3020653,27.0634873 75.3336915,27.0539773 L75.4243354,27.0280805 C75.5896624,26.9835779 75.7790558,26.9660997 75.996934,26.9777307 L76.1907655,26.9948777 C76.2242678,26.9989398 76.2583771,27.0036082 76.2931064,27.0088889 L76.5090249,27.0479693 L76.7404408,27.1020368 C76.7803359,27.1123132 76.8209025,27.1232262 76.8621535,27.1347819 L77.117975,27.211877 L77.3908397,27.3046886 L77.681366,27.4135085 L77.9901722,27.5386284 L78.4890088,27.7575091 L78.8462199,27.9246556 L79.4205621,28.2079439 L79.8300425,28.4189407 L80.2615126,28.6479881 L80.9513011,29.0260425 L81.6940446,29.4463521 L82.4918299,29.9099018 L83.6447711,30.5969323 L84.9042208,31.3649187 L86.2751254,32.2161954 L88.1530255,33.4009739 L91.2911186,35.4024051 L92.5708346,36.2086098 L93.5505186,36.817063 L94.4798997,37.3852576 C94.6309056,37.4767573 94.7800413,37.5666961 94.9274196,37.6551325 L95.7915033,38.1681864 C95.9323034,38.2508458 96.0715718,38.3321192 96.2094214,38.4120651 L97.0203958,38.8762749 C97.2856472,39.026012 97.546126,39.1709049 97.8027352,39.3114202 L98.5618564,39.7202993 C98.6867427,39.7864125 98.8108873,39.8515478 98.934403,39.9157637 C99.2179974,40.0632044 99.5445653,40.2069219 99.9408013,40.3615319 L100.451434,40.5532276 L101.361992,40.8715675 L103.217491,41.4986227 L103.497991,41.5964405 C104.030169,41.7838262 104.485423,41.9549626 104.86906,42.1129024 L105.183,42.247 L105.143054,42.2849979 C101.980654,45.2010981 98.8943096,47.5563646 95.0722227,50.0819824 L94.0797624,50.7311042 L92.35159,51.8364941 L88.1218443,54.4971479 L87.1019853,55.1465783 L86.1483558,55.7614619 L85.239323,56.356316 L84.79477,56.6507686 C80.5896133,59.4476745 76.9344923,60.9353694 74.9540896,60.2509574 C69.7668435,58.4582848 65.6973695,56.4854838 60.7171652,53.5016528 Z" id="Path-8-Copy" fill="#424141" fill-rule="nonzero"></path>
        <path d="M123.776785,72.3199156 L127.77602,72.3981461 L127.667023,76.9270715 L127.244612,90.968385 L127.14975,94.5216383 L127.077931,97.6803412 L127.035758,100.042554 L127.009721,102.186104 L126.999881,104.13614 L127.003711,105.573739 L127.011588,106.419894 L127.023881,107.214659 L127.050658,108.309418 L127.087525,109.2859 L127.117755,109.870393 L127.152538,110.401141 L127.201924,110.982695 L127.229,111.242 L127.385982,111.263292 C129.980744,111.638626 133.264181,112.859877 137.327339,114.841965 L138.317514,115.33223 L139.33791,115.85145 C139.51051,115.940386 139.68438,116.030516 139.859528,116.121837 L140.92578,116.683999 L141.423491,116.950429 C141.835676,117.172076 142.253774,117.399414 142.679134,117.633091 L143.978351,118.353788 L145.841255,119.409491 L148.185024,120.768965 L154.977635,124.740149 L155.61318,125.101341 L156.45375,125.568334 L157,125.861 L157.049126,125.342029 L157.106562,124.642973 L157.161254,123.877741 L157.237553,122.61368 L157.281953,121.745795 L157.313293,121.058547 L157.369334,119.624667 L157.416298,118.120356 C157.423354,117.864352 157.43002,117.60585 157.436291,117.345069 L157.469133,115.754787 L157.492222,114.12031 C157.498264,113.569284 157.502634,113.012641 157.50529,112.452129 L157.508066,110.760741 L157.50028,109.056638 C157.498087,108.772145 157.495443,108.487558 157.492342,108.203098 L157.47369,107.067491 L157.442129,105.877709 L157.390022,104.421409 L157.259257,101.617812 L156.993676,96.5450211 L156.913657,94.7830698 L156.876785,93.7551471 L156.851893,92.679175 L156.845491,91.9973225 L156.847762,91.127406 L160.847621,91.1609682 L160.847839,92.3047402 L160.861704,93.1318414 L160.888962,94.0496353 L160.941962,95.353453 L161.168994,99.8031744 L161.306328,102.456882 L161.375217,103.977007 L161.419087,105.118268 L161.458174,106.376611 L161.484132,107.577418 C161.487349,107.773335 161.490008,107.967288 161.492104,108.159495 L161.501409,109.14476 L161.511028,111.080607 L161.506093,113.425792 L161.49403,114.787522 L161.467259,116.543704 L161.439123,117.812179 L161.404044,119.035454 L161.346417,120.590751 L161.295013,121.696352 L161.236557,122.746288 L161.171018,123.737419 L161.098363,124.666607 L161.018559,125.53071 L160.961368,126.069071 L160.869577,126.817725 L160.804365,127.276212 L160.735928,127.701122 L160.664255,128.091524 C160.639824,128.215803 160.614852,128.334176 160.589338,128.446488 L160.511166,128.765084 L160.42973,129.046381 C160.332814,129.352442 160.229214,129.580453 160.118862,129.723765 C159.391469,130.668411 158.555967,130.712626 157.591426,130.469251 C157.215209,130.374323 156.796862,130.2121 156.292247,129.978697 L155.934592,129.808375 L155.33435,129.505043 L154.887783,129.269117 L154.141636,128.861577 L153.295911,128.385941 L152.020676,127.647086 L144.04935,122.993394 L143.351062,122.593022 L142.681874,122.213716 L141.385039,121.487748 L140.137119,120.802183 L139.074119,120.229847 L138.181544,119.758798 L137.312307,119.309281 L136.466678,118.88151 L135.644932,118.475697 L134.84734,118.092055 L134.074174,117.730796 L133.325706,117.392133 L132.602209,117.076279 C132.483722,117.025549 132.366287,116.975779 132.249909,116.926972 L131.564378,116.64573 C131.115878,116.465992 130.684479,116.301813 130.270543,116.153479 L129.662782,115.942896 C129.464591,115.876686 129.270812,115.814472 129.081489,115.75629 L128.526936,115.593876 C127.444752,115.29338 126.524641,115.139304 125.776402,115.139304 C124.893834,115.139304 124.278891,114.677387 123.893116,114.058015 C123.715032,113.772096 123.597313,113.46779 123.502675,113.115917 C123.405954,112.7563 123.329646,112.321876 123.267142,111.799383 L123.208994,111.247041 L123.184978,110.972434 L123.141568,110.379664 L123.104214,109.728763 L123.072788,109.019659 L123.04716,108.252282 L123.027205,107.42656 L123.012792,106.542422 L123.001828,105.244358 L123.001828,103.373063 L123.013637,101.7507 L123.035873,100.002585 L123.099797,96.6009571 L123.179804,93.2926625 L123.323912,88.1878619 L123.732417,74.401958 L123.776785,72.3199156 Z" id="Path-9" fill="#424141" fill-rule="nonzero"></path>
        <path d="M39.7767849,44.3199156 L43.7760198,44.3981461 L43.667023,48.9270715 L43.2446116,62.968385 L43.1497505,66.5216383 L43.0779308,69.6803412 L43.0357584,72.0425544 L43.0097213,74.186104 L42.9998807,76.1361397 L43.0037107,77.5737391 L43.0115881,78.4198943 L43.0238805,79.2146588 L43.0506581,80.309418 L43.0875254,81.2858995 L43.1177552,81.8703925 L43.1525385,82.4011405 L43.2019238,82.9826949 L43.229,83.242 L43.385982,83.2632921 C45.9807437,83.6386258 49.264181,84.8598773 53.3273386,86.8419648 L54.3175137,87.3322303 L55.3379097,87.8514505 C55.5105096,87.9403856 55.6843805,88.0305162 55.859528,88.1218369 L56.9257798,88.6839992 L57.4234907,88.9504295 C57.8356759,89.1720762 58.253774,89.399414 58.6791342,89.6330909 L59.9783507,90.3537877 L61.8412547,91.4094909 L64.1850244,92.7689647 L70.9776353,96.7401493 L71.6131805,97.1013409 L72.4537499,97.5683337 L73,97.861 L73.0491255,97.3420285 L73.1065625,96.6429733 L73.1612539,95.8777408 L73.2375529,94.6136803 L73.2819531,93.7457952 L73.3132933,93.0585466 L73.3693343,91.6246672 L73.4162979,90.1203565 C73.4233538,89.8643517 73.4300201,89.6058496 73.4362914,89.3450687 L73.469133,87.7547873 L73.4922225,86.1203095 C73.4982636,85.5692835 73.5026344,85.0126405 73.50529,84.4521294 L73.5080656,82.760741 L73.5002795,81.0566383 C73.4980867,80.7721446 73.4954426,80.4875585 73.4923415,80.2030984 L73.47369,79.0674907 L73.4421285,77.8777087 L73.3900216,76.4214093 L73.2592574,73.6178119 L72.9936762,68.5450211 L72.9136567,66.7830698 L72.8767847,65.7551471 L72.8518934,64.679175 L72.8454907,63.9973225 L72.8477618,63.127406 L76.847621,63.1609682 L76.8478394,64.3047402 L76.8617036,65.1318414 L76.8889622,66.0496353 L76.9419618,67.353453 L77.1689942,71.8031744 L77.3063284,74.4568823 L77.3752171,75.9770067 L77.4190871,77.1182675 L77.4581745,78.3766111 L77.4841321,79.5774176 C77.4873494,79.773335 77.4900085,79.9672885 77.4921038,80.1594945 L77.501409,81.1447599 L77.511028,83.0806073 L77.5060932,85.4257922 L77.49403,86.7875218 L77.4672587,88.5437044 L77.4391228,89.812179 L77.4040443,91.0354542 L77.3464172,92.5907515 L77.2950128,93.6963521 L77.2365573,94.7462879 L77.1710181,95.7374194 L77.0983627,96.6666067 L77.0185585,97.5307103 L76.9613681,98.0690713 L76.869577,98.8177249 L76.8043651,99.2762122 L76.7359277,99.701122 L76.6642552,100.091524 C76.6398241,100.215803 76.6148522,100.334176 76.5893379,100.446488 L76.5111662,100.765084 L76.4297305,101.046381 C76.3328143,101.352442 76.2292143,101.580453 76.1188615,101.723765 C75.3914693,102.668411 74.5559672,102.712626 73.5914257,102.469251 C73.2152092,102.374323 72.7968615,102.2121 72.2922467,101.978697 L71.9345921,101.808375 L71.3343503,101.505043 L70.8877825,101.269117 L70.1416355,100.861577 L69.2959115,100.385941 L68.0206759,99.6470857 L60.0493499,94.9933945 L59.3510623,94.5930216 L58.6818736,94.2137157 L57.3850394,93.4877481 L56.1371195,92.802183 L55.0741194,92.2298472 L54.1815443,91.7587976 L53.3123066,91.3092808 L52.4666784,90.8815097 L51.6449321,90.4756967 L50.8473397,90.0920545 L50.0741736,89.7307958 L49.3257058,89.3921332 L48.6022087,89.0762793 C48.4837219,89.0255495 48.3662868,88.9757789 48.2499092,88.926972 L47.5643785,88.6457298 C47.1158781,88.4659915 46.6844785,88.3018134 46.2705426,88.153479 L45.662782,87.9428956 C45.4645913,87.8766857 45.2708118,87.8144721 45.0814891,87.7562904 L44.5269362,87.593876 C43.4447519,87.2933798 42.5246407,87.1393043 41.7764024,87.1393043 C40.8938343,87.1393043 40.2788913,86.6773869 39.8931161,86.0580147 C39.7150321,85.772096 39.5973129,85.4677904 39.5026746,85.1159168 C39.4059538,84.7563002 39.3296463,84.3218762 39.2671419,83.7993826 L39.2089937,83.2470414 L39.184978,82.9724336 L39.1415684,82.3796639 L39.1042142,81.7287627 L39.0727876,81.019659 L39.0471604,80.2522818 L39.0272047,79.4265599 L39.0127924,78.5424225 L39.0018279,77.2443577 L39.0018279,75.3730629 L39.0136368,73.7506998 L39.0358727,72.0025854 L39.0997974,68.6009571 L39.1798039,65.2926625 L39.3239116,60.1878619 L39.7324167,46.401958 L39.7767849,44.3199156 Z" id="Path-9-Copy" fill="#424141" fill-rule="nonzero"></path>
        <path d="M189.972055,70.1815516 L193.970115,70.0570179 L194.058943,72.7593597 C194.074512,73.2095782 194.090472,73.6600567 194.106834,74.1113139 L194.209928,76.8323542 L194.383926,81.0034397 L194.692818,87.6428252 L195.15307,97.0628426 L195.286104,100.185604 L195.344206,101.880354 L195.378954,103.247916 L195.391816,104.035551 L195.397331,104.763737 L195.395332,105.434691 L195.385653,106.050632 L195.368127,106.613775 L195.342587,107.12634 C195.332719,107.289011 195.321488,107.443622 195.308866,107.590543 C195.24687,108.312181 195.150184,108.881562 194.988811,109.35268 C194.642698,110.363126 193.965527,111.141257 192.714391,111.141257 C192.422446,111.141257 192.1099,111.172567 191.769264,111.238645 L191.470235,111.303879 L191.1564,111.386627 C191.102802,111.401904 191.048543,111.417932 190.993602,111.434719 L190.655592,111.544645 C190.597834,111.564513 190.539349,111.585161 190.480117,111.6066 L190.115573,111.744793 L189.73203,111.902437 C189.666465,111.930359 189.600065,111.959111 189.532807,111.988704 L189.118801,112.176431 L188.683176,112.384818 C188.608712,112.421298 188.533303,112.458659 188.456928,112.496911 L187.98691,112.737197 L187.492652,112.999354 L186.973107,113.283865 L186.144084,113.753607 C186.048547,113.808716 185.951848,113.864807 185.853964,113.92189 L184.940433,114.462691 L183.959395,115.058692 L182.907312,115.711528 L181.105412,116.855931 L172.793615,122.186045 L172.625609,122.292658 C168.666412,124.801926 164.946383,127.079671 161.018038,129.373962 L159.534269,130.235581 L157.53416,126.771543 C161.475693,124.495732 165.157465,122.266044 169.02459,119.835443 L171.951033,117.978646 L180.025372,112.799305 L181.272216,112.016572 L182.436917,111.299869 L183.170455,110.857829 L183.871544,110.443753 L184.541807,110.057088 C184.651039,109.994897 184.759054,109.933826 184.865886,109.873862 L185.492955,109.527276 C185.697426,109.416116 185.897437,109.309294 186.093256,109.206717 L186.668415,108.911634 L187.220053,108.641472 C187.760473,108.383586 188.268048,108.162253 188.750084,107.974983 L189.223878,107.798975 C189.844975,107.579192 190.424998,107.41849 190.981267,107.310969 L191.323,107.251 L191.350074,106.878097 L191.37101,106.458083 L191.385849,105.989886 L191.394633,105.472434 L191.397404,104.904657 L191.394202,104.285481 L191.38507,103.613836 L191.353392,102.253656 L191.310155,100.911408 L191.19137,97.9987389 L190.517949,84.0652028 L190.387695,81.1770648 L190.268552,78.3696135 L190.159947,75.617866 L190.061306,72.8968397 C190.045664,72.4445074 190.030413,71.9924143 190.015542,71.5400398 L189.972055,70.1815516 Z" id="Path-10" fill="#424141" fill-rule="nonzero"></path>
        <path d="M105.972055,42.1815516 L109.970115,42.0570179 L110.058943,44.7593597 C110.074512,45.2095782 110.090472,45.6600567 110.106834,46.1113139 L110.209928,48.8323542 L110.383926,53.0034397 L110.692818,59.6428252 L111.15307,69.0628426 L111.286104,72.185604 L111.344206,73.8803541 L111.378954,75.2479163 L111.391816,76.035551 L111.397331,76.7637369 L111.395332,77.4346912 L111.385653,78.0506316 L111.368127,78.6137753 L111.342587,79.1263399 C111.332719,79.2890112 111.321488,79.4436223 111.308866,79.5905427 C111.24687,80.3121813 111.150184,80.8815622 110.988811,81.3526795 C110.642698,82.3631263 109.965527,83.1412574 108.714391,83.1412574 C108.422446,83.1412574 108.1099,83.1725668 107.769264,83.2386449 L107.470235,83.3038789 L107.1564,83.3866265 C107.102802,83.4019042 107.048543,83.4179317 106.993602,83.4347193 L106.655592,83.5446453 C106.597834,83.5645132 106.539349,83.5851612 106.480117,83.6065995 L106.115573,83.7447932 L105.73203,83.902437 C105.666465,83.9303587 105.600065,83.959111 105.532807,83.988704 L105.118801,84.1764309 L104.683176,84.3848183 C104.608712,84.4212982 104.533303,84.458659 104.456928,84.496911 L103.98691,84.7371969 L103.492652,84.9993537 L102.973107,85.2838654 L102.144084,85.7536074 C102.048547,85.8087164 101.951848,85.8648073 101.853964,85.9218901 L100.940433,86.462691 L99.9593949,87.0586923 L98.9073124,87.7115278 L97.1054124,88.8559314 L88.7936154,94.1860453 L88.6256093,94.2926577 C84.6664116,96.8019257 80.9463834,99.079671 77.0180379,101.373962 L75.5342694,102.235581 L73.5341603,98.7715428 C77.4756931,96.4957322 81.1574654,94.266044 85.0245899,91.8354426 L87.9510325,89.9786462 L96.0253716,84.7993048 L97.2722157,84.0165717 L98.4369167,83.2998692 L99.1704548,82.8578292 L99.8715437,82.4437533 L100.541807,82.0570881 C100.651039,81.9948974 100.759054,81.9338258 100.865886,81.8738617 L101.492955,81.5272756 C101.697426,81.4161156 101.897437,81.3092936 102.093256,81.2067174 L102.668415,80.9116338 L103.220053,80.6414718 C103.760473,80.3835862 104.268048,80.1622531 104.750084,79.9749832 L105.223878,79.7989755 C105.844975,79.5791919 106.424998,79.4184901 106.981267,79.3109694 L107.323,79.251 L107.350074,78.8780968 L107.37101,78.4580826 L107.385849,77.9898858 L107.394633,77.4724344 L107.397404,76.9046569 L107.394202,76.2854814 L107.38507,75.6138363 L107.353392,74.2536562 L107.310155,72.9114082 L107.19137,69.9987389 L106.517949,56.0652028 L106.387695,53.1770648 L106.268552,50.3696135 L106.159947,47.617866 L106.061306,44.8968397 C106.045664,44.4445074 106.030413,43.9924143 106.015542,43.5400398 L105.972055,42.1815516 Z" id="Path-10-Copy" fill="#424141" fill-rule="nonzero"></path>
        <path d="M183.992223,90.1412574 C183.992223,91.2459346 183.0969,92.1412574 181.992223,92.1412574 C180.887546,92.1412574 179.992223,91.2459346 179.992223,90.1412574 C179.992223,89.0365805 180.887546,88.1412574 181.992223,88.1412574 C183.0969,88.1412574 183.992223,89.0365805 183.992223,90.1412574 L183.992223,90.1412574 Z" id="Path" fill="#424141" fill-rule="nonzero"></path>
        <path d="M99.9922227,62.1412574 C99.9922227,63.2459346 99.0968998,64.1412574 97.9922227,64.1412574 C96.8875456,64.1412574 95.9922227,63.2459346 95.9922227,62.1412574 C95.9922227,61.0365805 96.8875456,60.1412574 97.9922227,60.1412574 C99.0968998,60.1412574 99.9922227,61.0365805 99.9922227,62.1412574 L99.9922227,62.1412574 Z" id="Path-Copy-4" fill="#424141" fill-rule="nonzero"></path>
        <path d="M171.992223,107.141257 C171.992223,108.245935 171.0967,109.141257 169.992668,109.141257 C168.887745,109.141257 167.992223,108.245935 167.992223,107.141257 C167.992223,106.036581 168.887745,105.141257 169.992668,105.141257 C171.0967,105.141257 171.992223,106.036581 171.992223,107.141257 L171.992223,107.141257 Z" id="Path" fill="#424141" fill-rule="nonzero"></path>
        <path d="M87.9922227,79.1412574 C87.9922227,80.2459346 87.0967003,81.1412574 85.9926682,81.1412574 C84.887745,81.1412574 83.9922227,80.2459346 83.9922227,79.1412574 C83.9922227,78.0365805 84.887745,77.1412574 85.9926682,77.1412574 C87.0967003,77.1412574 87.9922227,78.0365805 87.9922227,79.1412574 L87.9922227,79.1412574 Z" id="Path-Copy-5" fill="#424141" fill-rule="nonzero"></path>
        <path d="M135.992223,90.1412574 C135.992223,91.2459346 135.0969,92.1412574 133.992223,92.1412574 C132.887546,92.1412574 131.992223,91.2459346 131.992223,90.1412574 C131.992223,89.0365805 132.887546,88.1412574 133.992223,88.1412574 C135.0969,88.1412574 135.992223,89.0365805 135.992223,90.1412574 L135.992223,90.1412574 Z" id="Path" fill="#424141" fill-rule="nonzero"></path>
        <path d="M51.9922227,62.1412574 C51.9922227,63.2459346 51.0968998,64.1412574 49.9922227,64.1412574 C48.8875456,64.1412574 47.9922227,63.2459346 47.9922227,62.1412574 C47.9922227,61.0365805 48.8875456,60.1412574 49.9922227,60.1412574 C51.0968998,60.1412574 51.9922227,61.0365805 51.9922227,62.1412574 L51.9922227,62.1412574 Z" id="Path-Copy-6" fill="#424141" fill-rule="nonzero"></path>
        <path d="M184.992223,101.641257 C184.992223,102.469765 184.320581,103.141257 183.492557,103.141257 C182.663864,103.141257 181.992223,102.469765 181.992223,101.641257 C181.992223,100.81275 182.663864,100.141257 183.492557,100.141257 C184.320581,100.141257 184.992223,100.81275 184.992223,101.641257 L184.992223,101.641257 Z" id="Path" fill="#424141" fill-rule="nonzero"></path>
        <path d="M100.992223,73.6412574 C100.992223,74.4697653 100.320581,75.1412574 99.4925568,75.1412574 C98.6638644,75.1412574 97.9922227,74.4697653 97.9922227,73.6412574 C97.9922227,72.8127497 98.6638644,72.1412574 99.4925568,72.1412574 C100.320581,72.1412574 100.992223,72.8127497 100.992223,73.6412574 L100.992223,73.6412574 Z" id="Path-Copy-7" fill="#424141" fill-rule="nonzero"></path>
        <path d="M167.992223,66.6412574 C167.992223,67.4697653 167.320581,68.1412574 166.492557,68.1412574 C165.663864,68.1412574 164.992223,67.4697653 164.992223,66.6412574 C164.992223,65.8127497 165.663864,65.1412574 166.492557,65.1412574 C167.320581,65.1412574 167.992223,65.8127497 167.992223,66.6412574 L167.992223,66.6412574 Z" id="Path-Copy-3" fill="#424141" fill-rule="nonzero"></path>
        <path d="M83.9922227,38.6412574 C83.9922227,39.4697653 83.3205809,40.1412574 82.4925568,40.1412574 C81.6638644,40.1412574 80.9922227,39.4697653 80.9922227,38.6412574 C80.9922227,37.8127497 81.6638644,37.1412574 82.4925568,37.1412574 C83.3205809,37.1412574 83.9922227,37.8127497 83.9922227,38.6412574 L83.9922227,38.6412574 Z" id="Path-Copy-8" fill="#424141" fill-rule="nonzero"></path>
        <path d="M163.992223,76.1412574 C163.992223,77.2459346 163.0967,78.1412574 161.992668,78.1412574 C160.887745,78.1412574 159.992223,77.2459346 159.992223,76.1412574 C159.992223,75.0365805 160.887745,74.1412574 161.992668,74.1412574 C163.0967,74.1412574 163.992223,75.0365805 163.992223,76.1412574 L163.992223,76.1412574 Z" id="Path-Copy-2" fill="#424141" fill-rule="nonzero"></path>
        <path d="M79.9922227,48.1412574 C79.9922227,49.2459346 79.0967003,50.1412574 77.9926682,50.1412574 C76.887745,50.1412574 75.9922227,49.2459346 75.9922227,48.1412574 C75.9922227,47.0365805 76.887745,46.1412574 77.9926682,46.1412574 C79.0967003,46.1412574 79.9922227,47.0365805 79.9922227,48.1412574 L79.9922227,48.1412574 Z" id="Path-Copy-9" fill="#424141" fill-rule="nonzero"></path>
        <path d="M148.992223,107.141257 C148.992223,108.245935 148.0967,109.141257 146.992668,109.141257 C145.887745,109.141257 144.992223,108.245935 144.992223,107.141257 C144.992223,106.036581 145.887745,105.141257 146.992668,105.141257 C148.0967,105.141257 148.992223,106.036581 148.992223,107.141257 L148.992223,107.141257 Z" id="Path-Copy" fill="#424141" fill-rule="nonzero"></path>
        <path d="M64.9922227,79.1412574 C64.9922227,80.2459346 64.0967003,81.1412574 62.9926682,81.1412574 C61.887745,81.1412574 60.9922227,80.2459346 60.9922227,79.1412574 C60.9922227,78.0365805 61.887745,77.1412574 62.9926682,77.1412574 C64.0967003,77.1412574 64.9922227,78.0365805 64.9922227,79.1412574 L64.9922227,79.1412574 Z" id="Path-Copy-10" fill="#424141" fill-rule="nonzero"></path>
        <path d="M146.992223,70.1412574 C146.992223,71.2459346 146.0967,72.1412574 144.991777,72.1412574 C143.887745,72.1412574 142.992223,71.2459346 142.992223,70.1412574 C142.992223,69.0365805 143.887745,68.1412574 144.991777,68.1412574 C146.0967,68.1412574 146.992223,69.0365805 146.992223,70.1412574 Z" id="Path" fill="#424141" fill-rule="nonzero"></path>
        <path d="M62.9922227,42.1412574 C62.9922227,43.2459346 62.0967003,44.1412574 60.9917772,44.1412574 C59.887745,44.1412574 58.9922227,43.2459346 58.9922227,42.1412574 C58.9922227,41.0365805 59.887745,40.1412574 60.9917772,40.1412574 C62.0967003,40.1412574 62.9922227,41.0365805 62.9922227,42.1412574 Z" id="Path-Copy-11" fill="#424141" fill-rule="nonzero"></path>
    </g>
</svg>